<svg xmlns="http://www.w3.org/2000/svg" xmlns:xlink="http://www.w3.org/1999/xlink" width="500" zoomAndPan="magnify" viewBox="0 0 375 374.999991" height="500" preserveAspectRatio="xMidYMid meet" version="1.0"><defs><clipPath id="416d76b3bb"><path d="M 35 298 L 375 298 L 375 333.234375 L 35 333.234375 Z M 35 298 " clip-rule="nonzero"/></clipPath><clipPath id="beb72e3c86"><path d="M 141 41.484375 L 269 41.484375 L 269 136 L 141 136 Z M 141 41.484375 " clip-rule="nonzero"/></clipPath><clipPath id="c9d678a7b8"><path d="M 185 41.484375 L 225 41.484375 L 225 102 L 185 102 Z M 185 41.484375 " clip-rule="nonzero"/></clipPath></defs><g clip-path="url(#416d76b3bb)"><path fill="#6abded" d="M 357.15625 333.558594 L 53 333.558594 C 43.238281 333.558594 35.292969 325.613281 35.292969 315.851562 C 35.292969 306.09375 43.238281 298.148438 53 298.148438 L 357.15625 298.148438 C 366.917969 298.148438 374.859375 306.09375 374.859375 315.851562 C 374.859375 325.613281 366.917969 333.558594 357.15625 333.558594 Z M 53 306.628906 C 47.910156 306.628906 43.773438 310.765625 43.773438 315.851562 C 43.773438 320.941406 47.910156 325.078125 53 325.078125 L 357.15625 325.078125 C 362.242188 325.078125 366.382812 320.941406 366.382812 315.851562 C 366.382812 310.765625 362.242188 306.628906 357.15625 306.628906 Z M 53 306.628906 " fill-opacity="1" fill-rule="nonzero"/></g><path fill="#6abded" d="M 230.023438 306.628906 C 227.683594 306.628906 225.785156 304.726562 225.785156 302.386719 L 225.785156 221.078125 L 100.519531 221.078125 C 98.179688 221.078125 96.277344 219.179688 96.277344 216.839844 C 96.277344 214.5 98.179688 212.597656 100.519531 212.597656 L 230.023438 212.597656 C 232.363281 212.597656 234.265625 214.5 234.265625 216.839844 L 234.265625 302.386719 C 234.265625 304.726562 232.363281 306.628906 230.023438 306.628906 Z M 61.308594 306.628906 C 58.96875 306.628906 57.070312 304.726562 57.070312 302.386719 L 57.070312 230.304688 C 57.070312 227.964844 58.96875 226.0625 61.308594 226.0625 C 63.648438 226.0625 65.550781 227.964844 65.550781 230.304688 L 65.550781 302.386719 C 65.550781 304.726562 63.65625 306.628906 61.308594 306.628906 Z M 61.308594 306.628906 " fill-opacity="1" fill-rule="nonzero"/><path fill="#6abded" d="M 161.113281 272.566406 L 130.222656 272.566406 C 127.882812 272.566406 125.980469 270.667969 125.980469 268.324219 L 125.980469 216.839844 C 125.980469 214.5 127.882812 212.597656 130.222656 212.597656 C 132.5625 212.597656 134.460938 214.5 134.460938 216.839844 L 134.460938 264.085938 L 156.871094 264.085938 L 156.871094 216.839844 C 156.871094 214.5 158.773438 212.597656 161.113281 212.597656 C 163.453125 212.597656 165.351562 214.5 165.351562 216.839844 L 165.351562 268.324219 C 165.351562 270.667969 163.460938 272.566406 161.113281 272.566406 Z M 161.113281 272.566406 " fill-opacity="1" fill-rule="nonzero"/><path fill="#6abded" d="M 348.839844 306.628906 C 346.496094 306.628906 344.597656 304.726562 344.597656 302.386719 L 344.597656 221.078125 L 234.265625 221.078125 L 234.265625 302.386719 C 234.265625 304.726562 232.363281 306.628906 230.023438 306.628906 C 227.683594 306.628906 225.785156 304.726562 225.785156 302.386719 L 225.785156 216.839844 C 225.785156 214.5 227.683594 212.597656 230.023438 212.597656 L 348.839844 212.597656 C 351.179688 212.597656 353.078125 214.5 353.078125 216.839844 L 353.078125 302.386719 C 353.078125 304.726562 351.179688 306.628906 348.839844 306.628906 Z M 348.839844 306.628906 " fill-opacity="1" fill-rule="nonzero"/><path fill="#6abded" d="M 304.878906 272.566406 L 273.988281 272.566406 C 271.648438 272.566406 269.75 270.667969 269.75 268.324219 L 269.75 216.839844 C 269.75 214.5 271.648438 212.597656 273.988281 212.597656 C 276.332031 212.597656 278.230469 214.5 278.230469 216.839844 L 278.230469 264.085938 L 300.640625 264.085938 L 300.640625 216.839844 C 300.640625 214.5 302.539062 212.597656 304.878906 212.597656 C 307.222656 212.597656 309.121094 214.5 309.121094 216.839844 L 309.121094 268.324219 C 309.121094 270.667969 307.222656 272.566406 304.878906 272.566406 Z M 304.878906 272.566406 " fill-opacity="1" fill-rule="nonzero"/><path fill="#6abded" d="M 205.078125 221.078125 C 202.738281 221.078125 200.839844 219.179688 200.839844 216.839844 L 200.839844 135.53125 L 100.527344 135.53125 C 98.1875 135.53125 96.285156 133.628906 96.285156 131.289062 C 96.285156 128.949219 98.1875 127.050781 100.527344 127.050781 L 205.078125 127.050781 C 207.417969 127.050781 209.316406 128.949219 209.316406 131.289062 L 209.316406 216.839844 C 209.316406 219.179688 207.417969 221.078125 205.078125 221.078125 Z M 205.078125 221.078125 " fill-opacity="1" fill-rule="nonzero"/><path fill="#6abded" d="M 161.113281 187.023438 L 130.222656 187.023438 C 127.882812 187.023438 125.980469 185.125 125.980469 182.785156 L 125.980469 131.296875 C 125.980469 128.957031 127.882812 127.058594 130.222656 127.058594 C 132.5625 127.058594 134.460938 128.957031 134.460938 131.296875 L 134.460938 178.546875 L 156.871094 178.546875 L 156.871094 131.296875 C 156.871094 128.957031 158.773438 127.058594 161.113281 127.058594 C 163.453125 127.058594 165.351562 128.957031 165.351562 131.296875 L 165.351562 182.785156 C 165.351562 185.125 163.460938 187.023438 161.113281 187.023438 Z M 161.113281 187.023438 " fill-opacity="1" fill-rule="nonzero"/><path fill="#6abded" d="M 323.890625 221.078125 C 321.550781 221.078125 319.652344 219.179688 319.652344 216.839844 L 319.652344 135.53125 L 209.316406 135.53125 L 209.316406 216.839844 C 209.316406 219.179688 207.417969 221.078125 205.078125 221.078125 C 202.738281 221.078125 200.839844 219.179688 200.839844 216.839844 L 200.839844 131.296875 C 200.839844 128.957031 202.738281 127.058594 205.078125 127.058594 L 323.890625 127.058594 C 326.230469 127.058594 328.132812 128.957031 328.132812 131.296875 L 328.132812 216.839844 C 328.132812 219.179688 326.230469 221.078125 323.890625 221.078125 Z M 323.890625 221.078125 " fill-opacity="1" fill-rule="nonzero"/><path fill="#6abded" d="M 279.925781 187.023438 L 249.035156 187.023438 C 246.695312 187.023438 244.796875 185.125 244.796875 182.785156 L 244.796875 131.296875 C 244.796875 128.957031 246.695312 127.058594 249.035156 127.058594 C 251.375 127.058594 253.273438 128.957031 253.273438 131.296875 L 253.273438 178.546875 L 275.6875 178.546875 L 275.6875 131.296875 C 275.6875 128.957031 277.585938 127.058594 279.925781 127.058594 C 282.265625 127.058594 284.164062 128.957031 284.164062 131.296875 L 284.164062 182.785156 C 284.164062 185.125 282.265625 187.023438 279.925781 187.023438 Z M 279.925781 187.023438 " fill-opacity="1" fill-rule="nonzero"/><g clip-path="url(#beb72e3c86)"><path fill="#6abded" d="M 264.484375 135.539062 C 262.144531 135.539062 260.246094 133.640625 260.246094 131.296875 L 260.246094 49.988281 L 149.910156 49.988281 L 149.910156 131.296875 C 149.910156 133.640625 148.011719 135.539062 145.671875 135.539062 C 143.332031 135.539062 141.429688 133.640625 141.429688 131.296875 L 141.429688 45.75 C 141.429688 43.410156 143.332031 41.511719 145.671875 41.511719 L 264.484375 41.511719 C 266.824219 41.511719 268.722656 43.410156 268.722656 45.75 L 268.722656 131.296875 C 268.722656 133.640625 266.824219 135.539062 264.484375 135.539062 Z M 264.484375 135.539062 " fill-opacity="1" fill-rule="nonzero"/></g><g clip-path="url(#c9d678a7b8)"><path fill="#6abded" d="M 220.519531 101.476562 L 189.628906 101.476562 C 187.289062 101.476562 185.386719 99.578125 185.386719 97.238281 L 185.386719 45.75 C 185.386719 43.410156 187.289062 41.511719 189.628906 41.511719 C 191.96875 41.511719 193.867188 43.410156 193.867188 45.75 L 193.867188 92.996094 L 216.277344 92.996094 L 216.277344 45.75 C 216.277344 43.410156 218.179688 41.511719 220.519531 41.511719 C 222.859375 41.511719 224.757812 43.410156 224.757812 45.75 L 224.757812 97.238281 C 224.757812 99.578125 222.859375 101.476562 220.519531 101.476562 Z M 220.519531 101.476562 " fill-opacity="1" fill-rule="nonzero"/></g><path fill="#6abded" d="M 100.519531 234.542969 L 11.019531 234.542969 C 8.675781 234.542969 6.777344 232.644531 6.777344 230.304688 L 6.777344 137.769531 C 6.777344 135.429688 8.675781 133.527344 11.019531 133.527344 C 13.359375 133.527344 15.257812 135.429688 15.257812 137.769531 L 15.257812 226.0625 L 96.285156 226.0625 L 96.285156 115.644531 L 46.96875 115.644531 C 44.628906 115.644531 42.730469 113.746094 42.730469 111.40625 C 42.730469 109.066406 44.628906 107.164062 46.96875 107.164062 L 100.527344 107.164062 C 102.867188 107.164062 104.765625 109.066406 104.765625 111.40625 L 104.765625 230.3125 C 104.757812 232.644531 102.867188 234.542969 100.519531 234.542969 Z M 100.519531 234.542969 " fill-opacity="1" fill-rule="nonzero"/><path fill="#6abded" d="M 80.320312 140.632812 L 44.027344 140.632812 C 41.6875 140.632812 39.789062 138.734375 39.789062 136.394531 C 39.789062 134.054688 41.6875 132.15625 44.027344 132.15625 L 80.320312 132.15625 C 82.660156 132.15625 84.558594 134.054688 84.558594 136.394531 C 84.558594 138.734375 82.667969 140.632812 80.320312 140.632812 Z M 80.320312 140.632812 " fill-opacity="1" fill-rule="nonzero"/><path fill="#6abded" d="M 80.320312 163.605469 L 31.214844 163.605469 C 28.875 163.605469 26.976562 161.707031 26.976562 159.367188 C 26.976562 157.023438 28.875 155.125 31.214844 155.125 L 80.328125 155.125 C 82.667969 155.125 84.566406 157.023438 84.566406 159.367188 C 84.566406 161.707031 82.667969 163.605469 80.320312 163.605469 Z M 80.320312 163.605469 " fill-opacity="1" fill-rule="nonzero"/><path fill="#6abded" d="M 80.320312 186.574219 L 31.214844 186.574219 C 28.875 186.574219 26.976562 184.675781 26.976562 182.335938 C 26.976562 179.996094 28.875 178.097656 31.214844 178.097656 L 80.328125 178.097656 C 82.667969 178.097656 84.566406 179.996094 84.566406 182.335938 C 84.566406 184.675781 82.667969 186.574219 80.320312 186.574219 Z M 80.320312 186.574219 " fill-opacity="1" fill-rule="nonzero"/><path fill="#6abded" d="M 80.320312 209.546875 L 31.214844 209.546875 C 28.875 209.546875 26.976562 207.648438 26.976562 205.308594 C 26.976562 202.964844 28.875 201.066406 31.214844 201.066406 L 80.328125 201.066406 C 82.667969 201.066406 84.566406 202.964844 84.566406 205.308594 C 84.566406 207.648438 82.667969 209.546875 80.320312 209.546875 Z M 80.320312 209.546875 " fill-opacity="1" fill-rule="nonzero"/><path fill="#6abded" d="M 26.882812 148.527344 C 12.09375 148.527344 0.0703125 136.496094 0.0703125 121.714844 C 0.0703125 106.9375 12.101562 94.90625 26.882812 94.90625 C 41.664062 94.90625 53.695312 106.9375 53.695312 121.714844 C 53.695312 136.496094 41.671875 148.527344 26.882812 148.527344 Z M 26.882812 103.382812 C 16.773438 103.382812 8.550781 111.609375 8.550781 121.714844 C 8.550781 131.824219 16.773438 140.050781 26.882812 140.050781 C 36.992188 140.050781 45.214844 131.824219 45.214844 121.714844 C 45.214844 111.609375 37 103.382812 26.882812 103.382812 Z M 26.882812 103.382812 " fill-opacity="1" fill-rule="nonzero"/><path fill="#6abded" d="M 22.558594 132.113281 C 21.429688 132.113281 20.355469 131.664062 19.554688 130.875 L 14.417969 125.734375 C 12.765625 124.082031 12.765625 121.394531 14.417969 119.742188 C 16.070312 118.085938 18.757812 118.085938 20.414062 119.742188 L 22.550781 121.878906 L 31.859375 112.566406 C 33.515625 110.914062 36.203125 110.914062 37.855469 112.566406 C 39.507812 114.222656 39.507812 116.910156 37.855469 118.5625 L 25.550781 130.867188 C 24.761719 131.664062 23.6875 132.113281 22.558594 132.113281 Z M 22.558594 132.113281 " fill-opacity="1" fill-rule="nonzero"/></svg>