<svg xmlns="http://www.w3.org/2000/svg" xmlns:xlink="http://www.w3.org/1999/xlink" width="500" zoomAndPan="magnify" viewBox="0 0 375 374.999991" height="500" preserveAspectRatio="xMidYMid meet" version="1.0"><defs><clipPath id="dc45b82f62"><path d="M 59 0 L 353.316406 0 L 353.316406 375 L 59 375 Z M 59 0 " clip-rule="nonzero"/></clipPath><clipPath id="067802f051"><path d="M 21.816406 100 L 166 100 L 166 238 L 21.816406 238 Z M 21.816406 100 " clip-rule="nonzero"/></clipPath></defs><g clip-path="url(#dc45b82f62)"><path fill="#6abded" d="M 353.121094 306.25 L 353.121094 6.25 C 353.121094 2.5 350.621094 0 346.871094 0 L 65.621094 0 C 61.871094 0 59.371094 2.5 59.371094 6.25 L 59.371094 93.75 L 71.871094 93.75 L 71.871094 12.5 L 340.621094 12.5 L 340.621094 300 L 284.371094 300 C 280.621094 300 278.121094 302.5 278.121094 306.25 L 278.121094 362.5 L 71.871094 362.5 L 71.871094 268.75 L 59.371094 268.75 L 59.371094 368.75 C 59.371094 372.5 61.871094 375 65.621094 375 L 284.371094 375 C 286.246094 375 287.496094 374.375 288.746094 373.125 L 351.246094 310.625 C 351.871094 310 351.871094 309.375 352.496094 308.75 L 352.496094 308.125 C 353.121094 307.5 353.121094 306.875 353.121094 306.25 Z M 290.621094 312.5 L 331.871094 312.5 L 290.621094 353.75 Z M 290.621094 312.5 " fill-opacity="1" fill-rule="nonzero"/></g><g clip-path="url(#067802f051)"><path fill="#6abded" d="M 103.121094 237.5 L 165.621094 237.5 L 165.621094 225 L 146.871094 225 L 146.871094 106.25 C 146.871094 102.5 144.371094 100 140.621094 100 L 103.121094 100 C 99.371094 100 96.871094 102.5 96.871094 106.25 L 96.871094 143.75 L 65.621094 143.75 C 61.871094 143.75 59.371094 146.25 59.371094 150 L 59.371094 175 L 28.121094 175 C 24.371094 175 21.871094 177.5 21.871094 181.25 L 21.871094 231.25 C 21.871094 235 24.371094 237.5 28.121094 237.5 Z M 109.371094 112.5 L 134.371094 112.5 L 134.371094 225 L 109.371094 225 Z M 71.871094 156.25 L 96.871094 156.25 L 96.871094 225 L 71.871094 225 Z M 34.371094 187.5 L 59.371094 187.5 L 59.371094 225 L 34.371094 225 Z M 34.371094 187.5 " fill-opacity="1" fill-rule="nonzero"/></g><path fill="#6abded" d="M 315.621094 150 L 315.621094 43.75 C 315.621094 40 313.121094 37.5 309.371094 37.5 L 178.121094 37.5 C 174.371094 37.5 171.871094 40 171.871094 43.75 L 171.871094 150 C 171.871094 153.75 174.371094 156.25 178.121094 156.25 L 309.371094 156.25 C 313.121094 156.25 315.621094 153.75 315.621094 150 Z M 303.121094 75 L 228.121094 75 L 228.121094 50 L 303.121094 50 Z M 215.621094 50 L 215.621094 75 L 184.371094 75 C 184.371094 65 184.371094 50 184.371094 50 Z M 184.371094 87.5 L 215.621094 87.5 L 215.621094 143.75 L 184.371094 143.75 C 184.371094 143.75 184.371094 114.375 184.371094 87.5 Z M 228.121094 143.75 L 228.121094 87.5 L 303.121094 87.5 L 303.121094 143.75 Z M 228.121094 143.75 " fill-opacity="1" fill-rule="nonzero"/><path fill="#6abded" d="M 178.121094 175 L 309.371094 175 L 309.371094 187.5 L 178.121094 187.5 Z M 178.121094 175 " fill-opacity="1" fill-rule="nonzero"/><path fill="#6abded" d="M 178.121094 206.25 L 309.371094 206.25 L 309.371094 218.75 L 178.121094 218.75 Z M 178.121094 206.25 " fill-opacity="1" fill-rule="nonzero"/><path fill="#6abded" d="M 178.121094 237.5 L 309.371094 237.5 L 309.371094 250 L 178.121094 250 Z M 178.121094 237.5 " fill-opacity="1" fill-rule="nonzero"/><path fill="#6abded" d="M 90.621094 37.5 L 128.121094 37.5 L 128.121094 50 L 90.621094 50 Z M 90.621094 37.5 " fill-opacity="1" fill-rule="nonzero"/><path fill="#6abded" d="M 90.621094 68.75 L 146.871094 68.75 L 146.871094 81.25 L 90.621094 81.25 Z M 90.621094 68.75 " fill-opacity="1" fill-rule="nonzero"/><path fill="#6abded" d="M 90.621094 268.75 L 134.371094 268.75 L 134.371094 281.25 L 90.621094 281.25 Z M 90.621094 268.75 " fill-opacity="1" fill-rule="nonzero"/><path fill="#6abded" d="M 153.121094 268.75 L 196.871094 268.75 L 196.871094 281.25 L 153.121094 281.25 Z M 153.121094 268.75 " fill-opacity="1" fill-rule="nonzero"/><path fill="#6abded" d="M 215.621094 268.75 L 259.371094 268.75 L 259.371094 281.25 L 215.621094 281.25 Z M 215.621094 268.75 " fill-opacity="1" fill-rule="nonzero"/><path fill="#6abded" d="M 90.621094 300 L 134.371094 300 L 134.371094 312.5 L 90.621094 312.5 Z M 90.621094 300 " fill-opacity="1" fill-rule="nonzero"/><path fill="#6abded" d="M 153.121094 300 L 196.871094 300 L 196.871094 312.5 L 153.121094 312.5 Z M 153.121094 300 " fill-opacity="1" fill-rule="nonzero"/><path fill="#6abded" d="M 215.621094 300 L 259.371094 300 L 259.371094 312.5 L 215.621094 312.5 Z M 215.621094 300 " fill-opacity="1" fill-rule="nonzero"/><path fill="#6abded" d="M 90.621094 331.25 L 134.371094 331.25 L 134.371094 343.75 L 90.621094 343.75 Z M 90.621094 331.25 " fill-opacity="1" fill-rule="nonzero"/><path fill="#6abded" d="M 153.121094 331.25 L 196.871094 331.25 L 196.871094 343.75 L 153.121094 343.75 Z M 153.121094 331.25 " fill-opacity="1" fill-rule="nonzero"/><path fill="#6abded" d="M 215.621094 331.25 L 259.371094 331.25 L 259.371094 343.75 L 215.621094 343.75 Z M 215.621094 331.25 " fill-opacity="1" fill-rule="nonzero"/></svg>