<svg xmlns="http://www.w3.org/2000/svg" xmlns:xlink="http://www.w3.org/1999/xlink" width="500" zoomAndPan="magnify" viewBox="0 0 375 374.999991" height="500" preserveAspectRatio="xMidYMid meet" version="1.0"><defs><clipPath id="97200a27e4"><path d="M 36.09375 198 L 339 198 L 339 370.492188 L 36.09375 370.492188 Z M 36.09375 198 " clip-rule="nonzero"/></clipPath></defs><path fill="#6abded" d="M 187.472656 183.574219 C 189.011719 183.574219 190.550781 183.535156 192.089844 183.460938 C 193.628906 183.386719 195.164062 183.273438 196.695312 183.121094 C 198.226562 182.96875 199.753906 182.78125 201.277344 182.554688 C 202.800781 182.332031 204.316406 182.066406 205.828125 181.765625 C 207.335938 181.464844 208.839844 181.128906 210.332031 180.753906 C 211.828125 180.378906 213.308594 179.96875 214.785156 179.523438 C 216.257812 179.078125 217.71875 178.59375 219.167969 178.074219 C 220.617188 177.554688 222.054688 177.003906 223.476562 176.414062 C 224.898438 175.824219 226.304688 175.199219 227.699219 174.542969 C 229.089844 173.882812 230.464844 173.191406 231.820312 172.464844 C 233.179688 171.738281 234.519531 170.980469 235.839844 170.1875 C 237.160156 169.398438 238.460938 168.574219 239.742188 167.71875 C 241.019531 166.863281 242.28125 165.976562 243.515625 165.058594 C 244.753906 164.144531 245.964844 163.195312 247.15625 162.21875 C 248.347656 161.242188 249.511719 160.238281 250.652344 159.203125 C 251.792969 158.167969 252.910156 157.109375 253.996094 156.019531 C 255.085938 154.929688 256.148438 153.816406 257.183594 152.675781 C 258.214844 151.535156 259.222656 150.367188 260.199219 149.179688 C 261.175781 147.988281 262.121094 146.773438 263.039062 145.539062 C 263.957031 144.300781 264.84375 143.042969 265.699219 141.761719 C 266.554688 140.480469 267.375 139.183594 268.167969 137.863281 C 268.960938 136.539062 269.71875 135.203125 270.445312 133.84375 C 271.167969 132.484375 271.863281 131.109375 272.519531 129.71875 C 273.179688 128.328125 273.800781 126.921875 274.390625 125.496094 C 274.980469 124.074219 275.535156 122.640625 276.054688 121.1875 C 276.570312 119.738281 277.054688 118.277344 277.5 116.804688 C 277.949219 115.332031 278.359375 113.847656 278.734375 112.355469 C 279.105469 110.859375 279.445312 109.359375 279.746094 107.847656 C 280.046875 106.339844 280.308594 104.824219 280.535156 103.300781 C 280.761719 101.777344 280.949219 100.25 281.101562 98.714844 C 281.25 97.183594 281.363281 95.648438 281.4375 94.113281 C 281.515625 92.574219 281.550781 91.035156 281.550781 89.496094 C 281.550781 87.957031 281.515625 86.417969 281.4375 84.878906 C 281.363281 83.339844 281.25 81.804688 281.101562 80.273438 C 280.949219 78.742188 280.761719 77.214844 280.535156 75.691406 C 280.308594 74.167969 280.046875 72.652344 279.746094 71.140625 C 279.445312 69.632812 279.109375 68.128906 278.734375 66.636719 C 278.359375 65.144531 277.949219 63.660156 277.5 62.1875 C 277.054688 60.710938 276.570312 59.25 276.054688 57.800781 C 275.535156 56.351562 274.980469 54.914062 274.390625 53.492188 C 273.800781 52.070312 273.179688 50.664062 272.519531 49.273438 C 271.863281 47.878906 271.171875 46.503906 270.445312 45.148438 C 269.71875 43.789062 268.960938 42.449219 268.167969 41.128906 C 267.375 39.808594 266.554688 38.507812 265.699219 37.226562 C 264.84375 35.949219 263.957031 34.691406 263.039062 33.453125 C 262.121094 32.214844 261.175781 31.003906 260.199219 29.8125 C 259.222656 28.621094 258.214844 27.457031 257.183594 26.316406 C 256.148438 25.175781 255.085938 24.0625 254 22.972656 C 252.910156 21.882812 251.796875 20.820312 250.652344 19.789062 C 249.511719 18.753906 248.347656 17.75 247.15625 16.773438 C 245.96875 15.796875 244.753906 14.847656 243.515625 13.929688 C 242.28125 13.011719 241.023438 12.128906 239.742188 11.273438 C 238.460938 10.417969 237.160156 9.59375 235.839844 8.800781 C 234.519531 8.011719 233.179688 7.25 231.824219 6.527344 C 230.464844 5.800781 229.089844 5.109375 227.699219 4.449219 C 226.308594 3.789062 224.898438 3.167969 223.476562 2.578125 C 222.054688 1.988281 220.617188 1.433594 219.167969 0.917969 C 217.71875 0.398438 216.257812 -0.0859375 214.785156 -0.53125 C 213.3125 -0.980469 211.828125 -1.390625 210.335938 -1.765625 C 208.839844 -2.136719 207.339844 -2.476562 205.828125 -2.777344 C 204.320312 -3.078125 202.800781 -3.339844 201.28125 -3.566406 C 199.757812 -3.792969 198.230469 -3.980469 196.695312 -4.128906 C 195.164062 -4.28125 193.628906 -4.394531 192.089844 -4.46875 C 190.554688 -4.546875 189.015625 -4.582031 187.476562 -4.582031 C 185.933594 -4.582031 184.398438 -4.546875 182.859375 -4.46875 C 181.320312 -4.394531 179.785156 -4.28125 178.253906 -4.132812 C 176.722656 -3.980469 175.195312 -3.792969 173.671875 -3.566406 C 172.148438 -3.339844 170.632812 -3.078125 169.121094 -2.777344 C 167.609375 -2.476562 166.109375 -2.140625 164.617188 -1.765625 C 163.121094 -1.390625 161.640625 -0.980469 160.164062 -0.535156 C 158.691406 -0.0859375 157.230469 0.394531 155.78125 0.914062 C 154.332031 1.433594 152.894531 1.988281 151.472656 2.578125 C 150.050781 3.167969 148.644531 3.789062 147.25 4.449219 C 145.859375 5.105469 144.484375 5.796875 143.125 6.523438 C 141.769531 7.25 140.429688 8.007812 139.109375 8.800781 C 137.789062 9.589844 136.488281 10.414062 135.207031 11.269531 C 133.925781 12.125 132.667969 13.011719 131.433594 13.929688 C 130.195312 14.847656 128.980469 15.792969 127.792969 16.769531 C 126.601562 17.746094 125.4375 18.753906 124.296875 19.785156 C 123.15625 20.820312 122.039062 21.882812 120.949219 22.96875 C 119.863281 24.058594 118.800781 25.171875 117.765625 26.3125 C 116.734375 27.453125 115.726562 28.621094 114.75 29.8125 C 113.773438 31 112.828125 32.214844 111.910156 33.449219 C 110.992188 34.6875 110.105469 35.945312 109.25 37.226562 C 108.394531 38.507812 107.570312 39.804688 106.78125 41.128906 C 105.988281 42.449219 105.230469 43.785156 104.503906 45.144531 C 103.777344 46.503906 103.085938 47.878906 102.429688 49.269531 C 101.769531 50.660156 101.144531 52.066406 100.558594 53.492188 C 99.96875 54.914062 99.414062 56.347656 98.894531 57.800781 C 98.375 59.25 97.894531 60.710938 97.445312 62.183594 C 97 63.65625 96.589844 65.140625 96.214844 66.632812 C 95.839844 68.128906 95.503906 69.628906 95.203125 71.140625 C 94.902344 72.648438 94.640625 74.164062 94.414062 75.6875 C 94.1875 77.210938 94 78.738281 93.847656 80.273438 C 93.695312 81.804688 93.582031 83.339844 93.507812 84.875 C 93.433594 86.414062 93.394531 87.953125 93.394531 89.492188 C 93.394531 91.03125 93.4375 92.570312 93.511719 94.109375 C 93.589844 95.644531 93.703125 97.179688 93.855469 98.710938 C 94.007812 100.242188 94.199219 101.769531 94.425781 103.292969 C 94.652344 104.816406 94.917969 106.332031 95.21875 107.839844 C 95.519531 109.347656 95.859375 110.851562 96.234375 112.34375 C 96.609375 113.835938 97.019531 115.320312 97.46875 116.792969 C 97.917969 118.265625 98.398438 119.726562 98.917969 121.171875 C 99.4375 122.621094 99.992188 124.058594 100.582031 125.480469 C 101.171875 126.902344 101.796875 128.308594 102.457031 129.699219 C 103.113281 131.089844 103.808594 132.464844 104.535156 133.820312 C 105.257812 135.179688 106.019531 136.515625 106.808594 137.835938 C 107.601562 139.15625 108.425781 140.457031 109.28125 141.738281 C 110.136719 143.015625 111.023438 144.273438 111.941406 145.511719 C 112.855469 146.746094 113.804688 147.960938 114.78125 149.148438 C 115.757812 150.339844 116.761719 151.503906 117.796875 152.644531 C 118.832031 153.785156 119.890625 154.898438 120.980469 155.988281 C 122.066406 157.074219 123.183594 158.136719 124.324219 159.171875 C 125.464844 160.203125 126.628906 161.210938 127.816406 162.1875 C 129.007812 163.164062 130.21875 164.109375 131.457031 165.027344 C 132.691406 165.945312 133.949219 166.832031 135.230469 167.6875 C 136.511719 168.542969 137.808594 169.367188 139.128906 170.15625 C 140.449219 170.949219 141.789062 171.707031 143.144531 172.433594 C 144.503906 173.160156 145.875 173.851562 147.269531 174.511719 C 148.660156 175.171875 150.066406 175.792969 151.488281 176.382812 C 152.910156 176.972656 154.34375 177.527344 155.792969 178.046875 C 157.242188 178.566406 158.703125 179.050781 160.175781 179.5 C 161.648438 179.949219 163.128906 180.359375 164.625 180.734375 C 166.117188 181.109375 167.617188 181.449219 169.125 181.75 C 170.636719 182.050781 172.152344 182.316406 173.675781 182.542969 C 175.195312 182.769531 176.722656 182.960938 178.253906 183.113281 C 179.785156 183.265625 181.320312 183.378906 182.859375 183.457031 C 184.394531 183.535156 185.933594 183.574219 187.472656 183.574219 Z M 187.472656 11.6875 C 188.746094 11.6875 190.019531 11.71875 191.292969 11.78125 C 192.5625 11.84375 193.832031 11.9375 195.101562 12.0625 C 196.367188 12.1875 197.632812 12.34375 198.890625 12.527344 C 200.152344 12.714844 201.40625 12.933594 202.652344 13.183594 C 203.902344 13.429688 205.144531 13.710938 206.378906 14.019531 C 207.617188 14.328125 208.84375 14.667969 210.0625 15.035156 C 211.28125 15.40625 212.488281 15.804688 213.6875 16.234375 C 214.886719 16.664062 216.074219 17.121094 217.25 17.609375 C 218.425781 18.097656 219.589844 18.613281 220.742188 19.15625 C 221.894531 19.703125 223.03125 20.273438 224.152344 20.875 C 225.277344 21.472656 226.386719 22.101562 227.476562 22.757812 C 228.570312 23.410156 229.644531 24.09375 230.703125 24.800781 C 231.761719 25.507812 232.804688 26.238281 233.828125 27 C 234.847656 27.757812 235.851562 28.539062 236.835938 29.347656 C 237.820312 30.15625 238.785156 30.988281 239.730469 31.84375 C 240.671875 32.699219 241.59375 33.574219 242.496094 34.476562 C 243.394531 35.375 244.273438 36.300781 245.128906 37.242188 C 245.984375 38.1875 246.816406 39.148438 247.625 40.132812 C 248.433594 41.117188 249.214844 42.121094 249.972656 43.144531 C 250.730469 44.167969 251.464844 45.207031 252.171875 46.269531 C 252.878906 47.328125 253.5625 48.402344 254.214844 49.496094 C 254.871094 50.585938 255.5 51.695312 256.097656 52.816406 C 256.699219 53.941406 257.269531 55.078125 257.816406 56.230469 C 258.359375 57.378906 258.875 58.542969 259.363281 59.71875 C 259.851562 60.898438 260.308594 62.085938 260.738281 63.285156 C 261.167969 64.484375 261.566406 65.691406 261.9375 66.910156 C 262.304688 68.128906 262.644531 69.355469 262.953125 70.589844 C 263.265625 71.824219 263.542969 73.066406 263.792969 74.316406 C 264.039062 75.566406 264.257812 76.820312 264.445312 78.082031 C 264.632812 79.339844 264.789062 80.601562 264.910156 81.871094 C 265.035156 83.136719 265.128906 84.40625 265.191406 85.679688 C 265.253906 86.953125 265.285156 88.222656 265.285156 89.496094 C 265.285156 90.769531 265.253906 92.042969 265.191406 93.316406 C 265.128906 94.585938 265.035156 95.855469 264.910156 97.125 C 264.789062 98.390625 264.632812 99.65625 264.445312 100.914062 C 264.257812 102.175781 264.039062 103.429688 263.792969 104.679688 C 263.542969 105.925781 263.265625 107.167969 262.953125 108.40625 C 262.644531 109.640625 262.304688 110.867188 261.9375 112.085938 C 261.566406 113.304688 261.167969 114.511719 260.738281 115.710938 C 260.308594 116.910156 259.851562 118.097656 259.363281 119.273438 C 258.875 120.453125 258.359375 121.617188 257.816406 122.765625 C 257.269531 123.917969 256.699219 125.054688 256.097656 126.179688 C 255.5 127.300781 254.871094 128.410156 254.214844 129.5 C 253.5625 130.59375 252.878906 131.667969 252.171875 132.726562 C 251.464844 133.785156 250.730469 134.828125 249.972656 135.851562 C 249.214844 136.875 248.429688 137.875 247.625 138.859375 C 246.816406 139.84375 245.984375 140.808594 245.128906 141.753906 C 244.273438 142.695312 243.394531 143.617188 242.496094 144.519531 C 241.59375 145.417969 240.671875 146.296875 239.730469 147.152344 C 238.785156 148.007812 237.820312 148.839844 236.835938 149.648438 C 235.851562 150.453125 234.847656 151.238281 233.828125 151.996094 C 232.804688 152.753906 231.761719 153.488281 230.703125 154.195312 C 229.644531 154.902344 228.570312 155.585938 227.476562 156.238281 C 226.386719 156.894531 225.277344 157.519531 224.152344 158.121094 C 223.03125 158.722656 221.894531 159.292969 220.742188 159.839844 C 219.589844 160.382812 218.425781 160.898438 217.25 161.386719 C 216.074219 161.875 214.886719 162.332031 213.6875 162.761719 C 212.488281 163.191406 211.28125 163.589844 210.0625 163.957031 C 208.84375 164.328125 207.617188 164.667969 206.378906 164.976562 C 205.144531 165.285156 203.902344 165.566406 202.652344 165.8125 C 201.40625 166.0625 200.152344 166.28125 198.890625 166.464844 C 197.632812 166.652344 196.367188 166.808594 195.101562 166.933594 C 193.832031 167.058594 192.5625 167.152344 191.292969 167.214844 C 190.019531 167.277344 188.746094 167.308594 187.472656 167.308594 C 186.199219 167.308594 184.925781 167.277344 183.65625 167.214844 C 182.382812 167.152344 181.113281 167.058594 179.847656 166.933594 C 178.578125 166.808594 177.316406 166.652344 176.054688 166.464844 C 174.796875 166.277344 173.542969 166.0625 172.292969 165.8125 C 171.042969 165.5625 169.800781 165.285156 168.566406 164.976562 C 167.332031 164.667969 166.105469 164.328125 164.886719 163.957031 C 163.667969 163.585938 162.457031 163.1875 161.257812 162.757812 C 160.0625 162.328125 158.871094 161.871094 157.695312 161.382812 C 156.519531 160.898438 155.355469 160.382812 154.203125 159.835938 C 153.054688 159.292969 151.917969 158.71875 150.792969 158.117188 C 149.671875 157.519531 148.5625 156.890625 147.46875 156.238281 C 146.378906 155.582031 145.300781 154.902344 144.242188 154.191406 C 143.183594 153.484375 142.144531 152.753906 141.121094 151.992188 C 140.097656 151.234375 139.09375 150.453125 138.109375 149.644531 C 137.125 148.835938 136.164062 148.003906 135.21875 147.148438 C 134.273438 146.292969 133.351562 145.417969 132.453125 144.515625 C 131.550781 143.613281 130.675781 142.691406 129.820312 141.75 C 128.964844 140.804688 128.132812 139.84375 127.324219 138.855469 C 126.515625 137.871094 125.734375 136.871094 124.976562 135.847656 C 124.21875 134.824219 123.484375 133.78125 122.777344 132.722656 C 122.070312 131.664062 121.386719 130.589844 120.734375 129.496094 C 120.078125 128.40625 119.453125 127.296875 118.851562 126.171875 C 118.25 125.050781 117.679688 123.914062 117.132812 122.761719 C 116.589844 121.609375 116.074219 120.445312 115.585938 119.269531 C 115.097656 118.09375 114.640625 116.90625 114.210938 115.707031 C 113.785156 114.507812 113.382812 113.300781 113.015625 112.082031 C 112.644531 110.863281 112.304688 109.636719 111.996094 108.398438 C 111.6875 107.164062 111.40625 105.921875 111.160156 104.671875 C 110.910156 103.425781 110.695312 102.171875 110.507812 100.910156 C 110.320312 99.652344 110.164062 98.386719 110.039062 97.121094 C 109.914062 95.851562 109.820312 94.582031 109.757812 93.3125 C 109.695312 92.039062 109.664062 90.765625 109.664062 89.492188 C 109.667969 88.21875 109.699219 86.949219 109.761719 85.675781 C 109.828125 84.40625 109.921875 83.136719 110.046875 81.871094 C 110.175781 80.601562 110.332031 79.339844 110.519531 78.082031 C 110.707031 76.820312 110.925781 75.566406 111.175781 74.320312 C 111.425781 73.070312 111.703125 71.828125 112.015625 70.59375 C 112.324219 69.359375 112.664062 68.132812 113.035156 66.917969 C 113.40625 65.699219 113.804688 64.492188 114.234375 63.292969 C 114.664062 62.09375 115.125 60.90625 115.613281 59.730469 C 116.101562 58.554688 116.617188 57.390625 117.160156 56.242188 C 117.707031 55.089844 118.277344 53.953125 118.878906 52.832031 C 119.480469 51.710938 120.105469 50.601562 120.761719 49.511719 C 121.417969 48.417969 122.097656 47.34375 122.804688 46.285156 C 123.511719 45.226562 124.246094 44.1875 125.003906 43.164062 C 125.761719 42.144531 126.546875 41.140625 127.355469 40.15625 C 128.160156 39.171875 128.992188 38.210938 129.847656 37.265625 C 130.703125 36.324219 131.582031 35.402344 132.480469 34.5 C 133.382812 33.601562 134.304688 32.722656 135.246094 31.867188 C 136.1875 31.011719 137.152344 30.183594 138.136719 29.375 C 139.121094 28.566406 140.125 27.785156 141.144531 27.023438 C 142.167969 26.265625 143.207031 25.535156 144.265625 24.824219 C 145.324219 24.117188 146.398438 23.4375 147.492188 22.78125 C 148.582031 22.128906 149.691406 21.5 150.8125 20.898438 C 151.933594 20.300781 153.070312 19.726562 154.222656 19.179688 C 155.371094 18.636719 156.535156 18.121094 157.710938 17.632812 C 158.886719 17.144531 160.074219 16.6875 161.273438 16.257812 C 162.472656 15.828125 163.679688 15.425781 164.898438 15.058594 C 166.113281 14.6875 167.339844 14.347656 168.574219 14.035156 C 169.808594 13.726562 171.050781 13.445312 172.300781 13.195312 C 173.546875 12.945312 174.800781 12.726562 176.0625 12.539062 C 177.320312 12.351562 178.582031 12.195312 179.851562 12.070312 C 181.117188 11.945312 182.386719 11.847656 183.65625 11.785156 C 184.929688 11.722656 186.199219 11.6875 187.472656 11.6875 Z M 187.472656 11.6875 " fill-opacity="1" fill-rule="nonzero"/><g clip-path="url(#97200a27e4)"><path fill="#6abded" d="M 187.472656 198.566406 C 185.003906 198.570312 182.539062 198.632812 180.074219 198.757812 C 177.609375 198.878906 175.148438 199.0625 172.695312 199.308594 C 170.238281 199.554688 167.789062 199.855469 165.347656 200.222656 C 162.910156 200.585938 160.476562 201.011719 158.058594 201.492188 C 155.636719 201.976562 153.230469 202.519531 150.839844 203.121094 C 148.445312 203.722656 146.066406 204.382812 143.707031 205.101562 C 141.34375 205.816406 139.003906 206.59375 136.679688 207.425781 C 134.359375 208.257812 132.054688 209.148438 129.777344 210.09375 C 127.496094 211.039062 125.242188 212.039062 123.011719 213.097656 C 120.78125 214.152344 118.578125 215.261719 116.402344 216.425781 C 114.226562 217.589844 112.082031 218.808594 109.964844 220.078125 C 107.847656 221.347656 105.765625 222.667969 103.710938 224.039062 C 101.660156 225.410156 99.644531 226.832031 97.664062 228.300781 C 95.679688 229.773438 93.734375 231.289062 91.828125 232.855469 C 89.921875 234.421875 88.054688 236.035156 86.226562 237.691406 C 84.394531 239.347656 82.609375 241.050781 80.863281 242.796875 C 79.121094 244.539062 77.417969 246.328125 75.761719 248.15625 C 74.105469 249.984375 72.492188 251.851562 70.925781 253.757812 C 69.359375 255.667969 67.84375 257.609375 66.371094 259.59375 C 64.902344 261.574219 63.480469 263.589844 62.109375 265.644531 C 60.738281 267.695312 59.417969 269.777344 58.148438 271.894531 C 56.878906 274.011719 55.660156 276.15625 54.496094 278.332031 C 53.332031 280.507812 52.222656 282.710938 51.164062 284.941406 C 50.109375 287.171875 49.109375 289.425781 48.164062 291.707031 C 47.21875 293.984375 46.328125 296.289062 45.496094 298.609375 C 44.660156 300.933594 43.886719 303.273438 43.167969 305.636719 C 42.449219 307.996094 41.789062 310.375 41.1875 312.769531 C 40.585938 315.160156 40.046875 317.566406 39.5625 319.988281 C 39.078125 322.40625 38.652344 324.839844 38.289062 327.277344 C 37.925781 329.71875 37.621094 332.167969 37.375 334.625 C 37.132812 337.078125 36.949219 339.539062 36.824219 342.003906 C 36.703125 344.46875 36.636719 346.933594 36.636719 349.402344 C 36.636719 350.09375 36.667969 350.785156 36.734375 351.472656 C 36.804688 352.160156 36.90625 352.84375 37.039062 353.519531 C 37.171875 354.199219 37.339844 354.871094 37.542969 355.53125 C 37.742188 356.191406 37.976562 356.84375 38.238281 357.480469 C 38.503906 358.121094 38.800781 358.746094 39.125 359.355469 C 39.449219 359.964844 39.804688 360.554688 40.1875 361.132812 C 40.574219 361.707031 40.984375 362.261719 41.421875 362.796875 C 41.863281 363.328125 42.324219 363.839844 42.816406 364.328125 C 43.304688 364.820312 43.816406 365.28125 44.347656 365.722656 C 44.882812 366.160156 45.4375 366.570312 46.011719 366.953125 C 46.589844 367.339844 47.179688 367.695312 47.789062 368.019531 C 48.398438 368.34375 49.023438 368.640625 49.664062 368.90625 C 50.300781 369.167969 50.953125 369.402344 51.613281 369.601562 C 52.277344 369.800781 52.945312 369.96875 53.625 370.105469 C 54.300781 370.238281 54.984375 370.339844 55.671875 370.40625 C 56.359375 370.472656 57.050781 370.507812 57.742188 370.507812 L 317.191406 370.507812 C 318.828125 370.503906 320.441406 370.3125 322.03125 369.933594 C 323.625 369.554688 325.152344 369.003906 326.613281 368.273438 C 328.078125 367.539062 329.4375 366.652344 330.699219 365.609375 C 331.957031 364.5625 333.078125 363.386719 334.066406 362.082031 C 335.445312 360.257812 336.496094 358.257812 337.222656 356.085938 C 337.945312 353.917969 338.304688 351.6875 338.300781 349.398438 C 338.296875 346.929688 338.234375 344.464844 338.109375 342 C 337.988281 339.535156 337.800781 337.074219 337.558594 334.621094 C 337.3125 332.164062 337.007812 329.714844 336.644531 327.277344 C 336.28125 324.835938 335.855469 322.40625 335.375 319.984375 C 334.890625 317.566406 334.347656 315.160156 333.746094 312.765625 C 333.144531 310.371094 332.484375 307.996094 331.765625 305.632812 C 331.046875 303.273438 330.273438 300.933594 329.441406 298.609375 C 328.609375 296.285156 327.71875 293.984375 326.773438 291.707031 C 325.828125 289.425781 324.828125 287.171875 323.769531 284.941406 C 322.714844 282.710938 321.605469 280.507812 320.441406 278.332031 C 319.277344 276.15625 318.058594 274.011719 316.789062 271.894531 C 315.519531 269.777344 314.199219 267.695312 312.828125 265.644531 C 311.457031 263.59375 310.035156 261.574219 308.566406 259.59375 C 307.09375 257.613281 305.578125 255.667969 304.011719 253.761719 C 302.445312 251.851562 300.835938 249.984375 299.175781 248.15625 C 297.519531 246.328125 295.820312 244.542969 294.074219 242.796875 C 292.328125 241.050781 290.542969 239.351562 288.714844 237.695312 C 286.886719 236.035156 285.019531 234.425781 283.109375 232.859375 C 281.203125 231.292969 279.257812 229.773438 277.277344 228.304688 C 275.296875 226.835938 273.277344 225.414062 271.226562 224.042969 C 269.175781 222.671875 267.09375 221.347656 264.976562 220.082031 C 262.859375 218.8125 260.714844 217.59375 258.539062 216.429688 C 256.363281 215.265625 254.160156 214.15625 251.929688 213.097656 C 249.699219 212.042969 247.445312 211.042969 245.164062 210.097656 C 242.886719 209.152344 240.585938 208.261719 238.261719 207.429688 C 235.941406 206.59375 233.597656 205.820312 231.238281 205.101562 C 228.875 204.382812 226.5 203.722656 224.105469 203.121094 C 221.714844 202.519531 219.304688 201.976562 216.886719 201.496094 C 214.46875 201.011719 212.035156 200.585938 209.597656 200.222656 C 207.15625 199.859375 204.707031 199.554688 202.25 199.308594 C 199.796875 199.066406 197.335938 198.882812 194.871094 198.757812 C 192.40625 198.632812 189.941406 198.570312 187.472656 198.566406 Z M 321.074219 352.316406 C 320.617188 352.921875 320.046875 353.394531 319.367188 353.734375 C 318.683594 354.074219 317.960938 354.242188 317.199219 354.238281 L 57.75 354.238281 C 56.898438 354.242188 56.101562 354.03125 55.359375 353.609375 C 54.617188 353.191406 54.027344 352.613281 53.59375 351.878906 C 53.132812 351.113281 52.90625 350.289062 52.914062 349.398438 C 52.921875 347.203125 52.984375 345.007812 53.101562 342.8125 C 53.21875 340.621094 53.390625 338.433594 53.613281 336.246094 C 53.835938 334.0625 54.113281 331.882812 54.445312 329.710938 C 54.777344 327.539062 55.160156 325.378906 55.59375 323.226562 C 56.03125 321.074219 56.519531 318.933594 57.0625 316.804688 C 57.605469 314.675781 58.195312 312.5625 58.839844 310.460938 C 59.484375 308.363281 60.183594 306.28125 60.929688 304.214844 C 61.675781 302.148438 62.472656 300.101562 63.320312 298.078125 C 64.167969 296.050781 65.0625 294.046875 66.007812 292.0625 C 66.953125 290.082031 67.945312 288.121094 68.988281 286.1875 C 70.027344 284.253906 71.113281 282.347656 72.25 280.464844 C 73.382812 278.585938 74.5625 276.734375 75.789062 274.910156 C 77.015625 273.085938 78.28125 271.296875 79.59375 269.535156 C 80.910156 267.773438 82.261719 266.046875 83.660156 264.351562 C 85.058594 262.65625 86.496094 260.996094 87.976562 259.375 C 89.453125 257.75 90.972656 256.164062 92.527344 254.613281 C 94.082031 253.0625 95.675781 251.550781 97.308594 250.082031 C 98.9375 248.609375 100.601562 247.179688 102.304688 245.789062 C 104.003906 244.398438 105.738281 243.050781 107.503906 241.746094 C 109.269531 240.4375 111.066406 239.175781 112.894531 237.960938 C 114.722656 236.742188 116.582031 235.570312 118.464844 234.445312 C 120.351562 233.316406 122.261719 232.238281 124.203125 231.207031 C 126.140625 230.171875 128.101562 229.1875 130.089844 228.25 C 132.074219 227.316406 134.085938 226.425781 136.113281 225.589844 C 138.144531 224.75 140.195312 223.960938 142.261719 223.222656 C 144.332031 222.484375 146.417969 221.800781 148.519531 221.164062 C 150.621094 220.527344 152.738281 219.945312 154.867188 219.410156 C 157 218.878906 159.140625 218.398438 161.296875 217.972656 C 163.449219 217.542969 165.613281 217.171875 167.789062 216.847656 C 169.960938 216.527344 172.140625 216.257812 174.324219 216.042969 C 176.511719 215.828125 178.699219 215.667969 180.894531 215.5625 C 183.089844 215.453125 185.28125 215.398438 187.480469 215.398438 C 189.675781 215.398438 191.871094 215.453125 194.066406 215.5625 C 196.257812 215.667969 198.449219 215.828125 200.632812 216.042969 C 202.820312 216.257812 205 216.527344 207.171875 216.847656 C 209.34375 217.171875 211.507812 217.542969 213.664062 217.972656 C 215.816406 218.398438 217.960938 218.878906 220.089844 219.410156 C 222.222656 219.945312 224.339844 220.527344 226.441406 221.164062 C 228.542969 221.800781 230.628906 222.484375 232.695312 223.222656 C 234.765625 223.960938 236.816406 224.75 238.84375 225.589844 C 240.875 226.425781 242.882812 227.316406 244.871094 228.25 C 246.855469 229.1875 248.820312 230.171875 250.757812 231.207031 C 252.695312 232.238281 254.609375 233.316406 256.492188 234.445312 C 258.378906 235.570312 260.234375 236.742188 262.0625 237.960938 C 263.890625 239.175781 265.6875 240.4375 267.457031 241.746094 C 269.222656 243.050781 270.957031 244.398438 272.65625 245.789062 C 274.355469 247.179688 276.019531 248.609375 277.652344 250.082031 C 279.28125 251.550781 280.875 253.0625 282.433594 254.613281 C 283.988281 256.164062 285.503906 257.75 286.984375 259.375 C 288.464844 260.996094 289.902344 262.65625 291.296875 264.351562 C 292.695312 266.046875 294.050781 267.773438 295.363281 269.535156 C 296.675781 271.296875 297.945312 273.085938 299.171875 274.910156 C 300.394531 276.734375 301.574219 278.585938 302.710938 280.464844 C 303.84375 282.347656 304.933594 284.253906 305.972656 286.1875 C 307.011719 288.121094 308.007812 290.082031 308.953125 292.0625 C 309.898438 294.046875 310.792969 296.050781 311.640625 298.078125 C 312.488281 300.101562 313.285156 302.148438 314.03125 304.214844 C 314.777344 306.28125 315.472656 308.363281 316.117188 310.460938 C 316.761719 312.5625 317.355469 314.675781 317.898438 316.804688 C 318.4375 318.933594 318.925781 321.074219 319.363281 323.226562 C 319.800781 325.378906 320.183594 327.539062 320.515625 329.710938 C 320.84375 331.882812 321.121094 334.0625 321.347656 336.246094 C 321.570312 338.433594 321.738281 340.621094 321.855469 342.8125 C 321.972656 345.007812 322.035156 347.203125 322.046875 349.398438 C 322.042969 350.476562 321.71875 351.445312 321.066406 352.304688 Z M 321.074219 352.316406 " fill-opacity="1" fill-rule="nonzero"/></g></svg>