<svg xmlns="http://www.w3.org/2000/svg" xmlns:xlink="http://www.w3.org/1999/xlink" width="500" zoomAndPan="magnify" viewBox="0 0 375 374.999991" height="500" preserveAspectRatio="xMidYMid meet" version="1.0"><defs><clipPath id="a39be2c54c"><path d="M 73 69.167969 L 305.136719 69.167969 L 305.136719 374.730469 L 73 374.730469 Z M 73 69.167969 " clip-rule="nonzero"/></clipPath><clipPath id="85a5579a41"><path d="M 69.84375 85 L 114 85 L 114 102 L 69.84375 102 Z M 69.84375 85 " clip-rule="nonzero"/></clipPath></defs><g clip-path="url(#a39be2c54c)"><path fill="#6abded" d="M 289.035156 308.464844 L 289.046875 308.464844 Z M 102.753906 222.808594 C 99.804688 222.808594 96.832031 223.742188 94.3125 225.671875 C 89.140625 229.625 87.402344 236.769531 90.179688 242.652344 C 100.449219 264.429688 119.710938 303.816406 133.277344 322.878906 L 133.570312 323.289062 C 149.394531 345.773438 175.199219 359.242188 202.617188 359.359375 L 202.984375 359.359375 C 220.332031 359.359375 237.015625 354.152344 251.222656 344.300781 C 265.042969 334.714844 275.613281 321.429688 281.796875 305.867188 L 282.382812 304.050781 C 287.277344 288.226562 289.761719 266.621094 289.761719 239.84375 L 289.765625 204.179688 C 289.765625 198.226562 284.921875 193.386719 278.96875 193.386719 L 278.492188 193.386719 C 272.203125 193.386719 267.082031 198.441406 267.035156 204.671875 L 267.035156 237.835938 C 267.035156 242.082031 263.59375 245.523438 259.347656 245.523438 C 255.101562 245.523438 251.664062 242.082031 251.664062 237.835938 L 251.664062 204.75 C 251.664062 204.703125 251.664062 204.660156 251.664062 204.617188 L 251.664062 187.371094 C 251.664062 181.109375 246.566406 176.007812 240.300781 176.007812 C 234.035156 176.007812 228.9375 181.109375 228.9375 187.371094 L 228.9375 221.796875 C 228.9375 226.039062 225.496094 229.480469 221.25 229.480469 C 217.003906 229.480469 213.5625 226.039062 213.5625 221.796875 L 213.5625 174.003906 C 213.5625 167.738281 208.464844 162.640625 202.203125 162.640625 C 195.933594 162.640625 190.839844 167.738281 190.839844 174.003906 L 190.667969 210.800781 C 190.644531 215.035156 187.210938 218.453125 182.980469 218.453125 C 182.976562 218.453125 182.972656 218.453125 182.964844 218.453125 C 178.730469 218.445312 175.300781 215.011719 175.292969 210.773438 L 175.164062 95.574219 C 175.164062 89.613281 170.324219 84.769531 164.371094 84.769531 L 163.890625 84.769531 C 157.578125 84.769531 152.4375 89.867188 152.4375 96.132812 L 152.4375 252.875 C 152.4375 256.101562 150.421875 258.984375 147.394531 260.09375 C 144.367188 261.203125 140.96875 260.308594 138.886719 257.847656 L 113.375 227.730469 C 110.632812 224.488281 106.710938 222.808594 102.753906 222.808594 Z M 202.972656 374.730469 L 202.574219 374.730469 C 170.167969 374.601562 139.683594 358.683594 121.015625 332.164062 L 120.746094 331.78125 C 106.496094 311.753906 86.765625 271.453125 76.273438 249.214844 C 70.429688 236.816406 74.089844 221.78125 84.976562 213.457031 C 97.382812 203.972656 115.011719 205.878906 125.101562 217.792969 L 137.0625 231.910156 L 137.0625 96.132812 C 137.0625 81.390625 149.097656 69.398438 163.890625 69.398438 L 164.371094 69.398438 C 178.796875 69.398438 190.535156 81.136719 190.535156 95.5625 L 190.597656 149.917969 C 194.109375 148.21875 198.046875 147.265625 202.203125 147.265625 C 213.464844 147.265625 223.125 154.269531 227.058594 164.152344 C 230.960938 161.914062 235.484375 160.636719 240.300781 160.636719 C 252.832031 160.636719 263.378906 169.304688 266.257812 180.957031 C 269.929688 179.078125 274.089844 178.011719 278.492188 178.011719 L 278.96875 178.011719 C 293.398438 178.011719 305.136719 189.753906 305.136719 204.179688 L 305.136719 239.84375 C 305.136719 268.191406 302.417969 291.335938 297.054688 308.644531 C 297.046875 308.671875 297.039062 308.699219 297.027344 308.726562 L 296.351562 310.820312 C 296.304688 310.976562 296.246094 311.128906 296.1875 311.28125 C 288.898438 329.777344 276.378906 345.5625 259.980469 356.9375 C 243.1875 368.578125 223.476562 374.730469 202.972656 374.730469 " fill-opacity="1" fill-rule="nonzero"/></g><g clip-path="url(#85a5579a41)"><path fill="#6abded" d="M 105.605469 101.203125 L 77.53125 101.203125 C 73.285156 101.203125 69.84375 97.761719 69.84375 93.515625 C 69.84375 89.269531 73.285156 85.832031 77.53125 85.832031 L 105.605469 85.832031 C 109.851562 85.832031 113.289062 89.269531 113.289062 93.515625 C 113.289062 97.761719 109.851562 101.203125 105.605469 101.203125 " fill-opacity="1" fill-rule="nonzero"/></g><path fill="#6abded" d="M 123.703125 60.070312 C 121.742188 60.070312 119.777344 59.324219 118.277344 57.832031 L 98.394531 38.011719 C 95.386719 35.015625 95.378906 30.148438 98.375 27.140625 C 101.371094 24.132812 106.238281 24.128906 109.246094 27.125 L 129.132812 46.941406 C 132.136719 49.9375 132.144531 54.804688 129.148438 57.8125 C 127.648438 59.320312 125.675781 60.070312 123.703125 60.070312 " fill-opacity="1" fill-rule="nonzero"/><path fill="#6abded" d="M 165.558594 43.714844 C 161.328125 43.714844 157.890625 40.292969 157.871094 36.054688 L 157.777344 7.984375 C 157.761719 3.734375 161.191406 0.28125 165.4375 0.269531 C 165.445312 0.269531 165.453125 0.269531 165.464844 0.269531 C 169.695312 0.269531 173.136719 3.691406 173.152344 7.929688 L 173.246094 36.003906 C 173.261719 40.25 169.832031 43.699219 165.585938 43.714844 C 165.578125 43.714844 165.570312 43.714844 165.558594 43.714844 " fill-opacity="1" fill-rule="nonzero"/><path fill="#6abded" d="M 206.753906 61.675781 C 204.796875 61.675781 202.84375 60.933594 201.34375 59.453125 C 198.328125 56.464844 198.300781 51.597656 201.289062 48.582031 L 221.039062 28.628906 C 224.027344 25.613281 228.890625 25.585938 231.910156 28.574219 C 234.925781 31.558594 234.953125 36.425781 231.964844 39.445312 L 212.214844 59.394531 C 210.710938 60.914062 208.730469 61.675781 206.753906 61.675781 " fill-opacity="1" fill-rule="nonzero"/><path fill="#6abded" d="M 223.25 103.472656 C 219.027344 103.472656 215.59375 100.070312 215.566406 95.839844 C 215.535156 91.597656 218.953125 88.128906 223.199219 88.101562 L 251.273438 87.910156 C 251.289062 87.910156 251.308594 87.90625 251.328125 87.90625 C 255.546875 87.90625 258.984375 91.316406 259.011719 95.542969 C 259.042969 99.789062 255.625 103.253906 251.378906 103.285156 L 223.304688 103.472656 C 223.285156 103.472656 223.269531 103.472656 223.25 103.472656 " fill-opacity="1" fill-rule="nonzero"/></svg>