<svg xmlns="http://www.w3.org/2000/svg" xmlns:xlink="http://www.w3.org/1999/xlink" width="500" zoomAndPan="magnify" viewBox="0 0 375 374.999991" height="500" preserveAspectRatio="xMidYMid meet" version="1.0"><defs><clipPath id="21c1a1f8e4"><path d="M 32 247 L 87 247 L 87 323.25 L 32 323.25 Z M 32 247 " clip-rule="nonzero"/></clipPath><clipPath id="d147e61659"><path d="M 287 132 L 343 132 L 343 323.25 L 287 323.25 Z M 287 132 " clip-rule="nonzero"/></clipPath><clipPath id="80da61e1e9"><path d="M 293 37.5 L 339 37.5 L 339 83 L 293 83 Z M 293 37.5 " clip-rule="nonzero"/></clipPath></defs><path fill="#6abded" d="M 369.507812 322.933594 L 5.492188 322.933594 C 2.417969 322.933594 0 320.515625 0 317.441406 C 0 314.367188 2.417969 311.949219 5.492188 311.949219 L 369.507812 311.949219 C 372.582031 311.949219 375 314.367188 375 317.441406 C 375 320.515625 372.582031 322.933594 369.507812 322.933594 Z M 369.507812 322.933594 " fill-opacity="1" fill-rule="evenodd"/><g clip-path="url(#21c1a1f8e4)"><path fill="#6abded" d="M 81.28125 322.933594 C 78.207031 322.933594 75.789062 320.515625 75.789062 317.441406 L 75.789062 258.125 L 43.277344 258.125 L 43.277344 317.878906 C 43.277344 320.738281 40.859375 323.371094 37.785156 323.371094 C 34.710938 323.371094 32.292969 320.738281 32.292969 317.878906 L 32.292969 252.636719 C 32.292969 249.558594 34.710938 247.144531 37.785156 247.144531 L 81.28125 247.144531 C 84.359375 247.144531 86.773438 249.558594 86.773438 252.636719 L 86.773438 317.441406 C 86.554688 320.515625 84.140625 322.933594 81.28125 322.933594 Z M 81.28125 322.933594 " fill-opacity="1" fill-rule="evenodd"/></g><path fill="#6abded" d="M 166.519531 322.933594 C 163.445312 322.933594 161.027344 320.515625 161.027344 317.441406 L 161.027344 192.003906 L 128.515625 192.003906 L 128.515625 317.441406 C 128.515625 320.515625 126.097656 322.933594 123.023438 322.933594 C 119.949219 322.933594 117.53125 320.515625 117.53125 317.441406 L 117.53125 186.730469 C 117.53125 183.875 119.949219 181.238281 123.023438 181.238281 L 166.519531 181.238281 C 169.597656 181.238281 172.011719 183.875 172.011719 186.730469 L 172.011719 317.878906 C 172.011719 320.515625 169.597656 322.933594 166.519531 322.933594 Z M 166.519531 322.933594 " fill-opacity="1" fill-rule="evenodd"/><path fill="#6abded" d="M 251.976562 322.933594 C 248.902344 322.933594 246.484375 320.515625 246.484375 317.441406 L 246.484375 213.3125 L 213.753906 213.3125 L 213.753906 317.441406 C 213.753906 320.515625 211.335938 322.933594 208.261719 322.933594 C 205.183594 322.933594 202.769531 320.515625 202.769531 317.441406 L 202.769531 207.820312 C 202.769531 204.742188 205.183594 202.328125 208.261719 202.328125 L 251.976562 202.328125 C 254.832031 202.328125 257.46875 204.742188 257.46875 207.820312 L 257.46875 317.441406 C 257.46875 320.515625 254.832031 322.933594 251.976562 322.933594 Z M 251.976562 322.933594 " fill-opacity="1" fill-rule="evenodd"/><g clip-path="url(#d147e61659)"><path fill="#6abded" d="M 337.214844 322.933594 C 334.140625 322.933594 331.722656 320.515625 331.722656 317.441406 L 331.722656 143.230469 L 298.769531 143.230469 L 298.769531 317.878906 C 298.769531 320.738281 296.351562 323.371094 293.277344 323.371094 C 290.203125 323.371094 287.785156 320.738281 287.785156 317.878906 L 287.785156 138.179688 C 287.785156 135.105469 290.203125 132.6875 293.277344 132.6875 L 336.773438 132.6875 C 339.851562 132.6875 342.265625 135.105469 342.265625 138.179688 L 342.265625 317.878906 C 342.707031 320.515625 340.289062 322.933594 337.214844 322.933594 Z M 337.214844 322.933594 " fill-opacity="1" fill-rule="evenodd"/></g><path fill="#6abded" d="M 73.15625 169.8125 C 71.617188 169.8125 70.078125 169.15625 68.761719 167.617188 C 67.003906 165.199219 67.664062 161.90625 69.640625 159.929688 L 127.855469 114.894531 C 130.273438 113.136719 133.789062 113.792969 135.542969 115.773438 C 137.300781 118.40625 136.644531 121.703125 134.667969 123.460938 L 76.449219 168.496094 C 75.570312 169.375 74.253906 169.8125 73.15625 169.8125 Z M 213.753906 131.371094 C 213.53125 131.371094 212.875 131.371094 212.652344 131.148438 L 160.589844 118.40625 C 157.734375 117.75 155.976562 114.671875 156.632812 111.816406 C 157.074219 109.179688 160.148438 107.425781 163.003906 107.863281 L 215.070312 120.824219 C 217.707031 121.265625 219.683594 124.339844 219.023438 127.195312 C 218.144531 129.613281 215.949219 131.371094 213.753906 131.371094 Z M 243.410156 124.339844 C 241.871094 124.339844 240.332031 123.679688 239.015625 122.582031 C 237.257812 120.386719 237.476562 116.871094 239.675781 114.894531 L 298.769531 66.78125 C 300.964844 65.023438 304.480469 65.246094 306.457031 67.441406 C 308.214844 69.636719 307.996094 73.152344 305.800781 75.128906 L 246.703125 123.242188 C 245.824219 124.121094 244.507812 124.339844 243.410156 124.339844 Z M 243.410156 124.339844 " fill-opacity="1" fill-rule="evenodd"/><path fill="#6abded" d="M 59.316406 197.273438 C 47.011719 197.273438 36.90625 187.167969 36.90625 174.648438 C 36.90625 162.125 47.011719 152.019531 59.316406 152.019531 C 71.835938 152.019531 81.941406 162.125 81.941406 174.648438 C 81.941406 187.167969 71.835938 197.273438 59.316406 197.273438 Z M 59.316406 163.003906 C 52.945312 163.003906 47.453125 168.277344 47.453125 174.867188 C 47.453125 181.238281 52.722656 186.730469 59.316406 186.730469 C 66.125 186.730469 71.175781 181.675781 71.175781 174.867188 C 71.617188 168.277344 66.125 163.003906 59.316406 163.003906 Z M 59.316406 163.003906 " fill-opacity="1" fill-rule="evenodd"/><path fill="#6abded" d="M 144.992188 131.371094 C 132.46875 131.371094 122.363281 121.265625 122.363281 108.960938 C 122.363281 96.441406 132.46875 86.335938 144.992188 86.335938 C 157.511719 86.335938 167.617188 96.441406 167.617188 108.960938 C 167.617188 121.265625 157.511719 131.371094 144.992188 131.371094 Z M 144.992188 96.878906 C 138.179688 96.878906 133.128906 102.152344 133.128906 108.960938 C 133.128906 115.550781 138.621094 120.824219 144.992188 120.824219 C 151.363281 120.824219 156.855469 115.550781 156.855469 108.960938 C 156.855469 102.152344 151.363281 96.878906 144.992188 96.878906 Z M 144.992188 96.878906 " fill-opacity="1" fill-rule="evenodd"/><path fill="#6abded" d="M 230.226562 152.679688 C 217.707031 152.679688 207.820312 142.574219 207.820312 130.269531 C 207.820312 117.75 217.707031 107.644531 230.226562 107.644531 C 242.75 107.644531 252.855469 117.75 252.855469 130.269531 C 252.855469 142.574219 242.75 152.679688 230.226562 152.679688 Z M 230.226562 118.40625 C 223.859375 118.40625 218.367188 123.460938 218.367188 130.269531 C 218.367188 136.640625 223.636719 142.132812 230.226562 142.132812 C 237.039062 142.132812 242.089844 136.863281 242.089844 130.269531 C 242.089844 123.679688 237.039062 118.40625 230.226562 118.40625 Z M 230.226562 118.40625 " fill-opacity="1" fill-rule="evenodd"/><g clip-path="url(#80da61e1e9)"><path fill="#6abded" d="M 315.464844 82.601562 C 302.945312 82.601562 293.058594 72.714844 293.058594 60.191406 C 293.058594 47.671875 302.945312 37.566406 315.464844 37.566406 C 327.988281 37.566406 338.09375 47.671875 338.09375 60.191406 C 338.3125 72.714844 327.988281 82.601562 315.464844 82.601562 Z M 315.464844 48.328125 C 309.09375 48.328125 303.601562 53.382812 303.601562 60.191406 C 303.601562 66.78125 308.875 72.054688 315.464844 72.054688 C 322.277344 72.054688 327.328125 66.5625 327.328125 60.191406 C 327.769531 53.820312 322.277344 48.328125 315.464844 48.328125 Z M 315.464844 48.328125 " fill-opacity="1" fill-rule="evenodd"/></g></svg>