<svg xmlns="http://www.w3.org/2000/svg" xmlns:xlink="http://www.w3.org/1999/xlink" width="500" zoomAndPan="magnify" viewBox="0 0 375 374.999991" height="500" preserveAspectRatio="xMidYMid meet" version="1.0"><defs><clipPath id="9c718ba793"><path d="M 40.078125 0 L 334.828125 0 L 334.828125 375 L 40.078125 375 Z M 40.078125 0 " clip-rule="nonzero"/></clipPath></defs><g clip-path="url(#9c718ba793)"><path fill="#6abded" d="M 334.75 205.8125 C 334.71875 205.636719 334.71875 205.457031 334.75 205.277344 C 334.515625 204.484375 334.136719 203.769531 333.609375 203.128906 L 279.941406 136.046875 C 279.5 135.554688 278.984375 135.152344 278.398438 134.839844 L 277.726562 134.371094 C 276.683594 133.800781 275.5625 133.511719 274.375 133.496094 L 220.707031 133.496094 L 237.945312 114.578125 C 238.769531 113.65625 239.570312 112.714844 240.34375 111.75 C 241.117188 110.785156 241.863281 109.800781 242.582031 108.796875 C 243.300781 107.792969 243.996094 106.769531 244.660156 105.726562 C 245.324219 104.683594 245.960938 103.625 246.566406 102.550781 C 247.175781 101.472656 247.753906 100.382812 248.304688 99.273438 C 248.851562 98.167969 249.371094 97.046875 249.859375 95.910156 C 250.347656 94.773438 250.804688 93.628906 251.234375 92.46875 C 251.660156 91.308594 252.054688 90.136719 252.417969 88.957031 C 252.78125 87.773438 253.113281 86.582031 253.414062 85.382812 C 253.710938 84.183594 253.980469 82.980469 254.214844 81.765625 C 254.449219 80.550781 254.648438 79.332031 254.820312 78.109375 C 254.988281 76.882812 255.125 75.65625 255.226562 74.425781 C 255.328125 73.191406 255.398438 71.960938 255.433594 70.722656 C 255.472656 69.488281 255.472656 68.253906 255.445312 67.015625 C 255.414062 65.78125 255.351562 64.546875 255.253906 63.316406 C 255.15625 62.082031 255.027344 60.855469 254.863281 59.628906 C 254.699219 58.402344 254.503906 57.183594 254.277344 55.96875 C 254.046875 54.753906 253.785156 53.546875 253.492188 52.347656 C 253.199219 51.144531 252.871094 49.953125 252.515625 48.769531 C 252.15625 47.589844 251.765625 46.414062 251.347656 45.253906 C 250.925781 44.089844 250.472656 42.941406 249.988281 41.804688 C 249.507812 40.667969 248.992188 39.542969 248.449219 38.433594 C 247.90625 37.320312 247.332031 36.226562 246.730469 35.148438 C 246.128906 34.070312 245.496094 33.007812 244.835938 31.960938 C 244.175781 30.917969 243.488281 29.890625 242.773438 28.882812 C 242.058594 27.875 241.316406 26.886719 240.550781 25.917969 C 239.78125 24.949219 238.988281 24.003906 238.167969 23.078125 C 237.347656 22.152344 236.503906 21.25 235.636719 20.371094 C 234.769531 19.488281 233.878906 18.632812 232.964844 17.800781 C 232.050781 16.96875 231.113281 16.164062 230.15625 15.382812 C 229.199219 14.601562 228.21875 13.84375 227.222656 13.117188 C 226.222656 12.386719 225.207031 11.683594 224.171875 11.011719 C 223.136719 10.335938 222.082031 9.691406 221.011719 9.074219 C 219.941406 8.457031 218.851562 7.867188 217.75 7.308594 C 216.648438 6.75 215.53125 6.222656 214.398438 5.722656 C 213.269531 5.226562 212.125 4.757812 210.96875 4.320312 C 209.8125 3.882812 208.644531 3.480469 207.46875 3.105469 C 206.289062 2.730469 205.101562 2.386719 203.90625 2.078125 C 202.710938 1.769531 201.507812 1.492188 200.292969 1.246094 C 199.082031 1 197.867188 0.789062 196.644531 0.609375 C 195.421875 0.429688 194.195312 0.28125 192.960938 0.167969 C 191.730469 0.0546875 190.5 -0.0273438 189.265625 -0.0742188 C 188.027344 -0.121094 186.792969 -0.132812 185.558594 -0.117188 C 184.320312 -0.0976562 183.085938 -0.0429688 181.855469 0.0429688 C 180.621094 0.128906 179.390625 0.246094 178.164062 0.398438 C 176.9375 0.550781 175.714844 0.738281 174.5 0.953125 C 173.285156 1.171875 172.074219 1.421875 170.871094 1.707031 C 169.667969 1.988281 168.472656 2.304688 167.285156 2.652344 C 166.101562 3 164.925781 3.378906 163.757812 3.789062 C 162.59375 4.199219 161.4375 4.640625 160.296875 5.117188 C 159.15625 5.589844 158.027344 6.09375 156.910156 6.625 C 155.796875 7.160156 154.699219 7.722656 153.613281 8.316406 C 152.527344 8.910156 151.460938 9.53125 150.410156 10.179688 C 149.359375 10.832031 148.328125 11.511719 147.3125 12.214844 C 146.296875 12.921875 145.304688 13.65625 144.328125 14.414062 C 143.351562 15.175781 142.398438 15.960938 141.464844 16.773438 C 140.535156 17.582031 139.625 18.417969 138.738281 19.277344 C 137.847656 20.140625 136.984375 21.023438 136.144531 21.929688 C 135.304688 22.835938 134.488281 23.765625 133.699219 24.714844 C 132.910156 25.664062 132.144531 26.636719 131.410156 27.628906 C 130.671875 28.621094 129.960938 29.632812 129.277344 30.660156 C 128.59375 31.691406 127.9375 32.738281 127.3125 33.804688 C 126.6875 34.871094 126.089844 35.949219 125.519531 37.046875 C 124.953125 38.144531 124.414062 39.257812 123.902344 40.382812 C 123.222656 41.898438 122.59375 43.433594 122.023438 44.992188 C 121.453125 46.554688 120.941406 48.132812 120.488281 49.726562 C 120.03125 51.324219 119.636719 52.9375 119.300781 54.5625 C 118.960938 56.1875 118.6875 57.824219 118.46875 59.472656 C 118.253906 61.117188 118.097656 62.769531 118 64.425781 C 117.90625 66.085938 117.871094 67.742188 117.898438 69.402344 C 117.921875 71.0625 118.007812 72.722656 118.15625 74.375 C 118.304688 76.027344 118.511719 77.675781 118.78125 79.3125 C 119.046875 80.953125 119.375 82.578125 119.765625 84.195312 C 120.152344 85.808594 120.597656 87.40625 121.101562 88.988281 C 121.605469 90.570312 122.167969 92.132812 122.789062 93.671875 C 123.40625 95.214844 124.082031 96.730469 124.8125 98.222656 C 125.542969 99.710938 126.324219 101.175781 127.164062 102.609375 C 128 104.042969 128.886719 105.445312 129.828125 106.8125 C 130.769531 108.179688 131.757812 109.515625 132.796875 110.808594 C 133.832031 112.105469 134.917969 113.363281 136.046875 114.578125 L 153.621094 133.496094 L 99.957031 133.496094 C 99 133.515625 98.082031 133.714844 97.203125 134.101562 L 96.535156 134.570312 C 95.949219 134.882812 95.433594 135.285156 94.992188 135.777344 L 41.324219 202.863281 C 40.796875 203.5 40.417969 204.214844 40.183594 205.007812 C 40.214844 205.1875 40.214844 205.367188 40.183594 205.546875 C 40.050781 206.394531 40.050781 207.246094 40.183594 208.09375 L 63.328125 346.691406 C 63.480469 347.65625 63.671875 348.609375 63.910156 349.558594 C 64.144531 350.507812 64.421875 351.441406 64.738281 352.367188 C 65.054688 353.289062 65.414062 354.195312 65.808594 355.089844 C 66.207031 355.980469 66.640625 356.855469 67.113281 357.710938 C 67.585938 358.5625 68.097656 359.394531 68.640625 360.207031 C 69.1875 361.015625 69.769531 361.800781 70.382812 362.558594 C 70.996094 363.316406 71.640625 364.050781 72.320312 364.75 C 73 365.453125 73.707031 366.125 74.441406 366.765625 C 75.179688 367.410156 75.941406 368.015625 76.730469 368.589844 C 77.523438 369.164062 78.335938 369.703125 79.171875 370.207031 C 80.007812 370.710938 80.867188 371.175781 81.742188 371.605469 C 82.621094 372.03125 83.515625 372.421875 84.425781 372.773438 C 85.339844 373.121094 86.261719 373.433594 87.203125 373.703125 C 88.140625 373.972656 89.089844 374.199219 90.046875 374.386719 C 91.007812 374.574219 91.972656 374.71875 92.941406 374.820312 C 93.914062 374.921875 94.886719 374.984375 95.863281 375 L 278.464844 375 C 279.449219 375 280.429688 374.957031 281.410156 374.871094 C 282.386719 374.78125 283.359375 374.652344 284.328125 374.480469 C 285.296875 374.308594 286.253906 374.09375 287.203125 373.835938 C 288.152344 373.582031 289.089844 373.285156 290.011719 372.945312 C 290.933594 372.605469 291.839844 372.226562 292.730469 371.808594 C 293.617188 371.390625 294.488281 370.933594 295.335938 370.441406 C 296.1875 369.945312 297.011719 369.414062 297.8125 368.847656 C 298.617188 368.277344 299.394531 367.675781 300.140625 367.042969 C 300.890625 366.40625 301.613281 365.738281 302.304688 365.039062 C 302.996094 364.339844 303.652344 363.613281 304.28125 362.855469 C 304.90625 362.097656 305.5 361.316406 306.058594 360.507812 C 306.617188 359.699219 307.136719 358.867188 307.625 358.011719 C 308.109375 357.15625 308.554688 356.28125 308.964844 355.386719 C 309.371094 354.496094 309.738281 353.585938 310.066406 352.65625 C 310.394531 351.730469 310.683594 350.792969 310.929688 349.839844 C 311.175781 348.890625 311.378906 347.929688 311.539062 346.957031 L 334.75 208.363281 C 334.882812 207.511719 334.882812 206.664062 334.75 205.8125 Z M 281.082031 159.324219 L 314.085938 200.582031 L 281.082031 200.582031 Z M 136.449219 45.820312 C 136.851562 44.902344 137.28125 44 137.734375 43.105469 C 138.1875 42.214844 138.664062 41.335938 139.164062 40.46875 C 139.664062 39.601562 140.1875 38.75 140.734375 37.914062 C 141.28125 37.074219 141.847656 36.253906 142.441406 35.445312 C 143.03125 34.636719 143.644531 33.847656 144.277344 33.074219 C 144.910156 32.300781 145.566406 31.542969 146.238281 30.804688 C 146.914062 30.066406 147.609375 29.34375 148.324219 28.644531 C 149.035156 27.945312 149.769531 27.261719 150.519531 26.601562 C 151.269531 25.941406 152.039062 25.300781 152.824219 24.679688 C 153.609375 24.058594 154.410156 23.460938 155.230469 22.886719 C 156.046875 22.308594 156.878906 21.753906 157.726562 21.222656 C 158.574219 20.691406 159.4375 20.183594 160.3125 19.699219 C 161.1875 19.214844 162.074219 18.753906 162.976562 18.320312 C 163.875 17.882812 164.785156 17.472656 165.707031 17.082031 C 166.632812 16.695312 167.5625 16.335938 168.507812 16 C 169.449219 15.660156 170.398438 15.351562 171.359375 15.066406 C 172.316406 14.78125 173.28125 14.523438 174.253906 14.289062 C 175.230469 14.054688 176.207031 13.851562 177.191406 13.671875 C 178.175781 13.492188 179.164062 13.335938 180.15625 13.210938 C 181.148438 13.085938 182.144531 12.984375 183.140625 12.914062 C 184.140625 12.839844 185.136719 12.796875 186.140625 12.777344 C 187.140625 12.757812 188.140625 12.769531 189.140625 12.804688 C 190.140625 12.839844 191.136719 12.902344 192.132812 12.992188 C 193.128906 13.082031 194.121094 13.199219 195.113281 13.34375 C 196.101562 13.488281 197.089844 13.65625 198.070312 13.855469 C 199.050781 14.050781 200.023438 14.277344 200.992188 14.527344 C 201.960938 14.777344 202.921875 15.050781 203.878906 15.355469 C 204.832031 15.65625 205.777344 15.984375 206.710938 16.335938 C 207.648438 16.691406 208.574219 17.070312 209.488281 17.472656 C 210.40625 17.875 211.308594 18.304688 212.203125 18.753906 C 213.09375 19.207031 213.972656 19.683594 214.839844 20.183594 C 215.707031 20.683594 216.558594 21.207031 217.398438 21.753906 C 218.234375 22.300781 219.058594 22.867188 219.867188 23.457031 C 220.671875 24.050781 221.464844 24.660156 222.238281 25.292969 C 223.011719 25.929688 223.769531 26.582031 224.507812 27.257812 C 225.246094 27.929688 225.964844 28.625 226.667969 29.339844 C 227.367188 30.050781 228.050781 30.785156 228.710938 31.535156 C 229.375 32.285156 230.015625 33.054688 230.632812 33.839844 C 231.253906 34.625 231.851562 35.425781 232.429688 36.242188 C 233.007812 37.058594 233.558594 37.890625 234.09375 38.738281 C 234.625 39.585938 235.132812 40.449219 235.617188 41.324219 C 236.101562 42.199219 236.5625 43.085938 237 43.988281 C 237.4375 44.886719 237.847656 45.796875 238.234375 46.71875 C 238.621094 47.644531 238.984375 48.574219 239.320312 49.515625 C 239.660156 50.460938 239.96875 51.410156 240.253906 52.367188 C 240.542969 53.328125 240.800781 54.292969 241.035156 55.265625 C 241.265625 56.238281 241.472656 57.21875 241.652344 58.203125 C 241.832031 59.1875 241.988281 60.175781 242.113281 61.167969 C 242.242188 62.160156 242.339844 63.152344 242.414062 64.152344 C 242.484375 65.148438 242.53125 66.148438 242.550781 67.148438 C 242.570312 68.148438 242.558594 69.148438 242.523438 70.148438 C 242.488281 71.148438 242.425781 72.148438 242.335938 73.144531 C 242.246094 74.140625 242.128906 75.132812 241.988281 76.125 C 241.84375 77.113281 241.671875 78.097656 241.476562 79.078125 C 241.28125 80.058594 241.058594 81.035156 240.808594 82.003906 C 240.558594 82.972656 240.28125 83.933594 239.980469 84.886719 C 239.679688 85.84375 239.351562 86.789062 239 87.722656 C 238.644531 88.660156 238.269531 89.585938 237.863281 90.5 C 237.460938 91.417969 237.035156 92.320312 236.582031 93.214844 C 236.128906 94.105469 235.65625 94.984375 235.15625 95.851562 C 234.65625 96.71875 234.132812 97.570312 233.585938 98.410156 C 233.042969 99.25 232.472656 100.070312 231.882812 100.878906 C 231.292969 101.6875 230.679688 102.476562 230.046875 103.253906 C 229.414062 104.027344 228.761719 104.785156 228.085938 105.523438 L 192.128906 144.96875 C 191.8125 145.316406 191.46875 145.625 191.089844 145.898438 C 190.710938 146.171875 190.304688 146.402344 189.878906 146.589844 C 189.453125 146.78125 189.007812 146.921875 188.550781 147.019531 C 188.09375 147.117188 187.632812 147.164062 187.164062 147.164062 C 186.695312 147.164062 186.234375 147.117188 185.777344 147.019531 C 185.320312 146.921875 184.878906 146.78125 184.449219 146.589844 C 184.023438 146.402344 183.621094 146.171875 183.242188 145.898438 C 182.863281 145.625 182.515625 145.316406 182.199219 144.96875 L 146.242188 105.523438 C 144.421875 103.5625 142.753906 101.480469 141.234375 99.273438 C 139.71875 97.070312 138.371094 94.765625 137.195312 92.363281 C 136.015625 89.960938 135.019531 87.484375 134.207031 84.933594 C 133.390625 82.386719 132.769531 79.789062 132.335938 77.148438 C 131.902344 74.507812 131.664062 71.851562 131.621094 69.175781 C 131.578125 66.5 131.730469 63.832031 132.078125 61.179688 C 132.425781 58.527344 132.96875 55.914062 133.699219 53.339844 C 134.433594 50.765625 135.347656 48.257812 136.449219 45.820312 Z M 172.339844 154.023438 C 172.808594 154.535156 173.304688 155.023438 173.824219 155.484375 C 174.34375 155.945312 174.886719 156.378906 175.453125 156.78125 C 176.019531 157.1875 176.601562 157.558594 177.207031 157.90625 C 177.8125 158.25 178.429688 158.558594 179.066406 158.839844 C 179.703125 159.121094 180.351562 159.367188 181.015625 159.578125 C 181.675781 159.789062 182.347656 159.96875 183.027344 160.109375 C 183.707031 160.253906 184.394531 160.359375 185.085938 160.433594 C 185.777344 160.503906 186.46875 160.539062 187.164062 160.539062 C 187.859375 160.539062 188.554688 160.503906 189.242188 160.433594 C 189.933594 160.359375 190.621094 160.253906 191.300781 160.109375 C 191.980469 159.96875 192.652344 159.789062 193.3125 159.578125 C 193.976562 159.367188 194.625 159.121094 195.261719 158.839844 C 195.898438 158.558594 196.519531 158.25 197.121094 157.90625 C 197.726562 157.558594 198.3125 157.1875 198.875 156.78125 C 199.441406 156.378906 199.984375 155.945312 200.503906 155.484375 C 201.023438 155.023438 201.519531 154.535156 201.988281 154.023438 L 208.699219 146.914062 L 267.664062 146.914062 L 267.664062 200.582031 L 106.664062 200.582031 L 106.664062 146.914062 L 165.832031 146.914062 Z M 93.246094 159.324219 L 93.246094 200.582031 L 60.242188 200.582031 Z M 298.324219 344.746094 C 298.128906 345.921875 297.832031 347.074219 297.429688 348.199219 C 297.03125 349.324219 296.535156 350.40625 295.941406 351.441406 C 295.351562 352.480469 294.671875 353.457031 293.90625 354.371094 C 293.136719 355.289062 292.296875 356.128906 291.382812 356.894531 C 290.464844 357.660156 289.488281 358.339844 288.453125 358.933594 C 287.417969 359.527344 286.335938 360.023438 285.210938 360.421875 C 284.085938 360.820312 282.933594 361.121094 281.753906 361.316406 C 280.578125 361.507812 279.390625 361.597656 278.199219 361.582031 L 95.863281 361.582031 C 94.667969 361.597656 93.484375 361.507812 92.304688 361.316406 C 91.128906 361.121094 89.976562 360.820312 88.851562 360.421875 C 87.726562 360.023438 86.644531 359.527344 85.609375 358.933594 C 84.570312 358.339844 83.59375 357.660156 82.679688 356.894531 C 81.761719 356.128906 80.921875 355.289062 80.15625 354.371094 C 79.390625 353.457031 78.710938 352.480469 78.117188 351.441406 C 77.527344 350.40625 77.03125 349.324219 76.628906 348.199219 C 76.230469 347.074219 75.933594 345.921875 75.738281 344.746094 L 54.203125 214 L 320.125 214 Z M 220.707031 227.414062 L 153.621094 227.414062 C 152.964844 227.414062 152.304688 227.449219 151.648438 227.511719 C 150.992188 227.578125 150.34375 227.671875 149.695312 227.800781 C 149.050781 227.929688 148.410156 228.089844 147.78125 228.28125 C 147.148438 228.472656 146.53125 228.695312 145.921875 228.945312 C 145.3125 229.199219 144.71875 229.480469 144.136719 229.792969 C 143.554688 230.101562 142.988281 230.441406 142.441406 230.808594 C 141.894531 231.171875 141.363281 231.566406 140.855469 231.984375 C 140.347656 232.402344 139.859375 232.84375 139.390625 233.308594 C 138.925781 233.777344 138.484375 234.261719 138.066406 234.773438 C 137.648438 235.28125 137.253906 235.8125 136.890625 236.359375 C 136.523438 236.90625 136.183594 237.472656 135.875 238.054688 C 135.5625 238.632812 135.28125 239.230469 135.027344 239.839844 C 134.777344 240.449219 134.554688 241.066406 134.363281 241.699219 C 134.171875 242.328125 134.011719 242.96875 133.882812 243.613281 C 133.753906 244.261719 133.660156 244.910156 133.59375 245.566406 C 133.53125 246.222656 133.496094 246.882812 133.496094 247.539062 L 133.496094 260.957031 C 133.496094 261.617188 133.53125 262.273438 133.59375 262.929688 C 133.660156 263.585938 133.753906 264.238281 133.882812 264.882812 C 134.011719 265.53125 134.171875 266.167969 134.363281 266.800781 C 134.554688 267.429688 134.777344 268.050781 135.027344 268.660156 C 135.28125 269.269531 135.5625 269.863281 135.875 270.445312 C 136.183594 271.023438 136.523438 271.589844 136.890625 272.136719 C 137.253906 272.6875 137.648438 273.214844 138.066406 273.722656 C 138.484375 274.234375 138.925781 274.722656 139.390625 275.1875 C 139.859375 275.652344 140.347656 276.097656 140.855469 276.515625 C 141.363281 276.933594 141.894531 277.324219 142.441406 277.691406 C 142.988281 278.058594 143.554688 278.394531 144.136719 278.707031 C 144.71875 279.015625 145.3125 279.296875 145.921875 279.550781 C 146.53125 279.800781 147.148438 280.023438 147.78125 280.214844 C 148.410156 280.40625 149.050781 280.566406 149.695312 280.695312 C 150.34375 280.824219 150.992188 280.921875 151.648438 280.984375 C 152.304688 281.050781 152.964844 281.082031 153.621094 281.082031 L 220.707031 281.082031 C 221.367188 281.082031 222.023438 281.050781 222.679688 280.984375 C 223.335938 280.921875 223.988281 280.824219 224.632812 280.695312 C 225.28125 280.566406 225.917969 280.40625 226.546875 280.214844 C 227.179688 280.023438 227.800781 279.800781 228.40625 279.550781 C 229.015625 279.296875 229.613281 279.015625 230.195312 278.707031 C 230.773438 278.394531 231.339844 278.058594 231.886719 277.691406 C 232.4375 277.324219 232.964844 276.933594 233.472656 276.515625 C 233.984375 276.097656 234.472656 275.652344 234.9375 275.1875 C 235.402344 274.722656 235.84375 274.234375 236.261719 273.722656 C 236.683594 273.214844 237.074219 272.6875 237.441406 272.136719 C 237.804688 271.589844 238.144531 271.023438 238.457031 270.445312 C 238.765625 269.863281 239.046875 269.269531 239.300781 268.660156 C 239.550781 268.050781 239.773438 267.429688 239.964844 266.800781 C 240.15625 266.167969 240.316406 265.53125 240.445312 264.882812 C 240.574219 264.238281 240.671875 263.585938 240.734375 262.929688 C 240.800781 262.273438 240.832031 261.617188 240.832031 260.957031 L 240.832031 247.539062 C 240.832031 246.882812 240.800781 246.222656 240.734375 245.566406 C 240.671875 244.910156 240.574219 244.261719 240.445312 243.613281 C 240.316406 242.96875 240.15625 242.328125 239.964844 241.699219 C 239.773438 241.066406 239.550781 240.449219 239.300781 239.839844 C 239.046875 239.230469 238.765625 238.632812 238.457031 238.054688 C 238.144531 237.472656 237.804688 236.90625 237.441406 236.359375 C 237.074219 235.8125 236.683594 235.28125 236.261719 234.773438 C 235.84375 234.261719 235.402344 233.777344 234.9375 233.308594 C 234.472656 232.84375 233.984375 232.402344 233.472656 231.984375 C 232.964844 231.566406 232.4375 231.171875 231.886719 230.808594 C 231.339844 230.441406 230.773438 230.101562 230.195312 229.792969 C 229.613281 229.480469 229.015625 229.199219 228.40625 228.945312 C 227.800781 228.695312 227.179688 228.472656 226.546875 228.28125 C 225.917969 228.089844 225.28125 227.929688 224.632812 227.800781 C 223.988281 227.671875 223.335938 227.578125 222.679688 227.511719 C 222.023438 227.449219 221.367188 227.414062 220.707031 227.414062 Z M 227.414062 260.957031 C 227.414062 261.398438 227.371094 261.832031 227.285156 262.265625 C 227.199219 262.699219 227.074219 263.117188 226.90625 263.523438 C 226.734375 263.929688 226.527344 264.316406 226.285156 264.683594 C 226.039062 265.050781 225.761719 265.390625 225.449219 265.699219 C 225.140625 266.011719 224.800781 266.289062 224.433594 266.535156 C 224.066406 266.78125 223.679688 266.984375 223.273438 267.15625 C 222.867188 267.324219 222.449219 267.449219 222.015625 267.535156 C 221.582031 267.621094 221.148438 267.664062 220.707031 267.664062 L 153.621094 267.664062 C 153.183594 267.664062 152.746094 267.621094 152.3125 267.535156 C 151.882812 267.449219 151.460938 267.324219 151.054688 267.15625 C 150.648438 266.984375 150.261719 266.78125 149.894531 266.535156 C 149.527344 266.289062 149.191406 266.011719 148.878906 265.699219 C 148.566406 265.390625 148.289062 265.050781 148.042969 264.683594 C 147.800781 264.316406 147.59375 263.929688 147.425781 263.523438 C 147.257812 263.117188 147.128906 262.699219 147.042969 262.265625 C 146.957031 261.832031 146.914062 261.398438 146.914062 260.957031 L 146.914062 247.539062 C 146.914062 247.101562 146.957031 246.664062 147.042969 246.230469 C 147.128906 245.800781 147.257812 245.378906 147.425781 244.972656 C 147.59375 244.566406 147.800781 244.179688 148.042969 243.8125 C 148.289062 243.445312 148.566406 243.109375 148.878906 242.796875 C 149.191406 242.484375 149.527344 242.207031 149.894531 241.960938 C 150.261719 241.71875 150.648438 241.511719 151.054688 241.34375 C 151.460938 241.175781 151.882812 241.046875 152.3125 240.960938 C 152.746094 240.875 153.183594 240.832031 153.621094 240.832031 L 220.707031 240.832031 C 221.148438 240.832031 221.582031 240.875 222.015625 240.960938 C 222.449219 241.046875 222.867188 241.175781 223.273438 241.34375 C 223.679688 241.511719 224.066406 241.71875 224.433594 241.960938 C 224.800781 242.207031 225.140625 242.484375 225.449219 242.796875 C 225.761719 243.109375 226.039062 243.445312 226.285156 243.8125 C 226.527344 244.179688 226.734375 244.566406 226.90625 244.972656 C 227.074219 245.378906 227.199219 245.800781 227.285156 246.230469 C 227.371094 246.664062 227.414062 247.101562 227.414062 247.539062 Z M 220.707031 66.414062 C 220.707031 65.316406 220.652344 64.21875 220.546875 63.125 C 220.4375 62.03125 220.277344 60.945312 220.0625 59.871094 C 219.847656 58.792969 219.582031 57.726562 219.261719 56.675781 C 218.945312 55.625 218.574219 54.59375 218.152344 53.578125 C 217.734375 52.5625 217.265625 51.570312 216.746094 50.601562 C 216.226562 49.632812 215.664062 48.691406 215.054688 47.777344 C 214.445312 46.863281 213.789062 45.984375 213.09375 45.132812 C 212.394531 44.285156 211.660156 43.472656 210.882812 42.695312 C 210.105469 41.917969 209.292969 41.183594 208.445312 40.484375 C 207.59375 39.789062 206.710938 39.132812 205.800781 38.523438 C 204.886719 37.914062 203.945312 37.351562 202.976562 36.832031 C 202.007812 36.3125 201.015625 35.84375 200 35.425781 C 198.984375 35.003906 197.953125 34.632812 196.902344 34.316406 C 195.851562 33.996094 194.785156 33.730469 193.707031 33.515625 C 192.632812 33.300781 191.546875 33.140625 190.453125 33.03125 C 189.359375 32.925781 188.261719 32.871094 187.164062 32.871094 C 186.066406 32.871094 184.96875 32.925781 183.875 33.03125 C 182.785156 33.140625 181.699219 33.300781 180.621094 33.515625 C 179.542969 33.730469 178.480469 33.996094 177.429688 34.316406 C 176.375 34.632812 175.34375 35.003906 174.328125 35.425781 C 173.3125 35.84375 172.320312 36.3125 171.351562 36.832031 C 170.382812 37.351562 169.441406 37.914062 168.53125 38.523438 C 167.617188 39.132812 166.734375 39.789062 165.886719 40.484375 C 165.035156 41.183594 164.222656 41.917969 163.445312 42.695312 C 162.671875 43.472656 161.933594 44.285156 161.234375 45.132812 C 160.539062 45.984375 159.886719 46.863281 159.273438 47.777344 C 158.664062 48.691406 158.101562 49.632812 157.582031 50.601562 C 157.066406 51.570312 156.597656 52.5625 156.175781 53.578125 C 155.753906 54.59375 155.386719 55.625 155.066406 56.675781 C 154.746094 57.726562 154.480469 58.792969 154.265625 59.871094 C 154.050781 60.945312 153.890625 62.03125 153.785156 63.125 C 153.675781 64.21875 153.621094 65.316406 153.621094 66.414062 C 153.621094 67.511719 153.675781 68.609375 153.785156 69.699219 C 153.890625 70.792969 154.050781 71.878906 154.265625 72.957031 C 154.480469 74.035156 154.746094 75.097656 155.066406 76.148438 C 155.386719 77.203125 155.753906 78.234375 156.175781 79.25 C 156.597656 80.265625 157.066406 81.257812 157.582031 82.226562 C 158.101562 83.195312 158.664062 84.136719 159.273438 85.046875 C 159.886719 85.960938 160.539062 86.84375 161.234375 87.691406 C 161.933594 88.542969 162.671875 89.355469 163.445312 90.132812 C 164.222656 90.90625 165.035156 91.644531 165.886719 92.339844 C 166.734375 93.039062 167.617188 93.691406 168.53125 94.300781 C 169.441406 94.914062 170.382812 95.476562 171.351562 95.996094 C 172.320312 96.511719 173.3125 96.980469 174.328125 97.402344 C 175.34375 97.824219 176.375 98.191406 177.429688 98.511719 C 178.480469 98.828125 179.542969 99.097656 180.621094 99.3125 C 181.699219 99.523438 182.785156 99.6875 183.875 99.792969 C 184.96875 99.902344 186.066406 99.957031 187.164062 99.957031 C 188.261719 99.957031 189.359375 99.902344 190.453125 99.792969 C 191.546875 99.6875 192.632812 99.523438 193.707031 99.3125 C 194.785156 99.097656 195.851562 98.828125 196.902344 98.511719 C 197.953125 98.191406 198.984375 97.824219 200 97.402344 C 201.015625 96.980469 202.007812 96.511719 202.976562 95.996094 C 203.945312 95.476562 204.886719 94.914062 205.800781 94.300781 C 206.714844 93.691406 207.59375 93.039062 208.445312 92.339844 C 209.292969 91.644531 210.105469 90.90625 210.882812 90.132812 C 211.660156 89.355469 212.394531 88.542969 213.09375 87.691406 C 213.789062 86.84375 214.445312 85.960938 215.054688 85.046875 C 215.664062 84.136719 216.226562 83.195312 216.746094 82.226562 C 217.265625 81.257812 217.734375 80.265625 218.152344 79.25 C 218.574219 78.234375 218.945312 77.203125 219.261719 76.148438 C 219.582031 75.097656 219.847656 74.035156 220.0625 72.957031 C 220.277344 71.878906 220.4375 70.792969 220.546875 69.699219 C 220.652344 68.609375 220.707031 67.511719 220.707031 66.414062 Z M 167.039062 66.414062 C 167.039062 65.753906 167.070312 65.097656 167.136719 64.441406 C 167.199219 63.785156 167.296875 63.132812 167.425781 62.488281 C 167.554688 61.839844 167.714844 61.203125 167.90625 60.570312 C 168.097656 59.941406 168.320312 59.320312 168.570312 58.710938 C 168.824219 58.101562 169.105469 57.507812 169.414062 56.925781 C 169.726562 56.34375 170.066406 55.78125 170.429688 55.230469 C 170.796875 54.683594 171.1875 54.15625 171.609375 53.644531 C 172.027344 53.136719 172.46875 52.648438 172.933594 52.183594 C 173.398438 51.714844 173.886719 51.273438 174.398438 50.855469 C 174.90625 50.4375 175.433594 50.046875 175.984375 49.679688 C 176.53125 49.3125 177.097656 48.976562 177.675781 48.664062 C 178.257812 48.355469 178.855469 48.070312 179.464844 47.820312 C 180.070312 47.566406 180.691406 47.347656 181.324219 47.15625 C 181.953125 46.964844 182.59375 46.804688 183.238281 46.675781 C 183.886719 46.546875 184.535156 46.449219 185.191406 46.386719 C 185.847656 46.320312 186.503906 46.289062 187.164062 46.289062 C 187.824219 46.289062 188.480469 46.320312 189.136719 46.386719 C 189.792969 46.449219 190.445312 46.546875 191.089844 46.675781 C 191.738281 46.804688 192.375 46.964844 193.007812 47.15625 C 193.636719 47.347656 194.257812 47.566406 194.867188 47.820312 C 195.476562 48.070312 196.070312 48.355469 196.652344 48.664062 C 197.234375 48.976562 197.796875 49.3125 198.34375 49.679688 C 198.894531 50.046875 199.421875 50.4375 199.933594 50.855469 C 200.441406 51.273438 200.929688 51.714844 201.394531 52.183594 C 201.863281 52.648438 202.304688 53.136719 202.722656 53.644531 C 203.140625 54.15625 203.53125 54.683594 203.898438 55.230469 C 204.265625 55.78125 204.601562 56.34375 204.914062 56.925781 C 205.222656 57.507812 205.503906 58.101562 205.757812 58.710938 C 206.011719 59.320312 206.230469 59.941406 206.421875 60.570312 C 206.613281 61.203125 206.773438 61.839844 206.902344 62.488281 C 207.03125 63.132812 207.128906 63.785156 207.191406 64.441406 C 207.257812 65.097656 207.289062 65.753906 207.289062 66.414062 C 207.289062 67.074219 207.257812 67.730469 207.191406 68.386719 C 207.128906 69.042969 207.03125 69.691406 206.902344 70.339844 C 206.773438 70.984375 206.613281 71.625 206.421875 72.253906 C 206.230469 72.886719 206.011719 73.507812 205.757812 74.113281 C 205.503906 74.722656 205.222656 75.320312 204.914062 75.898438 C 204.601562 76.480469 204.265625 77.046875 203.898438 77.59375 C 203.53125 78.140625 203.140625 78.671875 202.722656 79.179688 C 202.304688 79.691406 201.863281 80.179688 201.394531 80.644531 C 200.929688 81.109375 200.441406 81.550781 199.933594 81.96875 C 199.421875 82.386719 198.894531 82.78125 198.34375 83.148438 C 197.796875 83.511719 197.234375 83.851562 196.652344 84.160156 C 196.070312 84.472656 195.476562 84.753906 194.867188 85.007812 C 194.257812 85.257812 193.636719 85.480469 193.007812 85.671875 C 192.375 85.863281 191.738281 86.023438 191.089844 86.152344 C 190.445312 86.28125 189.792969 86.375 189.136719 86.441406 C 188.480469 86.507812 187.824219 86.539062 187.164062 86.539062 C 186.503906 86.539062 185.847656 86.507812 185.191406 86.441406 C 184.535156 86.375 183.886719 86.28125 183.238281 86.152344 C 182.59375 86.023438 181.953125 85.863281 181.324219 85.671875 C 180.691406 85.480469 180.070312 85.257812 179.464844 85.007812 C 178.855469 84.753906 178.257812 84.472656 177.675781 84.160156 C 177.097656 83.851562 176.53125 83.511719 175.984375 83.148438 C 175.433594 82.78125 174.90625 82.386719 174.398438 81.96875 C 173.886719 81.550781 173.398438 81.109375 172.933594 80.644531 C 172.46875 80.179688 172.027344 79.691406 171.609375 79.179688 C 171.1875 78.671875 170.796875 78.140625 170.429688 77.59375 C 170.066406 77.046875 169.726562 76.480469 169.414062 75.898438 C 169.105469 75.320312 168.824219 74.722656 168.570312 74.113281 C 168.320312 73.507812 168.097656 72.886719 167.90625 72.253906 C 167.714844 71.625 167.554688 70.984375 167.425781 70.339844 C 167.296875 69.691406 167.199219 69.042969 167.136719 68.386719 C 167.070312 67.730469 167.039062 67.074219 167.039062 66.414062 Z M 167.039062 66.414062 " fill-opacity="1" fill-rule="nonzero"/></g></svg>