<svg xmlns="http://www.w3.org/2000/svg" xmlns:xlink="http://www.w3.org/1999/xlink" width="500" zoomAndPan="magnify" viewBox="0 0 375 374.999991" height="500" preserveAspectRatio="xMidYMid meet" version="1.0"><defs><clipPath id="58bf0f7e17"><path d="M 3.832031 126.667969 L 371.167969 126.667969 L 371.167969 375 L 3.832031 375 Z M 3.832031 126.667969 " clip-rule="nonzero"/></clipPath></defs><g clip-path="url(#58bf0f7e17)"><path fill="#6abded" d="M 152.972656 300.679688 L 13.214844 229.90625 L 42.992188 177.878906 L 182.871094 248.773438 Z M 278.726562 204.910156 L 286.679688 200.875 L 332.011719 177.878906 L 361.789062 229.90625 L 222.039062 300.675781 L 192.265625 248.773438 Z M 329.96875 293.480469 L 190.941406 364.011719 L 190.941406 260.039062 L 219.371094 309.589844 L 371.171875 232.71875 L 338.035156 174.820312 L 340.804688 173.414062 L 335.769531 170.863281 L 334.679688 168.953125 L 333.34375 169.636719 L 248.820312 126.816406 L 245.773438 132.835938 L 325.882812 173.417969 L 300.222656 186.433594 L 187.570312 243.585938 L 49.125 173.417969 L 127.09375 133.914062 L 124.046875 127.898438 L 41.660156 169.636719 L 40.324219 168.957031 L 39.234375 170.863281 L 34.191406 173.417969 L 36.96875 174.824219 L 3.832031 232.71875 L 155.625 309.585938 L 184.199219 259.988281 L 184.199219 364.011719 L 45.03125 293.480469 L 45.03125 256.140625 L 38.285156 256.140625 L 38.285156 297.625 L 184.199219 371.578125 L 184.199219 375 L 187.570312 373.289062 L 190.941406 374.996094 L 190.941406 371.574219 L 336.71875 297.625 L 336.71875 256.683594 L 329.96875 256.683594 L 329.96875 293.480469 " fill-opacity="1" fill-rule="nonzero"/></g><path fill="#6abded" d="M 184.199219 234.148438 L 190.941406 234.148438 L 190.941406 218.894531 L 184.199219 218.894531 L 184.199219 234.148438 " fill-opacity="1" fill-rule="nonzero"/><path fill="#6abded" d="M 187.570312 6.746094 C 224.6875 6.746094 254.878906 37.320312 254.878906 74.902344 C 254.878906 84.070312 253.078125 93.027344 249.53125 101.519531 C 237.25 130.503906 224.496094 148.265625 209.734375 168.828125 C 203.03125 178.160156 195.519531 188.621094 187.40625 201.058594 C 183.472656 195.652344 179.777344 190.644531 176.285156 185.90625 C 154.980469 157.019531 140.90625 137.9375 125.476562 101.535156 C 121.925781 93.035156 120.125 84.070312 120.125 74.902344 C 120.125 37.320312 150.382812 6.746094 187.570312 6.746094 Z M 170.851562 189.910156 C 175.179688 195.78125 179.820312 202.0625 184.835938 209 L 187.738281 213.007812 L 190.414062 208.835938 C 199.460938 194.703125 207.46875 183.550781 215.210938 172.761719 C 230.214844 151.871094 243.167969 133.832031 255.753906 104.136719 C 259.652344 94.800781 261.625 84.964844 261.625 74.902344 C 261.625 33.601562 228.402344 0 187.570312 0 C 146.664062 0 113.375 33.601562 113.375 74.902344 C 113.375 84.96875 115.355469 94.804688 119.261719 104.148438 C 135.003906 141.300781 149.265625 160.640625 170.851562 189.910156 " fill-opacity="1" fill-rule="nonzero"/><path fill="#6abded" d="M 187.570312 43.59375 C 204.644531 43.59375 218.535156 57.636719 218.535156 74.902344 C 218.535156 92.164062 204.644531 106.210938 187.570312 106.210938 C 170.421875 106.210938 156.46875 92.164062 156.46875 74.902344 C 156.46875 57.636719 170.421875 43.59375 187.570312 43.59375 Z M 187.570312 112.957031 C 208.363281 112.957031 225.277344 95.886719 225.277344 74.902344 C 225.277344 53.914062 208.363281 36.84375 187.570312 36.84375 C 166.703125 36.84375 149.722656 53.914062 149.722656 74.902344 C 149.722656 95.886719 166.703125 112.957031 187.570312 112.957031 " fill-opacity="1" fill-rule="nonzero"/></svg>