<svg xmlns="http://www.w3.org/2000/svg" xmlns:xlink="http://www.w3.org/1999/xlink" width="500" zoomAndPan="magnify" viewBox="0 0 375 374.999991" height="500" preserveAspectRatio="xMidYMid meet" version="1.0"><path fill="#6abded" d="M 25.296875 69.917969 L 151.441406 124.738281 L 277.589844 69.917969 L 151.441406 15.097656 Z M 151.441406 139.835938 C 150.484375 139.835938 149.46875 139.609375 148.570312 139.214844 L 4.339844 76.511719 C 1.691406 75.382812 0 72.792969 0 69.917969 C 0 67.042969 1.691406 64.453125 4.339844 63.328125 L 148.570312 0.621094 C 150.371094 -0.226562 152.511719 -0.226562 154.316406 0.621094 L 298.546875 63.328125 C 301.195312 64.453125 302.882812 67.042969 302.882812 69.917969 C 302.882812 72.792969 301.195312 75.382812 298.546875 76.511719 L 154.316406 139.214844 C 153.414062 139.609375 152.398438 139.835938 151.441406 139.835938 " fill-opacity="1" fill-rule="nonzero"/><path fill="#6abded" d="M 78.761719 108.230469 C 75.945312 108.230469 73.296875 106.59375 72.117188 103.890625 C 70.539062 100.230469 72.226562 96.003906 75.890625 94.425781 L 220.121094 31.71875 C 223.78125 30.085938 227.953125 31.777344 229.585938 35.4375 C 231.164062 39.101562 229.472656 43.324219 225.8125 44.902344 L 81.582031 107.609375 C 80.679688 108.058594 79.722656 108.230469 78.761719 108.230469 " fill-opacity="1" fill-rule="nonzero"/><path fill="#6abded" d="M 151.441406 302.882812 C 150.484375 302.882812 149.46875 302.714844 148.570312 302.265625 L 4.339844 239.558594 C 1.691406 238.375 0 235.785156 0 232.910156 L 0 69.972656 C 0 65.972656 3.210938 62.761719 7.210938 62.761719 C 11.210938 62.761719 14.421875 65.972656 14.421875 69.972656 L 14.421875 228.234375 L 151.441406 287.839844 L 192.121094 270.152344 C 195.78125 268.628906 200.007812 270.261719 201.585938 273.871094 C 203.21875 277.53125 201.527344 281.8125 197.867188 283.390625 L 154.316406 302.265625 C 153.414062 302.714844 152.398438 302.882812 151.441406 302.882812 " fill-opacity="1" fill-rule="nonzero"/><path fill="#6abded" d="M 295.671875 159.949219 C 291.671875 159.949219 288.460938 156.738281 288.460938 152.738281 L 288.460938 69.972656 C 288.460938 65.972656 291.671875 62.761719 295.671875 62.761719 C 299.671875 62.761719 302.882812 65.972656 302.882812 69.972656 L 302.882812 152.738281 C 302.882812 156.738281 299.671875 159.949219 295.671875 159.949219 " fill-opacity="1" fill-rule="nonzero"/><path fill="#6abded" d="M 151.441406 302.882812 C 147.441406 302.882812 144.230469 299.671875 144.230469 295.671875 L 144.230469 132.625 C 144.230469 128.625 147.441406 125.414062 151.441406 125.414062 C 155.441406 125.414062 158.652344 128.625 158.652344 132.625 L 158.652344 295.671875 C 158.652344 299.671875 155.441406 302.882812 151.441406 302.882812 " fill-opacity="1" fill-rule="nonzero"/><path fill="#6abded" d="M 79.328125 158.652344 C 75.328125 158.652344 72.117188 155.441406 72.117188 151.441406 L 72.117188 100.398438 C 72.117188 96.398438 75.328125 93.1875 79.328125 93.1875 C 83.328125 93.1875 86.539062 96.398438 86.539062 100.398438 L 86.539062 151.441406 C 86.539062 155.441406 83.328125 158.652344 79.328125 158.652344 " fill-opacity="1" fill-rule="nonzero"/><path fill="#6abded" d="M 281.25 201.921875 C 237.53125 201.921875 201.921875 237.53125 201.921875 281.25 C 201.921875 324.96875 237.53125 360.578125 281.25 360.578125 C 324.96875 360.578125 360.578125 324.96875 360.578125 281.25 C 360.578125 237.53125 324.96875 201.921875 281.25 201.921875 Z M 281.25 375 C 229.53125 375 187.5 332.914062 187.5 281.25 C 187.5 229.53125 229.53125 187.5 281.25 187.5 C 332.96875 187.5 375 229.53125 375 281.25 C 375 332.914062 332.96875 375 281.25 375 " fill-opacity="1" fill-rule="nonzero"/><path fill="#6abded" d="M 281.25 331.730469 C 277.25 331.730469 274.039062 328.519531 274.039062 324.519531 L 274.039062 237.980469 C 274.039062 233.980469 277.25 230.769531 281.25 230.769531 C 285.25 230.769531 288.460938 233.980469 288.460938 237.980469 L 288.460938 324.519531 C 288.460938 328.519531 285.25 331.730469 281.25 331.730469 " fill-opacity="1" fill-rule="nonzero"/><path fill="#6abded" d="M 324.519531 288.460938 L 237.980469 288.460938 C 233.980469 288.460938 230.769531 285.25 230.769531 281.25 C 230.769531 277.25 233.980469 274.039062 237.980469 274.039062 L 324.519531 274.039062 C 328.519531 274.039062 331.730469 277.25 331.730469 281.25 C 331.730469 285.25 328.519531 288.460938 324.519531 288.460938 " fill-opacity="1" fill-rule="nonzero"/></svg>