<svg xmlns="http://www.w3.org/2000/svg" xmlns:xlink="http://www.w3.org/1999/xlink" width="500" zoomAndPan="magnify" viewBox="0 0 375 374.999991" height="500" preserveAspectRatio="xMidYMid meet" version="1.0"><defs><clipPath id="dadcaf9f6a"><path d="M 2 0 L 373.125 0 L 373.125 375 L 2 375 Z M 2 0 " clip-rule="nonzero"/></clipPath></defs><g clip-path="url(#dadcaf9f6a)"><path fill="#6abded" d="M 10.898438 58.472656 C 6.046875 58.472656 2.109375 54.535156 2.109375 49.683594 C 2.109375 44.832031 6.046875 40.894531 10.898438 40.894531 L 46.132812 40.894531 C 47.960938 30.695312 52.882812 21.589844 59.898438 14.558594 C 68.882812 5.574219 81.3125 0 95.023438 0 C 108.738281 0 121.167969 5.554688 130.152344 14.558594 C 137.183594 21.589844 142.105469 30.695312 143.917969 40.894531 L 364.3125 40.894531 C 369.164062 40.894531 373.101562 44.832031 373.101562 49.683594 C 373.101562 54.535156 369.164062 58.472656 364.3125 58.472656 L 143.917969 58.472656 C 142.089844 68.671875 137.164062 77.777344 130.152344 84.808594 C 121.167969 93.792969 108.738281 99.367188 95.023438 99.367188 C 81.3125 99.367188 68.882812 93.8125 59.898438 84.808594 C 52.882812 77.777344 47.941406 68.671875 46.132812 58.472656 Z M 95.023438 275.722656 C 108.738281 275.722656 121.167969 281.277344 130.152344 290.277344 C 137.183594 297.308594 142.105469 306.417969 143.917969 316.613281 L 364.3125 316.613281 C 369.164062 316.613281 373.101562 320.550781 373.101562 325.40625 C 373.101562 330.257812 369.164062 334.195312 364.3125 334.195312 L 143.917969 334.195312 C 142.089844 344.390625 137.164062 353.5 130.152344 360.53125 C 121.167969 369.515625 108.738281 375.085938 95.023438 375.085938 C 81.3125 375.085938 68.882812 369.53125 59.898438 360.53125 C 52.882812 353.5 47.941406 344.390625 46.132812 334.195312 L 10.898438 334.195312 C 6.046875 334.195312 2.109375 330.257812 2.109375 325.40625 C 2.109375 320.550781 6.046875 316.613281 10.898438 316.613281 L 46.132812 316.613281 C 47.960938 306.417969 52.882812 297.308594 59.898438 290.277344 C 68.882812 281.292969 81.3125 275.722656 95.023438 275.722656 Z M 117.722656 302.707031 C 111.917969 296.90625 103.886719 293.300781 95.023438 293.300781 C 86.164062 293.300781 78.128906 296.886719 72.328125 302.707031 C 66.527344 308.507812 62.921875 316.542969 62.921875 325.40625 C 62.921875 334.265625 66.507812 342.300781 72.328125 348.101562 C 78.128906 353.902344 86.164062 357.507812 95.023438 357.507812 C 103.886719 357.507812 111.917969 353.921875 117.722656 348.101562 C 123.523438 342.300781 127.109375 334.265625 127.109375 325.40625 C 127.109375 316.542969 123.523438 308.527344 117.722656 302.707031 Z M 280.1875 155.449219 C 271.324219 155.449219 263.292969 159.035156 257.488281 164.855469 C 251.6875 170.65625 248.101562 178.691406 248.101562 187.554688 C 248.101562 196.414062 251.6875 204.449219 257.488281 210.25 C 263.292969 216.050781 271.324219 219.65625 280.1875 219.65625 C 289.046875 219.65625 297.082031 216.070312 302.882812 210.25 C 308.683594 204.449219 312.289062 196.414062 312.289062 187.554688 C 312.289062 178.691406 308.703125 170.65625 302.882812 164.855469 C 297.082031 159.054688 289.046875 155.449219 280.1875 155.449219 Z M 245.058594 152.425781 C 254.042969 143.441406 266.472656 137.871094 280.1875 137.871094 C 293.898438 137.871094 306.328125 143.441406 315.3125 152.425781 C 322.328125 159.441406 327.269531 168.566406 329.078125 178.761719 L 364.3125 178.761719 C 369.164062 178.761719 373.101562 182.699219 373.101562 187.554688 C 373.101562 192.40625 369.164062 196.34375 364.3125 196.34375 L 329.078125 196.34375 C 327.25 206.539062 322.328125 215.648438 315.3125 222.679688 C 306.328125 231.664062 293.898438 237.234375 280.1875 237.234375 C 266.472656 237.234375 254.042969 231.664062 245.058594 222.679688 C 238.027344 215.664062 233.105469 206.539062 231.292969 196.34375 L 10.898438 196.34375 C 6.046875 196.34375 2.109375 192.40625 2.109375 187.554688 C 2.109375 182.699219 6.046875 178.761719 10.898438 178.761719 L 231.292969 178.761719 C 233.121094 168.566406 238.046875 159.457031 245.058594 152.425781 Z M 117.722656 27.003906 C 111.917969 21.203125 103.886719 17.597656 95.023438 17.597656 C 86.164062 17.597656 78.128906 21.183594 72.328125 27.003906 C 66.527344 32.804688 62.921875 40.839844 62.921875 49.699219 C 62.921875 58.5625 66.507812 66.578125 72.328125 72.398438 C 78.128906 78.199219 86.164062 81.804688 95.023438 81.804688 C 103.886719 81.804688 111.917969 78.21875 117.722656 72.398438 C 123.523438 66.597656 127.109375 58.5625 127.109375 49.699219 C 127.109375 40.839844 123.523438 32.804688 117.722656 27.003906 Z M 117.722656 27.003906 " fill-opacity="1" fill-rule="nonzero"/></g></svg>