<svg xmlns="http://www.w3.org/2000/svg" xmlns:xlink="http://www.w3.org/1999/xlink" width="500" zoomAndPan="magnify" viewBox="0 0 375 374.999991" height="500" preserveAspectRatio="xMidYMid meet" version="1.0"><defs><clipPath id="0d26d84ecd"><path d="M 69.636719 24.371094 L 305.136719 24.371094 L 305.136719 350.621094 L 69.636719 350.621094 Z M 69.636719 24.371094 " clip-rule="nonzero"/></clipPath></defs><path fill="#6abded" d="M 196.847656 80.839844 L 260.710938 80.839844 C 263.707031 80.839844 266.132812 78.410156 266.132812 75.417969 C 266.132812 72.425781 263.707031 69.996094 260.710938 69.996094 L 196.847656 69.996094 C 193.851562 69.996094 191.425781 72.425781 191.425781 75.417969 C 191.425781 78.410156 193.851562 80.839844 196.847656 80.839844 Z M 196.847656 80.839844 " fill-opacity="1" fill-rule="nonzero"/><path fill="#6abded" d="M 196.847656 122.78125 L 260.710938 122.78125 C 263.707031 122.78125 266.132812 120.351562 266.132812 117.355469 C 266.132812 114.363281 263.707031 111.933594 260.710938 111.933594 L 196.847656 111.933594 C 193.851562 111.933594 191.425781 114.363281 191.425781 117.355469 C 191.425781 120.351562 193.851562 122.78125 196.847656 122.78125 Z M 196.847656 122.78125 " fill-opacity="1" fill-rule="nonzero"/><path fill="#6abded" d="M 260.710938 153.871094 L 114.289062 153.871094 C 111.292969 153.871094 108.867188 156.300781 108.867188 159.292969 C 108.867188 162.289062 111.292969 164.71875 114.289062 164.71875 L 260.710938 164.71875 C 263.707031 164.71875 266.132812 162.289062 266.132812 159.292969 C 266.132812 156.300781 263.707031 153.871094 260.710938 153.871094 Z M 260.710938 153.871094 " fill-opacity="1" fill-rule="nonzero"/><path fill="#6abded" d="M 260.710938 195.808594 L 114.289062 195.808594 C 111.292969 195.808594 108.867188 198.238281 108.867188 201.234375 C 108.867188 204.226562 111.292969 206.65625 114.289062 206.65625 L 260.710938 206.65625 C 263.707031 206.65625 266.132812 204.226562 266.132812 201.234375 C 266.132812 198.238281 263.707031 195.808594 260.710938 195.808594 Z M 260.710938 195.808594 " fill-opacity="1" fill-rule="nonzero"/><path fill="#6abded" d="M 260.710938 237.75 L 114.289062 237.75 C 111.292969 237.75 108.867188 240.179688 108.867188 243.171875 C 108.867188 246.164062 111.292969 248.59375 114.289062 248.59375 L 260.710938 248.59375 C 263.707031 248.59375 266.132812 246.164062 266.132812 243.171875 C 266.132812 240.179688 263.707031 237.75 260.710938 237.75 Z M 260.710938 237.75 " fill-opacity="1" fill-rule="nonzero"/><path fill="#6abded" d="M 209.191406 279.6875 L 114.289062 279.6875 C 111.292969 279.6875 108.867188 282.117188 108.867188 285.109375 C 108.867188 288.105469 111.292969 290.53125 114.289062 290.53125 L 209.191406 290.53125 C 212.1875 290.53125 214.613281 288.105469 214.613281 285.109375 C 214.613281 282.117188 212.1875 279.6875 209.191406 279.6875 Z M 209.191406 279.6875 " fill-opacity="1" fill-rule="nonzero"/><path fill="#6abded" d="M 166.460938 136.101562 C 169.460938 136.101562 171.886719 133.671875 171.886719 130.679688 L 171.886719 64.570312 C 171.886719 61.578125 169.460938 59.148438 166.460938 59.148438 L 111.199219 59.148438 C 108.203125 59.148438 105.777344 61.578125 105.777344 64.570312 L 105.777344 130.679688 C 105.777344 133.671875 108.203125 136.101562 111.199219 136.101562 Z M 116.625 69.996094 L 161.039062 69.996094 L 161.039062 125.257812 L 116.625 125.257812 Z M 116.625 69.996094 " fill-opacity="1" fill-rule="nonzero"/><g clip-path="url(#0d26d84ecd)"><path fill="#6abded" d="M 290.613281 24.804688 L 84.386719 24.804688 C 76.289062 24.804688 69.695312 31.390625 69.695312 39.492188 L 69.695312 335.5 C 69.695312 343.601562 76.285156 350.191406 84.386719 350.191406 L 241.730469 350.191406 C 241.730469 350.191406 241.734375 350.191406 241.734375 350.191406 C 242.316406 350.191406 242.871094 350.074219 243.398438 349.902344 C 243.480469 349.875 243.558594 349.859375 243.640625 349.824219 C 244.175781 349.621094 244.660156 349.332031 245.101562 348.984375 C 245.140625 348.953125 245.1875 348.941406 245.222656 348.910156 L 303.371094 299.871094 C 303.425781 299.824219 303.464844 299.765625 303.519531 299.71875 C 303.667969 299.585938 303.804688 299.445312 303.933594 299.292969 C 304.042969 299.171875 304.148438 299.046875 304.242188 298.917969 C 304.351562 298.769531 304.445312 298.613281 304.539062 298.453125 C 304.628906 298.308594 304.710938 298.164062 304.777344 298.011719 C 304.855469 297.851562 304.917969 297.679688 304.976562 297.511719 C 305.035156 297.347656 305.089844 297.1875 305.128906 297.023438 C 305.167969 296.851562 305.199219 296.683594 305.222656 296.507812 C 305.25 296.324219 305.269531 296.140625 305.28125 295.957031 C 305.285156 295.878906 305.304688 295.808594 305.304688 295.730469 L 305.304688 39.492188 C 305.300781 31.390625 298.710938 24.804688 290.613281 24.804688 Z M 80.546875 335.5 L 80.546875 39.492188 C 80.546875 37.375 82.265625 35.648438 84.386719 35.648438 L 290.613281 35.648438 C 292.734375 35.648438 294.457031 37.375 294.457031 39.492188 L 294.457031 290.304688 L 241.730469 290.304688 C 238.734375 290.304688 236.308594 292.734375 236.308594 295.726562 L 236.308594 339.339844 L 84.386719 339.339844 C 82.265625 339.339844 80.546875 337.617188 80.546875 335.5 Z M 285.039062 301.152344 L 247.152344 333.097656 L 247.152344 301.148438 L 285.039062 301.148438 Z M 285.039062 301.152344 " fill-opacity="1" fill-rule="nonzero"/></g></svg>