<svg xmlns="http://www.w3.org/2000/svg" xmlns:xlink="http://www.w3.org/1999/xlink" width="500" zoomAndPan="magnify" viewBox="0 0 375 374.999991" height="500" preserveAspectRatio="xMidYMid meet" version="1.0"><defs><clipPath id="93fe342a6c"><path d="M 3.75 35 L 360 35 L 360 341 L 3.75 341 Z M 3.75 35 " clip-rule="nonzero"/></clipPath></defs><path fill="#6abded" d="M 265.9375 229.5625 C 269.253906 231.457031 273.484375 230.320312 275.378906 227.007812 C 277.273438 223.691406 276.136719 219.492188 272.851562 217.597656 L 212.773438 182.902344 L 212.773438 106.660156 C 212.773438 102.84375 209.679688 99.75 205.859375 99.75 C 202.039062 99.75 198.945312 102.84375 198.945312 106.660156 L 198.945312 190.890625 L 265.9375 229.5625 " fill-opacity="1" fill-rule="nonzero"/><g clip-path="url(#93fe342a6c)"><path fill="#6abded" d="M 128.988281 187.828125 L 82.546875 187.828125 C 82.546875 119.257812 138.144531 63.664062 206.714844 63.664062 C 275.28125 63.664062 330.878906 119.257812 330.878906 187.828125 C 330.878906 256.398438 275.28125 311.992188 206.714844 311.992188 C 192.980469 311.992188 179.34375 309.71875 166.335938 305.238281 C 158.917969 302.679688 150.800781 306.625 148.246094 314.078125 C 145.6875 321.496094 149.667969 329.609375 157.085938 332.164062 C 236.800781 359.570312 323.648438 317.171875 351.050781 237.457031 C 378.453125 157.742188 336.085938 70.925781 256.371094 43.492188 C 176.660156 16.089844 89.808594 58.488281 62.40625 138.199219 C 56.914062 154.175781 54.105469 170.9375 54.105469 187.828125 L 7.664062 187.828125 C 5.488281 187.828125 3.75 189.566406 3.75 191.742188 C 3.75 192.722656 4.128906 193.667969 4.792969 194.394531 L 65.46875 259.871094 C 66.921875 261.449219 69.414062 261.542969 70.992188 260.058594 C 71.058594 259.996094 71.121094 259.933594 71.183594 259.871094 L 131.859375 194.394531 C 133.34375 192.816406 133.25 190.324219 131.671875 188.871094 C 130.945312 188.207031 130 187.828125 128.988281 187.828125 " fill-opacity="1" fill-rule="nonzero"/></g></svg>