<svg xmlns="http://www.w3.org/2000/svg" xmlns:xlink="http://www.w3.org/1999/xlink" width="500" zoomAndPan="magnify" viewBox="0 0 375 374.999991" height="500" preserveAspectRatio="xMidYMid meet" version="1.0"><path fill="#6abded" d="M 187.625 -0.03125 C 84.066406 -0.03125 0.117188 83.917969 0.117188 187.476562 C 0.117188 291.039062 84.066406 374.988281 187.625 374.988281 C 291.1875 374.988281 375.128906 291.039062 375.128906 187.476562 C 375.128906 83.917969 291.1875 -0.03125 187.625 -0.03125 Z M 187.625 352.691406 C 96.378906 352.691406 22.414062 278.71875 22.414062 187.472656 C 22.414062 96.226562 96.382812 22.257812 187.625 22.257812 C 278.871094 22.257812 352.835938 96.226562 352.835938 187.472656 C 352.835938 278.71875 278.871094 352.691406 187.625 352.691406 Z M 187.625 352.691406 " fill-opacity="1" fill-rule="nonzero"/><path fill="#6abded" d="M 222.53125 80.851562 C 222.53125 81.992188 222.476562 83.132812 222.363281 84.273438 C 222.253906 85.410156 222.085938 86.539062 221.863281 87.660156 C 221.640625 88.78125 221.363281 89.890625 221.03125 90.984375 C 220.699219 92.078125 220.3125 93.152344 219.875 94.207031 C 219.4375 95.265625 218.949219 96.296875 218.410156 97.304688 C 217.871094 98.3125 217.285156 99.292969 216.648438 100.242188 C 216.015625 101.195312 215.335938 102.113281 214.609375 102.996094 C 213.882812 103.878906 213.117188 104.726562 212.308594 105.535156 C 211.5 106.339844 210.65625 107.109375 209.769531 107.832031 C 208.886719 108.558594 207.96875 109.238281 207.019531 109.875 C 206.070312 110.507812 205.089844 111.097656 204.082031 111.636719 C 203.074219 112.175781 202.039062 112.664062 200.984375 113.101562 C 199.929688 113.539062 198.851562 113.921875 197.757812 114.253906 C 196.664062 114.585938 195.558594 114.863281 194.4375 115.085938 C 193.316406 115.308594 192.183594 115.476562 191.046875 115.589844 C 189.910156 115.703125 188.769531 115.757812 187.625 115.757812 C 186.484375 115.757812 185.34375 115.703125 184.203125 115.589844 C 183.066406 115.476562 181.9375 115.308594 180.816406 115.085938 C 179.695312 114.863281 178.585938 114.585938 177.492188 114.253906 C 176.398438 113.921875 175.324219 113.539062 174.269531 113.101562 C 173.210938 112.664062 172.179688 112.175781 171.171875 111.636719 C 170.164062 111.097656 169.183594 110.507812 168.234375 109.875 C 167.28125 109.238281 166.363281 108.558594 165.480469 107.832031 C 164.597656 107.109375 163.75 106.339844 162.941406 105.535156 C 162.132812 104.726562 161.367188 103.878906 160.640625 102.996094 C 159.917969 102.113281 159.238281 101.195312 158.601562 100.242188 C 157.964844 99.292969 157.378906 98.3125 156.839844 97.304688 C 156.300781 96.296875 155.8125 95.265625 155.375 94.207031 C 154.9375 93.152344 154.554688 92.078125 154.222656 90.984375 C 153.890625 89.890625 153.613281 88.78125 153.390625 87.660156 C 153.167969 86.539062 153 85.410156 152.886719 84.273438 C 152.773438 83.132812 152.71875 81.992188 152.71875 80.851562 C 152.71875 79.707031 152.773438 78.566406 152.886719 77.429688 C 153 76.292969 153.167969 75.160156 153.390625 74.039062 C 153.613281 72.917969 153.890625 71.8125 154.222656 70.71875 C 154.554688 69.625 154.9375 68.546875 155.375 67.492188 C 155.8125 66.4375 156.300781 65.402344 156.839844 64.394531 C 157.378906 63.386719 157.964844 62.40625 158.601562 61.457031 C 159.238281 60.507812 159.917969 59.589844 160.640625 58.707031 C 161.367188 57.820312 162.132812 56.976562 162.941406 56.167969 C 163.75 55.359375 164.597656 54.59375 165.480469 53.867188 C 166.363281 53.140625 167.28125 52.460938 168.234375 51.824219 C 169.183594 51.191406 170.164062 50.605469 171.171875 50.066406 C 172.179688 49.527344 173.210938 49.039062 174.269531 48.601562 C 175.324219 48.164062 176.398438 47.777344 177.492188 47.445312 C 178.585938 47.113281 179.695312 46.835938 180.816406 46.613281 C 181.9375 46.390625 183.066406 46.222656 184.203125 46.109375 C 185.34375 46 186.484375 45.941406 187.625 45.941406 C 188.769531 45.941406 189.910156 46 191.046875 46.109375 C 192.183594 46.222656 193.316406 46.390625 194.4375 46.613281 C 195.558594 46.835938 196.664062 47.113281 197.757812 47.445312 C 198.851562 47.777344 199.929688 48.164062 200.984375 48.601562 C 202.039062 49.039062 203.074219 49.527344 204.082031 50.066406 C 205.089844 50.605469 206.070312 51.191406 207.019531 51.824219 C 207.96875 52.460938 208.886719 53.140625 209.769531 53.867188 C 210.65625 54.59375 211.5 55.359375 212.308594 56.167969 C 213.117188 56.976562 213.882812 57.820312 214.609375 58.707031 C 215.335938 59.589844 216.015625 60.507812 216.648438 61.457031 C 217.285156 62.40625 217.871094 63.386719 218.410156 64.394531 C 218.949219 65.402344 219.4375 66.4375 219.875 67.492188 C 220.3125 68.546875 220.699219 69.625 221.03125 70.71875 C 221.363281 71.8125 221.640625 72.917969 221.863281 74.039062 C 222.085938 75.160156 222.253906 76.292969 222.363281 77.429688 C 222.476562 78.566406 222.53125 79.707031 222.53125 80.851562 Z M 222.53125 80.851562 " fill-opacity="1" fill-rule="nonzero"/><path fill="#6abded" d="M 220.339844 298.363281 C 220.339844 315.171875 205.808594 328.792969 187.882812 328.792969 C 169.957031 328.792969 155.421875 315.171875 155.421875 298.363281 L 155.421875 158.742188 C 155.421875 141.933594 169.957031 128.308594 187.882812 128.308594 C 205.808594 128.308594 220.339844 141.933594 220.339844 158.742188 Z M 220.339844 298.363281 " fill-opacity="1" fill-rule="nonzero"/></svg>