<svg xmlns="http://www.w3.org/2000/svg" xmlns:xlink="http://www.w3.org/1999/xlink" width="500" zoomAndPan="magnify" viewBox="0 0 375 374.999991" height="500" preserveAspectRatio="xMidYMid meet" version="1.0"><defs><clipPath id="759006e22c"><path d="M 65.738281 3.222656 L 309.488281 3.222656 L 309.488281 372.972656 L 65.738281 372.972656 Z M 65.738281 3.222656 " clip-rule="nonzero"/></clipPath></defs><g clip-path="url(#759006e22c)"><path fill="#6abded" d="M 187.496094 349.25 L 288.585938 160.042969 C 290.511719 154.519531 291.933594 148.832031 292.9375 143.058594 C 293.941406 137.199219 294.441406 131.175781 294.441406 124.980469 C 294.441406 95.441406 282.476562 68.664062 263.144531 49.332031 C 243.730469 30.003906 217.035156 18.035156 187.496094 18.035156 C 157.957031 18.035156 131.261719 30.003906 111.847656 49.332031 C 92.519531 68.664062 80.550781 95.441406 80.550781 124.980469 C 80.550781 131.175781 81.054688 137.199219 82.058594 143.058594 C 83.0625 148.832031 84.484375 154.519531 86.410156 160.042969 Z M 187.496094 58.453125 C 206.242188 58.453125 223.144531 66.070312 235.363281 78.371094 C 247.664062 90.589844 255.28125 107.492188 255.28125 126.238281 C 255.28125 130.085938 254.945312 133.851562 254.277344 137.617188 C 253.605469 141.382812 252.6875 145.066406 251.429688 148.664062 C 246.742188 162.054688 237.957031 173.515625 226.578125 181.550781 C 215.53125 189.332031 202.058594 193.9375 187.496094 193.9375 C 172.9375 193.9375 159.464844 189.332031 148.417969 181.550781 C 137.035156 173.515625 128.332031 162.054688 123.648438 148.664062 L 123.5625 148.746094 C 122.308594 145.148438 121.386719 141.46875 120.71875 137.617188 C 120.050781 133.851562 119.714844 130.085938 119.714844 126.238281 C 119.714844 107.492188 127.328125 90.589844 139.628906 78.371094 C 151.847656 66.070312 168.753906 58.453125 187.496094 58.453125 Z M 224.988281 88.746094 C 215.363281 79.207031 202.140625 73.265625 187.496094 73.265625 C 172.851562 73.265625 159.632812 79.207031 150.007812 88.746094 C 140.46875 98.371094 134.527344 111.59375 134.527344 126.238281 C 134.527344 129.332031 134.777344 132.34375 135.28125 135.191406 C 135.78125 138.121094 136.535156 141.046875 137.457031 143.808594 C 141.136719 154.269531 148 163.222656 156.871094 169.5 C 165.488281 175.609375 176.03125 179.207031 187.496094 179.207031 C 198.960938 179.207031 209.503906 175.609375 218.125 169.5 C 226.996094 163.222656 233.855469 154.269531 237.539062 143.808594 C 238.460938 141.046875 239.210938 138.203125 239.714844 135.191406 C 240.21875 132.34375 240.46875 129.332031 240.46875 126.238281 C 240.46875 111.59375 234.527344 98.371094 224.988281 88.746094 Z M 301.890625 166.320312 L 194.023438 368.246094 C 193.355469 369.585938 192.351562 370.671875 190.929688 371.34375 C 187.414062 373.265625 182.894531 371.929688 180.96875 368.328125 L 73.355469 166.824219 C 73.101562 166.320312 72.851562 165.902344 72.683594 165.316406 C 70.425781 158.957031 68.667969 152.261719 67.496094 145.484375 C 66.410156 138.707031 65.738281 131.925781 65.738281 124.980469 C 65.738281 91.339844 79.378906 60.964844 101.472656 38.871094 C 123.480469 16.863281 153.855469 3.222656 187.496094 3.222656 C 221.136719 3.222656 251.515625 16.863281 273.523438 38.871094 C 295.613281 60.964844 309.253906 91.339844 309.253906 124.980469 C 309.253906 131.925781 308.585938 138.707031 307.496094 145.484375 C 306.324219 152.261719 304.570312 158.957031 302.308594 165.316406 C 302.226562 165.652344 302.058594 165.984375 301.890625 166.320312 Z M 301.890625 166.320312 " fill-opacity="1" fill-rule="nonzero"/></g></svg>