<svg xmlns="http://www.w3.org/2000/svg" xmlns:xlink="http://www.w3.org/1999/xlink" width="500" zoomAndPan="magnify" viewBox="0 0 375 374.999991" height="500" preserveAspectRatio="xMidYMid meet" version="1.0"><defs><clipPath id="92558b6ef8"><path d="M 111 66.117188 L 142 66.117188 L 142 103 L 111 103 Z M 111 66.117188 " clip-rule="nonzero"/></clipPath><clipPath id="7ed4b2c27f"><path d="M 233 66.117188 L 264 66.117188 L 264 103 L 233 103 Z M 233 66.117188 " clip-rule="nonzero"/></clipPath></defs><path fill="#6abded" d="M 374.949219 162.4375 C 374.949219 162.144531 374.949219 162.144531 374.949219 162.4375 C 374.949219 161.851562 374.949219 161.265625 374.65625 160.972656 C 374.65625 160.972656 374.65625 160.679688 374.65625 160.679688 C 374.363281 160.09375 374.363281 159.800781 374.070312 159.214844 C 374.070312 159.214844 374.070312 159.214844 373.777344 158.921875 C 373.484375 158.628906 373.191406 158.335938 372.898438 158.042969 C 372.898438 158.042969 372.605469 157.75 372.605469 157.75 C 372.3125 157.457031 371.726562 157.164062 371.140625 156.871094 L 199.507812 92.4375 C 198.042969 91.851562 196.578125 91.851562 195.113281 92.4375 L 3.566406 178.839844 C 3.273438 179.132812 2.6875 179.425781 2.394531 179.71875 C 2.394531 179.71875 2.101562 179.71875 2.101562 180.011719 C 1.808594 180.300781 1.515625 180.59375 1.222656 181.179688 C 1.222656 181.179688 1.222656 181.472656 1.222656 181.472656 C 0.929688 181.765625 0.929688 182.351562 0.636719 182.644531 C 0.636719 182.644531 0.636719 182.9375 0.636719 182.9375 C 0.0507812 183.230469 0.0507812 183.523438 0.0507812 184.109375 L 0.0507812 248.839844 C 0.0507812 251.183594 1.515625 253.230469 3.566406 254.402344 L 38.710938 268.753906 C 40.46875 269.632812 42.519531 269.339844 44.277344 268.167969 C 46.035156 266.996094 46.914062 265.242188 46.914062 263.191406 L 46.914062 236.539062 L 134.78125 269.632812 L 134.78125 288.378906 C 134.78125 290.722656 136.246094 293.066406 138.585938 293.945312 L 174.90625 308.589844 C 175.492188 308.882812 176.371094 308.882812 176.957031 308.882812 C 177.542969 308.882812 178.421875 308.882812 179.007812 308.589844 L 215.910156 294.238281 C 218.253906 293.359375 219.71875 291.308594 219.71875 288.671875 L 219.71875 267.875 L 328.085938 219.257812 L 328.085938 241.808594 C 328.085938 243.859375 328.964844 245.617188 330.722656 246.789062 C 332.480469 247.960938 334.53125 247.960938 336.289062 247.375 L 371.433594 233.023438 C 373.777344 232.144531 374.949219 230.09375 374.949219 227.457031 Z M 177.25 242.394531 L 148.546875 231.558594 L 324.867188 152.769531 C 325.15625 152.769531 325.15625 152.476562 325.449219 152.476562 L 353.859375 163.316406 Z M 269.214844 131.097656 L 93.773438 209.589844 C 93.191406 209.882812 92.898438 210.175781 92.605469 210.46875 L 65.949219 200.511719 L 242.855469 121.433594 Z M 309.636719 146.328125 L 132.730469 225.40625 L 107.835938 216.035156 L 284.738281 136.953125 Z M 197.75 104.445312 L 227.332031 115.574219 L 50.425781 194.652344 L 21.429688 183.816406 Z M 339.800781 233.023438 L 339.800781 210.175781 C 339.800781 208.128906 338.925781 206.371094 337.167969 205.199219 C 335.410156 204.027344 333.359375 204.027344 331.601562 204.90625 L 211.515625 258.503906 C 209.464844 259.382812 208.003906 261.433594 208.003906 263.777344 L 208.003906 284.570312 L 176.664062 296.578125 L 146.496094 284.570312 L 146.496094 265.828125 C 146.496094 263.484375 145.03125 261.140625 142.6875 260.261719 L 43.105469 222.773438 C 41.347656 222.1875 39.296875 222.480469 37.832031 223.359375 C 36.367188 224.527344 35.199219 226.285156 35.199219 228.042969 L 35.199219 254.402344 L 11.765625 244.738281 L 11.765625 192.605469 L 39.296875 202.855469 C 39.296875 202.855469 39.589844 202.855469 39.589844 202.855469 L 139.171875 240.34375 C 139.464844 240.34375 139.464844 240.34375 139.757812 240.34375 L 175.492188 253.816406 C 176.078125 254.109375 176.957031 254.109375 177.542969 254.109375 C 178.421875 254.109375 179.300781 253.816406 179.886719 253.523438 L 214.445312 238.585938 C 214.445312 238.585938 214.738281 238.585938 214.738281 238.585938 L 335.703125 184.402344 C 336.289062 184.109375 336.875 183.816406 337.167969 183.230469 L 362.941406 171.515625 L 362.941406 223.359375 Z M 339.800781 233.023438 " fill-opacity="1" fill-rule="nonzero"/><path fill="#6abded" d="M 200.972656 115.574219 C 200.972656 115.84375 200.945312 116.109375 200.894531 116.375 C 200.839844 116.636719 200.765625 116.894531 200.660156 117.144531 C 200.558594 117.390625 200.429688 117.628906 200.28125 117.851562 C 200.132812 118.074219 199.960938 118.28125 199.773438 118.472656 C 199.582031 118.664062 199.375 118.832031 199.152344 118.984375 C 198.925781 119.132812 198.691406 119.257812 198.441406 119.363281 C 198.191406 119.464844 197.9375 119.542969 197.671875 119.597656 C 197.410156 119.648438 197.140625 119.675781 196.871094 119.675781 C 196.601562 119.675781 196.335938 119.648438 196.074219 119.597656 C 195.808594 119.542969 195.550781 119.464844 195.304688 119.363281 C 195.054688 119.257812 194.816406 119.132812 194.59375 118.984375 C 194.371094 118.832031 194.164062 118.664062 193.972656 118.472656 C 193.78125 118.28125 193.613281 118.074219 193.464844 117.851562 C 193.3125 117.628906 193.1875 117.390625 193.085938 117.144531 C 192.980469 116.894531 192.902344 116.636719 192.851562 116.375 C 192.796875 116.109375 192.773438 115.84375 192.773438 115.574219 C 192.773438 115.304688 192.796875 115.039062 192.851562 114.773438 C 192.902344 114.511719 192.980469 114.253906 193.085938 114.003906 C 193.1875 113.757812 193.3125 113.519531 193.464844 113.296875 C 193.613281 113.070312 193.78125 112.863281 193.972656 112.675781 C 194.164062 112.484375 194.371094 112.3125 194.59375 112.164062 C 194.816406 112.015625 195.054688 111.890625 195.304688 111.785156 C 195.550781 111.683594 195.808594 111.605469 196.074219 111.550781 C 196.335938 111.5 196.601562 111.472656 196.871094 111.472656 C 197.140625 111.472656 197.410156 111.5 197.671875 111.550781 C 197.9375 111.605469 198.191406 111.683594 198.441406 111.785156 C 198.691406 111.890625 198.925781 112.015625 199.152344 112.164062 C 199.375 112.3125 199.582031 112.484375 199.773438 112.675781 C 199.960938 112.863281 200.132812 113.070312 200.28125 113.296875 C 200.429688 113.519531 200.558594 113.757812 200.660156 114.003906 C 200.765625 114.253906 200.839844 114.511719 200.894531 114.773438 C 200.945312 115.039062 200.972656 115.304688 200.972656 115.574219 Z M 200.972656 115.574219 " fill-opacity="1" fill-rule="nonzero"/><path fill="#6abded" d="M 246.664062 132.855469 C 246.664062 133.125 246.636719 133.390625 246.585938 133.65625 C 246.53125 133.917969 246.453125 134.175781 246.351562 134.421875 C 246.25 134.671875 246.121094 134.910156 245.972656 135.132812 C 245.824219 135.355469 245.652344 135.5625 245.460938 135.753906 C 245.273438 135.945312 245.066406 136.113281 244.839844 136.265625 C 244.617188 136.414062 244.382812 136.539062 244.132812 136.644531 C 243.882812 136.746094 243.628906 136.824219 243.363281 136.875 C 243.097656 136.929688 242.832031 136.953125 242.5625 136.953125 C 242.292969 136.953125 242.027344 136.929688 241.761719 136.875 C 241.5 136.824219 241.242188 136.746094 240.992188 136.644531 C 240.746094 136.539062 240.507812 136.414062 240.285156 136.265625 C 240.0625 136.113281 239.855469 135.945312 239.664062 135.753906 C 239.472656 135.5625 239.304688 135.355469 239.152344 135.132812 C 239.003906 134.910156 238.878906 134.671875 238.773438 134.421875 C 238.671875 134.175781 238.59375 133.917969 238.542969 133.65625 C 238.488281 133.390625 238.460938 133.125 238.460938 132.855469 C 238.460938 132.585938 238.488281 132.320312 238.542969 132.054688 C 238.59375 131.789062 238.671875 131.535156 238.773438 131.285156 C 238.878906 131.035156 239.003906 130.800781 239.152344 130.578125 C 239.304688 130.351562 239.472656 130.144531 239.664062 129.957031 C 239.855469 129.765625 240.0625 129.59375 240.285156 129.445312 C 240.507812 129.296875 240.746094 129.167969 240.992188 129.066406 C 241.242188 128.964844 241.5 128.886719 241.761719 128.832031 C 242.027344 128.78125 242.292969 128.753906 242.5625 128.753906 C 242.832031 128.753906 243.097656 128.78125 243.363281 128.832031 C 243.628906 128.886719 243.882812 128.964844 244.132812 129.066406 C 244.382812 129.167969 244.617188 129.296875 244.839844 129.445312 C 245.066406 129.59375 245.273438 129.765625 245.460938 129.957031 C 245.652344 130.144531 245.824219 130.351562 245.972656 130.578125 C 246.121094 130.800781 246.25 131.035156 246.351562 131.285156 C 246.453125 131.535156 246.53125 131.789062 246.585938 132.054688 C 246.636719 132.320312 246.664062 132.585938 246.664062 132.855469 Z M 246.664062 132.855469 " fill-opacity="1" fill-rule="nonzero"/><path fill="#6abded" d="M 287.375 147.207031 C 287.375 147.476562 287.347656 147.742188 287.296875 148.007812 C 287.242188 148.269531 287.167969 148.527344 287.0625 148.773438 C 286.960938 149.023438 286.832031 149.261719 286.683594 149.484375 C 286.535156 149.707031 286.363281 149.914062 286.175781 150.105469 C 285.984375 150.296875 285.777344 150.464844 285.554688 150.617188 C 285.328125 150.765625 285.09375 150.890625 284.84375 150.996094 C 284.59375 151.097656 284.339844 151.175781 284.074219 151.226562 C 283.8125 151.28125 283.542969 151.304688 283.273438 151.304688 C 283.003906 151.304688 282.738281 151.28125 282.476562 151.226562 C 282.210938 151.175781 281.953125 151.097656 281.707031 150.996094 C 281.457031 150.890625 281.21875 150.765625 280.996094 150.617188 C 280.773438 150.464844 280.566406 150.296875 280.375 150.105469 C 280.183594 149.914062 280.015625 149.707031 279.867188 149.484375 C 279.714844 149.261719 279.589844 149.023438 279.488281 148.773438 C 279.382812 148.527344 279.304688 148.269531 279.253906 148.007812 C 279.199219 147.742188 279.175781 147.476562 279.175781 147.207031 C 279.175781 146.9375 279.199219 146.671875 279.253906 146.40625 C 279.304688 146.140625 279.382812 145.886719 279.488281 145.636719 C 279.589844 145.386719 279.714844 145.152344 279.867188 144.929688 C 280.015625 144.703125 280.183594 144.496094 280.375 144.308594 C 280.566406 144.117188 280.773438 143.945312 280.996094 143.796875 C 281.21875 143.648438 281.457031 143.519531 281.707031 143.417969 C 281.953125 143.316406 282.210938 143.238281 282.476562 143.183594 C 282.738281 143.132812 283.003906 143.105469 283.273438 143.105469 C 283.542969 143.105469 283.8125 143.132812 284.074219 143.183594 C 284.339844 143.238281 284.59375 143.316406 284.84375 143.417969 C 285.09375 143.519531 285.328125 143.648438 285.554688 143.796875 C 285.777344 143.945312 285.984375 144.117188 286.175781 144.308594 C 286.363281 144.496094 286.535156 144.703125 286.683594 144.929688 C 286.832031 145.152344 286.960938 145.386719 287.0625 145.636719 C 287.167969 145.886719 287.242188 146.140625 287.296875 146.40625 C 287.347656 146.671875 287.375 146.9375 287.375 147.207031 Z M 287.375 147.207031 " fill-opacity="1" fill-rule="nonzero"/><path fill="#6abded" d="M 326.621094 165.367188 C 326.621094 165.632812 326.597656 165.902344 326.542969 166.164062 C 326.492188 166.429688 326.414062 166.6875 326.308594 166.933594 C 326.207031 167.183594 326.082031 167.417969 325.929688 167.644531 C 325.78125 167.867188 325.613281 168.074219 325.421875 168.265625 C 325.230469 168.457031 325.023438 168.625 324.800781 168.773438 C 324.578125 168.925781 324.339844 169.050781 324.089844 169.152344 C 323.84375 169.257812 323.585938 169.335938 323.320312 169.386719 C 323.058594 169.441406 322.792969 169.464844 322.523438 169.464844 C 322.253906 169.464844 321.984375 169.441406 321.722656 169.386719 C 321.457031 169.335938 321.203125 169.257812 320.953125 169.152344 C 320.703125 169.050781 320.46875 168.925781 320.242188 168.773438 C 320.019531 168.625 319.8125 168.457031 319.621094 168.265625 C 319.433594 168.074219 319.261719 167.867188 319.113281 167.644531 C 318.964844 167.417969 318.835938 167.183594 318.734375 166.933594 C 318.628906 166.6875 318.554688 166.429688 318.5 166.164062 C 318.449219 165.902344 318.421875 165.632812 318.421875 165.367188 C 318.421875 165.097656 318.449219 164.828125 318.5 164.566406 C 318.554688 164.300781 318.628906 164.042969 318.734375 163.796875 C 318.835938 163.546875 318.964844 163.3125 319.113281 163.085938 C 319.261719 162.863281 319.433594 162.65625 319.621094 162.464844 C 319.8125 162.277344 320.019531 162.105469 320.242188 161.957031 C 320.46875 161.804688 320.703125 161.679688 320.953125 161.578125 C 321.203125 161.472656 321.457031 161.394531 321.722656 161.34375 C 321.984375 161.292969 322.253906 161.265625 322.523438 161.265625 C 322.792969 161.265625 323.058594 161.292969 323.320312 161.34375 C 323.585938 161.394531 323.84375 161.472656 324.089844 161.578125 C 324.339844 161.679688 324.578125 161.804688 324.800781 161.957031 C 325.023438 162.105469 325.230469 162.277344 325.421875 162.464844 C 325.613281 162.65625 325.78125 162.863281 325.929688 163.085938 C 326.082031 163.3125 326.207031 163.546875 326.308594 163.796875 C 326.414062 164.042969 326.492188 164.300781 326.542969 164.566406 C 326.597656 164.828125 326.621094 165.097656 326.621094 165.367188 Z M 326.621094 165.367188 " fill-opacity="1" fill-rule="nonzero"/><path fill="#6abded" d="M 153.90625 85.84375 C 153.632812 85.84375 153.359375 85.871094 153.089844 85.925781 C 152.820312 85.980469 152.558594 86.058594 152.304688 86.164062 C 152.050781 86.269531 151.808594 86.398438 151.578125 86.550781 C 151.347656 86.707031 151.136719 86.878906 150.941406 87.074219 C 150.746094 87.269531 150.574219 87.480469 150.421875 87.710938 C 150.269531 87.9375 150.136719 88.179688 150.03125 88.433594 C 149.925781 88.6875 149.847656 88.949219 149.792969 89.222656 C 149.738281 89.492188 149.710938 89.765625 149.710938 90.039062 L 149.710938 140.40625 C 149.710938 140.683594 149.738281 140.957031 149.792969 141.226562 C 149.847656 141.496094 149.925781 141.757812 150.03125 142.011719 C 150.136719 142.265625 150.265625 142.507812 150.417969 142.738281 C 150.574219 142.96875 150.746094 143.179688 150.941406 143.375 C 151.136719 143.570312 151.347656 143.742188 151.578125 143.894531 C 151.804688 144.046875 152.046875 144.179688 152.300781 144.285156 C 152.558594 144.390625 152.820312 144.46875 153.089844 144.523438 C 153.359375 144.574219 153.632812 144.601562 153.90625 144.601562 C 154.183594 144.601562 154.457031 144.574219 154.726562 144.523438 C 154.996094 144.46875 155.257812 144.390625 155.515625 144.285156 C 155.769531 144.179688 156.011719 144.046875 156.238281 143.894531 C 156.46875 143.742188 156.679688 143.570312 156.875 143.375 C 157.070312 143.179688 157.242188 142.96875 157.398438 142.738281 C 157.550781 142.507812 157.679688 142.265625 157.785156 142.011719 C 157.890625 141.757812 157.96875 141.496094 158.023438 141.226562 C 158.078125 140.957031 158.105469 140.683594 158.105469 140.40625 L 158.105469 90.042969 C 158.105469 89.769531 158.078125 89.496094 158.023438 89.226562 C 157.96875 88.957031 157.890625 88.691406 157.785156 88.4375 C 157.679688 88.183594 157.550781 87.941406 157.398438 87.710938 C 157.242188 87.484375 157.070312 87.269531 156.875 87.074219 C 156.679688 86.878906 156.46875 86.707031 156.238281 86.554688 C 156.011719 86.398438 155.769531 86.269531 155.515625 86.164062 C 155.257812 86.058594 154.996094 85.980469 154.726562 85.925781 C 154.457031 85.871094 154.183594 85.84375 153.90625 85.84375 Z M 153.90625 85.84375 " fill-opacity="1" fill-rule="evenodd"/><path fill="#6abded" d="M 137.117188 85.84375 C 136.84375 85.84375 136.570312 85.871094 136.300781 85.925781 C 136.03125 85.980469 135.765625 86.058594 135.511719 86.164062 C 135.257812 86.269531 135.015625 86.398438 134.789062 86.554688 C 134.558594 86.707031 134.347656 86.878906 134.152344 87.074219 C 133.957031 87.269531 133.78125 87.484375 133.628906 87.710938 C 133.476562 87.941406 133.347656 88.183594 133.242188 88.4375 C 133.136719 88.691406 133.058594 88.957031 133.003906 89.226562 C 132.949219 89.496094 132.921875 89.769531 132.921875 90.042969 L 132.921875 140.414062 C 132.921875 140.6875 132.949219 140.960938 133.003906 141.230469 C 133.058594 141.5 133.136719 141.761719 133.242188 142.019531 C 133.347656 142.273438 133.476562 142.515625 133.628906 142.742188 C 133.785156 142.972656 133.957031 143.183594 134.152344 143.378906 C 134.347656 143.574219 134.558594 143.746094 134.789062 143.902344 C 135.015625 144.054688 135.257812 144.183594 135.511719 144.289062 C 135.769531 144.394531 136.03125 144.472656 136.300781 144.527344 C 136.570312 144.582031 136.84375 144.609375 137.117188 144.609375 C 137.394531 144.609375 137.667969 144.582031 137.9375 144.527344 C 138.207031 144.472656 138.46875 144.394531 138.726562 144.289062 C 138.980469 144.183594 139.222656 144.054688 139.449219 143.902344 C 139.679688 143.746094 139.890625 143.574219 140.085938 143.378906 C 140.28125 143.183594 140.453125 142.972656 140.609375 142.742188 C 140.761719 142.515625 140.890625 142.273438 140.996094 142.019531 C 141.101562 141.761719 141.179688 141.5 141.234375 141.230469 C 141.289062 140.960938 141.316406 140.6875 141.316406 140.414062 L 141.316406 90.042969 C 141.316406 89.769531 141.289062 89.496094 141.234375 89.226562 C 141.179688 88.957031 141.101562 88.691406 140.996094 88.4375 C 140.890625 88.183594 140.761719 87.941406 140.609375 87.710938 C 140.453125 87.484375 140.28125 87.269531 140.085938 87.074219 C 139.890625 86.878906 139.679688 86.707031 139.449219 86.554688 C 139.222656 86.398438 138.980469 86.269531 138.726562 86.164062 C 138.46875 86.058594 138.207031 85.980469 137.9375 85.925781 C 137.667969 85.871094 137.394531 85.84375 137.117188 85.84375 Z M 137.117188 85.84375 " fill-opacity="1" fill-rule="evenodd"/><path fill="#6abded" d="M 170.699219 85.84375 C 170.421875 85.84375 170.148438 85.871094 169.878906 85.925781 C 169.609375 85.980469 169.347656 86.058594 169.09375 86.164062 C 168.839844 86.269531 168.597656 86.398438 168.367188 86.550781 C 168.136719 86.707031 167.925781 86.878906 167.730469 87.074219 C 167.539062 87.269531 167.363281 87.480469 167.210938 87.710938 C 167.058594 87.9375 166.929688 88.179688 166.820312 88.433594 C 166.714844 88.6875 166.636719 88.949219 166.582031 89.222656 C 166.527344 89.492188 166.5 89.765625 166.5 90.039062 L 166.5 140.40625 C 166.5 140.683594 166.527344 140.957031 166.582031 141.226562 C 166.636719 141.496094 166.714844 141.757812 166.820312 142.011719 C 166.925781 142.265625 167.054688 142.507812 167.207031 142.738281 C 167.363281 142.96875 167.535156 143.179688 167.730469 143.375 C 167.925781 143.570312 168.136719 143.742188 168.367188 143.894531 C 168.59375 144.046875 168.835938 144.179688 169.089844 144.285156 C 169.347656 144.390625 169.609375 144.46875 169.878906 144.523438 C 170.148438 144.574219 170.421875 144.601562 170.699219 144.601562 C 170.972656 144.601562 171.246094 144.574219 171.515625 144.523438 C 171.785156 144.46875 172.046875 144.390625 172.304688 144.285156 C 172.558594 144.179688 172.800781 144.046875 173.027344 143.894531 C 173.257812 143.742188 173.46875 143.570312 173.664062 143.375 C 173.859375 143.179688 174.03125 142.96875 174.1875 142.738281 C 174.339844 142.507812 174.46875 142.265625 174.574219 142.011719 C 174.679688 141.757812 174.757812 141.496094 174.8125 141.226562 C 174.867188 140.957031 174.894531 140.683594 174.894531 140.40625 L 174.894531 90.042969 C 174.894531 89.769531 174.867188 89.496094 174.8125 89.226562 C 174.757812 88.957031 174.679688 88.691406 174.574219 88.4375 C 174.46875 88.183594 174.339844 87.941406 174.1875 87.710938 C 174.035156 87.484375 173.859375 87.269531 173.664062 87.074219 C 173.46875 86.878906 173.257812 86.707031 173.027344 86.554688 C 172.800781 86.398438 172.558594 86.269531 172.304688 86.164062 C 172.050781 86.058594 171.785156 85.980469 171.515625 85.925781 C 171.246094 85.871094 170.972656 85.84375 170.699219 85.84375 Z M 170.699219 85.84375 " fill-opacity="1" fill-rule="evenodd"/><path fill="#6abded" d="M 187.488281 85.84375 C 187.210938 85.84375 186.9375 85.871094 186.667969 85.925781 C 186.398438 85.980469 186.136719 86.058594 185.882812 86.164062 C 185.628906 86.269531 185.386719 86.398438 185.15625 86.550781 C 184.925781 86.707031 184.714844 86.878906 184.519531 87.074219 C 184.328125 87.269531 184.152344 87.480469 184 87.710938 C 183.847656 87.9375 183.71875 88.179688 183.613281 88.433594 C 183.503906 88.6875 183.425781 88.949219 183.371094 89.222656 C 183.316406 89.492188 183.289062 89.765625 183.289062 90.039062 L 183.289062 140.40625 C 183.289062 140.683594 183.316406 140.953125 183.371094 141.222656 C 183.425781 141.496094 183.507812 141.757812 183.613281 142.011719 C 183.71875 142.265625 183.847656 142.507812 184 142.734375 C 184.152344 142.964844 184.328125 143.175781 184.523438 143.371094 C 184.714844 143.566406 184.929688 143.738281 185.15625 143.890625 C 185.386719 144.042969 185.628906 144.171875 185.882812 144.277344 C 186.136719 144.382812 186.398438 144.460938 186.667969 144.515625 C 186.9375 144.570312 187.210938 144.597656 187.488281 144.597656 C 187.761719 144.597656 188.035156 144.570312 188.304688 144.515625 C 188.574219 144.460938 188.835938 144.382812 189.089844 144.277344 C 189.34375 144.171875 189.585938 144.042969 189.816406 143.890625 C 190.042969 143.738281 190.257812 143.566406 190.453125 143.371094 C 190.644531 143.175781 190.820312 142.964844 190.972656 142.734375 C 191.125 142.507812 191.253906 142.265625 191.359375 142.011719 C 191.46875 141.757812 191.546875 141.496094 191.601562 141.222656 C 191.65625 140.953125 191.683594 140.683594 191.683594 140.40625 L 191.683594 90.042969 C 191.683594 89.769531 191.65625 89.496094 191.601562 89.226562 C 191.546875 88.957031 191.46875 88.691406 191.363281 88.4375 C 191.257812 88.183594 191.128906 87.941406 190.976562 87.710938 C 190.824219 87.484375 190.648438 87.269531 190.453125 87.074219 C 190.257812 86.882812 190.046875 86.707031 189.816406 86.554688 C 189.589844 86.398438 189.347656 86.269531 189.09375 86.164062 C 188.839844 86.058594 188.574219 85.980469 188.304688 85.925781 C 188.035156 85.871094 187.761719 85.84375 187.488281 85.84375 Z M 187.488281 85.84375 " fill-opacity="1" fill-rule="evenodd"/><path fill="#6abded" d="M 204.277344 85.84375 C 204 85.84375 203.726562 85.871094 203.457031 85.925781 C 203.1875 85.980469 202.925781 86.058594 202.671875 86.164062 C 202.417969 86.269531 202.175781 86.398438 201.945312 86.550781 C 201.71875 86.707031 201.503906 86.878906 201.308594 87.074219 C 201.117188 87.269531 200.941406 87.480469 200.789062 87.710938 C 200.636719 87.9375 200.507812 88.179688 200.402344 88.433594 C 200.296875 88.6875 200.214844 88.949219 200.160156 89.222656 C 200.105469 89.492188 200.078125 89.765625 200.078125 90.039062 L 200.078125 140.40625 C 200.078125 140.683594 200.105469 140.957031 200.160156 141.226562 C 200.214844 141.496094 200.292969 141.757812 200.398438 142.011719 C 200.503906 142.265625 200.632812 142.507812 200.785156 142.738281 C 200.941406 142.96875 201.113281 143.179688 201.308594 143.375 C 201.503906 143.570312 201.714844 143.742188 201.945312 143.894531 C 202.171875 144.046875 202.414062 144.179688 202.667969 144.285156 C 202.925781 144.390625 203.1875 144.46875 203.457031 144.523438 C 203.726562 144.574219 204 144.601562 204.277344 144.601562 C 204.550781 144.601562 204.824219 144.574219 205.09375 144.523438 C 205.363281 144.46875 205.625 144.390625 205.882812 144.285156 C 206.136719 144.179688 206.378906 144.046875 206.605469 143.894531 C 206.835938 143.742188 207.046875 143.570312 207.242188 143.375 C 207.4375 143.179688 207.609375 142.96875 207.765625 142.738281 C 207.917969 142.507812 208.046875 142.265625 208.152344 142.011719 C 208.257812 141.757812 208.335938 141.496094 208.390625 141.226562 C 208.445312 140.957031 208.472656 140.683594 208.472656 140.40625 L 208.472656 90.042969 C 208.472656 89.769531 208.445312 89.496094 208.390625 89.226562 C 208.335938 88.957031 208.257812 88.691406 208.152344 88.4375 C 208.046875 88.183594 207.917969 87.941406 207.765625 87.710938 C 207.613281 87.484375 207.4375 87.269531 207.242188 87.074219 C 207.046875 86.878906 206.835938 86.707031 206.605469 86.554688 C 206.378906 86.398438 206.136719 86.269531 205.882812 86.164062 C 205.628906 86.058594 205.363281 85.980469 205.09375 85.925781 C 204.824219 85.871094 204.550781 85.84375 204.277344 85.84375 Z M 204.277344 85.84375 " fill-opacity="1" fill-rule="evenodd"/><path fill="#6abded" d="M 221.066406 85.84375 C 220.789062 85.84375 220.515625 85.871094 220.246094 85.925781 C 219.976562 85.980469 219.714844 86.058594 219.460938 86.164062 C 219.207031 86.269531 218.964844 86.398438 218.734375 86.550781 C 218.507812 86.707031 218.292969 86.878906 218.097656 87.074219 C 217.90625 87.269531 217.730469 87.480469 217.578125 87.710938 C 217.425781 87.9375 217.296875 88.179688 217.191406 88.433594 C 217.085938 88.6875 217.003906 88.949219 216.949219 89.222656 C 216.894531 89.492188 216.871094 89.765625 216.867188 90.039062 L 216.867188 140.40625 C 216.867188 140.683594 216.894531 140.957031 216.949219 141.226562 C 217.003906 141.496094 217.082031 141.757812 217.1875 142.011719 C 217.292969 142.265625 217.421875 142.507812 217.574219 142.738281 C 217.730469 142.96875 217.902344 143.179688 218.097656 143.375 C 218.292969 143.570312 218.503906 143.742188 218.734375 143.894531 C 218.960938 144.046875 219.203125 144.179688 219.460938 144.285156 C 219.714844 144.390625 219.976562 144.46875 220.246094 144.523438 C 220.515625 144.574219 220.789062 144.601562 221.066406 144.601562 C 221.339844 144.601562 221.613281 144.574219 221.882812 144.523438 C 222.152344 144.46875 222.414062 144.390625 222.671875 144.285156 C 222.925781 144.179688 223.167969 144.046875 223.394531 143.894531 C 223.625 143.742188 223.835938 143.570312 224.03125 143.375 C 224.226562 143.179688 224.402344 142.96875 224.554688 142.738281 C 224.707031 142.507812 224.835938 142.265625 224.941406 142.011719 C 225.046875 141.757812 225.125 141.496094 225.179688 141.226562 C 225.234375 140.957031 225.261719 140.683594 225.261719 140.40625 L 225.261719 90.042969 C 225.261719 89.769531 225.234375 89.496094 225.179688 89.226562 C 225.125 88.957031 225.046875 88.691406 224.941406 88.4375 C 224.835938 88.183594 224.707031 87.941406 224.554688 87.710938 C 224.402344 87.484375 224.226562 87.269531 224.03125 87.074219 C 223.835938 86.878906 223.625 86.707031 223.394531 86.554688 C 223.167969 86.398438 222.925781 86.269531 222.671875 86.164062 C 222.417969 86.058594 222.152344 85.980469 221.882812 85.925781 C 221.613281 85.871094 221.339844 85.84375 221.066406 85.84375 Z M 221.066406 85.84375 " fill-opacity="1" fill-rule="evenodd"/><path fill="#6abded" d="M 237.855469 144.609375 C 238.128906 144.609375 238.402344 144.582031 238.671875 144.527344 C 238.941406 144.472656 239.207031 144.390625 239.460938 144.285156 C 239.714844 144.179688 239.957031 144.050781 240.183594 143.898438 C 240.414062 143.746094 240.625 143.570312 240.820312 143.375 C 241.015625 143.179688 241.191406 142.96875 241.34375 142.738281 C 241.496094 142.511719 241.625 142.269531 241.730469 142.011719 C 241.835938 141.757812 241.914062 141.496094 241.96875 141.226562 C 242.023438 140.957031 242.050781 140.683594 242.050781 140.40625 L 242.050781 90.042969 C 242.050781 89.769531 242.023438 89.496094 241.96875 89.226562 C 241.914062 88.957031 241.835938 88.695312 241.730469 88.4375 C 241.625 88.183594 241.496094 87.941406 241.34375 87.714844 C 241.191406 87.484375 241.015625 87.273438 240.820312 87.078125 C 240.625 86.882812 240.414062 86.710938 240.183594 86.554688 C 239.957031 86.402344 239.714844 86.273438 239.460938 86.167969 C 239.203125 86.0625 238.941406 85.984375 238.671875 85.929688 C 238.402344 85.875 238.128906 85.847656 237.855469 85.847656 C 237.578125 85.847656 237.304688 85.875 237.035156 85.929688 C 236.765625 85.984375 236.503906 86.0625 236.25 86.167969 C 235.992188 86.273438 235.75 86.402344 235.523438 86.554688 C 235.292969 86.710938 235.082031 86.882812 234.886719 87.078125 C 234.691406 87.273438 234.519531 87.484375 234.363281 87.714844 C 234.210938 87.941406 234.082031 88.183594 233.976562 88.4375 C 233.871094 88.695312 233.792969 88.957031 233.738281 89.226562 C 233.683594 89.496094 233.65625 89.769531 233.65625 90.042969 L 233.65625 140.414062 C 233.660156 140.6875 233.683594 140.960938 233.738281 141.230469 C 233.792969 141.5 233.875 141.761719 233.980469 142.015625 C 234.085938 142.273438 234.214844 142.511719 234.367188 142.742188 C 234.519531 142.972656 234.695312 143.183594 234.886719 143.378906 C 235.082031 143.574219 235.296875 143.746094 235.523438 143.898438 C 235.753906 144.050781 235.996094 144.183594 236.25 144.289062 C 236.503906 144.394531 236.765625 144.472656 237.035156 144.527344 C 237.304688 144.582031 237.578125 144.609375 237.855469 144.609375 Z M 237.855469 144.609375 " fill-opacity="1" fill-rule="evenodd"/><g clip-path="url(#92558b6ef8)"><path fill="#6abded" d="M 137.117188 65.910156 L 124.320312 65.910156 C 123.449219 65.910156 122.589844 65.996094 121.738281 66.164062 C 120.886719 66.335938 120.0625 66.585938 119.257812 66.917969 C 118.457031 67.25 117.695312 67.65625 116.972656 68.140625 C 116.25 68.621094 115.582031 69.167969 114.96875 69.785156 C 114.355469 70.398438 113.808594 71.066406 113.324219 71.785156 C 112.84375 72.507812 112.4375 73.269531 112.105469 74.074219 C 111.773438 74.875 111.519531 75.703125 111.351562 76.554688 C 111.183594 77.402344 111.097656 78.265625 111.097656 79.132812 L 111.097656 98.4375 C 111.097656 98.710938 111.125 98.984375 111.179688 99.253906 C 111.234375 99.523438 111.3125 99.789062 111.417969 100.042969 C 111.523438 100.296875 111.652344 100.539062 111.804688 100.765625 C 111.957031 100.996094 112.132812 101.207031 112.328125 101.402344 C 112.523438 101.597656 112.734375 101.769531 112.964844 101.921875 C 113.191406 102.078125 113.433594 102.207031 113.6875 102.3125 C 113.941406 102.417969 114.207031 102.496094 114.476562 102.550781 C 114.746094 102.605469 115.019531 102.628906 115.292969 102.628906 C 115.570312 102.628906 115.839844 102.605469 116.113281 102.550781 C 116.382812 102.496094 116.644531 102.417969 116.898438 102.3125 C 117.152344 102.207031 117.394531 102.078125 117.625 101.921875 C 117.851562 101.769531 118.066406 101.597656 118.261719 101.402344 C 118.453125 101.207031 118.628906 100.996094 118.78125 100.765625 C 118.933594 100.539062 119.0625 100.296875 119.167969 100.042969 C 119.273438 99.789062 119.355469 99.523438 119.410156 99.253906 C 119.460938 98.984375 119.488281 98.710938 119.488281 98.4375 L 119.488281 79.132812 C 119.488281 78.816406 119.519531 78.5 119.582031 78.191406 C 119.644531 77.878906 119.734375 77.578125 119.855469 77.285156 C 119.976562 76.988281 120.125 76.710938 120.300781 76.449219 C 120.476562 76.183594 120.679688 75.941406 120.902344 75.714844 C 121.125 75.492188 121.371094 75.292969 121.632812 75.117188 C 121.898438 74.9375 122.175781 74.789062 122.46875 74.667969 C 122.761719 74.546875 123.066406 74.457031 123.375 74.394531 C 123.6875 74.332031 124 74.304688 124.320312 74.304688 L 137.117188 74.304688 C 137.394531 74.304688 137.667969 74.277344 137.9375 74.222656 C 138.207031 74.167969 138.46875 74.089844 138.726562 73.984375 C 138.980469 73.878906 139.222656 73.75 139.449219 73.597656 C 139.679688 73.441406 139.890625 73.269531 140.085938 73.074219 C 140.28125 72.878906 140.453125 72.667969 140.609375 72.4375 C 140.761719 72.210938 140.890625 71.96875 140.996094 71.714844 C 141.101562 71.457031 141.179688 71.195312 141.234375 70.925781 C 141.289062 70.65625 141.316406 70.382812 141.316406 70.105469 C 141.316406 69.832031 141.289062 69.558594 141.234375 69.289062 C 141.179688 69.019531 141.101562 68.757812 140.996094 68.5 C 140.890625 68.246094 140.761719 68.003906 140.609375 67.777344 C 140.453125 67.546875 140.28125 67.335938 140.085938 67.140625 C 139.890625 66.945312 139.679688 66.773438 139.449219 66.617188 C 139.222656 66.464844 138.980469 66.335938 138.726562 66.230469 C 138.46875 66.125 138.207031 66.046875 137.9375 65.992188 C 137.667969 65.9375 137.394531 65.910156 137.117188 65.910156 Z M 137.117188 65.910156 " fill-opacity="1" fill-rule="evenodd"/></g><path fill="#6abded" d="M 137.117188 156.148438 L 124.320312 156.148438 C 124 156.148438 123.6875 156.117188 123.375 156.054688 C 123.066406 155.996094 122.761719 155.902344 122.46875 155.78125 C 122.175781 155.660156 121.898438 155.511719 121.632812 155.335938 C 121.371094 155.160156 121.125 154.960938 120.902344 154.734375 C 120.679688 154.511719 120.476562 154.265625 120.300781 154.003906 C 120.125 153.738281 119.976562 153.460938 119.855469 153.167969 C 119.734375 152.875 119.644531 152.574219 119.582031 152.261719 C 119.519531 151.949219 119.488281 151.636719 119.488281 151.320312 L 119.488281 132.015625 C 119.488281 131.738281 119.460938 131.464844 119.410156 131.195312 C 119.355469 130.925781 119.277344 130.664062 119.171875 130.410156 C 119.066406 130.15625 118.933594 129.914062 118.78125 129.683594 C 118.628906 129.453125 118.457031 129.242188 118.261719 129.046875 C 118.066406 128.851562 117.855469 128.679688 117.625 128.527344 C 117.394531 128.375 117.152344 128.242188 116.898438 128.136719 C 116.644531 128.03125 116.382812 127.953125 116.113281 127.898438 C 115.84375 127.847656 115.570312 127.820312 115.292969 127.820312 C 115.019531 127.820312 114.746094 127.847656 114.476562 127.898438 C 114.203125 127.953125 113.941406 128.03125 113.6875 128.136719 C 113.433594 128.242188 113.191406 128.375 112.960938 128.527344 C 112.734375 128.679688 112.519531 128.851562 112.328125 129.046875 C 112.132812 129.242188 111.957031 129.453125 111.804688 129.683594 C 111.652344 129.914062 111.523438 130.15625 111.417969 130.410156 C 111.3125 130.664062 111.230469 130.925781 111.179688 131.195312 C 111.125 131.464844 111.097656 131.738281 111.097656 132.015625 L 111.097656 151.320312 C 111.097656 152.1875 111.183594 153.046875 111.351562 153.898438 C 111.519531 154.75 111.773438 155.578125 112.105469 156.378906 C 112.4375 157.179688 112.84375 157.941406 113.324219 158.664062 C 113.808594 159.386719 114.355469 160.054688 114.96875 160.667969 C 115.582031 161.28125 116.25 161.828125 116.972656 162.3125 C 117.695312 162.792969 118.457031 163.203125 119.257812 163.535156 C 120.0625 163.867188 120.886719 164.117188 121.738281 164.285156 C 122.589844 164.457031 123.449219 164.539062 124.320312 164.539062 L 137.117188 164.539062 C 137.394531 164.539062 137.667969 164.511719 137.9375 164.460938 C 138.207031 164.40625 138.46875 164.328125 138.726562 164.222656 C 138.980469 164.117188 139.222656 163.984375 139.449219 163.832031 C 139.679688 163.679688 139.890625 163.507812 140.085938 163.3125 C 140.28125 163.117188 140.453125 162.90625 140.609375 162.675781 C 140.761719 162.445312 140.890625 162.203125 140.996094 161.949219 C 141.101562 161.695312 141.179688 161.433594 141.234375 161.164062 C 141.289062 160.894531 141.316406 160.621094 141.316406 160.34375 C 141.316406 160.070312 141.289062 159.796875 141.234375 159.527344 C 141.179688 159.253906 141.101562 158.992188 140.996094 158.738281 C 140.890625 158.484375 140.761719 158.242188 140.609375 158.011719 C 140.453125 157.785156 140.28125 157.570312 140.085938 157.378906 C 139.890625 157.183594 139.679688 157.007812 139.449219 156.855469 C 139.222656 156.703125 138.980469 156.574219 138.726562 156.46875 C 138.46875 156.363281 138.207031 156.28125 137.9375 156.230469 C 137.667969 156.175781 137.394531 156.148438 137.117188 156.148438 Z M 137.117188 156.148438 " fill-opacity="1" fill-rule="evenodd"/><path fill="#6abded" d="M 259.679688 127.820312 C 259.402344 127.820312 259.132812 127.847656 258.859375 127.902344 C 258.589844 127.953125 258.328125 128.035156 258.074219 128.140625 C 257.820312 128.246094 257.578125 128.375 257.347656 128.527344 C 257.121094 128.679688 256.910156 128.855469 256.714844 129.050781 C 256.519531 129.246094 256.34375 129.457031 256.191406 129.683594 C 256.039062 129.914062 255.910156 130.15625 255.804688 130.410156 C 255.699219 130.664062 255.617188 130.925781 255.566406 131.195312 C 255.511719 131.46875 255.484375 131.738281 255.484375 132.015625 L 255.484375 151.320312 C 255.484375 151.636719 255.453125 151.949219 255.390625 152.261719 C 255.328125 152.574219 255.238281 152.875 255.117188 153.167969 C 254.996094 153.460938 254.847656 153.738281 254.671875 154.003906 C 254.496094 154.265625 254.292969 154.511719 254.070312 154.734375 C 253.847656 154.960938 253.601562 155.160156 253.339844 155.335938 C 253.074219 155.511719 252.796875 155.660156 252.503906 155.78125 C 252.210938 155.902344 251.90625 155.996094 251.597656 156.054688 C 251.285156 156.117188 250.972656 156.148438 250.65625 156.148438 L 237.855469 156.148438 C 237.578125 156.148438 237.304688 156.175781 237.035156 156.230469 C 236.765625 156.28125 236.503906 156.363281 236.25 156.46875 C 235.992188 156.574219 235.75 156.703125 235.523438 156.855469 C 235.292969 157.007812 235.082031 157.183594 234.886719 157.378906 C 234.691406 157.570312 234.519531 157.785156 234.363281 158.011719 C 234.210938 158.242188 234.082031 158.484375 233.976562 158.738281 C 233.871094 158.992188 233.792969 159.253906 233.738281 159.527344 C 233.683594 159.796875 233.65625 160.070312 233.65625 160.34375 C 233.65625 160.621094 233.683594 160.894531 233.738281 161.164062 C 233.792969 161.433594 233.871094 161.695312 233.976562 161.949219 C 234.082031 162.203125 234.210938 162.445312 234.363281 162.675781 C 234.519531 162.90625 234.691406 163.117188 234.886719 163.3125 C 235.082031 163.507812 235.292969 163.679688 235.523438 163.832031 C 235.75 163.984375 235.992188 164.117188 236.25 164.222656 C 236.503906 164.328125 236.765625 164.40625 237.035156 164.460938 C 237.304688 164.511719 237.578125 164.539062 237.855469 164.539062 L 250.65625 164.539062 C 251.523438 164.539062 252.382812 164.457031 253.234375 164.285156 C 254.085938 164.117188 254.910156 163.867188 255.714844 163.535156 C 256.515625 163.203125 257.277344 162.792969 258 162.3125 C 258.722656 161.828125 259.390625 161.28125 260.003906 160.667969 C 260.617188 160.054688 261.164062 159.386719 261.648438 158.664062 C 262.128906 157.941406 262.535156 157.179688 262.867188 156.378906 C 263.199219 155.578125 263.453125 154.75 263.621094 153.898438 C 263.789062 153.046875 263.875 152.1875 263.875 151.320312 L 263.875 132.015625 C 263.875 131.738281 263.847656 131.46875 263.792969 131.195312 C 263.738281 130.925781 263.660156 130.664062 263.554688 130.410156 C 263.449219 130.15625 263.320312 129.914062 263.167969 129.683594 C 263.011719 129.457031 262.839844 129.246094 262.644531 129.050781 C 262.449219 128.855469 262.238281 128.679688 262.007812 128.527344 C 261.78125 128.375 261.539062 128.246094 261.285156 128.140625 C 261.03125 128.035156 260.765625 127.953125 260.496094 127.902344 C 260.226562 127.847656 259.953125 127.820312 259.679688 127.820312 Z M 259.679688 127.820312 " fill-opacity="1" fill-rule="evenodd"/><g clip-path="url(#7ed4b2c27f)"><path fill="#6abded" d="M 250.65625 65.910156 L 237.855469 65.910156 C 237.578125 65.910156 237.304688 65.9375 237.035156 65.992188 C 236.765625 66.046875 236.503906 66.125 236.25 66.230469 C 235.992188 66.335938 235.75 66.464844 235.523438 66.617188 C 235.292969 66.773438 235.082031 66.945312 234.886719 67.140625 C 234.691406 67.335938 234.519531 67.546875 234.363281 67.777344 C 234.210938 68.003906 234.082031 68.246094 233.976562 68.5 C 233.871094 68.757812 233.792969 69.019531 233.738281 69.289062 C 233.683594 69.558594 233.65625 69.832031 233.65625 70.105469 C 233.65625 70.382812 233.683594 70.65625 233.738281 70.925781 C 233.792969 71.195312 233.871094 71.457031 233.976562 71.714844 C 234.082031 71.96875 234.210938 72.210938 234.363281 72.4375 C 234.519531 72.667969 234.691406 72.878906 234.886719 73.074219 C 235.082031 73.269531 235.292969 73.441406 235.523438 73.597656 C 235.75 73.75 235.992188 73.878906 236.25 73.984375 C 236.503906 74.089844 236.765625 74.167969 237.035156 74.222656 C 237.304688 74.277344 237.578125 74.304688 237.855469 74.304688 L 250.65625 74.304688 C 250.972656 74.304688 251.285156 74.332031 251.597656 74.394531 C 251.90625 74.457031 252.210938 74.546875 252.503906 74.667969 C 252.796875 74.789062 253.074219 74.9375 253.339844 75.117188 C 253.601562 75.292969 253.847656 75.492188 254.070312 75.714844 C 254.292969 75.941406 254.496094 76.183594 254.671875 76.449219 C 254.847656 76.710938 254.996094 76.992188 255.117188 77.285156 C 255.238281 77.578125 255.328125 77.878906 255.390625 78.191406 C 255.453125 78.5 255.484375 78.816406 255.484375 79.132812 L 255.484375 98.4375 C 255.484375 98.710938 255.511719 98.984375 255.5625 99.253906 C 255.617188 99.527344 255.699219 99.789062 255.800781 100.042969 C 255.90625 100.296875 256.039062 100.539062 256.191406 100.769531 C 256.34375 100.996094 256.515625 101.207031 256.710938 101.402344 C 256.90625 101.597656 257.117188 101.773438 257.347656 101.925781 C 257.578125 102.078125 257.820312 102.207031 258.074219 102.3125 C 258.328125 102.417969 258.589844 102.5 258.859375 102.550781 C 259.132812 102.605469 259.402344 102.632812 259.679688 102.632812 C 259.953125 102.632812 260.226562 102.605469 260.496094 102.550781 C 260.769531 102.5 261.03125 102.417969 261.285156 102.3125 C 261.539062 102.207031 261.78125 102.078125 262.011719 101.925781 C 262.238281 101.773438 262.453125 101.597656 262.644531 101.402344 C 262.839844 101.207031 263.015625 100.996094 263.167969 100.769531 C 263.320312 100.539062 263.449219 100.296875 263.554688 100.042969 C 263.660156 99.789062 263.742188 99.527344 263.792969 99.253906 C 263.847656 98.984375 263.875 98.710938 263.875 98.4375 L 263.875 79.132812 C 263.875 78.265625 263.789062 77.402344 263.621094 76.554688 C 263.453125 75.703125 263.199219 74.875 262.867188 74.074219 C 262.535156 73.269531 262.128906 72.507812 261.648438 71.785156 C 261.164062 71.066406 260.617188 70.398438 260.003906 69.785156 C 259.390625 69.167969 258.722656 68.621094 258 68.140625 C 257.277344 67.65625 256.515625 67.25 255.714844 66.917969 C 254.910156 66.585938 254.085938 66.335938 253.234375 66.164062 C 252.382812 65.996094 251.523438 65.910156 250.65625 65.910156 Z M 250.65625 65.910156 " fill-opacity="1" fill-rule="evenodd"/></g></svg>