<svg xmlns="http://www.w3.org/2000/svg" xmlns:xlink="http://www.w3.org/1999/xlink" width="500" zoomAndPan="magnify" viewBox="0 0 375 374.999991" height="500" preserveAspectRatio="xMidYMid meet" version="1.0"><defs><clipPath id="4b898ecdc2"><path d="M 0 92 L 375 92 L 375 308.601562 L 0 308.601562 Z M 0 92 " clip-rule="nonzero"/></clipPath></defs><g clip-path="url(#4b898ecdc2)"><path fill="#6abded" d="M 374.949219 162.4375 C 374.949219 162.144531 374.949219 162.144531 374.949219 162.4375 C 374.949219 161.851562 374.949219 161.265625 374.65625 160.972656 C 374.65625 160.972656 374.65625 160.679688 374.65625 160.679688 C 374.363281 160.09375 374.363281 159.800781 374.070312 159.214844 C 374.070312 159.214844 374.070312 159.214844 373.777344 158.921875 C 373.484375 158.628906 373.191406 158.335938 372.898438 158.042969 C 372.898438 158.042969 372.605469 157.75 372.605469 157.75 C 372.3125 157.457031 371.726562 157.164062 371.140625 156.871094 L 199.507812 92.4375 C 198.042969 91.851562 196.578125 91.851562 195.113281 92.4375 L 3.566406 178.839844 C 3.273438 179.132812 2.6875 179.425781 2.394531 179.71875 C 2.394531 179.71875 2.101562 179.71875 2.101562 180.011719 C 1.808594 180.300781 1.515625 180.59375 1.222656 181.179688 C 1.222656 181.179688 1.222656 181.472656 1.222656 181.472656 C 0.929688 181.765625 0.929688 182.351562 0.636719 182.644531 C 0.636719 182.644531 0.636719 182.9375 0.636719 182.9375 C 0.0507812 183.230469 0.0507812 183.523438 0.0507812 184.109375 L 0.0507812 248.839844 C 0.0507812 251.183594 1.515625 253.230469 3.566406 254.402344 L 38.710938 268.753906 C 40.46875 269.632812 42.519531 269.339844 44.277344 268.167969 C 46.035156 266.996094 46.914062 265.242188 46.914062 263.191406 L 46.914062 236.539062 L 134.78125 269.632812 L 134.78125 288.378906 C 134.78125 290.722656 136.246094 293.066406 138.585938 293.945312 L 174.90625 308.589844 C 175.492188 308.882812 176.371094 308.882812 176.957031 308.882812 C 177.542969 308.882812 178.421875 308.882812 179.007812 308.589844 L 215.910156 294.238281 C 218.253906 293.359375 219.71875 291.308594 219.71875 288.671875 L 219.71875 267.875 L 328.085938 219.257812 L 328.085938 241.808594 C 328.085938 243.859375 328.964844 245.617188 330.722656 246.789062 C 332.480469 247.960938 334.53125 247.960938 336.289062 247.375 L 371.433594 233.023438 C 373.777344 232.144531 374.949219 230.09375 374.949219 227.457031 Z M 177.25 242.394531 L 148.546875 231.558594 L 324.867188 152.769531 C 325.15625 152.769531 325.15625 152.476562 325.449219 152.476562 L 353.859375 163.316406 Z M 269.214844 131.097656 L 93.773438 209.589844 C 93.191406 209.882812 92.898438 210.175781 92.605469 210.46875 L 65.949219 200.511719 L 242.855469 121.433594 Z M 309.636719 146.328125 L 132.730469 225.40625 L 107.835938 216.035156 L 284.738281 136.953125 Z M 197.75 104.445312 L 227.332031 115.574219 L 50.425781 194.652344 L 21.429688 183.816406 Z M 339.800781 233.023438 L 339.800781 210.175781 C 339.800781 208.128906 338.925781 206.371094 337.167969 205.199219 C 335.410156 204.027344 333.359375 204.027344 331.601562 204.90625 L 211.515625 258.503906 C 209.464844 259.382812 208.003906 261.433594 208.003906 263.777344 L 208.003906 284.570312 L 176.664062 296.578125 L 146.496094 284.570312 L 146.496094 265.828125 C 146.496094 263.484375 145.03125 261.140625 142.6875 260.261719 L 43.105469 222.773438 C 41.347656 222.1875 39.296875 222.480469 37.832031 223.355469 C 36.367188 224.527344 35.199219 226.285156 35.199219 228.042969 L 35.199219 254.402344 L 11.765625 244.738281 L 11.765625 192.605469 L 39.296875 202.855469 C 39.296875 202.855469 39.589844 202.855469 39.589844 202.855469 L 139.171875 240.34375 C 139.464844 240.34375 139.464844 240.34375 139.757812 240.34375 L 175.492188 253.816406 C 176.078125 254.109375 176.957031 254.109375 177.542969 254.109375 C 178.421875 254.109375 179.300781 253.816406 179.886719 253.523438 L 214.445312 238.585938 C 214.445312 238.585938 214.738281 238.585938 214.738281 238.585938 L 335.703125 184.402344 C 336.289062 184.109375 336.875 183.816406 337.167969 183.230469 L 362.941406 171.515625 L 362.941406 223.359375 Z M 339.800781 233.023438 " fill-opacity="1" fill-rule="nonzero"/></g><path fill="#6abded" d="M 200.972656 115.574219 C 200.972656 115.84375 200.945312 116.109375 200.894531 116.375 C 200.839844 116.636719 200.765625 116.894531 200.660156 117.144531 C 200.558594 117.390625 200.429688 117.628906 200.28125 117.851562 C 200.132812 118.074219 199.960938 118.28125 199.773438 118.472656 C 199.582031 118.664062 199.375 118.832031 199.152344 118.984375 C 198.925781 119.132812 198.691406 119.257812 198.441406 119.363281 C 198.191406 119.464844 197.9375 119.542969 197.671875 119.597656 C 197.410156 119.648438 197.140625 119.675781 196.871094 119.675781 C 196.601562 119.675781 196.335938 119.648438 196.074219 119.597656 C 195.808594 119.542969 195.550781 119.464844 195.304688 119.363281 C 195.054688 119.257812 194.816406 119.132812 194.59375 118.984375 C 194.371094 118.832031 194.164062 118.664062 193.972656 118.472656 C 193.78125 118.28125 193.613281 118.074219 193.464844 117.851562 C 193.3125 117.628906 193.1875 117.390625 193.085938 117.144531 C 192.980469 116.894531 192.902344 116.636719 192.851562 116.375 C 192.796875 116.109375 192.773438 115.84375 192.773438 115.574219 C 192.773438 115.304688 192.796875 115.039062 192.851562 114.773438 C 192.902344 114.511719 192.980469 114.253906 193.085938 114.003906 C 193.1875 113.757812 193.3125 113.519531 193.464844 113.296875 C 193.613281 113.070312 193.78125 112.863281 193.972656 112.675781 C 194.164062 112.484375 194.371094 112.3125 194.59375 112.164062 C 194.816406 112.015625 195.054688 111.890625 195.304688 111.785156 C 195.550781 111.683594 195.808594 111.605469 196.074219 111.550781 C 196.335938 111.5 196.601562 111.472656 196.871094 111.472656 C 197.140625 111.472656 197.410156 111.5 197.671875 111.550781 C 197.9375 111.605469 198.191406 111.683594 198.441406 111.785156 C 198.691406 111.890625 198.925781 112.015625 199.152344 112.164062 C 199.375 112.3125 199.582031 112.484375 199.773438 112.675781 C 199.960938 112.863281 200.132812 113.070312 200.28125 113.296875 C 200.429688 113.519531 200.558594 113.757812 200.660156 114.003906 C 200.765625 114.253906 200.839844 114.511719 200.894531 114.773438 C 200.945312 115.039062 200.972656 115.304688 200.972656 115.574219 Z M 200.972656 115.574219 " fill-opacity="1" fill-rule="nonzero"/><path fill="#6abded" d="M 246.664062 132.855469 C 246.664062 133.125 246.636719 133.390625 246.585938 133.65625 C 246.53125 133.917969 246.453125 134.175781 246.351562 134.421875 C 246.25 134.671875 246.121094 134.910156 245.972656 135.132812 C 245.824219 135.355469 245.652344 135.5625 245.460938 135.753906 C 245.273438 135.945312 245.066406 136.113281 244.839844 136.265625 C 244.617188 136.414062 244.382812 136.539062 244.132812 136.644531 C 243.882812 136.746094 243.628906 136.824219 243.363281 136.875 C 243.097656 136.929688 242.832031 136.953125 242.5625 136.953125 C 242.292969 136.953125 242.027344 136.929688 241.761719 136.875 C 241.5 136.824219 241.242188 136.746094 240.992188 136.644531 C 240.746094 136.539062 240.507812 136.414062 240.285156 136.265625 C 240.0625 136.113281 239.855469 135.945312 239.664062 135.753906 C 239.472656 135.5625 239.304688 135.355469 239.152344 135.132812 C 239.003906 134.910156 238.878906 134.671875 238.773438 134.421875 C 238.671875 134.175781 238.59375 133.917969 238.542969 133.65625 C 238.488281 133.390625 238.460938 133.125 238.460938 132.855469 C 238.460938 132.585938 238.488281 132.320312 238.542969 132.054688 C 238.59375 131.789062 238.671875 131.535156 238.773438 131.285156 C 238.878906 131.035156 239.003906 130.800781 239.152344 130.578125 C 239.304688 130.351562 239.472656 130.144531 239.664062 129.957031 C 239.855469 129.765625 240.0625 129.59375 240.285156 129.445312 C 240.507812 129.296875 240.746094 129.167969 240.992188 129.066406 C 241.242188 128.964844 241.5 128.886719 241.761719 128.832031 C 242.027344 128.78125 242.292969 128.753906 242.5625 128.753906 C 242.832031 128.753906 243.097656 128.78125 243.363281 128.832031 C 243.628906 128.886719 243.882812 128.964844 244.132812 129.066406 C 244.382812 129.167969 244.617188 129.296875 244.839844 129.445312 C 245.066406 129.59375 245.273438 129.765625 245.460938 129.957031 C 245.652344 130.144531 245.824219 130.351562 245.972656 130.578125 C 246.121094 130.800781 246.25 131.035156 246.351562 131.285156 C 246.453125 131.535156 246.53125 131.789062 246.585938 132.054688 C 246.636719 132.320312 246.664062 132.585938 246.664062 132.855469 Z M 246.664062 132.855469 " fill-opacity="1" fill-rule="nonzero"/><path fill="#6abded" d="M 287.375 147.207031 C 287.375 147.476562 287.347656 147.742188 287.296875 148.007812 C 287.242188 148.269531 287.167969 148.527344 287.0625 148.773438 C 286.960938 149.023438 286.832031 149.261719 286.683594 149.484375 C 286.535156 149.707031 286.363281 149.914062 286.175781 150.105469 C 285.984375 150.296875 285.777344 150.464844 285.554688 150.617188 C 285.328125 150.765625 285.09375 150.890625 284.84375 150.996094 C 284.59375 151.097656 284.339844 151.175781 284.074219 151.226562 C 283.8125 151.28125 283.542969 151.304688 283.273438 151.304688 C 283.003906 151.304688 282.738281 151.28125 282.476562 151.226562 C 282.210938 151.175781 281.953125 151.097656 281.707031 150.996094 C 281.457031 150.890625 281.21875 150.765625 280.996094 150.617188 C 280.773438 150.464844 280.566406 150.296875 280.375 150.105469 C 280.183594 149.914062 280.015625 149.707031 279.867188 149.484375 C 279.714844 149.261719 279.589844 149.023438 279.488281 148.773438 C 279.382812 148.527344 279.304688 148.269531 279.253906 148.007812 C 279.199219 147.742188 279.175781 147.476562 279.175781 147.207031 C 279.175781 146.9375 279.199219 146.671875 279.253906 146.40625 C 279.304688 146.140625 279.382812 145.886719 279.488281 145.636719 C 279.589844 145.386719 279.714844 145.152344 279.867188 144.929688 C 280.015625 144.703125 280.183594 144.496094 280.375 144.308594 C 280.566406 144.117188 280.773438 143.945312 280.996094 143.796875 C 281.21875 143.648438 281.457031 143.519531 281.707031 143.417969 C 281.953125 143.316406 282.210938 143.238281 282.476562 143.183594 C 282.738281 143.132812 283.003906 143.105469 283.273438 143.105469 C 283.542969 143.105469 283.8125 143.132812 284.074219 143.183594 C 284.339844 143.238281 284.59375 143.316406 284.84375 143.417969 C 285.09375 143.519531 285.328125 143.648438 285.554688 143.796875 C 285.777344 143.945312 285.984375 144.117188 286.175781 144.308594 C 286.363281 144.496094 286.535156 144.703125 286.683594 144.929688 C 286.832031 145.152344 286.960938 145.386719 287.0625 145.636719 C 287.167969 145.886719 287.242188 146.140625 287.296875 146.40625 C 287.347656 146.671875 287.375 146.9375 287.375 147.207031 Z M 287.375 147.207031 " fill-opacity="1" fill-rule="nonzero"/><path fill="#6abded" d="M 326.621094 165.367188 C 326.621094 165.632812 326.597656 165.902344 326.542969 166.164062 C 326.492188 166.429688 326.414062 166.6875 326.308594 166.933594 C 326.207031 167.183594 326.082031 167.417969 325.929688 167.644531 C 325.78125 167.867188 325.613281 168.074219 325.421875 168.265625 C 325.230469 168.457031 325.023438 168.625 324.800781 168.773438 C 324.578125 168.925781 324.339844 169.050781 324.089844 169.152344 C 323.84375 169.257812 323.585938 169.335938 323.320312 169.386719 C 323.058594 169.441406 322.792969 169.464844 322.523438 169.464844 C 322.253906 169.464844 321.984375 169.441406 321.722656 169.386719 C 321.457031 169.335938 321.203125 169.257812 320.953125 169.152344 C 320.703125 169.050781 320.46875 168.925781 320.242188 168.773438 C 320.019531 168.625 319.8125 168.457031 319.621094 168.265625 C 319.433594 168.074219 319.261719 167.867188 319.113281 167.644531 C 318.964844 167.417969 318.835938 167.183594 318.734375 166.933594 C 318.628906 166.6875 318.554688 166.429688 318.5 166.164062 C 318.449219 165.902344 318.421875 165.632812 318.421875 165.367188 C 318.421875 165.097656 318.449219 164.828125 318.5 164.566406 C 318.554688 164.300781 318.628906 164.042969 318.734375 163.796875 C 318.835938 163.546875 318.964844 163.3125 319.113281 163.085938 C 319.261719 162.863281 319.433594 162.65625 319.621094 162.464844 C 319.8125 162.277344 320.019531 162.105469 320.242188 161.957031 C 320.46875 161.804688 320.703125 161.679688 320.953125 161.578125 C 321.203125 161.472656 321.457031 161.394531 321.722656 161.34375 C 321.984375 161.292969 322.253906 161.265625 322.523438 161.265625 C 322.792969 161.265625 323.058594 161.292969 323.320312 161.34375 C 323.585938 161.394531 323.84375 161.472656 324.089844 161.578125 C 324.339844 161.679688 324.578125 161.804688 324.800781 161.957031 C 325.023438 162.105469 325.230469 162.277344 325.421875 162.464844 C 325.613281 162.65625 325.78125 162.863281 325.929688 163.085938 C 326.082031 163.3125 326.207031 163.546875 326.308594 163.796875 C 326.414062 164.042969 326.492188 164.300781 326.542969 164.566406 C 326.597656 164.828125 326.621094 165.097656 326.621094 165.367188 Z M 326.621094 165.367188 " fill-opacity="1" fill-rule="nonzero"/></svg>