<svg xmlns="http://www.w3.org/2000/svg" xmlns:xlink="http://www.w3.org/1999/xlink" width="500" zoomAndPan="magnify" viewBox="0 0 375 374.999991" height="500" preserveAspectRatio="xMidYMid meet" version="1.0"><defs><clipPath id="488664338e"><path d="M 0 29.296875 L 375 29.296875 L 375 345.796875 L 0 345.796875 Z M 0 29.296875 " clip-rule="nonzero"/></clipPath></defs><g clip-path="url(#488664338e)"><path fill="#6abded" d="M 1.214844 197.144531 C 1.195312 197.160156 1.171875 197.171875 1.148438 197.1875 C 1.015625 197.289062 0.894531 197.40625 0.785156 197.523438 C 0.753906 197.558594 0.726562 197.589844 0.699219 197.625 C 0.472656 197.890625 0.296875 198.195312 0.175781 198.527344 C 0.164062 198.566406 0.148438 198.605469 0.136719 198.648438 C 0.0859375 198.808594 0.046875 198.96875 0.0234375 199.136719 C 0.0234375 199.160156 0.0234375 199.183594 0.0195312 199.207031 C 0.0117188 199.304688 0 199.410156 0 199.511719 L 0 295.015625 C 0 296.0625 0.558594 297.027344 1.464844 297.550781 L 84.175781 345.304688 C 84.261719 345.355469 84.355469 345.398438 84.445312 345.4375 C 84.46875 345.449219 84.492188 345.460938 84.515625 345.472656 C 84.667969 345.535156 84.828125 345.582031 84.988281 345.621094 C 85.03125 345.628906 85.074219 345.636719 85.121094 345.644531 C 85.289062 345.675781 85.464844 345.699219 85.640625 345.699219 C 85.8125 345.699219 85.988281 345.675781 86.160156 345.644531 C 86.203125 345.636719 86.246094 345.628906 86.289062 345.621094 C 86.449219 345.582031 86.609375 345.535156 86.761719 345.472656 C 86.785156 345.460938 86.808594 345.449219 86.832031 345.4375 C 86.921875 345.398438 87.015625 345.355469 87.101562 345.304688 L 169.8125 297.550781 C 170.71875 297.027344 171.273438 296.0625 171.273438 295.015625 L 171.273438 199.511719 C 171.273438 199.40625 171.265625 199.308594 171.253906 199.207031 C 171.253906 199.183594 171.253906 199.160156 171.25 199.136719 C 171.230469 198.96875 171.191406 198.808594 171.140625 198.648438 C 171.125 198.605469 171.113281 198.566406 171.097656 198.523438 C 170.980469 198.195312 170.804688 197.890625 170.578125 197.625 C 170.550781 197.589844 170.519531 197.558594 170.492188 197.523438 C 170.378906 197.402344 170.257812 197.289062 170.125 197.1875 C 170.105469 197.171875 170.082031 197.160156 170.0625 197.144531 C 169.980469 197.085938 169.898438 197.027344 169.8125 196.976562 L 156.191406 189.109375 L 175.140625 178.167969 C 176.046875 177.644531 176.605469 176.679688 176.605469 175.632812 L 176.605469 164.167969 L 227.117188 281.207031 C 225.214844 283.554688 223.65625 286.199219 222.507812 289.085938 C 219.539062 296.5625 219.660156 304.746094 222.847656 312.128906 C 227.613281 323.175781 238.472656 330.3125 250.503906 330.3125 C 254.613281 330.3125 258.621094 329.480469 262.421875 327.839844 C 269.804688 324.65625 275.507812 318.785156 278.472656 311.308594 C 281.078125 304.75 281.304688 297.640625 279.164062 291.011719 L 366.214844 253.441406 C 369.632812 251.964844 372.273438 249.25 373.644531 245.789062 C 375.019531 242.328125 374.964844 238.539062 373.488281 235.125 C 371.28125 230.011719 366.257812 226.707031 360.6875 226.707031 C 358.785156 226.707031 356.929688 227.089844 355.171875 227.847656 L 256.089844 270.609375 C 254.980469 270.398438 253.851562 270.25 252.710938 270.164062 L 178.359375 97.890625 C 177.894531 96.816406 177.300781 95.828125 176.605469 94.925781 L 176.605469 80.128906 C 176.605469 80.023438 176.59375 79.921875 176.585938 79.820312 C 176.582031 79.796875 176.582031 79.773438 176.582031 79.75 C 176.558594 79.585938 176.519531 79.421875 176.46875 79.265625 C 176.457031 79.222656 176.441406 79.183594 176.429688 79.140625 C 176.308594 78.8125 176.136719 78.507812 175.910156 78.238281 C 175.878906 78.207031 175.851562 78.171875 175.820312 78.140625 C 175.707031 78.019531 175.589844 77.902344 175.457031 77.800781 C 175.4375 77.785156 175.414062 77.773438 175.390625 77.757812 C 175.308594 77.699219 175.230469 77.640625 175.140625 77.589844 L 92.429688 29.839844 C 91.523438 29.316406 90.410156 29.316406 89.503906 29.839844 L 6.792969 77.59375 C 6.707031 77.644531 6.625 77.703125 6.542969 77.761719 C 6.523438 77.777344 6.5 77.789062 6.480469 77.804688 C 6.347656 77.90625 6.226562 78.019531 6.113281 78.140625 C 6.085938 78.175781 6.054688 78.207031 6.027344 78.242188 C 5.800781 78.507812 5.625 78.8125 5.507812 79.144531 C 5.492188 79.183594 5.480469 79.222656 5.464844 79.265625 C 5.417969 79.425781 5.375 79.585938 5.355469 79.753906 C 5.351562 79.777344 5.351562 79.800781 5.351562 79.820312 C 5.339844 79.921875 5.332031 80.023438 5.332031 80.128906 L 5.332031 175.636719 C 5.332031 176.679688 5.890625 177.648438 6.792969 178.171875 L 20.417969 186.035156 L 1.464844 196.976562 C 1.375 197.027344 1.296875 197.085938 1.214844 197.144531 Z M 368.117188 237.445312 C 368.972656 239.425781 369.003906 241.621094 368.207031 243.628906 C 367.410156 245.636719 365.878906 247.210938 363.898438 248.066406 L 276.839844 285.640625 C 273.921875 280.347656 269.53125 276.140625 264.304688 273.441406 L 357.492188 233.226562 C 358.515625 232.785156 359.589844 232.5625 360.6875 232.5625 C 363.921875 232.5625 366.835938 234.476562 368.117188 237.445312 Z M 273.035156 309.148438 C 270.644531 315.171875 266.050781 319.902344 260.101562 322.46875 C 257.039062 323.789062 253.808594 324.460938 250.503906 324.460938 C 240.808594 324.460938 232.0625 318.710938 228.222656 309.808594 C 225.652344 303.863281 225.558594 297.269531 227.949219 291.25 C 230.339844 285.226562 234.933594 280.496094 240.882812 277.929688 C 243.945312 276.609375 247.171875 275.9375 250.476562 275.9375 C 260.175781 275.9375 268.921875 281.6875 272.761719 290.589844 C 275.328125 296.535156 275.425781 303.128906 273.035156 309.148438 Z M 238.5625 272.554688 C 236.015625 273.652344 233.675781 275.078125 231.574219 276.769531 L 160.964844 113.160156 C 160.507812 112.101562 159.472656 111.410156 158.320312 111.394531 L 116.367188 110.777344 C 111.910156 110.710938 108.339844 107.03125 108.402344 102.578125 C 108.46875 98.1875 112.09375 94.613281 116.480469 94.613281 L 165.683594 95.335938 C 168.859375 95.378906 171.726562 97.292969 172.984375 100.210938 L 246.421875 270.367188 C 243.730469 270.734375 241.097656 271.460938 238.5625 272.554688 Z M 5.855469 204.582031 L 32 219.675781 L 32 242.941406 C 32 243.984375 32.558594 244.953125 33.464844 245.476562 L 53.8125 257.222656 C 54.265625 257.484375 54.769531 257.617188 55.273438 257.617188 C 55.78125 257.617188 56.285156 257.484375 56.738281 257.222656 C 57.644531 256.703125 58.203125 255.734375 58.203125 254.691406 L 58.203125 234.800781 L 82.710938 248.953125 L 82.710938 337.703125 L 5.855469 293.328125 Z M 137.460938 62.597656 L 59.140625 107.816406 C 59.113281 107.832031 59.09375 107.855469 59.066406 107.871094 C 59.011719 107.90625 58.957031 107.9375 58.90625 107.976562 C 58.855469 108.011719 58.804688 108.054688 58.757812 108.09375 C 58.703125 108.136719 58.652344 108.179688 58.601562 108.226562 C 58.558594 108.269531 58.519531 108.308594 58.480469 108.351562 C 58.4375 108.398438 58.398438 108.445312 58.355469 108.492188 C 58.3125 108.546875 58.269531 108.597656 58.226562 108.652344 C 58.191406 108.707031 58.15625 108.761719 58.125 108.816406 C 58.109375 108.839844 58.085938 108.863281 58.070312 108.890625 C 58.054688 108.917969 58.050781 108.945312 58.035156 108.972656 C 58.003906 109.027344 57.976562 109.082031 57.949219 109.136719 C 57.917969 109.203125 57.894531 109.265625 57.871094 109.332031 C 57.847656 109.394531 57.828125 109.453125 57.808594 109.511719 C 57.792969 109.566406 57.777344 109.621094 57.765625 109.675781 C 57.75 109.742188 57.738281 109.808594 57.726562 109.875 C 57.714844 109.941406 57.703125 110.003906 57.699219 110.070312 C 57.691406 110.132812 57.691406 110.195312 57.6875 110.253906 C 57.6875 110.289062 57.679688 110.316406 57.679688 110.351562 L 57.679688 130.238281 L 43.183594 121.871094 L 43.183594 100.292969 L 122.964844 54.230469 Z M 167.824219 80.128906 L 151.976562 89.277344 L 116.691406 88.757812 L 116.480469 88.757812 C 108.914062 88.757812 102.664062 94.917969 102.550781 102.492188 C 102.480469 107.371094 104.945312 111.707031 108.722656 114.253906 L 90.96875 124.503906 L 66.457031 110.351562 L 143.3125 65.976562 Z M 165.769531 89.480469 L 163.394531 89.445312 L 170.753906 85.195312 L 170.753906 90.484375 C 169.191406 89.859375 167.507812 89.507812 165.769531 89.480469 Z M 53.8125 227.199219 C 53.785156 227.214844 53.761719 227.238281 53.734375 227.253906 C 53.683594 227.289062 53.628906 227.320312 53.578125 227.355469 C 53.523438 227.394531 53.472656 227.4375 53.421875 227.480469 C 53.371094 227.523438 53.320312 227.566406 53.269531 227.609375 C 53.230469 227.648438 53.191406 227.6875 53.152344 227.730469 C 53.105469 227.777344 53.066406 227.828125 53.023438 227.878906 C 52.980469 227.929688 52.9375 227.984375 52.898438 228.039062 C 52.863281 228.085938 52.828125 228.140625 52.796875 228.191406 C 52.78125 228.21875 52.757812 228.242188 52.742188 228.269531 C 52.726562 228.296875 52.714844 228.328125 52.703125 228.355469 C 52.671875 228.410156 52.644531 228.464844 52.617188 228.523438 C 52.589844 228.582031 52.566406 228.644531 52.542969 228.710938 C 52.519531 228.773438 52.496094 228.835938 52.476562 228.898438 C 52.460938 228.953125 52.445312 229.003906 52.433594 229.058594 C 52.417969 229.125 52.40625 229.1875 52.394531 229.253906 C 52.382812 229.324219 52.375 229.390625 52.367188 229.453125 C 52.359375 229.515625 52.359375 229.574219 52.355469 229.636719 C 52.355469 229.667969 52.347656 229.703125 52.347656 229.734375 L 52.347656 249.621094 L 37.851562 241.25 L 37.851562 219.675781 L 58.265625 207.890625 L 72.761719 216.257812 Z M 88.566406 337.703125 L 88.566406 248.953125 L 165.421875 204.582031 L 165.421875 293.328125 Z M 85.640625 243.882812 L 61.128906 229.734375 L 78.617188 219.636719 L 89.503906 225.921875 C 89.589844 225.972656 89.683594 226.015625 89.773438 226.054688 C 89.796875 226.066406 89.820312 226.078125 89.84375 226.089844 C 89.996094 226.152344 90.15625 226.199219 90.316406 226.238281 C 90.363281 226.246094 90.402344 226.253906 90.449219 226.261719 C 90.621094 226.292969 90.792969 226.316406 90.96875 226.316406 C 91.140625 226.316406 91.316406 226.292969 91.488281 226.261719 C 91.53125 226.253906 91.574219 226.246094 91.617188 226.238281 C 91.777344 226.199219 91.9375 226.152344 92.09375 226.089844 C 92.113281 226.078125 92.136719 226.066406 92.160156 226.054688 C 92.25 226.015625 92.34375 225.972656 92.429688 225.921875 L 150.335938 192.492188 L 162.496094 199.511719 Z M 93.894531 218.320312 L 93.894531 129.570312 L 116.304688 116.632812 L 156.34375 117.21875 L 170.753906 150.605469 L 170.753906 173.945312 Z M 40.257812 95.222656 L 14.113281 80.128906 L 90.96875 35.753906 L 117.113281 50.851562 Z M 11.183594 85.199219 L 37.328125 100.292969 L 37.328125 123.558594 C 37.328125 124.605469 37.886719 125.570312 38.792969 126.09375 L 59.140625 137.84375 C 59.59375 138.101562 60.101562 138.234375 60.605469 138.234375 C 61.109375 138.234375 61.617188 138.101562 62.070312 137.84375 C 62.972656 137.320312 63.53125 136.351562 63.53125 135.308594 L 63.53125 115.421875 L 88.039062 129.570312 L 88.039062 218.320312 L 11.183594 173.945312 Z M 52.414062 204.507812 L 34.925781 214.605469 L 8.78125 199.511719 L 26.269531 189.414062 Z M 52.414062 204.507812 " fill-opacity="1" fill-rule="nonzero"/></g><path fill="#6abded" d="M 224.367188 177.808594 L 259.035156 258.132812 C 259.511719 259.242188 260.589844 259.902344 261.722656 259.902344 C 262.109375 259.902344 262.503906 259.824219 262.882812 259.664062 L 343.210938 224.996094 C 343.921875 224.6875 344.484375 224.109375 344.769531 223.390625 C 345.058594 222.667969 345.046875 221.859375 344.738281 221.148438 L 310.070312 140.820312 C 309.761719 140.105469 309.183594 139.546875 308.464844 139.257812 C 307.742188 138.972656 306.9375 138.984375 306.222656 139.292969 L 302.625 140.847656 L 279.667969 87.652344 C 279.027344 86.171875 277.300781 85.484375 275.820312 86.125 L 208.066406 115.367188 C 207.351562 115.675781 206.792969 116.253906 206.503906 116.972656 C 206.21875 117.695312 206.230469 118.503906 206.539062 119.214844 L 229.496094 172.40625 L 225.894531 173.960938 C 224.410156 174.601562 223.726562 176.324219 224.367188 177.808594 Z M 255.242188 167.671875 L 264.332031 188.734375 C 264.75 189.695312 265.648438 190.363281 266.691406 190.480469 C 266.800781 190.492188 266.914062 190.5 267.019531 190.5 C 267.945312 190.5 268.828125 190.058594 269.382812 189.304688 L 276.167969 180.046875 L 287.554688 181.460938 C 288.597656 181.589844 289.628906 181.148438 290.257812 180.3125 C 290.886719 179.472656 291.019531 178.359375 290.605469 177.394531 L 281.515625 156.332031 L 305.855469 145.828125 L 338.203125 220.78125 L 263.25 253.128906 L 230.902344 178.179688 Z M 250.386719 103.476562 L 255.847656 116.128906 L 249.875 115.390625 C 248.828125 115.257812 247.785156 115.707031 247.15625 116.5625 L 243.597656 121.417969 L 238.136719 108.765625 Z M 232.761719 111.085938 L 240.246094 128.429688 C 240.664062 129.394531 241.5625 130.058594 242.605469 130.179688 C 242.714844 130.191406 242.828125 130.195312 242.9375 130.195312 C 243.863281 130.195312 244.742188 129.757812 245.296875 129 L 250.859375 121.410156 L 260.199219 122.566406 C 261.242188 122.699219 262.273438 122.257812 262.902344 121.417969 C 263.53125 120.582031 263.664062 119.46875 263.246094 118.503906 L 255.761719 101.160156 L 275.453125 92.660156 L 297.25 143.167969 L 234.871094 170.089844 L 213.074219 119.582031 Z M 283.203125 175.019531 L 275.183594 174.027344 C 274.132812 173.894531 273.089844 174.34375 272.460938 175.199219 L 267.683594 181.71875 L 260.617188 165.351562 L 276.140625 158.652344 Z M 283.203125 175.019531 " fill-opacity="1" fill-rule="nonzero"/></svg>