<svg xmlns="http://www.w3.org/2000/svg" xmlns:xlink="http://www.w3.org/1999/xlink" width="500" zoomAndPan="magnify" viewBox="0 0 375 374.999991" height="500" preserveAspectRatio="xMidYMid meet" version="1.0"><defs><clipPath id="7b5f1370f8"><path d="M 144 21.09375 L 372.832031 21.09375 L 372.832031 294 L 144 294 Z M 144 21.09375 " clip-rule="nonzero"/></clipPath><clipPath id="db80f93004"><path d="M 2.332031 176 L 176 176 L 176 322 L 2.332031 322 Z M 2.332031 176 " clip-rule="nonzero"/></clipPath><clipPath id="978d1db008"><path d="M 2.332031 321 L 372.832031 321 L 372.832031 333.84375 L 2.332031 333.84375 Z M 2.332031 321 " clip-rule="nonzero"/></clipPath></defs><g clip-path="url(#7b5f1370f8)"><path fill="#6abded" d="M 366.871094 194.6875 L 329.261719 194.6875 L 329.261719 113.679688 C 329.261719 110.496094 326.65625 107.890625 323.472656 107.890625 L 285.863281 107.890625 L 285.863281 26.882812 C 285.863281 23.703125 283.257812 21.097656 280.078125 21.097656 L 193.28125 21.097656 C 190.097656 21.097656 187.496094 23.703125 187.496094 26.882812 L 187.496094 107.890625 L 149.882812 107.890625 C 146.703125 107.890625 144.097656 110.496094 144.097656 113.679688 L 144.097656 179.351562 C 146.703125 175.304688 150.753906 172.699219 155.671875 171.832031 L 155.671875 119.464844 L 173.03125 119.464844 L 173.03125 142.609375 C 173.03125 145.792969 175.632812 148.398438 178.816406 148.398438 L 207.746094 148.398438 C 210.929688 148.398438 213.535156 145.792969 213.535156 142.609375 L 213.535156 119.464844 L 230.894531 119.464844 L 230.894531 194.6875 L 175.921875 194.6875 L 175.921875 206.257812 L 187.496094 206.257812 L 187.496094 281.480469 L 175.921875 281.480469 L 175.921875 288.136719 C 178.816406 289.003906 181.128906 290.738281 183.15625 293.054688 L 366.871094 293.054688 C 370.054688 293.054688 372.65625 290.449219 372.65625 287.269531 L 372.65625 200.472656 C 372.65625 197.289062 370.054688 194.6875 366.871094 194.6875 Z M 332.152344 206.257812 L 332.152344 223.617188 L 314.792969 223.617188 L 314.792969 206.257812 Z M 300.328125 142.609375 L 300.328125 119.464844 L 317.6875 119.464844 L 317.6875 194.6875 L 242.464844 194.6875 L 242.464844 119.464844 L 259.824219 119.464844 L 259.824219 142.609375 C 259.824219 145.792969 262.429688 148.398438 265.609375 148.398438 L 294.542969 148.398438 C 297.726562 148.398438 300.328125 145.792969 300.328125 142.609375 Z M 288.757812 119.464844 L 288.757812 136.824219 L 271.398438 136.824219 L 271.398438 119.464844 Z M 228 32.671875 L 245.359375 32.671875 L 245.359375 50.027344 L 228 50.027344 Z M 201.960938 136.824219 L 184.601562 136.824219 L 184.601562 119.464844 L 201.960938 119.464844 Z M 199.066406 107.890625 L 199.066406 32.671875 L 216.425781 32.671875 L 216.425781 55.816406 C 216.425781 58.996094 219.03125 61.601562 222.214844 61.601562 L 251.144531 61.601562 C 254.328125 61.601562 256.929688 58.996094 256.929688 55.816406 L 256.929688 32.671875 L 274.289062 32.671875 L 274.289062 107.890625 Z M 228 206.257812 L 245.359375 206.257812 L 245.359375 223.617188 L 228 223.617188 Z M 274.289062 281.480469 L 199.066406 281.480469 L 199.066406 206.257812 L 216.425781 206.257812 L 216.425781 229.40625 C 216.425781 232.585938 219.03125 235.191406 222.214844 235.191406 L 251.144531 235.191406 C 254.328125 235.191406 256.929688 232.585938 256.929688 229.40625 L 256.929688 206.257812 L 274.289062 206.257812 Z M 361.085938 281.480469 L 285.863281 281.480469 L 285.863281 206.257812 L 303.222656 206.257812 L 303.222656 229.40625 C 303.222656 232.585938 305.824219 235.191406 309.007812 235.191406 L 337.941406 235.191406 C 341.121094 235.191406 343.726562 232.585938 343.726562 229.40625 L 343.726562 206.257812 L 361.085938 206.257812 Z M 361.085938 281.480469 " fill-opacity="1" fill-rule="nonzero"/></g><path fill="#6abded" d="M 135.417969 235.191406 L 141.203125 235.191406 L 141.203125 194.6875 L 107.933594 194.6875 L 113.429688 206.257812 L 129.632812 206.257812 L 129.632812 229.40625 C 129.632812 232.585938 132.234375 235.191406 135.417969 235.191406 Z M 135.417969 235.191406 " fill-opacity="1" fill-rule="nonzero"/><g clip-path="url(#db80f93004)"><path fill="#6abded" d="M 50.359375 310.414062 L 89.996094 310.414062 C 92.308594 317.066406 98.675781 321.984375 106.199219 321.984375 C 113.71875 321.984375 120.085938 317.066406 122.398438 310.414062 L 135.417969 310.414062 C 138.601562 310.414062 141.203125 307.808594 141.203125 304.628906 L 141.203125 290.160156 L 152.777344 290.160156 L 152.777344 304.628906 C 152.777344 307.808594 155.382812 310.414062 158.5625 310.414062 L 170.136719 310.414062 C 173.320312 310.414062 175.921875 307.808594 175.921875 304.628906 C 175.921875 301.445312 173.320312 298.839844 170.136719 298.839844 L 164.351562 298.839844 L 164.351562 188.902344 C 164.351562 185.71875 161.746094 183.113281 158.5625 183.113281 C 155.382812 183.113281 152.777344 185.71875 152.777344 188.902344 L 152.777344 278.589844 L 141.203125 278.589844 L 141.203125 274.25 C 141.203125 271.066406 138.601562 268.460938 135.417969 268.460938 L 130.789062 268.460938 L 87.972656 179.933594 C 87.101562 177.90625 85.078125 176.75 82.761719 176.75 L 23.164062 176.75 C 19.980469 176.75 17.378906 179.351562 17.378906 182.535156 L 17.378906 240.976562 L 8.121094 240.976562 C 4.9375 240.976562 2.332031 243.582031 2.332031 246.765625 L 2.332031 304.628906 C 2.332031 307.808594 4.9375 310.414062 8.121094 310.414062 L 17.957031 310.414062 C 20.269531 317.066406 26.636719 321.984375 34.15625 321.984375 C 41.679688 321.984375 48.046875 317.066406 50.359375 310.414062 Z M 106.488281 310.414062 C 103.304688 310.414062 100.699219 307.808594 100.699219 304.628906 C 100.699219 301.445312 103.304688 298.839844 106.488281 298.839844 C 109.667969 298.839844 112.273438 301.445312 112.273438 304.628906 C 112.273438 307.808594 109.667969 310.414062 106.488281 310.414062 Z M 28.949219 188.320312 L 79.292969 188.320312 L 118.058594 268.460938 L 73.792969 268.460938 L 73.792969 246.765625 C 73.792969 243.582031 71.191406 240.976562 68.007812 240.976562 L 28.949219 240.976562 Z M 17.957031 298.839844 L 13.90625 298.839844 L 13.90625 252.550781 L 62.222656 252.550781 L 62.222656 274.25 C 62.222656 277.429688 64.824219 280.035156 68.007812 280.035156 L 129.632812 280.035156 L 129.632812 298.839844 L 122.6875 298.839844 C 120.375 292.1875 114.007812 287.269531 106.488281 287.269531 C 98.964844 287.269531 92.601562 292.1875 90.285156 298.839844 L 50.359375 298.839844 C 48.046875 292.1875 41.679688 287.269531 34.15625 287.269531 C 26.636719 287.269531 20.269531 292.1875 17.957031 298.839844 Z M 34.15625 310.414062 C 30.976562 310.414062 28.371094 307.808594 28.371094 304.628906 C 28.371094 301.445312 30.976562 298.839844 34.15625 298.839844 C 37.339844 298.839844 39.945312 301.445312 39.945312 304.628906 C 39.945312 307.808594 37.339844 310.414062 34.15625 310.414062 Z M 34.15625 310.414062 " fill-opacity="1" fill-rule="nonzero"/></g><g clip-path="url(#978d1db008)"><path fill="#6abded" d="M 366.871094 321.984375 L 8.121094 321.984375 C 4.9375 321.984375 2.332031 324.589844 2.332031 327.773438 C 2.332031 330.953125 4.9375 333.558594 8.121094 333.558594 L 366.871094 333.558594 C 370.054688 333.558594 372.65625 330.953125 372.65625 327.773438 C 372.65625 324.589844 370.054688 321.984375 366.871094 321.984375 Z M 366.871094 321.984375 " fill-opacity="1" fill-rule="nonzero"/></g></svg>