<svg xmlns="http://www.w3.org/2000/svg" xmlns:xlink="http://www.w3.org/1999/xlink" width="500" zoomAndPan="magnify" viewBox="0 0 375 374.999991" height="500" preserveAspectRatio="xMidYMid meet" version="1.0"><defs><clipPath id="53140a9377"><path d="M 20.808594 233 L 352 233 L 352 373.5 L 20.808594 373.5 Z M 20.808594 233 " clip-rule="nonzero"/></clipPath></defs><g clip-path="url(#53140a9377)"><path fill="#6abded" d="M 56.898438 233.621094 L 33.480469 233.617188 C 26.492188 233.617188 20.808594 239.304688 20.808594 246.292969 L 20.808594 347.53125 C 20.808594 354.519531 26.496094 360.207031 33.484375 360.210938 L 56.890625 360.210938 C 56.890625 360.210938 56.894531 360.210938 56.898438 360.210938 C 60.269531 360.210938 63.449219 358.886719 65.847656 356.488281 C 68.246094 354.089844 69.570312 350.910156 69.570312 347.535156 L 69.570312 340.570312 L 150.074219 373.449219 C 150.421875 373.59375 150.796875 373.667969 151.175781 373.667969 L 259.398438 373.671875 C 259.777344 373.671875 260.148438 373.597656 260.5 373.457031 L 336.472656 342.527344 C 348.148438 337.773438 354.171875 325.363281 349.898438 314.859375 C 346.863281 307.402344 339.1875 302.582031 330.339844 302.582031 C 327.144531 302.582031 323.988281 303.207031 320.96875 304.433594 L 320.058594 304.804688 C 320.667969 300.472656 319.871094 296.175781 317.683594 292.449219 C 314.164062 286.453125 307.550781 282.871094 300 282.871094 C 296.921875 282.871094 293.839844 283.480469 290.9375 284.644531 C 290.757812 284.28125 290.566406 283.929688 290.363281 283.582031 C 286.835938 277.578125 280.21875 273.992188 272.660156 273.992188 C 268.351562 273.992188 264.054688 275.179688 260.230469 277.425781 L 210.246094 306.765625 C 208.890625 304.644531 207.214844 302.738281 205.238281 301.085938 C 205.179688 301.03125 205.117188 300.984375 205.050781 300.9375 L 138.25 253.699219 C 137.757812 253.347656 137.167969 253.160156 136.566406 253.160156 L 69.570312 253.160156 L 69.570312 246.296875 C 69.570312 239.308594 63.886719 233.621094 56.898438 233.621094 Z M 206.496094 312.039062 C 206.503906 312.054688 206.515625 312.070312 206.527344 312.085938 C 209.105469 317.636719 208.558594 323.648438 205.089844 327.789062 C 202.605469 330.761719 198.914062 332.445312 194.683594 332.542969 C 194.660156 332.542969 194.640625 332.535156 194.617188 332.535156 C 194.601562 332.535156 194.585938 332.535156 194.574219 332.535156 C 190.292969 332.605469 186.042969 331.042969 182.582031 328.144531 C 182.488281 328.0625 182.386719 327.992188 182.28125 327.921875 L 138.136719 299.652344 C 136.78125 298.785156 134.976562 299.179688 134.105469 300.535156 C 133.238281 301.894531 133.632812 303.699219 134.988281 304.566406 L 178.980469 332.738281 C 183.398438 336.382812 188.820312 338.375 194.3125 338.375 C 194.382812 338.375 194.457031 338.375 194.53125 338.371094 C 194.558594 338.375 194.585938 338.382812 194.617188 338.382812 L 252.492188 338.382812 C 252.871094 338.382812 253.246094 338.308594 253.59375 338.167969 L 316.675781 312.492188 C 316.695312 312.484375 316.710938 312.472656 316.726562 312.464844 L 323.171875 309.839844 C 325.488281 308.894531 327.902344 308.417969 330.34375 308.417969 C 336.804688 308.417969 342.359375 311.808594 344.496094 317.0625 C 347.554688 324.582031 342.972656 333.582031 334.277344 337.121094 L 258.828125 367.835938 L 151.75 367.832031 L 69.570312 334.265625 L 69.570312 258.996094 L 135.636719 258.996094 L 201.578125 305.632812 C 203.6875 307.421875 205.34375 309.574219 206.496094 312.039062 Z M 272.660156 279.828125 C 278.128906 279.828125 282.863281 282.335938 285.328125 286.539062 C 285.484375 286.800781 285.625 287.074219 285.761719 287.351562 L 223.265625 324.035156 L 212.929688 325.535156 C 214.359375 321.335938 214.328125 316.621094 212.777344 312.046875 L 263.1875 282.457031 C 266.113281 280.738281 269.386719 279.828125 272.660156 279.828125 Z M 313.339844 307.546875 L 251.921875 332.546875 L 208.660156 332.542969 C 208.832031 332.363281 209 332.167969 209.167969 331.980469 L 224.667969 329.730469 C 225.042969 329.675781 225.402344 329.546875 225.726562 329.359375 L 290.507812 291.332031 C 290.550781 291.308594 290.582031 291.273438 290.625 291.246094 C 290.679688 291.21875 290.746094 291.203125 290.800781 291.171875 C 293.65625 289.558594 296.835938 288.707031 299.996094 288.707031 C 305.457031 288.707031 310.1875 291.210938 312.652344 295.402344 C 314.738281 298.960938 314.972656 303.335938 313.339844 307.546875 Z M 61.722656 352.363281 C 60.425781 353.660156 58.714844 354.375 56.898438 354.375 C 56.898438 354.375 56.894531 354.375 56.894531 354.375 L 33.484375 354.375 C 29.714844 354.375 26.644531 351.304688 26.644531 347.53125 L 26.644531 246.292969 C 26.644531 242.523438 29.710938 239.453125 33.484375 239.453125 L 56.894531 239.457031 C 60.667969 239.457031 63.734375 242.523438 63.734375 246.296875 L 63.734375 347.535156 C 63.734375 349.351562 63.019531 351.066406 61.722656 352.363281 Z M 61.722656 352.363281 " fill-opacity="1" fill-rule="nonzero"/></g><path fill="#6abded" d="M 59.96875 332.496094 C 59.96875 324.347656 53.339844 317.71875 45.191406 317.71875 C 37.039062 317.71875 30.410156 324.347656 30.410156 332.496094 C 30.410156 340.644531 37.039062 347.277344 45.191406 347.277344 C 53.339844 347.277344 59.96875 340.644531 59.96875 332.496094 Z M 45.191406 341.441406 C 40.257812 341.441406 36.246094 337.429688 36.246094 332.496094 C 36.246094 327.566406 40.257812 323.554688 45.191406 323.554688 C 50.121094 323.554688 54.132812 327.566406 54.132812 332.496094 C 54.132812 337.429688 50.121094 341.441406 45.191406 341.441406 Z M 45.191406 341.441406 " fill-opacity="1" fill-rule="nonzero"/><path fill="#6abded" d="M 211.058594 273.492188 C 211.144531 273.542969 211.238281 273.585938 211.328125 273.628906 C 211.351562 273.636719 211.371094 273.648438 211.394531 273.660156 C 211.550781 273.726562 211.707031 273.769531 211.871094 273.808594 C 211.914062 273.816406 211.953125 273.824219 212 273.832031 C 212.167969 273.863281 212.34375 273.882812 212.515625 273.882812 C 212.6875 273.882812 212.863281 273.863281 213.035156 273.832031 C 213.078125 273.824219 213.121094 273.816406 213.164062 273.808594 C 213.324219 273.769531 213.484375 273.726562 213.636719 273.660156 C 213.660156 273.648438 213.679688 273.636719 213.703125 273.628906 C 213.796875 273.585938 213.886719 273.546875 213.976562 273.492188 L 329.96875 206.523438 C 330.871094 206.003906 331.425781 205.039062 331.425781 203.996094 L 331.425781 70.0625 C 331.425781 69.960938 331.417969 69.859375 331.40625 69.757812 C 331.402344 69.734375 331.40625 69.710938 331.402344 69.683594 C 331.378906 69.519531 331.339844 69.359375 331.292969 69.199219 C 331.277344 69.160156 331.265625 69.117188 331.25 69.078125 C 331.132812 68.75 330.957031 68.445312 330.730469 68.179688 C 330.703125 68.144531 330.675781 68.113281 330.644531 68.082031 C 330.535156 67.960938 330.414062 67.84375 330.28125 67.742188 C 330.261719 67.726562 330.242188 67.71875 330.222656 67.703125 C 330.140625 67.644531 330.058594 67.585938 329.96875 67.535156 L 213.976562 0.566406 C 213.074219 0.0429688 211.960938 0.0429688 211.058594 0.566406 L 95.0625 67.535156 C 94.976562 67.585938 94.894531 67.644531 94.8125 67.703125 C 94.792969 67.71875 94.769531 67.726562 94.75 67.742188 C 94.617188 67.84375 94.5 67.957031 94.386719 68.078125 C 94.355469 68.113281 94.328125 68.144531 94.300781 68.179688 C 94.1875 68.3125 94.082031 68.449219 93.996094 68.601562 C 93.996094 68.601562 93.996094 68.605469 93.996094 68.605469 C 93.910156 68.753906 93.839844 68.914062 93.78125 69.074219 C 93.765625 69.117188 93.753906 69.160156 93.738281 69.203125 C 93.691406 69.359375 93.652344 69.519531 93.628906 69.683594 C 93.628906 69.710938 93.628906 69.734375 93.625 69.761719 C 93.613281 69.859375 93.605469 69.960938 93.605469 70.0625 L 93.605469 203.996094 C 93.605469 205.039062 94.160156 206.003906 95.0625 206.523438 Z M 99.441406 75.113281 L 138.480469 97.652344 L 138.480469 130.964844 C 138.480469 132.007812 139.035156 132.972656 139.9375 133.492188 L 168.476562 149.96875 C 168.929688 150.230469 169.429688 150.363281 169.9375 150.363281 C 170.4375 150.363281 170.941406 150.230469 171.394531 149.96875 C 172.296875 149.449219 172.851562 148.484375 172.851562 147.445312 L 172.851562 117.5 L 209.597656 138.714844 L 209.597656 265.910156 L 99.441406 202.3125 Z M 280.089844 45.476562 L 168.476562 109.917969 C 168.449219 109.933594 168.425781 109.957031 168.398438 109.972656 C 168.339844 110.007812 168.285156 110.046875 168.230469 110.085938 C 168.1875 110.117188 168.144531 110.152344 168.101562 110.1875 C 168.046875 110.230469 167.988281 110.277344 167.9375 110.328125 C 167.890625 110.371094 167.847656 110.414062 167.808594 110.457031 C 167.769531 110.496094 167.734375 110.539062 167.699219 110.582031 C 167.65625 110.636719 167.605469 110.691406 167.5625 110.75 C 167.523438 110.804688 167.488281 110.863281 167.453125 110.921875 C 167.441406 110.945312 167.421875 110.960938 167.410156 110.984375 C 167.394531 111.007812 167.390625 111.035156 167.375 111.058594 C 167.34375 111.117188 167.3125 111.171875 167.285156 111.234375 C 167.253906 111.300781 167.230469 111.367188 167.207031 111.4375 C 167.1875 111.488281 167.167969 111.542969 167.148438 111.597656 C 167.132812 111.65625 167.117188 111.710938 167.101562 111.769531 C 167.085938 111.835938 167.074219 111.90625 167.0625 111.976562 C 167.054688 112.039062 167.042969 112.097656 167.039062 112.15625 C 167.03125 112.21875 167.03125 112.28125 167.027344 112.347656 C 167.027344 112.378906 167.019531 112.410156 167.019531 112.441406 L 167.019531 142.386719 L 144.316406 129.28125 L 144.316406 97.652344 L 257.390625 32.367188 Z M 322.671875 70.0625 L 212.515625 133.660156 L 175.769531 112.445312 L 285.925781 48.84375 Z M 215.433594 265.910156 L 215.433594 138.714844 L 325.589844 75.117188 L 325.589844 202.3125 Z M 141.398438 92.597656 L 102.359375 70.0625 L 212.515625 6.460938 L 251.554688 29 Z M 141.398438 92.597656 " fill-opacity="1" fill-rule="nonzero"/></svg>