<svg xmlns="http://www.w3.org/2000/svg" xmlns:xlink="http://www.w3.org/1999/xlink" width="500" zoomAndPan="magnify" viewBox="0 0 375 374.999991" height="500" preserveAspectRatio="xMidYMid meet" version="1.0"><defs><clipPath id="0dfb350456"><path d="M 0 5.390625 L 375 5.390625 L 375 369.890625 L 0 369.890625 Z M 0 5.390625 " clip-rule="nonzero"/></clipPath></defs><g clip-path="url(#0dfb350456)"><path fill="#6abded" d="M 351.964844 181.671875 L 360.667969 250.847656 L 291.511719 259.550781 L 282.808594 190.371094 L 282.808594 190.375 Z M 357.585938 167.960938 C 357.316406 167.960938 357.046875 167.976562 356.769531 168.011719 L 274.765625 178.332031 C 273.0625 178.546875 271.511719 179.429688 270.460938 180.785156 C 269.40625 182.140625 268.933594 183.859375 269.148438 185.566406 L 279.472656 267.59375 C 279.6875 269.296875 280.570312 270.84375 281.925781 271.898438 C 283.066406 272.785156 284.464844 273.257812 285.898438 273.257812 C 286.164062 273.257812 286.4375 273.242188 286.707031 273.207031 L 368.710938 262.886719 C 372.257812 262.441406 374.773438 259.203125 374.328125 255.65625 L 364.003906 173.628906 C 363.59375 170.355469 360.804688 167.960938 357.585938 167.960938 Z M 231.082031 5.414062 C 230.828125 5.414062 230.570312 5.429688 230.3125 5.460938 C 226.761719 5.882812 224.222656 9.101562 224.644531 12.652344 L 256.609375 282.839844 C 257 286.132812 259.796875 288.554688 263.03125 288.554688 C 263.285156 288.554688 263.542969 288.539062 263.800781 288.511719 C 267.351562 288.089844 269.890625 284.871094 269.46875 281.320312 L 237.503906 11.132812 L 237.503906 11.128906 C 237.113281 7.835938 234.316406 5.414062 231.082031 5.414062 Z M 189.042969 71.71875 C 189.039062 71.71875 189.039062 71.71875 189.039062 71.71875 L 87.011719 71.71875 C 83.4375 71.71875 80.539062 74.617188 80.539062 78.191406 L 80.539062 180.21875 C 80.539062 183.796875 83.4375 186.695312 87.011719 186.695312 C 90.589844 186.695312 93.488281 183.796875 93.488281 180.21875 L 93.488281 84.667969 L 183.554688 84.667969 L 215.40625 275.773438 L 160.441406 275.773438 C 157.914062 261.929688 154.96875 247.53125 149.5 236.597656 C 143.132812 223.863281 133.546875 216.113281 125.121094 209.21875 C 123.964844 208.273438 122.515625 207.753906 121.023438 207.753906 L 54.535156 207.753906 C 54.453125 207.753906 54.375 207.757812 54.292969 207.757812 C 44.101562 208.144531 29.5625 208.296875 21.433594 216.222656 C 13.253906 224.199219 12.992188 238.601562 12.527344 248.582031 C 12.523438 248.683594 12.519531 248.78125 12.519531 248.882812 L 12.519531 282.246094 C 12.519531 285.824219 15.417969 288.722656 18.996094 288.722656 C 22.570312 288.722656 25.46875 285.824219 25.46875 282.246094 L 25.46875 249.09375 L 25.464844 249.09375 C 26.035156 236.875 26.8125 229.0625 30.472656 225.492188 C 34.175781 221.882812 42.257812 221.171875 54.660156 220.703125 L 54.65625 220.703125 L 118.707031 220.703125 C 126.542969 227.152344 133.292969 233.144531 137.917969 242.386719 C 143.078125 252.710938 145.773438 267.371094 148.660156 283.394531 C 149.214844 286.480469 151.898438 288.722656 155.03125 288.722656 L 223.050781 288.722656 C 224.953125 288.722656 226.761719 287.886719 227.992188 286.433594 C 229.21875 284.980469 229.75 283.0625 229.4375 281.183594 L 195.425781 77.128906 C 194.90625 74.003906 192.207031 71.71875 189.042969 71.71875 Z M 355.253906 283.546875 C 355.003906 283.546875 354.746094 283.5625 354.488281 283.59375 L 286.980469 291.582031 L 286.972656 291.582031 C 286.960938 291.582031 286.949219 291.582031 286.941406 291.585938 C 283.386719 292.003906 280.851562 295.222656 281.269531 298.773438 C 281.660156 302.066406 284.457031 304.488281 287.691406 304.488281 C 287.945312 304.488281 288.203125 304.472656 288.460938 304.445312 L 356.007812 296.453125 C 359.558594 296.03125 362.097656 292.8125 361.675781 289.261719 C 361.289062 285.96875 358.492188 283.546875 355.253906 283.546875 Z M 244.679688 301.601562 C 259.886719 301.601562 272.210938 313.925781 272.210938 329.132812 C 272.210938 344.339844 259.886719 356.667969 244.679688 356.667969 C 229.46875 356.667969 217.144531 344.339844 217.144531 329.132812 C 217.144531 313.925781 229.46875 301.601562 244.679688 301.601562 Z M 40.621094 301.601562 C 55.828125 301.601562 68.15625 313.925781 68.15625 329.132812 C 68.15625 344.339844 55.828125 356.667969 40.621094 356.667969 C 25.414062 356.667969 13.085938 344.339844 13.085938 329.132812 C 13.085938 313.925781 25.414062 301.601562 40.621094 301.601562 Z M 40.621094 288.652344 C 18.261719 288.652344 0.136719 306.777344 0.136719 329.132812 C 0.136719 351.492188 18.261719 369.617188 40.621094 369.617188 C 61.199219 369.617188 78.191406 354.265625 80.765625 334.390625 L 80.765625 334.394531 L 204.527344 334.390625 L 204.53125 334.390625 C 207.109375 354.265625 224.101562 369.617188 244.679688 369.617188 C 267.035156 369.617188 285.160156 351.492188 285.160156 329.132812 C 285.160156 306.777344 267.035156 288.652344 244.679688 288.652344 C 224.949219 288.652344 208.515625 302.761719 204.925781 321.441406 L 80.375 321.441406 L 80.375 321.445312 C 76.78125 302.761719 60.351562 288.652344 40.621094 288.652344 Z M 40.621094 288.652344 " fill-opacity="1" fill-rule="nonzero"/></g></svg>