<svg xmlns="http://www.w3.org/2000/svg" xmlns:xlink="http://www.w3.org/1999/xlink" width="500" zoomAndPan="magnify" viewBox="0 0 375 374.999991" height="500" preserveAspectRatio="xMidYMid meet" version="1.0"><defs><clipPath id="d726a00ce7"><path d="M 0 14.039062 L 371.25 14.039062 L 371.25 347.789062 L 0 347.789062 Z M 0 14.039062 " clip-rule="nonzero"/></clipPath></defs><g clip-path="url(#d726a00ce7)"><path fill="#6abded" d="M 371.117188 93.832031 L 371.117188 323.175781 C 371.117188 326.367188 368.527344 328.957031 365.335938 328.957031 C 362.140625 328.957031 359.554688 326.367188 359.554688 323.175781 L 359.554688 97.4375 L 214.523438 26.453125 L 69.496094 97.4375 L 69.496094 247.65625 C 69.496094 250.851562 66.90625 253.441406 63.714844 253.441406 C 60.519531 253.441406 57.929688 250.851562 57.929688 247.65625 L 57.929688 93.832031 C 57.929688 91.625 59.1875 89.609375 61.171875 88.636719 L 211.980469 14.820312 C 213.585938 14.035156 215.460938 14.035156 217.066406 14.820312 L 367.875 88.636719 C 369.859375 89.609375 371.117188 91.625 371.117188 93.832031 Z M 107.898438 116.179688 L 321.167969 116.179688 C 324.363281 116.179688 326.949219 118.769531 326.949219 121.964844 L 326.949219 144.722656 C 326.949219 147.917969 324.363281 150.507812 321.167969 150.507812 L 310.894531 150.507812 L 310.894531 244.296875 C 310.894531 247.488281 308.308594 250.078125 305.113281 250.078125 C 301.921875 250.078125 299.332031 247.488281 299.332031 244.296875 L 299.332031 150.507812 L 129.71875 150.507812 L 129.71875 214.253906 C 129.71875 217.449219 127.128906 220.039062 123.933594 220.039062 C 120.742188 220.039062 118.152344 217.449219 118.152344 214.253906 L 118.152344 150.507812 L 107.898438 150.507812 C 104.707031 150.507812 102.117188 147.917969 102.117188 144.722656 L 102.117188 121.964844 C 102.117188 118.769531 104.707031 116.179688 107.898438 116.179688 Z M 113.683594 138.941406 L 315.386719 138.941406 L 315.386719 127.746094 L 113.683594 127.746094 Z M 190.945312 297.132812 L 190.945312 323.175781 C 190.945312 326.367188 188.355469 328.957031 185.160156 328.957031 L 168.769531 328.957031 C 167.929688 339.65625 158.960938 348.109375 148.046875 348.109375 C 137.148438 348.109375 128.1875 339.65625 127.347656 328.957031 L 84.289062 328.957031 C 83.449219 339.65625 74.488281 348.109375 63.589844 348.109375 C 52.675781 348.109375 43.707031 339.65625 42.867188 328.957031 L 27.277344 328.957031 C 24.082031 328.957031 21.492188 326.367188 21.492188 323.175781 L 21.492188 220.804688 L 2.023438 196.347656 C 0.0351562 193.847656 0.445312 190.210938 2.945312 188.222656 C 5.445312 186.230469 9.082031 186.648438 11.070312 189.144531 L 31.800781 215.183594 C 32.617188 216.207031 33.058594 217.476562 33.058594 218.785156 L 33.058594 291.351562 L 46.367188 291.351562 L 46.367188 264.367188 C 46.367188 261.175781 48.953125 258.585938 52.148438 258.585938 L 78.539062 258.585938 L 78.539062 231.621094 C 78.539062 228.429688 81.125 225.839844 84.320312 225.839844 L 134.433594 225.839844 C 137.625 225.839844 140.214844 228.429688 140.214844 231.621094 L 140.214844 258.585938 L 152.394531 258.585938 C 155.585938 258.585938 158.175781 261.175781 158.175781 264.367188 L 158.175781 291.351562 L 185.160156 291.351562 C 188.355469 291.351562 190.945312 293.941406 190.945312 297.132812 Z M 134.433594 270.152344 L 108.042969 270.152344 L 108.042969 291.351562 L 146.613281 291.351562 L 146.613281 270.152344 Z M 90.101562 258.585938 L 128.652344 258.585938 L 128.652344 237.402344 L 90.101562 237.402344 Z M 57.929688 291.351562 L 96.480469 291.351562 L 96.480469 270.152344 L 57.929688 270.152344 Z M 72.640625 328.957031 L 54.515625 328.957031 C 55.292969 333.265625 59.0625 336.542969 63.589844 336.542969 C 68.105469 336.542969 71.867188 333.265625 72.640625 328.957031 Z M 157.121094 328.957031 L 138.996094 328.957031 C 139.769531 333.265625 143.53125 336.542969 148.046875 336.542969 C 152.574219 336.542969 156.34375 333.265625 157.121094 328.957031 Z M 179.378906 302.917969 L 33.058594 302.917969 L 33.058594 317.394531 L 49.066406 317.394531 C 49.074219 317.394531 49.078125 317.394531 49.082031 317.394531 L 162.546875 317.394531 C 162.554688 317.394531 162.5625 317.394531 162.574219 317.394531 L 179.378906 317.394531 Z M 336.691406 261.109375 L 336.691406 323.175781 C 336.691406 326.367188 334.101562 328.957031 330.90625 328.957031 L 212.351562 328.957031 C 209.15625 328.957031 206.566406 326.367188 206.566406 323.175781 L 206.566406 266.890625 L 167.382812 266.890625 C 164.191406 266.890625 161.601562 264.300781 161.601562 261.105469 L 161.601562 202.484375 C 161.601562 199.289062 164.191406 196.699219 167.382812 196.699219 L 279.316406 196.699219 C 282.511719 196.699219 285.101562 199.289062 285.101562 202.484375 L 285.101562 255.324219 L 330.90625 255.324219 C 334.101562 255.324219 336.691406 257.914062 336.691406 261.109375 Z M 245.445312 255.324219 L 273.535156 255.324219 L 273.535156 208.269531 L 245.445312 208.269531 Z M 245.445312 280.527344 L 255.820312 280.527344 L 255.820312 266.890625 L 245.445312 266.890625 Z M 198.960938 220.507812 L 208.105469 220.507812 L 208.105469 208.265625 L 198.960938 208.265625 Z M 212.351562 255.324219 L 233.878906 255.324219 L 233.878906 208.269531 L 219.671875 208.269531 L 219.671875 226.292969 C 219.671875 229.484375 217.082031 232.074219 213.890625 232.074219 L 193.179688 232.074219 C 189.984375 232.074219 187.398438 229.484375 187.398438 226.292969 L 187.398438 208.269531 L 173.167969 208.269531 L 173.167969 255.324219 Z M 283.132812 266.890625 L 267.386719 266.890625 L 267.386719 286.308594 C 267.386719 289.5 264.796875 292.089844 261.605469 292.089844 L 239.664062 292.089844 C 236.46875 292.089844 233.882812 289.503906 233.882812 286.308594 L 233.882812 266.890625 L 218.132812 266.890625 L 218.132812 317.394531 L 283.132812 317.394531 Z M 325.125 266.890625 L 294.695312 266.890625 L 294.695312 317.394531 L 325.125 317.394531 Z M 193.976562 99.304688 C 190.785156 99.304688 188.195312 96.71875 188.195312 93.523438 L 188.195312 64.121094 C 188.195312 60.925781 190.785156 58.335938 193.976562 58.335938 L 235.070312 58.335938 C 238.261719 58.335938 240.851562 60.925781 240.851562 64.121094 L 240.851562 93.523438 C 240.851562 96.71875 238.261719 99.304688 235.070312 99.304688 Z M 199.761719 87.742188 L 229.289062 87.742188 L 229.289062 69.902344 L 199.761719 69.902344 Z M 199.761719 87.742188 " fill-opacity="1" fill-rule="nonzero"/></g></svg>