<svg xmlns="http://www.w3.org/2000/svg" xmlns:xlink="http://www.w3.org/1999/xlink" width="500" zoomAndPan="magnify" viewBox="0 0 375 374.999991" height="500" preserveAspectRatio="xMidYMid meet" version="1.0"><defs><clipPath id="b7e3e5420b"><path d="M 3.035156 83.96875 L 372 83.96875 L 372 290.96875 L 3.035156 290.96875 Z M 3.035156 83.96875 " clip-rule="nonzero"/></clipPath></defs><g clip-path="url(#b7e3e5420b)"><path fill="#6abded" d="M 33.078125 171.644531 L 7.636719 164.601562 C 7.320312 164.515625 7.019531 164.398438 6.726562 164.253906 C 6.433594 164.105469 6.160156 163.933594 5.898438 163.734375 C 5.640625 163.535156 5.40625 163.3125 5.191406 163.066406 C 4.976562 162.820312 4.785156 162.554688 4.621094 162.269531 C 4.460938 161.988281 4.324219 161.691406 4.21875 161.382812 C 4.113281 161.074219 4.039062 160.757812 3.996094 160.433594 C 3.953125 160.109375 3.941406 159.785156 3.960938 159.457031 C 3.980469 159.132812 4.03125 158.808594 4.113281 158.492188 L 10.746094 132.953125 C 10.832031 132.632812 10.945312 132.324219 11.085938 132.027344 C 11.230469 131.730469 11.402344 131.449219 11.601562 131.1875 C 11.800781 130.921875 12.023438 130.683594 12.269531 130.460938 C 12.515625 130.242188 12.78125 130.050781 13.066406 129.882812 C 13.351562 129.714844 13.648438 129.578125 13.960938 129.46875 C 14.273438 129.359375 14.59375 129.285156 14.917969 129.238281 C 15.246094 129.191406 15.574219 129.179688 15.902344 129.199219 C 16.234375 129.21875 16.558594 129.269531 16.878906 129.351562 C 17.195312 129.433594 17.503906 129.546875 17.800781 129.691406 C 18.097656 129.835938 18.378906 130.007812 18.644531 130.207031 C 18.90625 130.40625 19.148438 130.628906 19.367188 130.875 C 19.585938 131.121094 19.78125 131.386719 19.945312 131.671875 C 20.113281 131.953125 20.25 132.253906 20.359375 132.566406 C 20.46875 132.875 20.546875 133.195312 20.589844 133.523438 C 20.636719 133.851562 20.648438 134.179688 20.632812 134.507812 C 20.613281 134.835938 20.5625 135.160156 20.476562 135.480469 L 16.859375 149.410156 L 61.738281 123.492188 C 62.023438 123.324219 62.324219 123.191406 62.636719 123.085938 C 62.949219 122.976562 63.269531 122.902344 63.597656 122.859375 C 63.925781 122.816406 64.253906 122.808594 64.582031 122.828125 C 64.910156 122.851562 65.234375 122.902344 65.554688 122.988281 C 65.871094 123.074219 66.179688 123.191406 66.476562 123.335938 C 66.773438 123.480469 67.050781 123.65625 67.3125 123.855469 C 67.574219 124.058594 67.8125 124.28125 68.03125 124.53125 C 68.25 124.777344 68.441406 125.046875 68.605469 125.332031 C 68.769531 125.617188 68.90625 125.917969 69.011719 126.230469 C 69.117188 126.542969 69.191406 126.859375 69.234375 127.1875 C 69.277344 127.515625 69.289062 127.84375 69.269531 128.171875 C 69.246094 128.503906 69.191406 128.828125 69.105469 129.144531 C 69.023438 129.464844 68.90625 129.769531 68.761719 130.066406 C 68.613281 130.363281 68.441406 130.640625 68.238281 130.902344 C 68.039062 131.164062 67.8125 131.40625 67.566406 131.625 C 67.316406 131.839844 67.050781 132.03125 66.765625 132.195312 L 21.890625 158.117188 L 35.753906 161.953125 C 36.074219 162.042969 36.378906 162.160156 36.675781 162.308594 C 36.96875 162.457031 37.246094 162.632812 37.507812 162.835938 C 37.769531 163.039062 38.007812 163.265625 38.222656 163.515625 C 38.4375 163.765625 38.625 164.035156 38.789062 164.324219 C 38.953125 164.609375 39.085938 164.910156 39.1875 165.222656 C 39.292969 165.535156 39.363281 165.859375 39.40625 166.183594 C 39.445312 166.511719 39.453125 166.839844 39.429688 167.171875 C 39.40625 167.5 39.347656 167.824219 39.261719 168.140625 C 39.171875 168.460938 39.054688 168.765625 38.90625 169.0625 C 38.757812 169.355469 38.582031 169.632812 38.378906 169.894531 C 38.175781 170.15625 37.949219 170.394531 37.699219 170.609375 C 37.449219 170.824219 37.179688 171.011719 36.894531 171.175781 C 36.605469 171.339844 36.304688 171.472656 35.992188 171.574219 C 35.679688 171.679688 35.359375 171.75 35.03125 171.792969 C 34.703125 171.832031 34.375 171.839844 34.042969 171.816406 C 33.714844 171.792969 33.390625 171.734375 33.074219 171.648438 Z M 304.769531 192.382812 L 294.632812 192.382812 C 294.304688 192.382812 293.976562 192.414062 293.652344 192.476562 C 293.332031 192.542969 293.015625 192.636719 292.710938 192.765625 C 292.40625 192.890625 292.117188 193.042969 291.84375 193.226562 C 291.566406 193.410156 291.3125 193.621094 291.082031 193.851562 C 290.847656 194.085938 290.640625 194.339844 290.457031 194.613281 C 290.273438 194.890625 290.117188 195.179688 289.992188 195.484375 C 289.863281 195.789062 289.769531 196.101562 289.707031 196.425781 C 289.640625 196.75 289.609375 197.078125 289.609375 197.40625 C 289.609375 197.738281 289.640625 198.0625 289.707031 198.386719 C 289.769531 198.710938 289.863281 199.023438 289.992188 199.332031 C 290.117188 199.636719 290.273438 199.925781 290.457031 200.199219 C 290.640625 200.472656 290.847656 200.726562 291.082031 200.960938 C 291.3125 201.195312 291.566406 201.402344 291.84375 201.585938 C 292.117188 201.769531 292.40625 201.921875 292.710938 202.050781 C 293.015625 202.175781 293.332031 202.273438 293.652344 202.335938 C 293.976562 202.398438 294.304688 202.433594 294.632812 202.433594 L 304.769531 202.433594 C 305.097656 202.433594 305.425781 202.398438 305.75 202.335938 C 306.074219 202.273438 306.386719 202.175781 306.691406 202.050781 C 306.996094 201.921875 307.285156 201.769531 307.5625 201.585938 C 307.835938 201.402344 308.089844 201.195312 308.324219 200.960938 C 308.554688 200.726562 308.765625 200.472656 308.949219 200.199219 C 309.132812 199.925781 309.285156 199.636719 309.414062 199.332031 C 309.539062 199.023438 309.632812 198.710938 309.699219 198.386719 C 309.761719 198.0625 309.792969 197.738281 309.792969 197.40625 C 309.792969 197.078125 309.761719 196.75 309.699219 196.425781 C 309.632812 196.101562 309.539062 195.789062 309.414062 195.484375 C 309.285156 195.179688 309.132812 194.890625 308.949219 194.613281 C 308.765625 194.339844 308.554688 194.085938 308.324219 193.851562 C 308.089844 193.621094 307.835938 193.410156 307.5625 193.226562 C 307.285156 193.042969 306.996094 192.890625 306.691406 192.765625 C 306.386719 192.636719 306.074219 192.542969 305.75 192.476562 C 305.425781 192.414062 305.097656 192.382812 304.769531 192.382812 Z M 323.433594 234.691406 L 323.351562 234.691406 C 323.019531 234.691406 322.695312 234.726562 322.371094 234.789062 C 322.046875 234.851562 321.730469 234.949219 321.425781 235.074219 C 321.121094 235.203125 320.832031 235.355469 320.558594 235.539062 C 320.285156 235.722656 320.03125 235.929688 319.796875 236.164062 C 319.5625 236.398438 319.355469 236.652344 319.171875 236.925781 C 318.988281 237.199219 318.832031 237.488281 318.707031 237.792969 C 318.582031 238.101562 318.484375 238.414062 318.421875 238.738281 C 318.355469 239.0625 318.324219 239.386719 318.324219 239.71875 C 318.324219 240.046875 318.355469 240.375 318.421875 240.699219 C 318.484375 241.023438 318.582031 241.335938 318.707031 241.640625 C 318.832031 241.945312 318.988281 242.234375 319.171875 242.511719 C 319.355469 242.785156 319.5625 243.039062 319.796875 243.273438 C 320.03125 243.503906 320.285156 243.714844 320.558594 243.898438 C 320.832031 244.082031 321.121094 244.234375 321.425781 244.359375 C 321.730469 244.488281 322.046875 244.582031 322.371094 244.648438 C 322.695312 244.710938 323.019531 244.742188 323.351562 244.742188 L 323.433594 244.742188 C 323.761719 244.742188 324.089844 244.710938 324.414062 244.648438 C 324.734375 244.582031 325.050781 244.488281 325.355469 244.359375 C 325.660156 244.234375 325.949219 244.082031 326.222656 243.898438 C 326.5 243.714844 326.753906 243.503906 326.984375 243.273438 C 327.21875 243.039062 327.425781 242.785156 327.609375 242.511719 C 327.792969 242.234375 327.949219 241.945312 328.074219 241.640625 C 328.199219 241.335938 328.296875 241.023438 328.359375 240.699219 C 328.425781 240.375 328.457031 240.046875 328.457031 239.71875 C 328.457031 239.386719 328.425781 239.0625 328.359375 238.738281 C 328.296875 238.414062 328.199219 238.101562 328.074219 237.792969 C 327.949219 237.488281 327.792969 237.199219 327.609375 236.925781 C 327.425781 236.652344 327.21875 236.398438 326.984375 236.164062 C 326.753906 235.929688 326.5 235.722656 326.222656 235.539062 C 325.949219 235.355469 325.660156 235.203125 325.355469 235.074219 C 325.050781 234.949219 324.734375 234.851562 324.414062 234.789062 C 324.089844 234.726562 323.761719 234.691406 323.433594 234.691406 Z M 371.542969 223.886719 C 371.542969 223.960938 371.535156 224.035156 371.53125 224.109375 C 371.527344 224.183594 371.542969 224.257812 371.542969 224.335938 L 371.542969 245.664062 C 371.542969 245.992188 371.511719 246.320312 371.445312 246.644531 C 371.382812 246.96875 371.289062 247.28125 371.160156 247.585938 C 371.035156 247.890625 370.878906 248.179688 370.695312 248.453125 C 370.511719 248.730469 370.304688 248.984375 370.070312 249.214844 C 369.839844 249.449219 369.585938 249.660156 369.308594 249.839844 C 369.035156 250.023438 368.746094 250.179688 368.441406 250.304688 C 368.136719 250.433594 367.820312 250.527344 367.5 250.59375 C 367.175781 250.65625 366.847656 250.6875 366.519531 250.6875 L 347.5 250.6875 C 346.976562 251.839844 346.371094 252.945312 345.691406 254.011719 C 345.007812 255.074219 344.253906 256.085938 343.425781 257.039062 C 342.601562 257.996094 341.710938 258.886719 340.753906 259.714844 C 339.800781 260.546875 338.792969 261.300781 337.730469 261.984375 C 336.667969 262.667969 335.5625 263.273438 334.410156 263.800781 C 333.261719 264.324219 332.082031 264.765625 330.867188 265.121094 C 329.65625 265.480469 328.425781 265.746094 327.171875 265.925781 C 325.921875 266.109375 324.664062 266.199219 323.402344 266.199219 C 322.136719 266.199219 320.878906 266.109375 319.628906 265.925781 C 318.378906 265.746094 317.144531 265.480469 315.933594 265.121094 C 314.722656 264.765625 313.539062 264.324219 312.390625 263.800781 C 311.242188 263.273438 310.136719 262.667969 309.074219 261.984375 C 308.011719 261.300781 307 260.546875 306.046875 259.714844 C 305.09375 258.886719 304.203125 257.996094 303.375 257.039062 C 302.546875 256.085938 301.792969 255.074219 301.113281 254.011719 C 300.429688 252.945312 299.828125 251.839844 299.304688 250.6875 L 193.707031 250.6875 C 193.183594 251.839844 192.578125 252.945312 191.898438 254.011719 C 191.214844 255.074219 190.460938 256.082031 189.632812 257.039062 C 188.808594 257.996094 187.917969 258.886719 186.960938 259.714844 C 186.007812 260.542969 185 261.300781 183.9375 261.984375 C 182.875 262.667969 181.765625 263.273438 180.617188 263.800781 C 179.46875 264.324219 178.289062 264.765625 177.074219 265.121094 C 175.863281 265.476562 174.632812 265.746094 173.378906 265.925781 C 172.128906 266.105469 170.871094 266.195312 169.609375 266.195312 C 168.34375 266.195312 167.085938 266.105469 165.835938 265.925781 C 164.585938 265.746094 163.351562 265.476562 162.140625 265.121094 C 160.929688 264.765625 159.746094 264.324219 158.597656 263.800781 C 157.449219 263.273438 156.34375 262.667969 155.28125 261.984375 C 154.21875 261.300781 153.207031 260.542969 152.253906 259.714844 C 151.300781 258.886719 150.410156 257.996094 149.582031 257.039062 C 148.753906 256.082031 148 255.074219 147.320312 254.011719 C 146.636719 252.945312 146.035156 251.839844 145.511719 250.6875 L 120.742188 250.6875 L 52.484375 290.085938 C 51.707031 290.535156 50.871094 290.761719 49.972656 290.761719 C 49.074219 290.761719 48.238281 290.535156 47.460938 290.085938 L 28.972656 279.425781 C 28.195312 278.976562 27.582031 278.363281 27.132812 277.585938 C 26.683594 276.808594 26.457031 275.96875 26.457031 275.070312 C 26.457031 274.171875 26.683594 273.335938 27.132812 272.558594 C 27.582031 271.777344 28.195312 271.167969 28.972656 270.71875 L 39.558594 264.609375 L 8.574219 210.933594 C 8.40625 210.648438 8.273438 210.347656 8.164062 210.035156 C 8.058594 209.722656 7.984375 209.402344 7.941406 209.074219 C 7.898438 208.75 7.886719 208.421875 7.910156 208.089844 C 7.929688 207.761719 7.984375 207.4375 8.070312 207.117188 C 8.15625 206.800781 8.269531 206.492188 8.417969 206.195312 C 8.5625 205.898438 8.734375 205.621094 8.9375 205.359375 C 9.136719 205.097656 9.363281 204.859375 9.609375 204.640625 C 9.859375 204.421875 10.125 204.230469 10.410156 204.066406 L 68.433594 170.566406 C 68.71875 170.402344 69.019531 170.265625 69.332031 170.160156 C 69.644531 170.054688 69.964844 169.980469 70.292969 169.9375 C 70.621094 169.894531 70.949219 169.882812 71.277344 169.902344 C 71.605469 169.925781 71.929688 169.980469 72.25 170.0625 C 72.566406 170.148438 72.875 170.265625 73.171875 170.410156 C 73.46875 170.558594 73.746094 170.730469 74.007812 170.933594 C 74.269531 171.132812 74.511719 171.355469 74.726562 171.605469 C 74.945312 171.855469 75.136719 172.121094 75.300781 172.40625 L 106.296875 226.089844 L 114.359375 221.4375 L 114.359375 88.976562 C 114.359375 88.644531 114.390625 88.320312 114.457031 87.996094 C 114.519531 87.671875 114.613281 87.355469 114.742188 87.050781 C 114.867188 86.746094 115.023438 86.457031 115.207031 86.183594 C 115.390625 85.910156 115.597656 85.65625 115.832031 85.421875 C 116.0625 85.1875 116.316406 84.980469 116.59375 84.796875 C 116.867188 84.613281 117.15625 84.457031 117.460938 84.332031 C 117.765625 84.207031 118.082031 84.109375 118.402344 84.046875 C 118.726562 83.980469 119.054688 83.949219 119.382812 83.949219 L 278.496094 83.949219 C 278.828125 83.949219 279.152344 83.980469 279.476562 84.046875 C 279.800781 84.109375 280.113281 84.207031 280.417969 84.332031 C 280.722656 84.457031 281.015625 84.613281 281.289062 84.796875 C 281.5625 84.980469 281.816406 85.1875 282.050781 85.421875 C 282.285156 85.65625 282.492188 85.910156 282.675781 86.183594 C 282.859375 86.457031 283.011719 86.746094 283.140625 87.050781 C 283.265625 87.355469 283.359375 87.671875 283.425781 87.996094 C 283.488281 88.320312 283.523438 88.644531 283.523438 88.976562 L 283.523438 123.328125 L 319.097656 123.328125 C 319.878906 123.328125 320.625 123.503906 321.328125 123.851562 C 322.027344 124.199219 322.617188 124.683594 323.09375 125.308594 L 370.511719 187.460938 C 371.199219 188.363281 371.542969 189.378906 371.542969 190.511719 Z M 41.5625 197.695312 L 48.691406 210.039062 L 54.476562 206.691406 L 47.347656 194.355469 Z M 48.269531 259.585938 L 97.59375 231.121094 L 69.109375 181.789062 L 56.054688 189.328125 L 65.695312 206.003906 C 65.859375 206.289062 65.996094 206.589844 66.101562 206.902344 C 66.207031 207.214844 66.28125 207.535156 66.324219 207.863281 C 66.371094 208.1875 66.378906 208.515625 66.359375 208.847656 C 66.335938 209.175781 66.285156 209.5 66.199219 209.820312 C 66.113281 210.136719 66 210.445312 65.851562 210.742188 C 65.707031 211.039062 65.535156 211.316406 65.332031 211.578125 C 65.132812 211.839844 64.90625 212.082031 64.660156 212.296875 C 64.410156 212.515625 64.144531 212.707031 63.859375 212.871094 L 49.371094 221.257812 C 49.085938 221.421875 48.785156 221.558594 48.472656 221.664062 C 48.160156 221.773438 47.839844 221.847656 47.511719 221.890625 C 47.183594 221.933594 46.855469 221.945312 46.527344 221.921875 C 46.195312 221.902344 45.871094 221.847656 45.554688 221.761719 C 45.234375 221.679688 44.925781 221.5625 44.628906 221.417969 C 44.335938 221.269531 44.054688 221.097656 43.792969 220.894531 C 43.53125 220.695312 43.292969 220.46875 43.074219 220.222656 C 42.855469 219.972656 42.664062 219.707031 42.5 219.417969 L 32.855469 202.71875 L 19.792969 210.257812 Z M 114.359375 233.050781 L 41.542969 275.070312 L 49.964844 279.929688 L 114.359375 242.761719 Z M 305.15625 172.828125 L 346.703125 172.828125 L 316.613281 133.386719 L 305.15625 133.386719 Z M 143.113281 239.722656 C 143.109375 236.125 143.816406 232.671875 145.226562 229.367188 L 124.40625 229.367188 L 124.40625 240.636719 L 143.132812 240.636719 C 143.128906 240.332031 143.117188 240.027344 143.117188 239.71875 Z M 186.035156 239.722656 C 186.035156 239.1875 186.011719 238.648438 185.957031 238.113281 C 185.90625 237.578125 185.828125 237.042969 185.722656 236.515625 C 185.617188 235.988281 185.488281 235.46875 185.332031 234.953125 C 185.175781 234.4375 184.992188 233.929688 184.789062 233.433594 C 184.582031 232.933594 184.351562 232.449219 184.097656 231.972656 C 183.84375 231.5 183.570312 231.039062 183.269531 230.589844 C 182.972656 230.140625 182.652344 229.710938 182.308594 229.292969 C 181.96875 228.878906 181.609375 228.480469 181.226562 228.097656 C 180.847656 227.71875 180.449219 227.355469 180.03125 227.015625 C 179.617188 226.671875 179.183594 226.351562 178.738281 226.054688 C 178.289062 225.753906 177.828125 225.476562 177.351562 225.222656 C 176.878906 224.96875 176.394531 224.738281 175.894531 224.53125 C 175.398438 224.328125 174.890625 224.144531 174.375 223.988281 C 173.863281 223.832031 173.339844 223.703125 172.8125 223.597656 C 172.285156 223.492188 171.753906 223.414062 171.214844 223.359375 C 170.679688 223.304688 170.144531 223.28125 169.605469 223.28125 C 169.066406 223.28125 168.53125 223.304688 167.992188 223.359375 C 167.457031 223.410156 166.925781 223.492188 166.398438 223.59375 C 165.871094 223.699219 165.347656 223.832031 164.832031 223.988281 C 164.316406 224.144531 163.8125 224.324219 163.3125 224.53125 C 162.816406 224.734375 162.332031 224.964844 161.855469 225.21875 C 161.382812 225.472656 160.917969 225.75 160.472656 226.050781 C 160.023438 226.347656 159.59375 226.667969 159.175781 227.011719 C 158.761719 227.351562 158.363281 227.710938 157.980469 228.09375 C 157.601562 228.472656 157.238281 228.871094 156.898438 229.289062 C 156.554688 229.703125 156.234375 230.136719 155.9375 230.585938 C 155.636719 231.03125 155.363281 231.492188 155.109375 231.96875 C 154.855469 232.441406 154.625 232.929688 154.417969 233.425781 C 154.210938 233.925781 154.03125 234.429688 153.875 234.945312 C 153.71875 235.460938 153.589844 235.980469 153.484375 236.511719 C 153.378906 237.039062 153.300781 237.570312 153.246094 238.105469 C 153.195312 238.640625 153.167969 239.179688 153.167969 239.71875 C 153.167969 240.253906 153.195312 240.792969 153.246094 241.328125 C 153.300781 241.863281 153.378906 242.394531 153.484375 242.925781 C 153.589844 243.453125 153.71875 243.972656 153.875 244.488281 C 154.03125 245.003906 154.214844 245.511719 154.421875 246.007812 C 154.625 246.503906 154.855469 246.992188 155.109375 247.464844 C 155.363281 247.941406 155.640625 248.402344 155.941406 248.847656 C 156.238281 249.296875 156.558594 249.726562 156.902344 250.144531 C 157.242188 250.558594 157.605469 250.957031 157.984375 251.339844 C 158.367188 251.71875 158.765625 252.082031 159.179688 252.421875 C 159.597656 252.761719 160.03125 253.082031 160.476562 253.382812 C 160.925781 253.679688 161.386719 253.957031 161.863281 254.210938 C 162.335938 254.464844 162.824219 254.695312 163.320312 254.898438 C 163.816406 255.105469 164.324219 255.285156 164.839844 255.441406 C 165.355469 255.597656 165.875 255.730469 166.40625 255.832031 C 166.933594 255.9375 167.464844 256.015625 168 256.070312 C 168.535156 256.121094 169.074219 256.148438 169.613281 256.148438 C 170.148438 256.148438 170.6875 256.121094 171.222656 256.066406 C 171.757812 256.015625 172.289062 255.933594 172.816406 255.828125 C 173.34375 255.722656 173.863281 255.59375 174.378906 255.4375 C 174.894531 255.28125 175.398438 255.097656 175.894531 254.894531 C 176.394531 254.6875 176.878906 254.457031 177.351562 254.203125 C 177.828125 253.949219 178.289062 253.671875 178.734375 253.375 C 179.183594 253.074219 179.613281 252.753906 180.027344 252.414062 C 180.445312 252.074219 180.84375 251.710938 181.222656 251.332031 C 181.601562 250.953125 181.964844 250.554688 182.304688 250.136719 C 182.648438 249.722656 182.964844 249.289062 183.265625 248.84375 C 183.5625 248.394531 183.839844 247.933594 184.09375 247.460938 C 184.347656 246.988281 184.578125 246.5 184.785156 246.003906 C 184.988281 245.507812 185.171875 245 185.328125 244.488281 C 185.484375 243.972656 185.613281 243.453125 185.71875 242.925781 C 185.824219 242.398438 185.90625 241.867188 185.957031 241.328125 C 186.011719 240.792969 186.039062 240.257812 186.039062 239.71875 Z M 273.46875 219.304688 L 273.46875 94.003906 L 124.414062 94.003906 L 124.414062 219.304688 L 152.753906 219.304688 C 153.933594 218.332031 155.183594 217.46875 156.507812 216.710938 C 157.835938 215.957031 159.214844 215.320312 160.652344 214.800781 C 162.089844 214.285156 163.558594 213.894531 165.0625 213.632812 C 166.566406 213.371094 168.082031 213.238281 169.609375 213.238281 C 171.132812 213.238281 172.648438 213.371094 174.152344 213.632812 C 175.65625 213.894531 177.125 214.285156 178.5625 214.800781 C 180 215.320312 181.378906 215.957031 182.707031 216.710938 C 184.03125 217.46875 185.28125 218.332031 186.460938 219.304688 Z M 296.917969 239.71875 C 296.914062 236.121094 297.617188 232.667969 299.03125 229.363281 L 193.980469 229.363281 C 195.390625 232.671875 196.09375 236.125 196.089844 239.71875 C 196.089844 240.027344 196.078125 240.332031 196.066406 240.636719 L 296.941406 240.636719 C 296.925781 240.332031 296.914062 240.027344 296.914062 239.71875 Z M 339.835938 239.71875 C 339.839844 239.179688 339.8125 238.640625 339.757812 238.105469 C 339.707031 237.570312 339.628906 237.039062 339.523438 236.511719 C 339.417969 235.984375 339.289062 235.460938 339.132812 234.945312 C 338.976562 234.429688 338.796875 233.925781 338.589844 233.425781 C 338.386719 232.929688 338.15625 232.445312 337.902344 231.96875 C 337.648438 231.496094 337.371094 231.03125 337.074219 230.585938 C 336.773438 230.136719 336.453125 229.707031 336.113281 229.289062 C 335.773438 228.871094 335.410156 228.472656 335.03125 228.09375 C 334.652344 227.710938 334.253906 227.351562 333.835938 227.011719 C 333.421875 226.667969 332.988281 226.347656 332.542969 226.046875 C 332.09375 225.75 331.632812 225.472656 331.160156 225.21875 C 330.683594 224.964844 330.199219 224.734375 329.703125 224.527344 C 329.203125 224.320312 328.699219 224.140625 328.183594 223.984375 C 327.667969 223.828125 327.148438 223.695312 326.617188 223.589844 C 326.089844 223.484375 325.558594 223.40625 325.023438 223.351562 C 324.488281 223.300781 323.949219 223.273438 323.414062 223.273438 C 322.875 223.273438 322.335938 223.300781 321.800781 223.351562 C 321.265625 223.402344 320.734375 223.484375 320.207031 223.585938 C 319.679688 223.691406 319.15625 223.824219 318.640625 223.976562 C 318.125 224.132812 317.621094 224.316406 317.121094 224.519531 C 316.625 224.726562 316.140625 224.957031 315.664062 225.210938 C 315.191406 225.464844 314.726562 225.738281 314.28125 226.039062 C 313.832031 226.335938 313.402344 226.65625 312.984375 227 C 312.570312 227.339844 312.171875 227.699219 311.789062 228.082031 C 311.410156 228.460938 311.046875 228.859375 310.707031 229.273438 C 310.363281 229.691406 310.042969 230.121094 309.742188 230.570312 C 309.445312 231.015625 309.167969 231.476562 308.914062 231.953125 C 308.660156 232.425781 308.429688 232.914062 308.222656 233.410156 C 308.019531 233.90625 307.835938 234.414062 307.679688 234.929688 C 307.523438 235.445312 307.390625 235.964844 307.285156 236.492188 C 307.183594 237.019531 307.101562 237.554688 307.050781 238.089844 C 306.996094 238.625 306.96875 239.160156 306.96875 239.699219 C 306.96875 240.238281 306.996094 240.773438 307.046875 241.308594 C 307.101562 241.847656 307.179688 242.378906 307.285156 242.90625 C 307.386719 243.433594 307.519531 243.957031 307.675781 244.46875 C 307.832031 244.984375 308.011719 245.492188 308.21875 245.988281 C 308.421875 246.488281 308.652344 246.972656 308.90625 247.449219 C 309.160156 247.921875 309.4375 248.382812 309.734375 248.832031 C 310.035156 249.277344 310.355469 249.710938 310.695312 250.128906 C 311.035156 250.542969 311.398438 250.941406 311.777344 251.324219 C 312.15625 251.703125 312.554688 252.066406 312.972656 252.40625 C 313.386719 252.746094 313.820312 253.066406 314.265625 253.367188 C 314.714844 253.667969 315.175781 253.945312 315.648438 254.199219 C 316.125 254.453125 316.609375 254.679688 317.109375 254.886719 C 317.605469 255.09375 318.109375 255.273438 318.625 255.429688 C 319.140625 255.589844 319.664062 255.71875 320.191406 255.824219 C 320.71875 255.929688 321.25 256.007812 321.785156 256.0625 C 322.320312 256.113281 322.859375 256.140625 323.398438 256.140625 C 323.933594 256.140625 324.472656 256.113281 325.007812 256.0625 C 325.542969 256.007812 326.074219 255.929688 326.601562 255.824219 C 327.128906 255.71875 327.648438 255.589844 328.164062 255.433594 C 328.679688 255.273438 329.183594 255.09375 329.679688 254.886719 C 330.179688 254.683594 330.664062 254.453125 331.136719 254.199219 C 331.613281 253.945312 332.074219 253.667969 332.519531 253.371094 C 332.96875 253.070312 333.398438 252.753906 333.816406 252.410156 C 334.230469 252.070312 334.628906 251.710938 335.011719 251.328125 C 335.390625 250.949219 335.753906 250.550781 336.09375 250.136719 C 336.433594 249.71875 336.753906 249.289062 337.054688 248.839844 C 337.355469 248.394531 337.628906 247.933594 337.886719 247.460938 C 338.140625 246.984375 338.371094 246.5 338.574219 246.003906 C 338.78125 245.507812 338.964844 245 339.121094 244.488281 C 339.277344 243.972656 339.410156 243.453125 339.515625 242.925781 C 339.621094 242.398438 339.699219 241.867188 339.753906 241.328125 C 339.808594 240.792969 339.835938 240.257812 339.835938 239.71875 Z M 361.492188 229.363281 L 347.777344 229.363281 C 349.191406 232.671875 349.894531 236.121094 349.894531 239.71875 C 349.894531 240.027344 349.878906 240.332031 349.871094 240.636719 L 361.492188 240.636719 Z M 361.492188 192.207031 L 354.375 182.875 L 300.128906 182.875 C 299.800781 182.875 299.472656 182.84375 299.148438 182.777344 C 298.824219 182.714844 298.511719 182.617188 298.207031 182.492188 C 297.902344 182.367188 297.609375 182.210938 297.335938 182.027344 C 297.0625 181.84375 296.808594 181.636719 296.574219 181.402344 C 296.34375 181.171875 296.132812 180.917969 295.949219 180.640625 C 295.765625 180.367188 295.613281 180.078125 295.484375 179.773438 C 295.359375 179.46875 295.265625 179.152344 295.199219 178.832031 C 295.136719 178.507812 295.101562 178.179688 295.101562 177.851562 L 295.101562 133.382812 L 283.523438 133.382812 L 283.523438 219.304688 L 306.546875 219.304688 C 307.722656 218.332031 308.972656 217.46875 310.300781 216.710938 C 311.625 215.957031 313.007812 215.320312 314.441406 214.800781 C 315.878906 214.285156 317.347656 213.894531 318.851562 213.632812 C 320.355469 213.371094 321.871094 213.238281 323.398438 213.238281 C 324.925781 213.238281 326.4375 213.371094 327.941406 213.632812 C 329.445312 213.894531 330.917969 214.285156 332.351562 214.800781 C 333.789062 215.320312 335.167969 215.957031 336.496094 216.710938 C 337.820312 217.46875 339.074219 218.332031 340.25 219.304688 L 361.492188 219.304688 Z M 225.132812 108.839844 C 224.804688 108.839844 224.476562 108.871094 224.152344 108.933594 C 223.828125 109 223.515625 109.09375 223.210938 109.222656 C 222.90625 109.347656 222.617188 109.503906 222.339844 109.683594 C 222.066406 109.867188 221.8125 110.078125 221.578125 110.308594 C 221.347656 110.542969 221.136719 110.796875 220.953125 111.070312 C 220.769531 111.347656 220.617188 111.636719 220.492188 111.941406 C 220.363281 112.246094 220.269531 112.558594 220.203125 112.882812 C 220.140625 113.207031 220.109375 113.535156 220.109375 113.863281 L 220.109375 201.722656 C 220.109375 202.054688 220.140625 202.378906 220.203125 202.703125 C 220.269531 203.027344 220.363281 203.339844 220.492188 203.644531 C 220.617188 203.953125 220.769531 204.242188 220.953125 204.515625 C 221.136719 204.789062 221.347656 205.042969 221.578125 205.277344 C 221.8125 205.511719 222.066406 205.71875 222.339844 205.902344 C 222.617188 206.085938 222.90625 206.238281 223.210938 206.367188 C 223.515625 206.492188 223.828125 206.589844 224.152344 206.652344 C 224.476562 206.714844 224.804688 206.75 225.132812 206.75 C 225.464844 206.75 225.789062 206.714844 226.113281 206.652344 C 226.4375 206.589844 226.75 206.492188 227.058594 206.367188 C 227.363281 206.238281 227.652344 206.085938 227.925781 205.902344 C 228.199219 205.71875 228.453125 205.511719 228.6875 205.277344 C 228.921875 205.042969 229.128906 204.789062 229.3125 204.515625 C 229.496094 204.242188 229.648438 203.953125 229.777344 203.644531 C 229.902344 203.339844 230 203.027344 230.0625 202.703125 C 230.128906 202.378906 230.160156 202.054688 230.160156 201.722656 L 230.160156 113.867188 C 230.160156 113.535156 230.128906 113.207031 230.0625 112.886719 C 230 112.5625 229.902344 112.246094 229.777344 111.941406 C 229.652344 111.636719 229.496094 111.347656 229.3125 111.074219 C 229.128906 110.796875 228.921875 110.542969 228.6875 110.3125 C 228.453125 110.078125 228.199219 109.867188 227.925781 109.6875 C 227.652344 109.503906 227.363281 109.347656 227.058594 109.222656 C 226.753906 109.09375 226.4375 109 226.113281 108.933594 C 225.789062 108.871094 225.464844 108.839844 225.132812 108.839844 Z M 198.941406 108.839844 C 198.609375 108.839844 198.285156 108.871094 197.960938 108.933594 C 197.636719 109 197.324219 109.09375 197.019531 109.222656 C 196.710938 109.347656 196.421875 109.503906 196.148438 109.683594 C 195.875 109.867188 195.621094 110.078125 195.386719 110.308594 C 195.152344 110.542969 194.945312 110.796875 194.761719 111.070312 C 194.578125 111.347656 194.425781 111.636719 194.296875 111.941406 C 194.171875 112.246094 194.078125 112.558594 194.011719 112.882812 C 193.949219 113.207031 193.914062 113.535156 193.914062 113.863281 L 193.914062 201.722656 C 193.914062 202.054688 193.949219 202.378906 194.011719 202.703125 C 194.078125 203.027344 194.171875 203.339844 194.296875 203.644531 C 194.425781 203.953125 194.578125 204.242188 194.761719 204.515625 C 194.945312 204.789062 195.152344 205.042969 195.386719 205.277344 C 195.621094 205.511719 195.875 205.71875 196.148438 205.902344 C 196.421875 206.085938 196.710938 206.238281 197.019531 206.367188 C 197.324219 206.492188 197.636719 206.589844 197.960938 206.652344 C 198.285156 206.714844 198.609375 206.75 198.941406 206.75 C 199.269531 206.75 199.597656 206.714844 199.921875 206.652344 C 200.246094 206.589844 200.558594 206.492188 200.863281 206.367188 C 201.167969 206.238281 201.457031 206.085938 201.734375 205.902344 C 202.007812 205.71875 202.261719 205.511719 202.496094 205.277344 C 202.726562 205.042969 202.9375 204.789062 203.121094 204.515625 C 203.304688 204.242188 203.457031 203.953125 203.585938 203.644531 C 203.710938 203.339844 203.804688 203.027344 203.871094 202.703125 C 203.933594 202.378906 203.964844 202.054688 203.964844 201.722656 L 203.964844 113.867188 C 203.96875 113.535156 203.933594 113.207031 203.871094 112.886719 C 203.804688 112.5625 203.710938 112.246094 203.585938 111.941406 C 203.457031 111.636719 203.304688 111.347656 203.121094 111.074219 C 202.9375 110.796875 202.730469 110.542969 202.496094 110.3125 C 202.261719 110.078125 202.007812 109.867188 201.734375 109.6875 C 201.460938 109.503906 201.167969 109.347656 200.863281 109.222656 C 200.558594 109.09375 200.246094 109 199.921875 108.933594 C 199.597656 108.871094 199.269531 108.839844 198.941406 108.839844 Z M 251.324219 108.839844 C 250.996094 108.839844 250.667969 108.871094 250.34375 108.933594 C 250.023438 109 249.707031 109.09375 249.402344 109.222656 C 249.097656 109.347656 248.808594 109.503906 248.535156 109.683594 C 248.257812 109.867188 248.003906 110.078125 247.773438 110.308594 C 247.539062 110.542969 247.332031 110.796875 247.148438 111.070312 C 246.964844 111.347656 246.808594 111.636719 246.683594 111.941406 C 246.554688 112.246094 246.460938 112.558594 246.398438 112.882812 C 246.332031 113.207031 246.300781 113.535156 246.300781 113.863281 L 246.300781 201.722656 C 246.300781 202.054688 246.332031 202.378906 246.398438 202.703125 C 246.460938 203.027344 246.554688 203.339844 246.683594 203.644531 C 246.808594 203.953125 246.964844 204.242188 247.148438 204.515625 C 247.332031 204.789062 247.539062 205.042969 247.773438 205.277344 C 248.003906 205.511719 248.257812 205.71875 248.535156 205.902344 C 248.808594 206.085938 249.097656 206.238281 249.402344 206.367188 C 249.707031 206.492188 250.023438 206.589844 250.34375 206.652344 C 250.667969 206.714844 250.996094 206.75 251.324219 206.75 C 251.65625 206.75 251.984375 206.714844 252.304688 206.652344 C 252.628906 206.589844 252.945312 206.492188 253.25 206.367188 C 253.554688 206.238281 253.84375 206.085938 254.117188 205.902344 C 254.390625 205.71875 254.644531 205.511719 254.878906 205.277344 C 255.113281 205.042969 255.320312 204.789062 255.503906 204.515625 C 255.6875 204.242188 255.84375 203.953125 255.96875 203.644531 C 256.09375 203.339844 256.191406 203.027344 256.253906 202.703125 C 256.320312 202.378906 256.351562 202.054688 256.351562 201.722656 L 256.351562 113.867188 C 256.351562 113.535156 256.320312 113.207031 256.253906 112.886719 C 256.191406 112.5625 256.097656 112.246094 255.96875 111.941406 C 255.84375 111.636719 255.6875 111.347656 255.503906 111.074219 C 255.320312 110.796875 255.113281 110.542969 254.878906 110.3125 C 254.648438 110.078125 254.394531 109.867188 254.117188 109.6875 C 253.84375 109.503906 253.554688 109.347656 253.25 109.222656 C 252.945312 109.09375 252.628906 109 252.304688 108.933594 C 251.984375 108.871094 251.65625 108.839844 251.324219 108.839844 Z M 172.746094 108.839844 C 172.417969 108.839844 172.089844 108.871094 171.765625 108.933594 C 171.445312 109 171.128906 109.09375 170.824219 109.222656 C 170.519531 109.347656 170.230469 109.503906 169.957031 109.683594 C 169.679688 109.867188 169.425781 110.078125 169.195312 110.308594 C 168.960938 110.542969 168.753906 110.796875 168.570312 111.070312 C 168.386719 111.347656 168.230469 111.636719 168.105469 111.941406 C 167.976562 112.246094 167.882812 112.558594 167.820312 112.882812 C 167.753906 113.207031 167.722656 113.535156 167.722656 113.863281 L 167.722656 201.722656 C 167.722656 202.054688 167.753906 202.378906 167.820312 202.703125 C 167.882812 203.027344 167.976562 203.339844 168.105469 203.644531 C 168.230469 203.953125 168.386719 204.242188 168.570312 204.515625 C 168.753906 204.789062 168.960938 205.042969 169.195312 205.277344 C 169.425781 205.511719 169.679688 205.71875 169.957031 205.902344 C 170.230469 206.085938 170.519531 206.238281 170.824219 206.367188 C 171.128906 206.492188 171.445312 206.589844 171.765625 206.652344 C 172.089844 206.714844 172.417969 206.75 172.746094 206.75 C 173.078125 206.75 173.40625 206.714844 173.726562 206.652344 C 174.050781 206.589844 174.367188 206.492188 174.671875 206.367188 C 174.976562 206.238281 175.265625 206.085938 175.539062 205.902344 C 175.8125 205.71875 176.066406 205.511719 176.300781 205.277344 C 176.535156 205.042969 176.742188 204.789062 176.925781 204.515625 C 177.109375 204.242188 177.265625 203.953125 177.390625 203.644531 C 177.515625 203.339844 177.613281 203.027344 177.675781 202.703125 C 177.742188 202.378906 177.773438 202.054688 177.773438 201.722656 L 177.773438 113.867188 C 177.773438 113.535156 177.742188 113.207031 177.675781 112.886719 C 177.613281 112.5625 177.519531 112.246094 177.390625 111.941406 C 177.265625 111.636719 177.109375 111.347656 176.925781 111.074219 C 176.742188 110.796875 176.535156 110.542969 176.300781 110.3125 C 176.070312 110.078125 175.816406 109.867188 175.539062 109.6875 C 175.265625 109.503906 174.976562 109.347656 174.671875 109.222656 C 174.367188 109.09375 174.050781 109 173.726562 108.933594 C 173.40625 108.871094 173.078125 108.839844 172.746094 108.839844 Z M 169.65625 234.695312 L 169.574219 234.695312 C 169.242188 234.695312 168.917969 234.726562 168.59375 234.792969 C 168.269531 234.855469 167.957031 234.953125 167.652344 235.078125 C 167.34375 235.203125 167.054688 235.359375 166.78125 235.542969 C 166.507812 235.726562 166.253906 235.933594 166.019531 236.167969 C 165.785156 236.402344 165.578125 236.65625 165.394531 236.929688 C 165.210938 237.203125 165.058594 237.492188 164.929688 237.796875 C 164.804688 238.101562 164.707031 238.417969 164.644531 238.742188 C 164.582031 239.066406 164.546875 239.390625 164.546875 239.722656 C 164.546875 240.050781 164.582031 240.378906 164.644531 240.703125 C 164.707031 241.027344 164.804688 241.339844 164.929688 241.644531 C 165.058594 241.949219 165.210938 242.238281 165.394531 242.515625 C 165.578125 242.789062 165.785156 243.042969 166.019531 243.277344 C 166.253906 243.507812 166.507812 243.71875 166.78125 243.902344 C 167.054688 244.082031 167.34375 244.238281 167.652344 244.363281 C 167.957031 244.492188 168.269531 244.585938 168.59375 244.652344 C 168.917969 244.714844 169.242188 244.746094 169.574219 244.746094 L 169.65625 244.746094 C 169.984375 244.746094 170.3125 244.714844 170.636719 244.652344 C 170.957031 244.585938 171.273438 244.492188 171.578125 244.363281 C 171.882812 244.238281 172.171875 244.082031 172.445312 243.902344 C 172.722656 243.71875 172.976562 243.507812 173.207031 243.277344 C 173.441406 243.042969 173.648438 242.789062 173.832031 242.515625 C 174.015625 242.238281 174.171875 241.949219 174.296875 241.644531 C 174.425781 241.339844 174.519531 241.027344 174.582031 240.703125 C 174.648438 240.378906 174.679688 240.050781 174.679688 239.722656 C 174.679688 239.390625 174.648438 239.066406 174.582031 238.742188 C 174.519531 238.417969 174.425781 238.101562 174.296875 237.796875 C 174.171875 237.492188 174.015625 237.203125 173.832031 236.929688 C 173.648438 236.65625 173.441406 236.402344 173.207031 236.167969 C 172.976562 235.933594 172.722656 235.726562 172.445312 235.542969 C 172.171875 235.359375 171.882812 235.203125 171.578125 235.078125 C 171.273438 234.953125 170.957031 234.855469 170.636719 234.792969 C 170.3125 234.726562 169.984375 234.695312 169.65625 234.695312 Z M 146.554688 108.839844 C 146.226562 108.839844 145.898438 108.871094 145.574219 108.933594 C 145.25 109 144.9375 109.09375 144.632812 109.222656 C 144.328125 109.347656 144.039062 109.503906 143.761719 109.683594 C 143.488281 109.867188 143.234375 110.078125 143 110.308594 C 142.769531 110.542969 142.558594 110.796875 142.375 111.070312 C 142.191406 111.347656 142.039062 111.636719 141.914062 111.941406 C 141.785156 112.246094 141.691406 112.558594 141.625 112.882812 C 141.5625 113.207031 141.53125 113.535156 141.53125 113.863281 L 141.53125 201.722656 C 141.53125 202.054688 141.5625 202.378906 141.625 202.703125 C 141.691406 203.027344 141.785156 203.339844 141.914062 203.644531 C 142.039062 203.953125 142.191406 204.242188 142.375 204.515625 C 142.558594 204.789062 142.769531 205.042969 143 205.277344 C 143.234375 205.511719 143.488281 205.71875 143.761719 205.902344 C 144.039062 206.085938 144.328125 206.238281 144.632812 206.367188 C 144.9375 206.492188 145.25 206.589844 145.574219 206.652344 C 145.898438 206.714844 146.226562 206.75 146.554688 206.75 C 146.886719 206.75 147.210938 206.714844 147.535156 206.652344 C 147.859375 206.589844 148.171875 206.492188 148.480469 206.367188 C 148.785156 206.238281 149.074219 206.085938 149.347656 205.902344 C 149.621094 205.71875 149.875 205.511719 150.109375 205.277344 C 150.34375 205.042969 150.550781 204.789062 150.734375 204.515625 C 150.917969 204.242188 151.070312 203.953125 151.199219 203.644531 C 151.324219 203.339844 151.421875 203.027344 151.484375 202.703125 C 151.550781 202.378906 151.582031 202.054688 151.582031 201.722656 L 151.582031 113.867188 C 151.582031 113.535156 151.550781 113.207031 151.484375 112.886719 C 151.421875 112.5625 151.324219 112.246094 151.199219 111.941406 C 151.074219 111.636719 150.917969 111.347656 150.734375 111.074219 C 150.550781 110.796875 150.34375 110.542969 150.109375 110.3125 C 149.875 110.078125 149.621094 109.867188 149.347656 109.6875 C 149.074219 109.503906 148.785156 109.347656 148.480469 109.222656 C 148.175781 109.09375 147.859375 109 147.535156 108.933594 C 147.210938 108.871094 146.886719 108.839844 146.554688 108.839844 Z M 146.554688 108.839844 " fill-opacity="1" fill-rule="nonzero"/></g></svg>