<svg xmlns="http://www.w3.org/2000/svg" xmlns:xlink="http://www.w3.org/1999/xlink" width="500" zoomAndPan="magnify" viewBox="0 0 375 374.999991" height="500" preserveAspectRatio="xMidYMid meet" version="1.0"><defs><clipPath id="0e1eddc065"><path d="M 1 67.03125 L 75 67.03125 L 75 157 L 1 157 Z M 1 67.03125 " clip-rule="nonzero"/></clipPath><clipPath id="f1391171ab"><path d="M 1 217 L 75 217 L 75 307.78125 L 1 307.78125 Z M 1 217 " clip-rule="nonzero"/></clipPath><clipPath id="0d464d73dd"><path d="M 300 217 L 374 217 L 374 307.78125 L 300 307.78125 Z M 300 217 " clip-rule="nonzero"/></clipPath><clipPath id="cefcc3c57c"><path d="M 300 67.03125 L 374 67.03125 L 374 157 L 300 157 Z M 300 67.03125 " clip-rule="nonzero"/></clipPath></defs><path fill="#6abded" d="M 105.582031 115.152344 C 104.910156 115.152344 104.242188 115.21875 103.585938 115.351562 C 102.925781 115.484375 102.285156 115.675781 101.664062 115.933594 C 101.046875 116.191406 100.457031 116.507812 99.898438 116.882812 C 99.339844 117.253906 98.820312 117.679688 98.347656 118.15625 C 97.871094 118.628906 97.449219 119.144531 97.074219 119.703125 C 96.699219 120.261719 96.386719 120.851562 96.128906 121.472656 C 95.871094 122.09375 95.675781 122.734375 95.542969 123.394531 C 95.410156 124.050781 95.34375 124.71875 95.34375 125.390625 L 95.34375 248.265625 C 95.34375 248.9375 95.410156 249.605469 95.542969 250.265625 C 95.671875 250.921875 95.867188 251.5625 96.125 252.183594 C 96.382812 252.804688 96.695312 253.394531 97.070312 253.953125 C 97.441406 254.511719 97.867188 255.03125 98.34375 255.503906 C 98.816406 255.980469 99.335938 256.40625 99.894531 256.777344 C 100.453125 257.152344 101.042969 257.46875 101.664062 257.722656 C 102.285156 257.980469 102.925781 258.175781 103.585938 258.304688 C 104.242188 258.4375 104.910156 258.503906 105.582031 258.503906 C 106.253906 258.503906 106.917969 258.4375 107.578125 258.304688 C 108.238281 258.175781 108.878906 257.980469 109.5 257.722656 C 110.121094 257.46875 110.710938 257.152344 111.269531 256.777344 C 111.828125 256.40625 112.34375 255.980469 112.820312 255.503906 C 113.292969 255.03125 113.71875 254.511719 114.09375 253.953125 C 114.464844 253.394531 114.78125 252.804688 115.039062 252.183594 C 115.296875 251.5625 115.488281 250.921875 115.621094 250.265625 C 115.753906 249.605469 115.816406 248.9375 115.816406 248.265625 L 115.816406 125.402344 C 115.816406 124.730469 115.753906 124.0625 115.621094 123.402344 C 115.488281 122.746094 115.296875 122.105469 115.039062 121.484375 C 114.78125 120.859375 114.464844 120.269531 114.09375 119.710938 C 113.71875 119.152344 113.296875 118.636719 112.820312 118.160156 C 112.34375 117.683594 111.828125 117.257812 111.269531 116.882812 C 110.710938 116.511719 110.121094 116.195312 109.5 115.9375 C 108.878906 115.679688 108.238281 115.484375 107.578125 115.351562 C 106.917969 115.21875 106.253906 115.152344 105.582031 115.152344 Z M 105.582031 115.152344 " fill-opacity="1" fill-rule="evenodd"/><path fill="#6abded" d="M 64.621094 115.152344 C 63.949219 115.152344 63.285156 115.21875 62.625 115.351562 C 61.964844 115.484375 61.324219 115.679688 60.703125 115.9375 C 60.082031 116.195312 59.492188 116.511719 58.933594 116.882812 C 58.375 117.257812 57.859375 117.683594 57.382812 118.160156 C 56.90625 118.636719 56.484375 119.152344 56.109375 119.710938 C 55.738281 120.269531 55.421875 120.859375 55.164062 121.484375 C 54.90625 122.105469 54.714844 122.746094 54.582031 123.402344 C 54.449219 124.0625 54.386719 124.730469 54.386719 125.402344 L 54.386719 248.28125 C 54.386719 248.953125 54.449219 249.617188 54.582031 250.277344 C 54.714844 250.9375 54.90625 251.578125 55.164062 252.199219 C 55.421875 252.820312 55.738281 253.410156 56.109375 253.96875 C 56.484375 254.527344 56.910156 255.042969 57.382812 255.519531 C 57.859375 255.992188 58.375 256.417969 58.933594 256.792969 C 59.492188 257.164062 60.082031 257.480469 60.703125 257.738281 C 61.324219 257.996094 61.964844 258.1875 62.625 258.320312 C 63.285156 258.449219 63.949219 258.515625 64.621094 258.515625 C 65.292969 258.515625 65.960938 258.449219 66.617188 258.320312 C 67.277344 258.1875 67.917969 257.996094 68.539062 257.738281 C 69.160156 257.480469 69.75 257.164062 70.308594 256.792969 C 70.867188 256.417969 71.386719 255.992188 71.859375 255.519531 C 72.335938 255.042969 72.761719 254.527344 73.132812 253.96875 C 73.507812 253.410156 73.820312 252.820312 74.078125 252.199219 C 74.335938 251.578125 74.53125 250.9375 74.660156 250.277344 C 74.792969 249.617188 74.859375 248.953125 74.859375 248.28125 L 74.859375 125.402344 C 74.859375 124.730469 74.792969 124.0625 74.660156 123.402344 C 74.53125 122.746094 74.335938 122.105469 74.078125 121.484375 C 73.824219 120.859375 73.507812 120.269531 73.132812 119.710938 C 72.761719 119.152344 72.335938 118.636719 71.859375 118.160156 C 71.386719 117.683594 70.867188 117.257812 70.308594 116.882812 C 69.75 116.511719 69.160156 116.195312 68.539062 115.9375 C 67.917969 115.679688 67.277344 115.484375 66.621094 115.351562 C 65.960938 115.21875 65.292969 115.152344 64.621094 115.152344 Z M 64.621094 115.152344 " fill-opacity="1" fill-rule="evenodd"/><path fill="#6abded" d="M 146.539062 115.152344 C 145.867188 115.152344 145.203125 115.21875 144.542969 115.351562 C 143.886719 115.484375 143.246094 115.675781 142.625 115.933594 C 142.003906 116.191406 141.414062 116.507812 140.855469 116.882812 C 140.296875 117.253906 139.78125 117.679688 139.304688 118.152344 C 138.832031 118.628906 138.40625 119.144531 138.035156 119.703125 C 137.660156 120.261719 137.34375 120.851562 137.085938 121.472656 C 136.828125 122.09375 136.632812 122.734375 136.503906 123.394531 C 136.371094 124.050781 136.304688 124.71875 136.304688 125.390625 L 136.304688 248.265625 C 136.304688 248.9375 136.371094 249.605469 136.5 250.265625 C 136.632812 250.921875 136.824219 251.5625 137.082031 252.183594 C 137.339844 252.804688 137.65625 253.394531 138.027344 253.953125 C 138.402344 254.511719 138.828125 255.03125 139.300781 255.503906 C 139.777344 255.980469 140.292969 256.40625 140.855469 256.777344 C 141.414062 257.152344 142.003906 257.46875 142.625 257.722656 C 143.246094 257.980469 143.882812 258.175781 144.542969 258.304688 C 145.203125 258.4375 145.867188 258.503906 146.539062 258.503906 C 147.210938 258.503906 147.878906 258.4375 148.539062 258.304688 C 149.195312 258.175781 149.835938 257.980469 150.457031 257.722656 C 151.078125 257.46875 151.667969 257.152344 152.226562 256.777344 C 152.785156 256.40625 153.304688 255.980469 153.777344 255.503906 C 154.253906 255.03125 154.679688 254.511719 155.050781 253.953125 C 155.425781 253.394531 155.742188 252.804688 155.996094 252.183594 C 156.253906 251.5625 156.449219 250.921875 156.582031 250.265625 C 156.710938 249.605469 156.777344 248.9375 156.777344 248.265625 L 156.777344 125.402344 C 156.777344 124.730469 156.710938 124.0625 156.582031 123.402344 C 156.449219 122.746094 156.253906 122.105469 156 121.484375 C 155.742188 120.859375 155.425781 120.269531 155.050781 119.710938 C 154.679688 119.152344 154.253906 118.636719 153.78125 118.160156 C 153.304688 117.683594 152.789062 117.257812 152.230469 116.882812 C 151.667969 116.511719 151.078125 116.195312 150.460938 115.9375 C 149.839844 115.679688 149.199219 115.484375 148.539062 115.351562 C 147.878906 115.21875 147.214844 115.152344 146.539062 115.152344 Z M 146.539062 115.152344 " fill-opacity="1" fill-rule="evenodd"/><path fill="#6abded" d="M 187.5 115.152344 C 186.828125 115.152344 186.164062 115.21875 185.503906 115.351562 C 184.84375 115.484375 184.207031 115.675781 183.585938 115.933594 C 182.964844 116.191406 182.375 116.507812 181.816406 116.882812 C 181.257812 117.253906 180.742188 117.679688 180.265625 118.15625 C 179.789062 118.628906 179.367188 119.144531 178.992188 119.703125 C 178.621094 120.261719 178.304688 120.851562 178.046875 121.472656 C 177.789062 122.09375 177.59375 122.734375 177.460938 123.394531 C 177.332031 124.050781 177.265625 124.71875 177.261719 125.390625 L 177.261719 248.265625 C 177.265625 248.9375 177.332031 249.601562 177.460938 250.261719 C 177.59375 250.921875 177.789062 251.558594 178.046875 252.179688 C 178.304688 252.800781 178.621094 253.390625 178.992188 253.945312 C 179.367188 254.503906 179.792969 255.023438 180.265625 255.496094 C 180.742188 255.96875 181.257812 256.394531 181.816406 256.765625 C 182.375 257.140625 182.964844 257.453125 183.585938 257.710938 C 184.207031 257.96875 184.847656 258.160156 185.503906 258.292969 C 186.164062 258.421875 186.828125 258.488281 187.5 258.488281 C 188.171875 258.488281 188.835938 258.421875 189.496094 258.292969 C 190.152344 258.160156 190.792969 257.96875 191.414062 257.710938 C 192.035156 257.453125 192.625 257.140625 193.183594 256.765625 C 193.742188 256.394531 194.257812 255.96875 194.734375 255.496094 C 195.207031 255.023438 195.632812 254.503906 196.007812 253.945312 C 196.378906 253.390625 196.695312 252.800781 196.953125 252.179688 C 197.210938 251.558594 197.40625 250.921875 197.539062 250.261719 C 197.667969 249.601562 197.734375 248.9375 197.738281 248.265625 L 197.738281 125.402344 C 197.738281 124.730469 197.671875 124.0625 197.539062 123.402344 C 197.410156 122.746094 197.214844 122.105469 196.957031 121.484375 C 196.699219 120.859375 196.386719 120.269531 196.011719 119.710938 C 195.636719 119.152344 195.214844 118.636719 194.738281 118.160156 C 194.265625 117.683594 193.746094 117.257812 193.1875 116.882812 C 192.628906 116.511719 192.039062 116.195312 191.417969 115.9375 C 190.796875 115.679688 190.15625 115.484375 189.496094 115.351562 C 188.839844 115.21875 188.171875 115.152344 187.5 115.152344 Z M 187.5 115.152344 " fill-opacity="1" fill-rule="evenodd"/><path fill="#6abded" d="M 228.460938 115.152344 C 227.789062 115.152344 227.121094 115.21875 226.464844 115.351562 C 225.804688 115.484375 225.164062 115.675781 224.542969 115.933594 C 223.921875 116.191406 223.335938 116.507812 222.777344 116.882812 C 222.21875 117.253906 221.699219 117.679688 221.226562 118.152344 C 220.75 118.628906 220.324219 119.144531 219.953125 119.703125 C 219.578125 120.261719 219.261719 120.851562 219.003906 121.472656 C 218.75 122.09375 218.554688 122.734375 218.421875 123.394531 C 218.289062 124.050781 218.222656 124.71875 218.222656 125.390625 L 218.222656 248.265625 C 218.222656 248.9375 218.289062 249.605469 218.417969 250.265625 C 218.550781 250.921875 218.746094 251.5625 219.003906 252.183594 C 219.257812 252.804688 219.574219 253.394531 219.949219 253.953125 C 220.320312 254.511719 220.746094 255.03125 221.222656 255.503906 C 221.695312 255.980469 222.214844 256.40625 222.773438 256.777344 C 223.332031 257.152344 223.921875 257.46875 224.542969 257.722656 C 225.164062 257.980469 225.804688 258.175781 226.460938 258.304688 C 227.121094 258.4375 227.789062 258.503906 228.460938 258.503906 C 229.132812 258.503906 229.796875 258.4375 230.457031 258.304688 C 231.117188 258.175781 231.753906 257.980469 232.375 257.722656 C 232.996094 257.46875 233.585938 257.152344 234.144531 256.777344 C 234.707031 256.40625 235.222656 255.980469 235.699219 255.503906 C 236.171875 255.03125 236.597656 254.511719 236.972656 253.953125 C 237.34375 253.394531 237.660156 252.804688 237.917969 252.183594 C 238.175781 251.5625 238.367188 250.921875 238.5 250.265625 C 238.628906 249.605469 238.695312 248.9375 238.695312 248.265625 L 238.695312 125.402344 C 238.695312 124.730469 238.628906 124.0625 238.5 123.402344 C 238.367188 122.746094 238.175781 122.105469 237.917969 121.484375 C 237.660156 120.859375 237.34375 120.269531 236.972656 119.710938 C 236.597656 119.152344 236.171875 118.636719 235.699219 118.160156 C 235.222656 117.683594 234.707031 117.257812 234.148438 116.882812 C 233.589844 116.511719 233 116.195312 232.378906 115.9375 C 231.757812 115.679688 231.117188 115.484375 230.457031 115.351562 C 229.796875 115.21875 229.132812 115.152344 228.460938 115.152344 Z M 228.460938 115.152344 " fill-opacity="1" fill-rule="evenodd"/><path fill="#6abded" d="M 269.417969 115.152344 C 268.746094 115.152344 268.082031 115.21875 267.421875 115.351562 C 266.765625 115.484375 266.125 115.675781 265.503906 115.933594 C 264.882812 116.191406 264.292969 116.507812 263.734375 116.882812 C 263.175781 117.253906 262.660156 117.679688 262.183594 118.152344 C 261.710938 118.628906 261.285156 119.144531 260.910156 119.703125 C 260.539062 120.261719 260.222656 120.851562 259.964844 121.472656 C 259.707031 122.09375 259.511719 122.734375 259.382812 123.394531 C 259.25 124.050781 259.183594 124.71875 259.183594 125.390625 L 259.183594 248.265625 C 259.183594 248.9375 259.246094 249.605469 259.378906 250.265625 C 259.511719 250.921875 259.703125 251.5625 259.960938 252.183594 C 260.21875 252.804688 260.535156 253.394531 260.90625 253.953125 C 261.28125 254.511719 261.707031 255.03125 262.179688 255.503906 C 262.65625 255.980469 263.171875 256.40625 263.730469 256.777344 C 264.289062 257.152344 264.878906 257.46875 265.5 257.722656 C 266.121094 257.980469 266.761719 258.175781 267.421875 258.304688 C 268.082031 258.4375 268.746094 258.503906 269.417969 258.503906 C 270.089844 258.503906 270.757812 258.4375 271.414062 258.304688 C 272.074219 258.175781 272.714844 257.980469 273.335938 257.722656 C 273.957031 257.46875 274.546875 257.152344 275.105469 256.777344 C 275.664062 256.40625 276.183594 255.980469 276.65625 255.503906 C 277.132812 255.03125 277.558594 254.511719 277.929688 253.953125 C 278.304688 253.394531 278.617188 252.804688 278.875 252.183594 C 279.132812 251.5625 279.328125 250.921875 279.457031 250.265625 C 279.589844 249.605469 279.65625 248.9375 279.65625 248.265625 L 279.65625 125.402344 C 279.65625 124.730469 279.589844 124.0625 279.457031 123.402344 C 279.328125 122.746094 279.132812 122.105469 278.875 121.484375 C 278.621094 120.859375 278.304688 120.269531 277.929688 119.710938 C 277.558594 119.152344 277.132812 118.636719 276.65625 118.160156 C 276.183594 117.683594 275.664062 117.257812 275.105469 116.882812 C 274.546875 116.511719 273.957031 116.195312 273.335938 115.9375 C 272.714844 115.679688 272.074219 115.484375 271.417969 115.351562 C 270.757812 115.21875 270.089844 115.152344 269.417969 115.152344 Z M 269.417969 115.152344 " fill-opacity="1" fill-rule="evenodd"/><path fill="#6abded" d="M 310.378906 258.515625 C 311.050781 258.515625 311.714844 258.449219 312.375 258.316406 C 313.035156 258.183594 313.675781 257.992188 314.296875 257.734375 C 314.917969 257.476562 315.507812 257.160156 316.066406 256.785156 C 316.625 256.410156 317.140625 255.984375 317.617188 255.511719 C 318.09375 255.035156 318.515625 254.515625 318.890625 253.957031 C 319.261719 253.398438 319.578125 252.808594 319.835938 252.1875 C 320.09375 251.566406 320.285156 250.925781 320.417969 250.265625 C 320.550781 249.605469 320.613281 248.9375 320.613281 248.265625 L 320.613281 125.402344 C 320.613281 124.730469 320.550781 124.0625 320.417969 123.40625 C 320.285156 122.746094 320.09375 122.105469 319.835938 121.484375 C 319.578125 120.863281 319.261719 120.273438 318.890625 119.714844 C 318.515625 119.15625 318.089844 118.640625 317.617188 118.164062 C 317.140625 117.6875 316.625 117.265625 316.066406 116.890625 C 315.507812 116.515625 314.917969 116.203125 314.296875 115.945312 C 313.675781 115.6875 313.035156 115.492188 312.375 115.363281 C 311.714844 115.230469 311.050781 115.164062 310.378906 115.164062 C 309.707031 115.164062 309.039062 115.230469 308.382812 115.363281 C 307.722656 115.492188 307.082031 115.6875 306.460938 115.945312 C 305.839844 116.203125 305.25 116.515625 304.691406 116.890625 C 304.132812 117.265625 303.613281 117.6875 303.140625 118.164062 C 302.664062 118.640625 302.238281 119.15625 301.867188 119.714844 C 301.492188 120.273438 301.179688 120.863281 300.921875 121.484375 C 300.664062 122.105469 300.46875 122.746094 300.339844 123.40625 C 300.207031 124.0625 300.140625 124.730469 300.140625 125.402344 L 300.140625 248.28125 C 300.140625 248.953125 300.207031 249.617188 300.339844 250.277344 C 300.472656 250.933594 300.667969 251.574219 300.925781 252.195312 C 301.183594 252.816406 301.496094 253.40625 301.871094 253.964844 C 302.246094 254.523438 302.667969 255.039062 303.144531 255.515625 C 303.617188 255.988281 304.136719 256.414062 304.695312 256.789062 C 305.253906 257.160156 305.84375 257.476562 306.460938 257.734375 C 307.082031 257.992188 307.722656 258.1875 308.382812 258.316406 C 309.039062 258.449219 309.707031 258.515625 310.378906 258.515625 Z M 310.378906 258.515625 " fill-opacity="1" fill-rule="evenodd"/><g clip-path="url(#0e1eddc065)"><path fill="#6abded" d="M 64.621094 66.527344 L 33.394531 66.527344 C 32.335938 66.527344 31.28125 66.578125 30.230469 66.679688 C 29.179688 66.785156 28.136719 66.9375 27.101562 67.144531 C 26.066406 67.351562 25.042969 67.609375 24.03125 67.914062 C 23.019531 68.222656 22.027344 68.578125 21.050781 68.980469 C 20.074219 69.386719 19.121094 69.835938 18.1875 70.332031 C 17.257812 70.832031 16.351562 71.375 15.472656 71.960938 C 14.59375 72.546875 13.75 73.175781 12.933594 73.847656 C 12.113281 74.515625 11.332031 75.226562 10.585938 75.972656 C 9.839844 76.71875 9.132812 77.5 8.460938 78.316406 C 7.789062 79.132812 7.164062 79.980469 6.574219 80.859375 C 5.988281 81.738281 5.445312 82.644531 4.949219 83.574219 C 4.449219 84.507812 4 85.460938 3.59375 86.4375 C 3.191406 87.410156 2.835938 88.40625 2.527344 89.417969 C 2.222656 90.425781 1.964844 91.449219 1.757812 92.488281 C 1.554688 93.523438 1.398438 94.566406 1.292969 95.617188 C 1.191406 96.667969 1.140625 97.722656 1.140625 98.777344 L 1.140625 145.875 C 1.140625 146.546875 1.207031 147.210938 1.335938 147.871094 C 1.46875 148.53125 1.664062 149.171875 1.921875 149.789062 C 2.175781 150.410156 2.492188 151 2.867188 151.558594 C 3.238281 152.117188 3.664062 152.636719 4.140625 153.109375 C 4.613281 153.585938 5.132812 154.007812 5.691406 154.382812 C 6.25 154.753906 6.839844 155.070312 7.460938 155.328125 C 8.082031 155.585938 8.71875 155.777344 9.378906 155.910156 C 10.039062 156.042969 10.703125 156.105469 11.375 156.105469 C 12.046875 156.105469 12.714844 156.042969 13.371094 155.910156 C 14.03125 155.777344 14.671875 155.585938 15.292969 155.328125 C 15.914062 155.070312 16.503906 154.753906 17.0625 154.382812 C 17.621094 154.007812 18.136719 153.585938 18.613281 153.109375 C 19.085938 152.636719 19.511719 152.117188 19.886719 151.558594 C 20.257812 151 20.574219 150.410156 20.832031 149.789062 C 21.089844 149.171875 21.285156 148.53125 21.414062 147.871094 C 21.546875 147.210938 21.613281 146.546875 21.613281 145.875 L 21.613281 98.777344 C 21.613281 98.003906 21.6875 97.238281 21.835938 96.480469 C 21.988281 95.722656 22.210938 94.984375 22.503906 94.269531 C 22.800781 93.554688 23.164062 92.875 23.59375 92.230469 C 24.023438 91.585938 24.511719 90.992188 25.058594 90.445312 C 25.605469 89.898438 26.203125 89.410156 26.84375 88.980469 C 27.488281 88.550781 28.167969 88.1875 28.882812 87.890625 C 29.597656 87.597656 30.335938 87.371094 31.09375 87.222656 C 31.851562 87.074219 32.621094 86.996094 33.394531 87 L 64.621094 87 C 65.292969 87 65.960938 86.933594 66.617188 86.800781 C 67.277344 86.671875 67.917969 86.476562 68.539062 86.21875 C 69.160156 85.960938 69.75 85.648438 70.308594 85.273438 C 70.867188 84.898438 71.386719 84.476562 71.859375 84 C 72.335938 83.523438 72.761719 83.007812 73.132812 82.449219 C 73.507812 81.890625 73.820312 81.300781 74.078125 80.679688 C 74.335938 80.058594 74.53125 79.417969 74.660156 78.757812 C 74.792969 78.101562 74.859375 77.433594 74.859375 76.761719 C 74.859375 76.089844 74.792969 75.425781 74.660156 74.765625 C 74.53125 74.105469 74.335938 73.464844 74.078125 72.84375 C 73.820312 72.222656 73.507812 71.632812 73.132812 71.074219 C 72.761719 70.515625 72.335938 70 71.859375 69.523438 C 71.386719 69.046875 70.867188 68.625 70.308594 68.25 C 69.75 67.878906 69.160156 67.5625 68.539062 67.304688 C 67.917969 67.046875 67.277344 66.851562 66.617188 66.722656 C 65.960938 66.589844 65.292969 66.527344 64.621094 66.527344 Z M 64.621094 66.527344 " fill-opacity="1" fill-rule="evenodd"/></g><g clip-path="url(#f1391171ab)"><path fill="#6abded" d="M 64.621094 286.671875 L 33.394531 286.671875 C 32.621094 286.671875 31.851562 286.597656 31.09375 286.445312 C 30.335938 286.296875 29.597656 286.074219 28.882812 285.777344 C 28.167969 285.480469 27.488281 285.117188 26.84375 284.6875 C 26.203125 284.257812 25.605469 283.769531 25.058594 283.222656 C 24.511719 282.675781 24.023438 282.082031 23.59375 281.4375 C 23.164062 280.792969 22.800781 280.113281 22.503906 279.398438 C 22.210938 278.683594 21.988281 277.949219 21.835938 277.1875 C 21.6875 276.429688 21.613281 275.664062 21.613281 274.890625 L 21.613281 227.792969 C 21.613281 227.121094 21.546875 226.457031 21.414062 225.796875 C 21.285156 225.136719 21.089844 224.496094 20.832031 223.875 C 20.574219 223.253906 20.261719 222.664062 19.886719 222.105469 C 19.515625 221.546875 19.089844 221.03125 18.613281 220.554688 C 18.140625 220.082031 17.621094 219.65625 17.0625 219.28125 C 16.503906 218.910156 15.914062 218.59375 15.292969 218.335938 C 14.671875 218.078125 14.03125 217.886719 13.375 217.753906 C 12.714844 217.621094 12.046875 217.558594 11.375 217.558594 C 10.703125 217.558594 10.039062 217.621094 9.378906 217.753906 C 8.71875 217.886719 8.078125 218.078125 7.457031 218.335938 C 6.835938 218.59375 6.246094 218.910156 5.6875 219.28125 C 5.128906 219.65625 4.613281 220.082031 4.136719 220.554688 C 3.664062 221.03125 3.238281 221.546875 2.863281 222.105469 C 2.492188 222.664062 2.175781 223.253906 1.917969 223.875 C 1.660156 224.496094 1.46875 225.136719 1.335938 225.796875 C 1.203125 226.457031 1.140625 227.121094 1.140625 227.792969 L 1.140625 274.890625 C 1.140625 275.945312 1.191406 277 1.292969 278.050781 C 1.398438 279.101562 1.554688 280.144531 1.757812 281.183594 C 1.964844 282.21875 2.222656 283.242188 2.527344 284.253906 C 2.835938 285.261719 3.191406 286.257812 3.59375 287.234375 C 4 288.207031 4.449219 289.164062 4.949219 290.09375 C 5.445312 291.027344 5.988281 291.929688 6.574219 292.808594 C 7.164062 293.6875 7.789062 294.535156 8.460938 295.351562 C 9.132812 296.167969 9.839844 296.949219 10.585938 297.695312 C 11.332031 298.445312 12.113281 299.152344 12.933594 299.820312 C 13.75 300.492188 14.59375 301.121094 15.472656 301.707031 C 16.351562 302.292969 17.257812 302.835938 18.1875 303.335938 C 19.121094 303.832031 20.074219 304.285156 21.050781 304.6875 C 22.027344 305.09375 23.019531 305.449219 24.03125 305.753906 C 25.042969 306.0625 26.066406 306.316406 27.101562 306.523438 C 28.136719 306.730469 29.179688 306.882812 30.230469 306.988281 C 31.28125 307.089844 32.335938 307.144531 33.394531 307.144531 L 64.621094 307.144531 C 65.292969 307.144531 65.960938 307.078125 66.617188 306.945312 C 67.277344 306.816406 67.917969 306.621094 68.539062 306.363281 C 69.160156 306.105469 69.75 305.792969 70.308594 305.417969 C 70.867188 305.042969 71.386719 304.621094 71.859375 304.144531 C 72.335938 303.667969 72.761719 303.152344 73.132812 302.59375 C 73.507812 302.035156 73.820312 301.445312 74.078125 300.824219 C 74.335938 300.203125 74.53125 299.5625 74.660156 298.902344 C 74.792969 298.246094 74.859375 297.578125 74.859375 296.90625 C 74.859375 296.234375 74.792969 295.570312 74.660156 294.910156 C 74.53125 294.25 74.335938 293.609375 74.078125 292.988281 C 73.820312 292.367188 73.507812 291.777344 73.132812 291.21875 C 72.761719 290.660156 72.335938 290.144531 71.859375 289.667969 C 71.386719 289.191406 70.867188 288.769531 70.308594 288.394531 C 69.75 288.023438 69.160156 287.707031 68.539062 287.449219 C 67.917969 287.191406 67.277344 287 66.617188 286.867188 C 65.960938 286.734375 65.292969 286.671875 64.621094 286.671875 Z M 64.621094 286.671875 " fill-opacity="1" fill-rule="evenodd"/></g><g clip-path="url(#0d464d73dd)"><path fill="#6abded" d="M 363.625 217.558594 C 362.953125 217.558594 362.285156 217.625 361.628906 217.757812 C 360.96875 217.886719 360.328125 218.082031 359.707031 218.339844 C 359.089844 218.597656 358.5 218.914062 357.941406 219.285156 C 357.382812 219.660156 356.863281 220.085938 356.390625 220.558594 C 355.914062 221.035156 355.488281 221.550781 355.117188 222.109375 C 354.742188 222.667969 354.429688 223.257812 354.171875 223.878906 C 353.914062 224.5 353.71875 225.140625 353.585938 225.796875 C 353.453125 226.457031 353.386719 227.121094 353.386719 227.792969 L 353.386719 274.890625 C 353.386719 275.664062 353.3125 276.429688 353.164062 277.1875 C 353.011719 277.949219 352.789062 278.683594 352.496094 279.398438 C 352.199219 280.113281 351.835938 280.792969 351.40625 281.4375 C 350.976562 282.082031 350.488281 282.675781 349.941406 283.222656 C 349.394531 283.769531 348.796875 284.257812 348.15625 284.6875 C 347.511719 285.117188 346.832031 285.480469 346.117188 285.777344 C 345.402344 286.074219 344.664062 286.296875 343.90625 286.445312 C 343.148438 286.597656 342.378906 286.671875 341.605469 286.671875 L 310.378906 286.671875 C 309.707031 286.671875 309.039062 286.734375 308.382812 286.867188 C 307.722656 287 307.082031 287.191406 306.460938 287.449219 C 305.839844 287.707031 305.25 288.023438 304.691406 288.394531 C 304.132812 288.769531 303.613281 289.191406 303.140625 289.667969 C 302.664062 290.144531 302.238281 290.660156 301.867188 291.21875 C 301.492188 291.777344 301.179688 292.367188 300.921875 292.988281 C 300.664062 293.609375 300.46875 294.25 300.339844 294.910156 C 300.207031 295.570312 300.140625 296.234375 300.140625 296.90625 C 300.140625 297.578125 300.207031 298.246094 300.339844 298.902344 C 300.46875 299.5625 300.664062 300.203125 300.921875 300.824219 C 301.179688 301.445312 301.492188 302.035156 301.867188 302.59375 C 302.238281 303.152344 302.664062 303.667969 303.140625 304.144531 C 303.613281 304.621094 304.132812 305.042969 304.691406 305.417969 C 305.25 305.792969 305.839844 306.105469 306.460938 306.363281 C 307.082031 306.621094 307.722656 306.816406 308.382812 306.945312 C 309.039062 307.078125 309.707031 307.144531 310.378906 307.144531 L 341.605469 307.144531 C 342.664062 307.144531 343.71875 307.089844 344.769531 306.988281 C 345.820312 306.882812 346.863281 306.730469 347.898438 306.523438 C 348.933594 306.316406 349.957031 306.0625 350.96875 305.753906 C 351.980469 305.449219 352.972656 305.09375 353.949219 304.6875 C 354.925781 304.285156 355.878906 303.832031 356.8125 303.335938 C 357.742188 302.835938 358.648438 302.292969 359.527344 301.707031 C 360.40625 301.121094 361.25 300.492188 362.070312 299.820312 C 362.886719 299.152344 363.667969 298.445312 364.414062 297.695312 C 365.160156 296.949219 365.867188 296.167969 366.539062 295.351562 C 367.210938 294.535156 367.839844 293.6875 368.425781 292.808594 C 369.011719 291.929688 369.554688 291.027344 370.050781 290.09375 C 370.550781 289.164062 371 288.207031 371.40625 287.234375 C 371.808594 286.257812 372.164062 285.261719 372.472656 284.253906 C 372.777344 283.242188 373.035156 282.21875 373.242188 281.183594 C 373.445312 280.144531 373.601562 279.101562 373.707031 278.050781 C 373.808594 277 373.859375 275.945312 373.859375 274.890625 L 373.859375 227.792969 C 373.859375 227.121094 373.792969 226.457031 373.660156 225.796875 C 373.53125 225.140625 373.335938 224.5 373.078125 223.878906 C 372.820312 223.257812 372.503906 222.667969 372.132812 222.109375 C 371.757812 221.550781 371.332031 221.035156 370.859375 220.558594 C 370.382812 220.085938 369.867188 219.660156 369.308594 219.285156 C 368.75 218.914062 368.160156 218.597656 367.539062 218.339844 C 366.917969 218.082031 366.277344 217.886719 365.621094 217.757812 C 364.960938 217.625 364.296875 217.558594 363.625 217.558594 Z M 363.625 217.558594 " fill-opacity="1" fill-rule="evenodd"/></g><g clip-path="url(#cefcc3c57c)"><path fill="#6abded" d="M 341.605469 66.527344 L 310.378906 66.527344 C 309.707031 66.527344 309.039062 66.589844 308.382812 66.722656 C 307.722656 66.851562 307.082031 67.046875 306.460938 67.304688 C 305.839844 67.5625 305.25 67.878906 304.691406 68.25 C 304.132812 68.625 303.613281 69.046875 303.140625 69.523438 C 302.664062 70 302.238281 70.515625 301.867188 71.074219 C 301.492188 71.632812 301.179688 72.222656 300.921875 72.84375 C 300.664062 73.464844 300.46875 74.105469 300.339844 74.765625 C 300.207031 75.425781 300.140625 76.089844 300.140625 76.761719 C 300.140625 77.433594 300.207031 78.101562 300.339844 78.757812 C 300.46875 79.417969 300.664062 80.058594 300.921875 80.679688 C 301.179688 81.300781 301.492188 81.890625 301.867188 82.449219 C 302.238281 83.007812 302.664062 83.523438 303.140625 84 C 303.613281 84.476562 304.132812 84.898438 304.691406 85.273438 C 305.25 85.648438 305.839844 85.960938 306.460938 86.21875 C 307.082031 86.476562 307.722656 86.671875 308.382812 86.800781 C 309.039062 86.933594 309.707031 87 310.378906 87 L 341.605469 87 C 342.378906 86.996094 343.148438 87.074219 343.90625 87.222656 C 344.664062 87.371094 345.402344 87.597656 346.117188 87.890625 C 346.832031 88.1875 347.511719 88.550781 348.15625 88.980469 C 348.796875 89.410156 349.394531 89.898438 349.941406 90.445312 C 350.488281 90.992188 350.976562 91.585938 351.40625 92.230469 C 351.835938 92.875 352.199219 93.554688 352.496094 94.269531 C 352.789062 94.984375 353.011719 95.722656 353.164062 96.480469 C 353.3125 97.238281 353.386719 98.003906 353.386719 98.777344 L 353.386719 145.875 C 353.386719 146.546875 353.453125 147.210938 353.585938 147.871094 C 353.714844 148.53125 353.910156 149.171875 354.167969 149.792969 C 354.425781 150.414062 354.738281 151.003906 355.113281 151.5625 C 355.484375 152.121094 355.910156 152.636719 356.386719 153.113281 C 356.859375 153.589844 357.378906 154.011719 357.9375 154.386719 C 358.496094 154.761719 359.085938 155.074219 359.707031 155.332031 C 360.328125 155.589844 360.96875 155.785156 361.625 155.914062 C 362.285156 156.046875 362.953125 156.113281 363.625 156.113281 C 364.296875 156.113281 364.960938 156.046875 365.621094 155.914062 C 366.28125 155.785156 366.921875 155.589844 367.542969 155.332031 C 368.164062 155.074219 368.753906 154.761719 369.3125 154.386719 C 369.871094 154.011719 370.386719 153.589844 370.863281 153.113281 C 371.335938 152.636719 371.761719 152.121094 372.136719 151.5625 C 372.507812 151.003906 372.824219 150.414062 373.082031 149.792969 C 373.339844 149.171875 373.53125 148.53125 373.664062 147.871094 C 373.792969 147.210938 373.859375 146.546875 373.859375 145.875 L 373.859375 98.777344 C 373.859375 97.722656 373.808594 96.667969 373.707031 95.617188 C 373.601562 94.566406 373.445312 93.523438 373.242188 92.488281 C 373.035156 91.449219 372.777344 90.425781 372.472656 89.417969 C 372.164062 88.40625 371.808594 87.410156 371.40625 86.4375 C 371 85.460938 370.550781 84.507812 370.050781 83.574219 C 369.554688 82.644531 369.011719 81.738281 368.425781 80.859375 C 367.839844 79.980469 367.210938 79.132812 366.539062 78.316406 C 365.871094 77.5 365.160156 76.71875 364.414062 75.972656 C 363.667969 75.226562 362.886719 74.515625 362.070312 73.847656 C 361.25 73.175781 360.40625 72.546875 359.527344 71.960938 C 358.648438 71.375 357.742188 70.832031 356.8125 70.332031 C 355.878906 69.835938 354.925781 69.386719 353.949219 68.980469 C 352.972656 68.578125 351.980469 68.222656 350.96875 67.914062 C 349.957031 67.609375 348.933594 67.351562 347.898438 67.144531 C 346.863281 66.9375 345.820312 66.785156 344.769531 66.679688 C 343.71875 66.578125 342.664062 66.527344 341.605469 66.527344 Z M 341.605469 66.527344 " fill-opacity="1" fill-rule="evenodd"/></g></svg>