<svg xmlns="http://www.w3.org/2000/svg" xmlns:xlink="http://www.w3.org/1999/xlink" width="500" zoomAndPan="magnify" viewBox="0 0 375 374.999991" height="500" preserveAspectRatio="xMidYMid meet" version="1.0"><path fill="#6abded" d="M 129.765625 244.484375 C 193.121094 244.484375 244.484375 193.121094 244.484375 129.765625 C 244.484375 66.40625 193.121094 15.046875 129.765625 15.046875 C 66.40625 15.046875 15.046875 66.40625 15.046875 129.765625 C 15.046875 193.121094 66.40625 244.484375 129.765625 244.484375 Z M 226.6875 216.050781 L 372.042969 361.40625 C 374.980469 364.34375 374.980469 369.105469 372.042969 372.042969 C 369.105469 374.980469 364.34375 374.980469 361.40625 372.042969 L 216.050781 226.6875 C 193.117188 247.117188 162.890625 259.527344 129.765625 259.527344 C 58.097656 259.527344 0 201.429688 0 129.765625 C 0 58.097656 58.097656 0 129.765625 0 C 201.429688 0 259.527344 58.097656 259.527344 129.765625 C 259.527344 162.890625 247.117188 193.117188 226.6875 216.050781 Z M 226.6875 216.050781 " fill-opacity="1" fill-rule="nonzero"/></svg>