<svg xmlns="http://www.w3.org/2000/svg" xmlns:xlink="http://www.w3.org/1999/xlink" width="500" zoomAndPan="magnify" viewBox="0 0 375 374.999991" height="500" preserveAspectRatio="xMidYMid meet" version="1.0"><path fill="#6abded" d="M 187.5 94.628906 C 136.289062 94.628906 94.644531 136.289062 94.644531 187.5 C 94.644531 238.710938 136.289062 280.371094 187.5 280.371094 C 238.710938 280.371094 280.355469 238.710938 280.355469 187.5 C 280.355469 136.289062 238.710938 94.628906 187.5 94.628906 Z M 187.5 289.703125 C 131.148438 289.703125 85.296875 243.851562 85.296875 187.5 C 85.296875 131.148438 131.148438 85.296875 187.5 85.296875 C 243.851562 85.296875 289.703125 131.148438 289.703125 187.5 C 289.703125 243.851562 243.851562 289.703125 187.5 289.703125 " fill-opacity="1" fill-rule="nonzero"/><path fill="#6abded" d="M 105.761719 314.824219 C 109.511719 314.824219 113.277344 315.730469 116.703125 317.59375 C 125.886719 322.601562 135.613281 326.628906 145.621094 329.574219 C 155.332031 332.445312 162.113281 341.570312 162.113281 351.78125 C 162.113281 359.429688 168.339844 365.667969 175.984375 365.667969 L 199.011719 365.667969 C 206.660156 365.667969 212.886719 359.429688 212.886719 351.78125 C 212.886719 341.570312 219.667969 332.445312 229.378906 329.574219 C 239.398438 326.628906 249.125 322.601562 258.296875 317.59375 C 267.214844 312.742188 278.480469 314.382812 285.703125 321.605469 C 285.730469 321.636719 285.777344 321.679688 285.804688 321.707031 C 291.226562 327.027344 299.957031 326.996094 305.347656 321.621094 L 321.621094 305.347656 C 324.242188 302.722656 325.679688 299.238281 325.679688 295.53125 C 325.679688 291.824219 324.242188 288.339844 321.621094 285.71875 C 321.578125 285.671875 321.546875 285.628906 321.503906 285.601562 C 314.371094 278.378906 312.757812 267.171875 317.59375 258.296875 C 322.601562 249.109375 326.628906 239.382812 329.589844 229.378906 C 332.429688 219.667969 341.570312 212.886719 351.78125 212.886719 C 359.429688 212.886719 365.667969 206.660156 365.667969 199.011719 L 365.667969 175.984375 C 365.667969 168.339844 359.429688 162.113281 351.78125 162.113281 C 341.570312 162.113281 332.429688 155.332031 329.589844 145.621094 C 326.628906 135.613281 322.601562 125.886719 317.59375 116.703125 C 312.757812 107.839844 314.371094 96.648438 321.488281 89.414062 C 321.53125 89.382812 321.578125 89.324219 321.621094 89.28125 C 324.242188 86.660156 325.679688 83.171875 325.679688 79.46875 C 325.679688 75.761719 324.242188 72.273438 321.621094 69.652344 L 305.347656 53.378906 C 299.957031 48.003906 291.210938 47.972656 285.789062 53.304688 C 285.761719 53.335938 285.730469 53.363281 285.703125 53.394531 C 278.480469 60.613281 267.203125 62.253906 258.296875 57.40625 C 249.109375 52.398438 239.382812 48.367188 229.378906 45.410156 C 219.667969 42.554688 212.886719 33.425781 212.886719 23.21875 C 212.886719 15.570312 206.660156 9.332031 199.011719 9.332031 L 175.984375 9.332031 C 168.339844 9.332031 162.113281 15.570312 162.113281 23.21875 C 162.113281 33.425781 155.332031 42.554688 145.621094 45.410156 C 135.613281 48.367188 125.886719 52.398438 116.703125 57.40625 C 107.796875 62.253906 96.519531 60.613281 89.296875 53.394531 C 89.269531 53.363281 89.238281 53.335938 89.210938 53.304688 C 83.789062 47.972656 75.042969 48.003906 69.652344 53.378906 L 53.378906 69.652344 C 50.757812 72.273438 49.320312 75.761719 49.320312 79.46875 C 49.320312 83.171875 50.757812 86.660156 53.378906 89.28125 C 53.4375 89.324219 53.480469 89.382812 53.527344 89.429688 C 60.628906 96.648438 62.242188 107.839844 57.40625 116.703125 C 52.398438 125.886719 48.371094 135.613281 45.425781 145.621094 C 42.554688 155.332031 33.429688 162.113281 23.21875 162.113281 C 15.570312 162.113281 9.332031 168.339844 9.332031 175.984375 L 9.332031 199.011719 C 9.332031 206.660156 15.570312 212.886719 23.21875 212.886719 C 33.429688 212.886719 42.554688 219.667969 45.425781 229.378906 C 48.371094 239.382812 52.398438 249.109375 57.40625 258.296875 C 62.242188 267.171875 60.628906 278.378906 53.496094 285.601562 C 53.453125 285.644531 53.421875 285.671875 53.378906 285.71875 C 50.757812 288.339844 49.320312 291.824219 49.320312 295.53125 C 49.320312 299.238281 50.757812 302.722656 53.378906 305.347656 L 69.652344 321.621094 C 75.042969 326.996094 83.773438 327.027344 89.195312 321.707031 C 89.222656 321.679688 89.269531 321.636719 89.296875 321.605469 C 93.75 317.152344 99.726562 314.824219 105.761719 314.824219 Z M 199.011719 375 L 175.984375 375 C 163.183594 375 152.769531 364.585938 152.769531 351.78125 C 152.769531 345.671875 148.738281 340.238281 142.984375 338.539062 C 132.347656 335.40625 121.992188 331.113281 112.234375 325.796875 C 106.960938 322.925781 100.3125 323.875 95.992188 328.109375 C 95.960938 328.152344 95.933594 328.183594 95.890625 328.226562 C 86.835938 337.28125 72.113281 337.28125 63.0625 328.226562 L 46.789062 311.9375 C 42.394531 307.558594 39.976562 301.726562 39.976562 295.53125 C 39.976562 289.363281 42.363281 283.578125 46.683594 279.199219 C 46.714844 279.167969 46.757812 279.125 46.789062 279.097656 C 51.109375 274.789062 52.105469 268.066406 49.203125 262.761719 C 43.886719 252.992188 39.59375 242.652344 36.460938 232.015625 C 34.761719 226.257812 29.328125 222.230469 23.21875 222.230469 C 10.414062 222.230469 0 211.816406 0 199.011719 L 0 175.984375 C 0 163.183594 10.414062 152.769531 23.21875 152.769531 C 29.328125 152.769531 34.761719 148.738281 36.460938 142.984375 C 39.59375 132.347656 43.886719 122.007812 49.203125 112.234375 C 52.105469 106.933594 51.109375 100.210938 46.789062 95.902344 C 46.742188 95.859375 46.699219 95.816406 46.65625 95.757812 C 42.347656 91.390625 39.976562 85.621094 39.976562 79.46875 C 39.976562 73.269531 42.394531 67.441406 46.789062 63.0625 L 63.0625 46.773438 C 72.113281 37.71875 86.835938 37.71875 95.890625 46.773438 C 95.917969 46.800781 95.949219 46.832031 95.976562 46.859375 C 100.296875 51.121094 106.960938 52.074219 112.234375 49.203125 C 121.992188 43.886719 132.332031 39.59375 142.984375 36.460938 C 148.738281 34.761719 152.769531 29.324219 152.769531 23.21875 C 152.769531 10.414062 163.183594 0 175.984375 0 L 199.011719 0 C 211.816406 0 222.230469 10.414062 222.230469 23.21875 C 222.230469 29.324219 226.257812 34.761719 232.015625 36.460938 C 242.664062 39.59375 253.007812 43.886719 262.761719 49.203125 C 268.035156 52.074219 274.703125 51.121094 279.023438 46.859375 C 279.050781 46.832031 279.082031 46.800781 279.109375 46.773438 C 288.164062 37.71875 302.886719 37.71875 311.9375 46.773438 L 328.210938 63.0625 C 332.605469 67.441406 335.023438 73.269531 335.023438 79.46875 C 335.023438 85.621094 332.652344 91.390625 328.34375 95.769531 C 328.300781 95.816406 328.257812 95.859375 328.210938 95.902344 C 323.890625 100.210938 322.910156 106.933594 325.796875 112.222656 C 331.113281 121.992188 335.40625 132.332031 338.539062 142.984375 C 340.238281 148.753906 345.671875 152.769531 351.78125 152.769531 C 364.585938 152.769531 375 163.183594 375 175.984375 L 375 199.011719 C 375 211.816406 364.585938 222.230469 351.78125 222.230469 C 345.671875 222.230469 340.238281 226.246094 338.539062 232.015625 C 335.40625 242.664062 331.113281 253.007812 325.796875 262.761719 C 322.910156 268.066406 323.890625 274.789062 328.210938 279.097656 C 328.242188 279.140625 328.285156 279.167969 328.316406 279.214844 C 332.636719 283.578125 335.023438 289.363281 335.023438 295.53125 C 335.023438 301.726562 332.605469 307.558594 328.210938 311.9375 L 311.953125 328.226562 C 302.886719 337.28125 288.164062 337.28125 279.109375 328.226562 C 279.066406 328.183594 279.039062 328.152344 279.007812 328.109375 C 274.6875 323.875 268.023438 322.925781 262.761719 325.796875 C 253.007812 331.113281 242.664062 335.40625 232.015625 338.539062 C 226.257812 340.238281 222.230469 345.671875 222.230469 351.78125 C 222.230469 364.585938 211.816406 375 199.011719 375 " fill-opacity="1" fill-rule="nonzero"/></svg>