<svg xmlns="http://www.w3.org/2000/svg" xmlns:xlink="http://www.w3.org/1999/xlink" width="500" zoomAndPan="magnify" viewBox="0 0 375 374.999991" height="500" preserveAspectRatio="xMidYMid meet" version="1.0"><defs><clipPath id="787f52bd5e"><path d="M 0 0 L 375 0 L 375 373.5 L 0 373.5 Z M 0 0 " clip-rule="nonzero"/></clipPath></defs><g clip-path="url(#787f52bd5e)"><path fill="#6abded" d="M 364.46875 185.886719 L 338.011719 180.902344 C 335.039062 169.398438 330.535156 158.46875 324.589844 148.304688 L 339.738281 126.066406 C 343.1875 120.984375 342.515625 114.273438 338.203125 109.960938 L 317.398438 89.15625 C 314.90625 86.664062 311.648438 85.417969 308.386719 85.417969 C 305.894531 85.417969 303.402344 86.183594 301.199219 87.621094 L 278.957031 102.769531 C 268.796875 96.824219 257.867188 92.320312 246.363281 89.347656 L 241.378906 62.890625 C 240.226562 56.847656 234.953125 52.535156 228.914062 52.535156 L 199.484375 52.535156 C 193.347656 52.535156 188.171875 56.847656 187.019531 62.890625 L 184.816406 74.394531 C 183.1875 70.367188 181.171875 66.4375 178.871094 62.601562 L 189.992188 46.304688 C 191.71875 43.8125 191.429688 40.359375 189.226562 38.25 L 175.132812 24.160156 C 172.929688 21.953125 169.574219 21.664062 167.082031 23.390625 L 150.78125 34.511719 C 143.304688 29.910156 135.15625 26.554688 126.625 24.542969 L 122.980469 5.175781 C 122.40625 2.203125 119.816406 0 116.75 0 L 96.808594 0 C 93.742188 0 91.152344 2.203125 90.578125 5.175781 L 86.933594 24.542969 C 78.308594 26.554688 70.253906 29.910156 62.777344 34.511719 L 46.480469 23.390625 C 43.988281 21.664062 40.535156 21.953125 38.425781 24.160156 L 24.335938 38.25 C 22.128906 40.457031 21.839844 43.8125 23.566406 46.304688 L 34.6875 62.601562 C 30.085938 70.078125 26.730469 78.226562 24.71875 86.757812 L 5.351562 90.402344 C 2.378906 90.976562 0.175781 93.566406 0.175781 96.632812 L 0.175781 116.765625 C 0.175781 119.832031 2.378906 122.421875 5.351562 122.996094 L 24.71875 126.640625 C 26.828125 135.269531 30.085938 143.320312 34.6875 150.796875 L 23.566406 167.097656 C 21.839844 169.589844 22.128906 173.039062 24.335938 175.148438 L 38.425781 189.242188 C 40.632812 191.445312 43.988281 191.734375 46.480469 190.007812 L 62.777344 178.886719 C 66.035156 180.902344 69.488281 182.625 73.035156 184.066406 L 64.3125 185.695312 C 58.269531 186.84375 53.957031 192.117188 53.957031 198.15625 L 53.957031 227.589844 C 53.957031 233.722656 58.269531 238.902344 64.3125 240.050781 L 90.484375 245.226562 C 93.453125 256.730469 97.960938 267.660156 103.902344 277.824219 L 88.757812 300.0625 C 85.304688 305.144531 85.976562 311.855469 90.289062 316.167969 L 111.09375 336.972656 C 113.585938 339.464844 116.847656 340.710938 120.105469 340.710938 C 122.597656 340.710938 125.089844 339.945312 127.296875 338.507812 L 149.535156 323.359375 C 159.699219 329.304688 170.628906 333.808594 182.132812 336.78125 L 187.117188 363.238281 C 188.265625 369.28125 193.539062 373.59375 199.578125 373.59375 L 229.011719 373.59375 C 235.144531 373.59375 240.324219 369.28125 241.472656 363.238281 L 246.457031 336.78125 C 257.960938 333.808594 268.890625 329.304688 279.054688 323.359375 L 301.292969 338.507812 C 303.5 339.945312 305.992188 340.710938 308.484375 340.710938 C 311.742188 340.710938 315.003906 339.464844 317.496094 336.972656 L 338.300781 316.167969 C 342.613281 311.855469 343.285156 305.046875 339.832031 300.0625 L 324.589844 277.824219 C 330.535156 267.660156 335.039062 256.730469 338.011719 245.226562 L 364.46875 240.242188 C 370.511719 239.09375 374.824219 233.820312 374.824219 227.78125 L 374.824219 198.347656 C 374.726562 192.214844 370.414062 187.035156 364.46875 185.886719 Z M 58.847656 166.136719 L 43.410156 176.683594 L 36.703125 169.972656 L 47.246094 154.539062 C 48.683594 152.332031 48.683594 149.550781 47.246094 147.347656 C 41.589844 139.101562 37.851562 129.898438 35.933594 120.027344 C 35.453125 117.4375 33.441406 115.425781 30.851562 114.945312 L 12.445312 111.492188 L 12.445312 102.003906 L 30.851562 98.550781 C 33.441406 98.070312 35.453125 96.058594 35.933594 93.46875 C 37.753906 83.597656 41.589844 74.394531 47.246094 66.148438 C 48.683594 63.941406 48.683594 61.164062 47.246094 58.957031 L 36.703125 43.523438 L 43.410156 36.8125 L 58.847656 47.359375 C 60.957031 48.796875 63.832031 48.796875 66.035156 47.359375 C 74.28125 41.703125 83.484375 37.964844 93.359375 36.046875 C 95.945312 35.566406 97.960938 33.554688 98.441406 30.964844 L 101.890625 12.558594 L 111.382812 12.558594 L 114.832031 30.964844 C 115.3125 33.554688 117.324219 35.566406 119.914062 36.046875 C 129.789062 37.867188 138.992188 41.703125 147.234375 47.359375 C 149.441406 48.890625 152.222656 48.890625 154.425781 47.359375 L 169.859375 36.8125 L 176.570312 43.523438 L 166.027344 58.957031 C 164.585938 61.164062 164.585938 63.941406 166.027344 66.148438 C 171.203125 73.722656 174.75 82.0625 176.761719 91.074219 C 169.667969 93.277344 162.863281 96.058594 156.34375 99.414062 C 152.699219 75.0625 131.992188 56.273438 106.683594 56.273438 C 78.882812 56.273438 56.164062 78.898438 56.164062 106.796875 C 56.164062 132.296875 75.238281 153.195312 99.878906 156.550781 C 96.617188 163.164062 93.839844 169.972656 91.824219 177.066406 C 82.527344 175.148438 73.898438 171.507812 66.132812 166.136719 C 63.925781 164.605469 61.050781 164.605469 58.847656 166.136719 Z M 88.851562 126.066406 L 101.027344 143.894531 C 82.910156 141.117188 68.914062 125.585938 68.914062 106.699219 C 68.914062 85.898438 85.882812 68.929688 106.683594 68.929688 C 124.804688 68.929688 139.855469 81.679688 143.59375 98.648438 L 127.296875 87.621094 C 125.089844 86.183594 122.597656 85.417969 120.105469 85.417969 C 116.847656 85.417969 113.585938 86.664062 111.09375 89.15625 L 90.289062 109.960938 C 86.074219 114.273438 85.402344 121.078125 88.851562 126.066406 Z M 362.074219 227.78125 L 332.257812 233.4375 C 329.382812 234.011719 327.179688 236.214844 326.507812 238.996094 C 323.632812 251.554688 318.644531 263.441406 312.03125 274.082031 C 310.496094 276.578125 310.496094 279.738281 312.128906 282.136719 L 329.191406 307.253906 L 308.386719 328.058594 L 283.269531 310.992188 C 280.875 309.363281 277.710938 309.363281 275.21875 310.898438 C 264.578125 317.511719 252.785156 322.496094 240.132812 325.371094 C 237.253906 326.042969 235.050781 328.25 234.570312 331.125 L 228.914062 360.9375 L 199.484375 360.9375 L 193.828125 331.125 C 193.253906 328.25 191.046875 326.042969 188.265625 325.371094 C 175.707031 322.496094 163.820312 317.511719 153.179688 310.898438 C 150.6875 309.363281 147.523438 309.363281 145.125 310.992188 L 120.007812 328.058594 L 99.207031 307.253906 L 116.269531 282.136719 C 117.902344 279.738281 117.902344 276.578125 116.367188 274.082031 C 109.75 263.441406 104.765625 251.652344 101.890625 238.996094 C 101.21875 236.121094 99.015625 233.914062 96.140625 233.4375 L 66.324219 227.78125 L 66.324219 198.347656 L 96.140625 192.691406 C 99.015625 192.117188 101.21875 189.914062 101.890625 187.132812 C 104.765625 174.574219 109.75 162.6875 116.367188 152.046875 C 117.902344 149.550781 117.902344 146.390625 116.269531 143.992188 L 99.207031 118.875 L 120.007812 98.070312 L 145.125 115.136719 C 147.523438 116.765625 150.6875 116.765625 153.179688 115.230469 C 163.820312 108.617188 175.613281 103.632812 188.265625 100.757812 C 191.144531 100.085938 193.347656 97.878906 193.828125 95.003906 L 199.484375 65.191406 L 228.914062 65.191406 L 234.570312 95.003906 C 235.144531 97.878906 237.351562 100.085938 240.132812 100.757812 C 252.691406 103.632812 264.578125 108.617188 275.21875 115.230469 C 277.710938 116.765625 280.875 116.765625 283.269531 115.136719 L 308.386719 98.070312 L 329.191406 118.875 L 312.128906 143.992188 C 310.496094 146.390625 310.496094 149.550781 312.03125 152.046875 C 318.644531 162.6875 323.632812 174.476562 326.507812 187.132812 C 327.179688 190.007812 329.382812 192.214844 332.257812 192.691406 L 362.074219 198.347656 Z M 362.074219 227.78125 " fill-opacity="1" fill-rule="nonzero"/></g><path fill="#6abded" d="M 214.246094 132.488281 C 169.859375 132.488281 133.71875 168.628906 133.71875 213.015625 C 133.71875 257.402344 169.859375 293.542969 214.246094 293.542969 C 258.632812 293.542969 294.773438 257.402344 294.773438 213.015625 C 294.773438 168.628906 258.632812 132.488281 214.246094 132.488281 Z M 214.246094 280.890625 C 176.859375 280.890625 146.375 250.40625 146.375 213.015625 C 146.375 175.628906 176.859375 145.144531 214.246094 145.144531 C 251.636719 145.144531 282.121094 175.628906 282.121094 213.015625 C 282.121094 250.40625 251.636719 280.890625 214.246094 280.890625 Z M 214.246094 280.890625 " fill-opacity="1" fill-rule="nonzero"/></svg>