<svg xmlns="http://www.w3.org/2000/svg" xmlns:xlink="http://www.w3.org/1999/xlink" width="500" zoomAndPan="magnify" viewBox="0 0 375 374.999991" height="500" preserveAspectRatio="xMidYMid meet" version="1.0"><defs><clipPath id="0e141cb79b"><path d="M 0 23.4375 L 375 23.4375 L 375 351.9375 L 0 351.9375 Z M 0 23.4375 " clip-rule="nonzero"/></clipPath></defs><path fill="#6abded" d="M 316.40625 322.265625 C 316.40625 322.648438 316.367188 323.03125 316.292969 323.410156 C 316.21875 323.785156 316.105469 324.152344 315.960938 324.507812 C 315.8125 324.863281 315.632812 325.199219 315.417969 325.519531 C 315.203125 325.839844 314.960938 326.136719 314.691406 326.410156 C 314.417969 326.679688 314.121094 326.921875 313.800781 327.136719 C 313.480469 327.351562 313.144531 327.53125 312.789062 327.679688 C 312.433594 327.824219 312.066406 327.9375 311.691406 328.011719 C 311.3125 328.085938 310.929688 328.125 310.546875 328.125 C 310.164062 328.125 309.78125 328.085938 309.402344 328.011719 C 309.027344 327.9375 308.660156 327.824219 308.304688 327.679688 C 307.949219 327.53125 307.613281 327.351562 307.292969 327.136719 C 306.972656 326.921875 306.675781 326.679688 306.402344 326.410156 C 306.132812 326.136719 305.886719 325.839844 305.675781 325.519531 C 305.460938 325.199219 305.28125 324.863281 305.132812 324.507812 C 304.984375 324.152344 304.875 323.785156 304.800781 323.410156 C 304.726562 323.03125 304.6875 322.648438 304.6875 322.265625 C 304.6875 321.882812 304.726562 321.5 304.800781 321.121094 C 304.875 320.746094 304.984375 320.378906 305.132812 320.023438 C 305.28125 319.667969 305.460938 319.332031 305.675781 319.011719 C 305.886719 318.691406 306.132812 318.394531 306.402344 318.121094 C 306.675781 317.851562 306.972656 317.609375 307.292969 317.394531 C 307.613281 317.179688 307.949219 317 308.304688 316.851562 C 308.660156 316.703125 309.027344 316.59375 309.402344 316.519531 C 309.78125 316.445312 310.164062 316.40625 310.546875 316.40625 C 310.929688 316.40625 311.3125 316.445312 311.691406 316.519531 C 312.066406 316.59375 312.433594 316.703125 312.789062 316.851562 C 313.144531 317 313.480469 317.179688 313.800781 317.394531 C 314.121094 317.609375 314.417969 317.851562 314.691406 318.121094 C 314.960938 318.394531 315.203125 318.691406 315.417969 319.011719 C 315.632812 319.332031 315.8125 319.667969 315.960938 320.023438 C 316.105469 320.378906 316.21875 320.746094 316.292969 321.121094 C 316.367188 321.5 316.40625 321.882812 316.40625 322.265625 Z M 316.40625 322.265625 " fill-opacity="1" fill-rule="nonzero"/><path fill="#6abded" d="M 210.9375 322.265625 C 210.9375 322.648438 210.898438 323.03125 210.824219 323.410156 C 210.75 323.785156 210.640625 324.152344 210.492188 324.507812 C 210.34375 324.863281 210.164062 325.199219 209.949219 325.519531 C 209.734375 325.839844 209.492188 326.136719 209.222656 326.410156 C 208.949219 326.679688 208.652344 326.921875 208.332031 327.136719 C 208.011719 327.351562 207.675781 327.53125 207.320312 327.679688 C 206.964844 327.824219 206.597656 327.9375 206.222656 328.011719 C 205.84375 328.085938 205.460938 328.125 205.078125 328.125 C 204.695312 328.125 204.3125 328.085938 203.933594 328.011719 C 203.558594 327.9375 203.191406 327.824219 202.835938 327.679688 C 202.480469 327.53125 202.144531 327.351562 201.824219 327.136719 C 201.503906 326.921875 201.207031 326.679688 200.933594 326.410156 C 200.664062 326.136719 200.421875 325.839844 200.207031 325.519531 C 199.992188 325.199219 199.8125 324.863281 199.664062 324.507812 C 199.515625 324.152344 199.40625 323.785156 199.332031 323.410156 C 199.257812 323.03125 199.21875 322.648438 199.21875 322.265625 C 199.21875 321.882812 199.257812 321.5 199.332031 321.121094 C 199.40625 320.746094 199.515625 320.378906 199.664062 320.023438 C 199.8125 319.667969 199.992188 319.332031 200.207031 319.011719 C 200.421875 318.691406 200.664062 318.394531 200.933594 318.121094 C 201.207031 317.851562 201.503906 317.609375 201.824219 317.394531 C 202.144531 317.179688 202.480469 317 202.835938 316.851562 C 203.191406 316.703125 203.558594 316.59375 203.933594 316.519531 C 204.3125 316.445312 204.695312 316.40625 205.078125 316.40625 C 205.460938 316.40625 205.84375 316.445312 206.222656 316.519531 C 206.597656 316.59375 206.964844 316.703125 207.320312 316.851562 C 207.675781 317 208.011719 317.179688 208.332031 317.394531 C 208.652344 317.609375 208.949219 317.851562 209.222656 318.121094 C 209.492188 318.394531 209.734375 318.691406 209.949219 319.011719 C 210.164062 319.332031 210.34375 319.667969 210.492188 320.023438 C 210.640625 320.378906 210.75 320.746094 210.824219 321.121094 C 210.898438 321.5 210.9375 321.882812 210.9375 322.265625 Z M 210.9375 322.265625 " fill-opacity="1" fill-rule="nonzero"/><g clip-path="url(#0e141cb79b)"><path fill="#6abded" d="M 369.140625 333.984375 C 369.523438 333.984375 369.90625 333.945312 370.285156 333.871094 C 370.660156 333.796875 371.027344 333.683594 371.382812 333.539062 C 371.738281 333.390625 372.078125 333.210938 372.394531 332.996094 C 372.714844 332.78125 373.011719 332.539062 373.285156 332.265625 C 373.554688 331.996094 373.800781 331.699219 374.011719 331.378906 C 374.226562 331.058594 374.40625 330.722656 374.554688 330.367188 C 374.703125 330.011719 374.8125 329.644531 374.886719 329.265625 C 374.960938 328.890625 375 328.507812 375 328.125 L 375 310.546875 C 375 310.160156 374.960938 309.78125 374.886719 309.402344 C 374.8125 309.023438 374.703125 308.660156 374.554688 308.304688 C 374.40625 307.949219 374.226562 307.609375 374.011719 307.289062 C 373.800781 306.96875 373.554688 306.675781 373.285156 306.402344 C 373.011719 306.128906 372.714844 305.886719 372.394531 305.671875 C 372.078125 305.460938 371.738281 305.277344 371.382812 305.132812 C 371.027344 304.984375 370.660156 304.875 370.285156 304.796875 C 369.90625 304.722656 369.523438 304.6875 369.140625 304.6875 L 363.28125 304.6875 L 363.28125 257.8125 C 363.265625 257.109375 363.128906 256.429688 362.871094 255.777344 C 362.789062 255.578125 362.699219 255.386719 362.597656 255.199219 C 362.511719 254.980469 362.410156 254.765625 362.296875 254.5625 L 338.859375 219.40625 C 338.316406 218.589844 337.613281 217.949219 336.75 217.488281 C 335.886719 217.027344 334.964844 216.796875 333.984375 216.796875 L 269.53125 216.796875 L 269.53125 205.078125 C 269.53125 204.691406 269.492188 204.3125 269.417969 203.933594 C 269.34375 203.554688 269.234375 203.191406 269.085938 202.835938 C 268.9375 202.480469 268.757812 202.140625 268.542969 201.820312 C 268.332031 201.5 268.085938 201.207031 267.816406 200.933594 C 267.542969 200.660156 267.246094 200.417969 266.925781 200.203125 C 266.609375 199.992188 266.269531 199.808594 265.914062 199.664062 C 265.558594 199.515625 265.191406 199.40625 264.816406 199.328125 C 264.4375 199.253906 264.058594 199.21875 263.671875 199.21875 L 158.203125 199.21875 C 157.820312 199.21875 157.4375 199.253906 157.058594 199.328125 C 156.683594 199.40625 156.316406 199.515625 155.960938 199.664062 C 155.605469 199.808594 155.265625 199.992188 154.949219 200.203125 C 154.628906 200.417969 154.332031 200.660156 154.058594 200.933594 C 153.789062 201.207031 153.542969 201.5 153.332031 201.820312 C 153.117188 202.140625 152.9375 202.480469 152.789062 202.835938 C 152.640625 203.191406 152.53125 203.554688 152.457031 203.933594 C 152.382812 204.3125 152.34375 204.691406 152.34375 205.078125 L 152.34375 304.6875 L 146.484375 304.6875 C 146.101562 304.6875 145.71875 304.722656 145.339844 304.796875 C 144.964844 304.875 144.597656 304.984375 144.242188 305.132812 C 143.886719 305.277344 143.546875 305.460938 143.230469 305.671875 C 142.910156 305.886719 142.613281 306.128906 142.339844 306.402344 C 142.070312 306.675781 141.824219 306.96875 141.613281 307.289062 C 141.398438 307.609375 141.21875 307.949219 141.070312 308.304688 C 140.921875 308.660156 140.8125 309.023438 140.738281 309.402344 C 140.664062 309.78125 140.625 310.160156 140.625 310.546875 L 140.625 328.125 C 140.625 328.507812 140.664062 328.890625 140.738281 329.265625 C 140.8125 329.644531 140.921875 330.011719 141.070312 330.367188 C 141.21875 330.722656 141.398438 331.058594 141.613281 331.378906 C 141.824219 331.699219 142.070312 331.996094 142.339844 332.265625 C 142.613281 332.539062 142.910156 332.78125 143.230469 332.996094 C 143.546875 333.210938 143.886719 333.390625 144.242188 333.539062 C 144.597656 333.683594 144.964844 333.796875 145.339844 333.871094 C 145.71875 333.945312 146.097656 333.984375 146.484375 333.984375 L 178.265625 333.984375 C 179.210938 336.074219 180.382812 338.027344 181.789062 339.84375 L 117.1875 339.84375 L 117.1875 205.078125 C 117.1875 204.691406 117.148438 204.3125 117.074219 203.933594 C 117 203.554688 116.890625 203.191406 116.742188 202.835938 C 116.59375 202.480469 116.414062 202.140625 116.199219 201.820312 C 115.988281 201.5 115.742188 201.207031 115.472656 200.933594 C 115.199219 200.660156 114.902344 200.417969 114.582031 200.203125 C 114.265625 199.992188 113.925781 199.808594 113.570312 199.664062 C 113.214844 199.515625 112.847656 199.40625 112.472656 199.328125 C 112.09375 199.253906 111.710938 199.21875 111.328125 199.21875 L 35.15625 199.21875 L 35.15625 169.921875 L 234.375 169.921875 L 234.375 181.640625 C 234.375 182.023438 234.414062 182.40625 234.488281 182.78125 C 234.5625 183.160156 234.671875 183.527344 234.820312 183.882812 C 234.96875 184.238281 235.148438 184.574219 235.363281 184.894531 C 235.578125 185.214844 235.820312 185.511719 236.089844 185.78125 C 236.363281 186.054688 236.660156 186.296875 236.980469 186.511719 C 237.300781 186.726562 237.636719 186.90625 237.992188 187.050781 C 238.347656 187.199219 238.714844 187.3125 239.089844 187.386719 C 239.46875 187.460938 239.851562 187.5 240.234375 187.5 C 240.617188 187.5 241 187.460938 241.378906 187.386719 C 241.753906 187.3125 242.121094 187.199219 242.476562 187.050781 C 242.832031 186.90625 243.167969 186.726562 243.488281 186.511719 C 243.808594 186.296875 244.105469 186.054688 244.378906 185.78125 C 244.648438 185.511719 244.890625 185.214844 245.105469 184.894531 C 245.320312 184.574219 245.5 184.238281 245.648438 183.882812 C 245.792969 183.527344 245.90625 183.160156 245.980469 182.78125 C 246.054688 182.40625 246.09375 182.023438 246.09375 181.640625 L 246.09375 117.1875 C 246.09375 116.800781 246.054688 116.421875 245.980469 116.042969 C 245.90625 115.664062 245.796875 115.300781 245.648438 114.945312 C 245.5 114.589844 245.320312 114.25 245.105469 113.929688 C 244.894531 113.609375 244.648438 113.316406 244.378906 113.042969 C 244.105469 112.769531 243.808594 112.527344 243.488281 112.3125 C 243.171875 112.101562 242.832031 111.917969 242.476562 111.773438 C 242.121094 111.625 241.753906 111.515625 241.378906 111.4375 C 241 111.363281 240.617188 111.328125 240.234375 111.328125 L 29.296875 111.328125 C 28.914062 111.328125 28.53125 111.363281 28.152344 111.4375 C 27.777344 111.515625 27.410156 111.625 27.054688 111.773438 C 26.699219 111.917969 26.359375 112.101562 26.042969 112.3125 C 25.722656 112.527344 25.425781 112.769531 25.152344 113.042969 C 24.882812 113.316406 24.636719 113.609375 24.425781 113.929688 C 24.210938 114.25 24.03125 114.589844 23.882812 114.945312 C 23.734375 115.300781 23.625 115.664062 23.550781 116.042969 C 23.476562 116.421875 23.4375 116.800781 23.4375 117.1875 L 23.4375 339.84375 L 11.71875 339.84375 L 11.71875 91.660156 L 134.765625 35.734375 L 257.8125 91.660156 L 257.8125 181.640625 C 257.8125 182.023438 257.851562 182.40625 257.925781 182.78125 C 258 183.160156 258.109375 183.527344 258.257812 183.882812 C 258.40625 184.238281 258.585938 184.574219 258.800781 184.894531 C 259.015625 185.214844 259.257812 185.511719 259.527344 185.78125 C 259.800781 186.054688 260.097656 186.296875 260.417969 186.511719 C 260.738281 186.726562 261.074219 186.90625 261.429688 187.050781 C 261.785156 187.199219 262.152344 187.3125 262.527344 187.386719 C 262.90625 187.460938 263.289062 187.5 263.671875 187.5 C 264.054688 187.5 264.4375 187.460938 264.816406 187.386719 C 265.191406 187.3125 265.558594 187.199219 265.914062 187.050781 C 266.269531 186.90625 266.605469 186.726562 266.925781 186.511719 C 267.246094 186.296875 267.542969 186.054688 267.816406 185.78125 C 268.085938 185.511719 268.328125 185.214844 268.542969 184.894531 C 268.757812 184.574219 268.9375 184.238281 269.085938 183.882812 C 269.234375 183.527344 269.34375 183.160156 269.417969 182.78125 C 269.492188 182.40625 269.53125 182.023438 269.53125 181.640625 L 269.53125 87.890625 C 269.53125 87.328125 269.453125 86.777344 269.292969 86.234375 C 269.136719 85.695312 268.902344 85.191406 268.597656 84.714844 C 268.292969 84.242188 267.929688 83.824219 267.503906 83.457031 C 267.078125 83.089844 266.609375 82.789062 266.09375 82.554688 L 137.1875 23.960938 C 136.417969 23.613281 135.609375 23.4375 134.765625 23.4375 C 133.921875 23.4375 133.113281 23.613281 132.34375 23.960938 L 3.4375 82.554688 C 2.921875 82.789062 2.453125 83.089844 2.027344 83.457031 C 1.601562 83.824219 1.238281 84.242188 0.933594 84.714844 C 0.628906 85.191406 0.394531 85.695312 0.238281 86.234375 C 0.078125 86.777344 0 87.328125 0 87.890625 L 0 345.703125 C 0 346.085938 0.0390625 346.46875 0.113281 346.84375 C 0.1875 347.222656 0.296875 347.589844 0.445312 347.945312 C 0.59375 348.300781 0.773438 348.636719 0.988281 348.957031 C 1.199219 349.277344 1.445312 349.574219 1.714844 349.84375 C 1.988281 350.117188 2.285156 350.359375 2.605469 350.574219 C 2.921875 350.789062 3.261719 350.96875 3.617188 351.117188 C 3.972656 351.261719 4.339844 351.375 4.714844 351.449219 C 5.09375 351.523438 5.476562 351.5625 5.859375 351.5625 L 369.140625 351.5625 C 369.523438 351.5625 369.90625 351.523438 370.285156 351.449219 C 370.660156 351.375 371.027344 351.261719 371.382812 351.113281 C 371.738281 350.96875 372.074219 350.789062 372.394531 350.574219 C 372.714844 350.359375 373.011719 350.117188 373.285156 349.84375 C 373.554688 349.574219 373.796875 349.277344 374.011719 348.957031 C 374.226562 348.636719 374.40625 348.300781 374.554688 347.945312 C 374.699219 347.589844 374.8125 347.222656 374.886719 346.84375 C 374.960938 346.46875 375 346.085938 375 345.703125 C 375 345.316406 374.960938 344.9375 374.886719 344.558594 C 374.8125 344.179688 374.699219 343.816406 374.554688 343.460938 C 374.40625 343.105469 374.226562 342.765625 374.011719 342.445312 C 373.796875 342.125 373.554688 341.832031 373.285156 341.558594 C 373.011719 341.285156 372.714844 341.042969 372.394531 340.828125 C 372.074219 340.617188 371.738281 340.433594 371.382812 340.289062 C 371.027344 340.140625 370.660156 340.03125 370.285156 339.953125 C 369.90625 339.878906 369.523438 339.84375 369.140625 339.84375 L 333.835938 339.84375 C 335.242188 338.027344 336.414062 336.074219 337.359375 333.984375 Z M 363.28125 322.265625 L 339.84375 322.265625 C 339.84375 320.292969 339.644531 318.339844 339.25 316.40625 L 363.28125 316.40625 Z M 346.472656 251.953125 L 292.96875 251.953125 L 292.96875 228.515625 L 330.847656 228.515625 Z M 281.25 228.515625 L 281.25 257.8125 C 281.25 258.195312 281.289062 258.578125 281.363281 258.953125 C 281.4375 259.332031 281.546875 259.699219 281.695312 260.054688 C 281.84375 260.410156 282.023438 260.746094 282.238281 261.066406 C 282.449219 261.386719 282.695312 261.683594 282.964844 261.953125 C 283.238281 262.226562 283.535156 262.46875 283.855469 262.683594 C 284.171875 262.898438 284.511719 263.078125 284.867188 263.226562 C 285.222656 263.371094 285.589844 263.484375 285.964844 263.558594 C 286.34375 263.632812 286.726562 263.671875 287.109375 263.671875 L 351.5625 263.671875 L 351.5625 275.390625 L 333.984375 275.390625 L 333.984375 287.109375 L 351.5625 287.109375 L 351.5625 304.6875 L 333.835938 304.6875 C 333.5 304.234375 333.148438 303.792969 332.789062 303.359375 C 332.425781 302.925781 332.054688 302.503906 331.667969 302.09375 C 331.28125 301.683594 330.882812 301.285156 330.472656 300.898438 C 330.066406 300.511719 329.644531 300.136719 329.214844 299.773438 C 328.78125 299.410156 328.339844 299.0625 327.890625 298.722656 C 327.4375 298.386719 326.976562 298.0625 326.503906 297.753906 C 326.035156 297.445312 325.554688 297.148438 325.070312 296.867188 C 324.582031 296.582031 324.085938 296.316406 323.582031 296.0625 C 323.078125 295.808594 322.566406 295.570312 322.050781 295.347656 C 321.535156 295.125 321.011719 294.914062 320.480469 294.722656 C 319.953125 294.527344 319.417969 294.351562 318.878906 294.191406 C 318.335938 294.027344 317.792969 293.882812 317.246094 293.75 C 316.699219 293.621094 316.144531 293.507812 315.589844 293.410156 C 315.035156 293.3125 314.480469 293.230469 313.917969 293.164062 C 313.359375 293.097656 312.796875 293.050781 312.234375 293.015625 C 311.671875 292.984375 311.109375 292.96875 310.546875 292.96875 C 309.984375 292.96875 309.421875 292.984375 308.859375 293.015625 C 308.296875 293.050781 307.734375 293.097656 307.175781 293.164062 C 306.613281 293.230469 306.058594 293.3125 305.503906 293.410156 C 304.949219 293.507812 304.394531 293.621094 303.847656 293.75 C 303.300781 293.882812 302.757812 294.027344 302.214844 294.191406 C 301.675781 294.351562 301.140625 294.527344 300.613281 294.722656 C 300.082031 294.914062 299.558594 295.125 299.042969 295.347656 C 298.527344 295.570312 298.015625 295.808594 297.511719 296.0625 C 297.007812 296.316406 296.511719 296.582031 296.023438 296.867188 C 295.539062 297.148438 295.058594 297.445312 294.589844 297.753906 C 294.117188 298.0625 293.65625 298.386719 293.203125 298.722656 C 292.753906 299.0625 292.3125 299.410156 291.878906 299.773438 C 291.449219 300.136719 291.027344 300.511719 290.621094 300.898438 C 290.210938 301.285156 289.8125 301.683594 289.425781 302.09375 C 289.039062 302.503906 288.667969 302.925781 288.304688 303.359375 C 287.945312 303.792969 287.59375 304.234375 287.257812 304.6875 L 269.53125 304.6875 L 269.53125 228.515625 Z M 281.84375 316.40625 C 281.449219 318.339844 281.25 320.292969 281.25 322.265625 L 234.375 322.265625 C 234.375 320.292969 234.175781 318.339844 233.78125 316.40625 Z M 231.890625 333.984375 L 283.734375 333.984375 C 284.679688 336.074219 285.851562 338.027344 287.257812 339.84375 L 228.367188 339.84375 C 229.773438 338.027344 230.945312 336.074219 231.890625 333.984375 Z M 222.65625 210.9375 L 222.65625 240.234375 L 199.21875 240.234375 L 199.21875 210.9375 Z M 164.0625 210.9375 L 187.5 210.9375 L 187.5 246.09375 C 187.5 246.476562 187.539062 246.859375 187.613281 247.234375 C 187.6875 247.613281 187.796875 247.980469 187.945312 248.335938 C 188.09375 248.691406 188.273438 249.027344 188.488281 249.347656 C 188.699219 249.667969 188.945312 249.964844 189.214844 250.234375 C 189.488281 250.507812 189.785156 250.75 190.105469 250.964844 C 190.421875 251.179688 190.761719 251.359375 191.117188 251.507812 C 191.472656 251.652344 191.839844 251.765625 192.214844 251.839844 C 192.59375 251.914062 192.972656 251.953125 193.359375 251.953125 L 228.515625 251.953125 C 228.902344 251.953125 229.28125 251.914062 229.660156 251.839844 C 230.035156 251.765625 230.402344 251.652344 230.757812 251.507812 C 231.113281 251.359375 231.453125 251.179688 231.769531 250.964844 C 232.089844 250.75 232.386719 250.507812 232.660156 250.234375 C 232.929688 249.964844 233.175781 249.667969 233.386719 249.347656 C 233.601562 249.027344 233.78125 248.691406 233.929688 248.335938 C 234.078125 247.980469 234.1875 247.613281 234.261719 247.234375 C 234.335938 246.859375 234.375 246.476562 234.375 246.09375 L 234.375 210.9375 L 257.8125 210.9375 L 257.8125 304.6875 L 228.367188 304.6875 C 228.03125 304.234375 227.679688 303.792969 227.320312 303.359375 C 226.957031 302.925781 226.585938 302.503906 226.199219 302.09375 C 225.8125 301.683594 225.414062 301.285156 225.003906 300.898438 C 224.597656 300.511719 224.175781 300.136719 223.746094 299.773438 C 223.3125 299.410156 222.871094 299.0625 222.421875 298.722656 C 221.96875 298.386719 221.507812 298.0625 221.035156 297.753906 C 220.566406 297.445312 220.085938 297.148438 219.601562 296.867188 C 219.113281 296.582031 218.617188 296.316406 218.113281 296.0625 C 217.609375 295.808594 217.097656 295.570312 216.582031 295.347656 C 216.066406 295.125 215.542969 294.914062 215.011719 294.722656 C 214.484375 294.527344 213.949219 294.351562 213.410156 294.191406 C 212.867188 294.027344 212.324219 293.882812 211.777344 293.75 C 211.230469 293.621094 210.675781 293.507812 210.121094 293.410156 C 209.566406 293.3125 209.011719 293.230469 208.449219 293.164062 C 207.890625 293.097656 207.328125 293.050781 206.765625 293.015625 C 206.203125 292.984375 205.640625 292.96875 205.078125 292.96875 C 204.515625 292.96875 203.953125 292.984375 203.390625 293.015625 C 202.828125 293.050781 202.265625 293.097656 201.707031 293.164062 C 201.144531 293.230469 200.589844 293.3125 200.035156 293.410156 C 199.480469 293.507812 198.925781 293.621094 198.378906 293.75 C 197.832031 293.882812 197.289062 294.027344 196.746094 294.191406 C 196.207031 294.351562 195.671875 294.527344 195.144531 294.722656 C 194.613281 294.914062 194.089844 295.125 193.574219 295.347656 C 193.058594 295.570312 192.546875 295.808594 192.042969 296.0625 C 191.539062 296.316406 191.042969 296.582031 190.554688 296.867188 C 190.070312 297.148438 189.589844 297.445312 189.121094 297.753906 C 188.648438 298.0625 188.1875 298.386719 187.734375 298.722656 C 187.285156 299.0625 186.84375 299.410156 186.410156 299.773438 C 185.980469 300.136719 185.558594 300.511719 185.152344 300.898438 C 184.742188 301.285156 184.34375 301.683594 183.957031 302.09375 C 183.570312 302.503906 183.199219 302.925781 182.835938 303.359375 C 182.476562 303.792969 182.125 304.234375 181.789062 304.6875 L 164.0625 304.6875 Z M 152.34375 322.265625 L 152.34375 316.40625 L 176.375 316.40625 C 175.980469 318.339844 175.78125 320.292969 175.78125 322.265625 Z M 187.5 322.265625 C 187.5 321.6875 187.527344 321.113281 187.585938 320.542969 C 187.640625 319.96875 187.726562 319.398438 187.835938 318.835938 C 187.949219 318.269531 188.089844 317.710938 188.257812 317.160156 C 188.425781 316.609375 188.617188 316.070312 188.839844 315.539062 C 189.058594 315.003906 189.304688 314.484375 189.574219 313.976562 C 189.847656 313.46875 190.144531 312.976562 190.460938 312.5 C 190.78125 312.019531 191.125 311.558594 191.488281 311.113281 C 191.855469 310.667969 192.242188 310.242188 192.648438 309.835938 C 193.054688 309.425781 193.480469 309.042969 193.925781 308.675781 C 194.371094 308.3125 194.832031 307.96875 195.3125 307.648438 C 195.789062 307.328125 196.285156 307.03125 196.792969 306.761719 C 197.300781 306.492188 197.820312 306.246094 198.351562 306.023438 C 198.882812 305.804688 199.425781 305.609375 199.976562 305.441406 C 200.527344 305.277344 201.085938 305.136719 201.648438 305.023438 C 202.214844 304.910156 202.78125 304.828125 203.355469 304.769531 C 203.929688 304.714844 204.503906 304.6875 205.078125 304.6875 C 205.652344 304.6875 206.226562 304.714844 206.800781 304.769531 C 207.375 304.828125 207.941406 304.910156 208.507812 305.023438 C 209.070312 305.136719 209.628906 305.277344 210.179688 305.441406 C 210.730469 305.609375 211.273438 305.804688 211.804688 306.023438 C 212.335938 306.246094 212.855469 306.492188 213.363281 306.761719 C 213.871094 307.03125 214.367188 307.328125 214.84375 307.648438 C 215.324219 307.96875 215.785156 308.3125 216.230469 308.675781 C 216.675781 309.042969 217.101562 309.425781 217.507812 309.835938 C 217.914062 310.242188 218.300781 310.667969 218.667969 311.113281 C 219.03125 311.558594 219.375 312.019531 219.695312 312.5 C 220.011719 312.976562 220.308594 313.46875 220.582031 313.976562 C 220.851562 314.484375 221.097656 315.003906 221.316406 315.539062 C 221.539062 316.070312 221.730469 316.609375 221.898438 317.160156 C 222.066406 317.710938 222.207031 318.269531 222.320312 318.835938 C 222.429688 319.398438 222.515625 319.96875 222.570312 320.542969 C 222.628906 321.113281 222.65625 321.6875 222.65625 322.265625 C 222.65625 322.839844 222.628906 323.414062 222.570312 323.988281 C 222.515625 324.558594 222.429688 325.128906 222.320312 325.695312 C 222.207031 326.257812 222.066406 326.816406 221.898438 327.367188 C 221.730469 327.917969 221.539062 328.460938 221.316406 328.992188 C 221.097656 329.523438 220.851562 330.042969 220.582031 330.550781 C 220.308594 331.058594 220.011719 331.550781 219.695312 332.03125 C 219.375 332.507812 219.03125 332.96875 218.667969 333.414062 C 218.300781 333.859375 217.914062 334.285156 217.507812 334.695312 C 217.101562 335.101562 216.675781 335.488281 216.230469 335.851562 C 215.785156 336.21875 215.324219 336.558594 214.84375 336.878906 C 214.367188 337.199219 213.871094 337.496094 213.363281 337.765625 C 212.855469 338.039062 212.335938 338.285156 211.804688 338.503906 C 211.273438 338.722656 210.730469 338.917969 210.179688 339.085938 C 209.628906 339.253906 209.070312 339.390625 208.507812 339.503906 C 207.941406 339.617188 207.375 339.703125 206.800781 339.757812 C 206.226562 339.8125 205.652344 339.84375 205.078125 339.84375 C 204.503906 339.839844 203.929688 339.8125 203.355469 339.757812 C 202.78125 339.699219 202.214844 339.613281 201.648438 339.5 C 201.085938 339.386719 200.527344 339.25 199.976562 339.082031 C 199.425781 338.914062 198.886719 338.71875 198.355469 338.5 C 197.824219 338.277344 197.304688 338.03125 196.796875 337.761719 C 196.289062 337.488281 195.796875 337.195312 195.316406 336.875 C 194.839844 336.554688 194.375 336.210938 193.933594 335.847656 C 193.488281 335.480469 193.0625 335.09375 192.652344 334.6875 C 192.246094 334.28125 191.859375 333.855469 191.496094 333.410156 C 191.128906 332.964844 190.789062 332.503906 190.46875 332.027344 C 190.148438 331.546875 189.851562 331.054688 189.582031 330.546875 C 189.308594 330.039062 189.0625 329.519531 188.84375 328.988281 C 188.621094 328.457031 188.429688 327.914062 188.261719 327.363281 C 188.09375 326.8125 187.953125 326.257812 187.839844 325.691406 C 187.726562 325.128906 187.644531 324.558594 187.585938 323.988281 C 187.53125 323.414062 187.5 322.839844 187.5 322.265625 Z M 64.453125 210.9375 L 76.171875 210.9375 L 76.171875 228.515625 L 64.453125 228.515625 Z M 52.734375 210.9375 L 52.734375 234.375 C 52.734375 234.757812 52.773438 235.140625 52.847656 235.515625 C 52.921875 235.894531 53.03125 236.261719 53.179688 236.617188 C 53.328125 236.972656 53.507812 237.308594 53.722656 237.628906 C 53.933594 237.949219 54.179688 238.246094 54.449219 238.515625 C 54.722656 238.789062 55.019531 239.03125 55.339844 239.246094 C 55.65625 239.460938 55.996094 239.640625 56.351562 239.789062 C 56.707031 239.933594 57.074219 240.046875 57.449219 240.121094 C 57.828125 240.195312 58.210938 240.234375 58.59375 240.234375 L 82.03125 240.234375 C 82.414062 240.234375 82.796875 240.195312 83.175781 240.121094 C 83.550781 240.046875 83.917969 239.933594 84.273438 239.789062 C 84.628906 239.640625 84.96875 239.460938 85.285156 239.246094 C 85.605469 239.03125 85.902344 238.789062 86.175781 238.515625 C 86.445312 238.246094 86.691406 237.949219 86.902344 237.628906 C 87.117188 237.308594 87.296875 236.972656 87.445312 236.617188 C 87.59375 236.261719 87.703125 235.894531 87.777344 235.515625 C 87.851562 235.140625 87.890625 234.757812 87.890625 234.375 L 87.890625 210.9375 L 105.46875 210.9375 L 105.46875 269.53125 L 35.15625 269.53125 L 35.15625 210.9375 Z M 64.453125 281.25 L 76.171875 281.25 L 76.171875 298.828125 L 64.453125 298.828125 Z M 35.15625 158.203125 L 35.15625 146.484375 L 234.375 146.484375 L 234.375 158.203125 Z M 234.375 123.046875 L 234.375 134.765625 L 35.15625 134.765625 L 35.15625 123.046875 Z M 35.15625 339.84375 L 35.15625 281.25 L 52.734375 281.25 L 52.734375 304.6875 C 52.734375 305.070312 52.773438 305.453125 52.847656 305.828125 C 52.921875 306.207031 53.03125 306.574219 53.179688 306.929688 C 53.328125 307.285156 53.507812 307.621094 53.722656 307.941406 C 53.933594 308.261719 54.179688 308.558594 54.449219 308.828125 C 54.722656 309.101562 55.019531 309.34375 55.339844 309.558594 C 55.65625 309.773438 55.996094 309.953125 56.351562 310.101562 C 56.707031 310.246094 57.074219 310.359375 57.449219 310.433594 C 57.828125 310.507812 58.210938 310.546875 58.59375 310.546875 L 82.03125 310.546875 C 82.414062 310.546875 82.796875 310.507812 83.175781 310.433594 C 83.550781 310.359375 83.917969 310.246094 84.273438 310.101562 C 84.628906 309.953125 84.96875 309.773438 85.285156 309.558594 C 85.605469 309.34375 85.902344 309.101562 86.175781 308.828125 C 86.445312 308.558594 86.691406 308.261719 86.902344 307.941406 C 87.117188 307.621094 87.296875 307.285156 87.445312 306.929688 C 87.59375 306.574219 87.703125 306.207031 87.777344 305.828125 C 87.851562 305.453125 87.890625 305.070312 87.890625 304.6875 L 87.890625 281.25 L 105.46875 281.25 L 105.46875 339.84375 Z M 292.96875 322.265625 C 292.96875 321.6875 292.996094 321.113281 293.054688 320.542969 C 293.109375 319.96875 293.195312 319.398438 293.304688 318.835938 C 293.417969 318.269531 293.558594 317.710938 293.726562 317.160156 C 293.894531 316.609375 294.085938 316.070312 294.308594 315.539062 C 294.527344 315.003906 294.773438 314.484375 295.042969 313.976562 C 295.316406 313.46875 295.613281 312.976562 295.929688 312.5 C 296.25 312.019531 296.59375 311.558594 296.957031 311.113281 C 297.324219 310.667969 297.710938 310.242188 298.117188 309.835938 C 298.523438 309.425781 298.949219 309.042969 299.394531 308.675781 C 299.839844 308.3125 300.300781 307.96875 300.78125 307.648438 C 301.257812 307.328125 301.753906 307.03125 302.261719 306.761719 C 302.769531 306.492188 303.289062 306.246094 303.820312 306.023438 C 304.351562 305.804688 304.894531 305.609375 305.445312 305.441406 C 305.996094 305.277344 306.554688 305.136719 307.117188 305.023438 C 307.683594 304.910156 308.25 304.828125 308.824219 304.769531 C 309.398438 304.714844 309.972656 304.6875 310.546875 304.6875 C 311.121094 304.6875 311.695312 304.714844 312.269531 304.769531 C 312.84375 304.828125 313.410156 304.910156 313.976562 305.023438 C 314.539062 305.136719 315.097656 305.277344 315.648438 305.441406 C 316.199219 305.609375 316.742188 305.804688 317.273438 306.023438 C 317.804688 306.246094 318.324219 306.492188 318.832031 306.761719 C 319.339844 307.03125 319.835938 307.328125 320.3125 307.648438 C 320.792969 307.96875 321.253906 308.3125 321.699219 308.675781 C 322.144531 309.042969 322.570312 309.425781 322.976562 309.835938 C 323.382812 310.242188 323.769531 310.667969 324.136719 311.113281 C 324.5 311.558594 324.84375 312.019531 325.164062 312.5 C 325.480469 312.976562 325.777344 313.46875 326.050781 313.976562 C 326.320312 314.484375 326.566406 315.003906 326.785156 315.539062 C 327.007812 316.070312 327.199219 316.609375 327.367188 317.160156 C 327.535156 317.710938 327.675781 318.269531 327.789062 318.835938 C 327.898438 319.398438 327.984375 319.96875 328.039062 320.542969 C 328.097656 321.113281 328.125 321.6875 328.125 322.265625 C 328.125 322.839844 328.097656 323.414062 328.039062 323.988281 C 327.984375 324.558594 327.898438 325.128906 327.789062 325.695312 C 327.675781 326.257812 327.535156 326.816406 327.367188 327.367188 C 327.199219 327.917969 327.007812 328.460938 326.785156 328.992188 C 326.566406 329.523438 326.320312 330.042969 326.050781 330.550781 C 325.777344 331.058594 325.480469 331.550781 325.164062 332.03125 C 324.84375 332.507812 324.5 332.96875 324.136719 333.414062 C 323.769531 333.859375 323.382812 334.285156 322.976562 334.695312 C 322.570312 335.101562 322.144531 335.488281 321.699219 335.851562 C 321.253906 336.21875 320.792969 336.558594 320.3125 336.878906 C 319.835938 337.199219 319.339844 337.496094 318.832031 337.765625 C 318.324219 338.039062 317.804688 338.285156 317.273438 338.503906 C 316.742188 338.722656 316.199219 338.917969 315.648438 339.085938 C 315.097656 339.253906 314.539062 339.390625 313.976562 339.503906 C 313.410156 339.617188 312.84375 339.703125 312.269531 339.757812 C 311.695312 339.8125 311.121094 339.84375 310.546875 339.84375 C 309.972656 339.839844 309.398438 339.8125 308.824219 339.757812 C 308.25 339.699219 307.683594 339.613281 307.117188 339.5 C 306.554688 339.386719 305.996094 339.25 305.445312 339.082031 C 304.894531 338.914062 304.355469 338.71875 303.824219 338.5 C 303.292969 338.277344 302.773438 338.03125 302.265625 337.761719 C 301.757812 337.488281 301.265625 337.195312 300.785156 336.875 C 300.308594 336.554688 299.84375 336.210938 299.402344 335.847656 C 298.957031 335.480469 298.53125 335.09375 298.121094 334.6875 C 297.714844 334.28125 297.328125 333.855469 296.964844 333.410156 C 296.597656 332.964844 296.257812 332.503906 295.9375 332.027344 C 295.617188 331.546875 295.320312 331.054688 295.050781 330.546875 C 294.777344 330.039062 294.53125 329.519531 294.3125 328.988281 C 294.089844 328.457031 293.898438 327.914062 293.730469 327.363281 C 293.5625 326.8125 293.421875 326.257812 293.308594 325.691406 C 293.195312 325.128906 293.113281 324.558594 293.054688 323.988281 C 293 323.414062 292.96875 322.839844 292.96875 322.265625 Z M 292.96875 322.265625 " fill-opacity="1" fill-rule="nonzero"/></g><path fill="#6abded" d="M 287.109375 281.25 L 292.96875 281.25 C 293.351562 281.25 293.734375 281.210938 294.113281 281.136719 C 294.488281 281.0625 294.855469 280.949219 295.210938 280.800781 C 295.566406 280.65625 295.902344 280.476562 296.222656 280.261719 C 296.542969 280.046875 296.839844 279.804688 297.113281 279.53125 C 297.382812 279.261719 297.625 278.964844 297.839844 278.644531 C 298.054688 278.324219 298.234375 277.988281 298.382812 277.632812 C 298.527344 277.277344 298.640625 276.910156 298.714844 276.53125 C 298.789062 276.15625 298.828125 275.773438 298.828125 275.390625 C 298.828125 275.003906 298.789062 274.625 298.714844 274.246094 C 298.640625 273.867188 298.53125 273.503906 298.382812 273.148438 C 298.234375 272.792969 298.054688 272.453125 297.839844 272.132812 C 297.625 271.8125 297.382812 271.519531 297.113281 271.246094 C 296.839844 270.972656 296.542969 270.730469 296.222656 270.515625 C 295.902344 270.304688 295.566406 270.121094 295.210938 269.976562 C 294.855469 269.828125 294.488281 269.71875 294.113281 269.640625 C 293.734375 269.566406 293.351562 269.53125 292.96875 269.53125 L 287.109375 269.53125 C 286.726562 269.53125 286.34375 269.566406 285.964844 269.640625 C 285.589844 269.71875 285.222656 269.828125 284.867188 269.976562 C 284.511719 270.121094 284.175781 270.304688 283.855469 270.515625 C 283.535156 270.730469 283.238281 270.972656 282.964844 271.246094 C 282.695312 271.519531 282.453125 271.8125 282.238281 272.132812 C 282.023438 272.453125 281.84375 272.792969 281.695312 273.148438 C 281.546875 273.503906 281.4375 273.867188 281.363281 274.246094 C 281.289062 274.625 281.25 275.003906 281.25 275.390625 C 281.25 275.773438 281.289062 276.15625 281.363281 276.53125 C 281.4375 276.910156 281.546875 277.277344 281.695312 277.632812 C 281.84375 277.988281 282.023438 278.324219 282.238281 278.644531 C 282.453125 278.964844 282.695312 279.261719 282.964844 279.53125 C 283.238281 279.804688 283.535156 280.046875 283.855469 280.261719 C 284.175781 280.476562 284.511719 280.65625 284.867188 280.800781 C 285.222656 280.949219 285.589844 281.0625 285.964844 281.136719 C 286.34375 281.210938 286.726562 281.25 287.109375 281.25 Z M 287.109375 281.25 " fill-opacity="1" fill-rule="nonzero"/></svg>