<svg xmlns="http://www.w3.org/2000/svg" xmlns:xlink="http://www.w3.org/1999/xlink" width="500" zoomAndPan="magnify" viewBox="0 0 375 374.999991" height="500" preserveAspectRatio="xMidYMid meet" version="1.0"><defs><clipPath id="af72cb7429"><path d="M 188 177 L 371 177 L 371 371.59375 L 188 371.59375 Z M 188 177 " clip-rule="nonzero"/></clipPath></defs><path fill="#6abded" d="M 279.714844 79.714844 C 311.054688 79.714844 333.464844 99.515625 340.0625 132.800781 C 332.730469 124.109375 312.242188 104.027344 279.714844 104.027344 L 267.5625 104.027344 C 264.214844 104.027344 261.484375 106.757812 261.484375 110.101562 L 261.53125 128.003906 C 261.433594 128.121094 260.199219 128.527344 259.75 128.027344 L 225.253906 91.871094 L 259.726562 55.738281 C 259.917969 55.546875 260.25 55.429688 260.628906 55.429688 C 261.199219 55.429688 261.484375 55.691406 261.484375 55.617188 L 261.484375 73.636719 C 261.484375 77.007812 264.214844 79.714844 267.5625 79.714844 Z M 220.507812 95.714844 L 224.875 91.46875 C 224.875 91.46875 224.898438 91.492188 224.898438 91.515625 Z M 260.628906 43.273438 C 256.902344 43.273438 253.457031 44.722656 250.941406 47.332031 L 216.164062 83.800781 C 211.769531 88.332031 211.769531 95.40625 216.136719 99.917969 L 250.941406 136.40625 C 253.433594 139.042969 256.878906 140.46875 260.628906 140.46875 C 267.796875 140.46875 273.636719 134.960938 273.636719 128.144531 L 273.636719 116.179688 L 279.714844 116.179688 C 309.367188 116.179688 327.246094 136.050781 331.992188 142.152344 C 334.273438 145.050781 337.570312 146.59375 340.992188 146.59375 C 342.558594 146.59375 344.148438 146.261719 345.691406 145.59375 C 350.652344 143.386719 353.359375 138.308594 352.433594 132.941406 C 344.078125 84.75 309.390625 67.558594 279.714844 67.558594 L 273.636719 67.558594 L 273.636719 55.617188 C 273.636719 48.804688 267.796875 43.273438 260.628906 43.273438 " fill-opacity="1" fill-rule="nonzero"/><path fill="#6abded" d="M 97.339844 298.554688 C 66.003906 298.554688 43.59375 278.757812 36.992188 245.472656 C 44.328125 254.160156 64.816406 274.246094 97.339844 274.246094 L 109.496094 274.246094 C 112.84375 274.246094 115.574219 271.515625 115.574219 268.167969 L 115.527344 250.269531 C 115.621094 250.148438 116.855469 249.746094 117.304688 250.246094 L 151.800781 286.402344 L 117.332031 322.535156 C 116.902344 322.984375 115.714844 322.652344 115.597656 322.652344 C 115.574219 322.652344 115.574219 322.652344 115.574219 322.652344 L 115.574219 304.632812 C 115.574219 301.261719 112.84375 298.554688 109.496094 298.554688 Z M 156.550781 282.554688 L 152.179688 286.804688 C 152.179688 286.804688 152.15625 286.78125 152.15625 286.757812 Z M 116.429688 335 C 120.15625 335 123.597656 333.550781 126.113281 330.9375 L 160.894531 294.472656 C 165.285156 289.9375 165.285156 282.863281 160.917969 278.351562 L 126.113281 241.863281 C 123.621094 239.230469 120.179688 237.804688 116.429688 237.804688 C 109.257812 237.804688 103.417969 243.3125 103.417969 250.125 L 103.417969 262.089844 L 97.339844 262.089844 C 67.6875 262.089844 49.8125 242.21875 45.0625 236.117188 C 41.738281 231.894531 36.257812 230.539062 31.339844 232.675781 C 26.402344 234.882812 23.671875 239.964844 24.625 245.328125 C 32.980469 293.523438 67.664062 310.6875 97.339844 310.6875 L 103.417969 310.6875 L 103.417969 322.652344 C 103.417969 329.464844 109.257812 335 116.429688 335 " fill-opacity="1" fill-rule="nonzero"/><path fill="#6abded" d="M 18.355469 176.980469 C 18.355469 173.632812 21.085938 170.902344 24.433594 170.902344 L 170.296875 170.902344 C 173.644531 170.902344 176.371094 173.632812 176.371094 176.980469 L 176.398438 189.136719 L 18.355469 189.136719 Z M 42.664062 97.972656 L 42.664062 158.746094 L 30.511719 158.746094 L 30.511719 97.972656 Z M 18.355469 77.816406 L 94.015625 20.101562 C 94.988281 19.34375 96.175781 18.964844 97.363281 18.964844 C 98.550781 18.964844 99.738281 19.34375 100.710938 20.101562 L 176.371094 77.816406 L 176.398438 85.816406 L 18.355469 85.816406 Z M 115.597656 97.972656 L 139.90625 97.972656 L 139.90625 158.746094 L 115.597656 158.746094 Z M 91.285156 97.972656 L 103.441406 97.972656 L 103.441406 158.746094 L 91.285156 158.746094 Z M 79.132812 97.972656 L 79.132812 158.746094 L 54.820312 158.746094 L 54.820312 97.972656 Z M 164.21875 158.746094 L 152.0625 158.746094 L 152.0625 97.972656 L 164.21875 97.972656 Z M 18.355469 201.292969 L 176.371094 201.292969 C 183.066406 201.292969 188.527344 195.832031 188.527344 189.136719 L 188.527344 176.980469 C 188.527344 169.074219 183.425781 162.378906 176.371094 159.863281 L 176.371094 97.972656 C 183.066406 97.972656 188.527344 92.511719 188.527344 85.816406 L 188.527344 77.816406 C 188.527344 74.042969 186.746094 70.433594 183.757812 68.152344 L 108.09375 10.441406 C 101.78125 5.621094 92.949219 5.621094 86.632812 10.441406 L 10.996094 68.152344 C 8.003906 70.433594 6.199219 74.042969 6.199219 77.816406 L 6.199219 85.816406 C 6.199219 92.511719 11.660156 97.972656 18.355469 97.972656 L 18.355469 159.863281 C 11.304688 162.378906 6.199219 169.074219 6.199219 176.980469 L 6.199219 189.136719 C 6.199219 195.832031 11.660156 201.292969 18.355469 201.292969 " fill-opacity="1" fill-rule="nonzero"/><g clip-path="url(#af72cb7429)"><path fill="#6abded" d="M 200.683594 255.988281 L 200.683594 247.988281 L 276.34375 190.277344 C 277.316406 189.515625 278.503906 189.136719 279.691406 189.136719 C 280.878906 189.136719 282.066406 189.515625 283.039062 190.277344 L 358.699219 247.988281 L 358.722656 255.988281 Z M 346.546875 328.921875 L 334.390625 328.921875 L 334.390625 268.144531 L 346.546875 268.144531 Z M 200.683594 359.308594 L 200.683594 347.152344 C 200.683594 343.804688 203.414062 341.074219 206.761719 341.074219 L 352.625 341.074219 C 355.96875 341.074219 358.699219 343.804688 358.699219 347.152344 L 358.722656 359.308594 Z M 261.460938 328.921875 L 237.148438 328.921875 L 237.148438 268.144531 L 261.460938 268.144531 Z M 285.769531 328.921875 L 273.613281 328.921875 L 273.613281 268.144531 L 285.769531 268.144531 Z M 297.925781 328.921875 L 297.925781 268.144531 L 322.234375 268.144531 L 322.234375 328.921875 Z M 224.992188 268.144531 L 224.992188 328.921875 L 212.839844 328.921875 L 212.839844 268.144531 Z M 366.085938 238.328125 L 290.421875 180.613281 C 284.109375 175.792969 275.277344 175.792969 268.960938 180.613281 L 193.324219 238.328125 C 190.308594 240.605469 188.527344 244.214844 188.527344 247.988281 L 188.527344 255.988281 C 188.527344 262.683594 193.988281 268.144531 200.683594 268.144531 L 200.683594 330.035156 C 193.632812 332.554688 188.527344 339.246094 188.527344 347.152344 L 188.527344 359.308594 C 188.527344 366.003906 193.988281 371.464844 200.683594 371.464844 L 358.699219 371.464844 C 365.394531 371.464844 370.855469 366.003906 370.855469 359.308594 L 370.855469 347.152344 C 370.855469 339.246094 365.75 332.554688 358.699219 330.035156 L 358.699219 268.144531 C 365.394531 268.144531 370.855469 262.683594 370.855469 255.988281 L 370.855469 247.988281 C 370.855469 244.214844 369.074219 240.605469 366.085938 238.328125 " fill-opacity="1" fill-rule="nonzero"/></g></svg>